M48
;GenerationSoftware,Autodesk,EAGLE,9.6.2*%
;CreationDate,2022-05-18T20:10:30Z*%
FMAT,2
ICI,OFF
METRIC,TZ,000.000
T5C0.600
T4C0.813
T3C0.914
T2C1.016
T1C3.213
%
G90
M71
T1
X105410Y45720
X2540Y45720
X2540Y2540
X105410Y2540
T2
X91440Y2540
X91440Y45720
X88900Y45720
X8890Y45720
X11430Y45720
X13970Y45720
X90805Y25400
X90805Y22860
X53340Y2540
X50800Y2540
X48260Y2540
X45720Y2540
X43180Y2540
X40640Y2540
X40640Y45720
X13970Y2540
X45720Y45720
X48260Y45720
X50800Y45720
X53340Y45720
X43180Y45720
X11430Y2540
X8890Y2540
X88900Y2540
T3
X103505Y23495
X100965Y23495
X103505Y26035
X100965Y26035
X103505Y28575
X100965Y28575
X100965Y20955
X103505Y20955
X100965Y18415
X103505Y18415
T4
X24765Y38100
X34290Y24765
X34290Y27305
X88900Y33655
X81280Y33655
X81280Y36195
X88900Y36195
X16510Y30480
X24130Y30480
X27305Y33020
X34925Y33020
X46990Y35560
X39370Y35560
X39370Y30480
X46990Y30480
X92710Y41275
X85090Y41275
X73660Y28575
X66040Y28575
X22225Y35560
X14605Y35560
X27305Y45720
X34925Y45720
X39370Y38100
X46990Y38100
X17145Y45720
X24765Y45720
X39370Y33020
X46990Y33020
X39370Y27940
X46990Y27940
X92710Y38735
X85090Y38735
X17145Y43180
X24765Y43180
X23495Y33020
X15875Y33020
X57150Y38735
X49530Y38735
X57150Y36195
X49530Y36195
X57150Y33655
X49530Y33655
X29210Y25400
X21590Y25400
X6350Y31115
X13970Y31115
X21590Y27940
X29210Y27940
X88900Y31115
X81280Y31115
X21590Y20320
X29210Y20320
X29210Y22860
X21590Y22860
X88900Y28575
X81280Y28575
X66040Y31115
X73660Y31115
X66040Y36195
X73660Y36195
X66040Y33655
X73660Y33655
X66040Y38735
X73660Y38735
X66040Y26035
X73660Y26035
X12065Y40640
X6985Y40640
X9525Y40640
X56515Y31115
X56515Y26035
X56515Y28575
X61595Y33655
X61595Y38735
X61595Y36195
X93345Y31115
X93345Y36195
X93345Y33655
X76835Y26035
X76835Y31115
X76835Y28575
X76835Y33655
X76835Y38735
X76835Y36195
X61595Y31115
X61595Y26035
X61595Y28575
X51435Y26035
X51435Y31115
X51435Y28575
X17145Y38735
X22225Y38735
X19685Y38735
X6985Y35560
X12065Y35560
X9525Y35560
X24765Y35560
X19050Y22860
X16510Y27940
X13970Y27940
X16510Y20320
X13970Y20320
X8890Y27940
X11430Y27940
X11430Y20320
X8890Y20320
X103505Y39370
X103505Y36830
X103505Y10160
X103505Y7620
X27305Y30480
X34925Y30480
X31750Y17780
X19050Y25400
X36830Y20320
X34290Y20320
X86360Y5715
X93980Y5715
X86360Y13335
X93980Y13335
X93980Y10795
X86360Y10795
X97790Y11430
X97790Y6350
X97790Y8890
X86360Y8255
X93980Y8255
X93980Y15875
X86360Y15875
X93980Y18415
X86360Y18415
X82550Y22860
X82550Y17780
X82550Y20320
X71755Y15240
X79375Y15240
X79375Y12700
X71755Y12700
X71755Y10160
X79375Y10160
X79375Y17780
X71755Y17780
X82550Y15240
X82550Y10160
X82550Y12700
X71755Y20320
X79375Y20320
X79375Y22860
X71755Y22860
X68580Y7620
X68580Y12700
X68580Y10160
X39370Y6985
X31750Y6985
X49530Y20320
X41910Y20320
X49530Y10160
X41910Y10160
X49530Y7620
X41910Y7620
X52070Y7620
X59690Y7620
X41910Y12700
X49530Y12700
X61595Y20320
X69215Y20320
X69215Y22860
X61595Y22860
X63500Y12700
X63500Y7620
X63500Y10160
X69215Y17780
X61595Y17780
X69215Y15240
X61595Y15240
X66040Y3175
X71120Y3175
X68580Y3175
X64135Y3175
X56515Y3175
X78740Y3175
X73660Y3175
X76200Y3175
X82550Y2540
X82550Y7620
X82550Y5080
X71755Y7620
X79375Y7620
X53340Y15240
X53340Y10160
X53340Y12700
X53340Y17780
X53340Y22860
X53340Y20320
X57785Y10160
X57785Y17780
X49530Y15240
X41910Y15240
X49530Y17780
X41910Y17780
X25400Y6985
X25400Y9525
X29210Y17780
X21590Y17780
X13970Y10160
X13970Y17780
X21590Y12700
X29210Y12700
X11430Y10160
X11430Y17780
X8890Y17780
X8890Y10160
X29210Y15240
X21590Y15240
X31750Y15240
X39370Y17780
X39370Y15240
X31750Y10160
X31750Y12700
X39370Y12700
X39370Y10160
X34925Y35560
X34925Y38100
X27305Y35560
X27305Y38100
X34925Y43180
X34925Y40640
X27305Y40640
X27305Y43180
T5
X45720Y26035
X58420Y21590
X36195Y17780
X34290Y2540
X95250Y22860
X60325Y5715
X74613Y21907
X77153Y14922
X10795Y30797
X31115Y36830
X29210Y30480
X36830Y30480
X11430Y24765
X37465Y40005
X3175Y26035
X45085Y40005
X73660Y8890
X46355Y20320
X59055Y13970
X45085Y41910
X37465Y41910
X45085Y17780
X45085Y8255
X45720Y22860
X60325Y1270
X98425Y3810
X92075Y28575
X95885Y41275
X73660Y42545
X55880Y42545
X5080Y38100
X5715Y5715
X57150Y6350
X46990Y6985
X3175Y22860
M30