M48
;GenerationSoftware,Autodesk,EAGLE,9.6.2*%
;CreationDate,2022-05-18T20:10:27Z*%
FMAT,2
ICI,OFF
METRIC,TZ,000.000
T7C0.600
T6C1.016
T5C1.100
T4C1.500
T3C2.100
T2C2.500
T1C3.213
%
G90
M71
T1
X2540Y2540
X2540Y45720
X105410Y45720
X105410Y2540
T2
X72089Y36830
X97489Y36830
X105535Y36830
X80135Y36830
X102735Y32111
X84789Y36830
X92835Y36830
X77335Y32111
X97489Y11430
X105535Y11430
X102735Y6711
X84789Y11430
X92835Y11430
X90035Y6711
X72089Y11430
X80135Y11430
X77335Y6711
X90035Y32111
T3
X59690Y41330
X41910Y41330
X41910Y15930
X41910Y6930
X59690Y15930
X59690Y6930
X6350Y15930
X6350Y6930
X6350Y41330
X6350Y32330
X24130Y15930
X59690Y32330
X24130Y41330
X24130Y32330
X24130Y6930
X41910Y32330
T4
X102835Y41576
X77435Y41576
X90135Y41576
X102835Y16176
X90135Y16176
X77435Y16176
T5
X48910Y39330
X48910Y11430
X48910Y36830
X66690Y34330
X66690Y36830
X66690Y39330
X48910Y34330
X31130Y39330
X31130Y36830
X31130Y34330
X31130Y13930
X31130Y11430
X31130Y8930
X48910Y8930
X13350Y36830
X13350Y34330
X13350Y13930
X66690Y13930
X13350Y11430
X13350Y8930
X66690Y11430
X66690Y8930
X48910Y13930
X13350Y39330
T6
X90805Y22860
X8890Y2540
X90805Y25400
X13970Y45720
X11430Y45720
X8890Y45720
X88900Y45720
X91440Y45720
X53340Y2540
X50800Y2540
X48260Y2540
X45720Y2540
X43180Y2540
X40640Y2540
X13970Y2540
X11430Y2540
X53340Y45720
X88900Y2540
X91440Y2540
X40640Y45720
X43180Y45720
X45720Y45720
X48260Y45720
X50800Y45720
T7
X39370Y22225
X29210Y44450
X30480Y3175
X68580Y3175
X67945Y44450
X71120Y29210
X100965Y26035
X6350Y24130
M30