G04 EAGLE Gerber RS-274X export*
G75*
%MOMM*%
%FSLAX34Y34*%
%LPD*%
%INBottom Copper*%
%IPPOS*%
%AMOC8*
5,1,8,0,0,1.08239X$1,22.5*%
G01*
%ADD10R,1.676400X1.676400*%
%ADD11P,1.814519X8X22.500000*%
%ADD12R,3.116000X3.116000*%
%ADD13P,4.058962X8X202.500000*%
%ADD14P,4.058962X8X112.500000*%
%ADD15C,1.524000*%
%ADD16C,0.406400*%
%ADD17R,1.006400X1.006400*%

G36*
X78581Y10162D02*
X78581Y10162D01*
X78595Y10161D01*
X78781Y10182D01*
X78969Y10201D01*
X78981Y10205D01*
X78995Y10206D01*
X79174Y10264D01*
X79354Y10319D01*
X79365Y10325D01*
X79378Y10329D01*
X79543Y10421D01*
X79708Y10511D01*
X79718Y10519D01*
X79730Y10526D01*
X79872Y10648D01*
X80017Y10768D01*
X80025Y10779D01*
X80035Y10787D01*
X80151Y10935D01*
X80269Y11082D01*
X80275Y11094D01*
X80284Y11104D01*
X80368Y11273D01*
X80455Y11439D01*
X80458Y11452D01*
X80464Y11464D01*
X80514Y11645D01*
X80566Y11826D01*
X80567Y11840D01*
X80571Y11853D01*
X80584Y12041D01*
X80599Y12228D01*
X80597Y12241D01*
X80598Y12254D01*
X80574Y12442D01*
X80552Y12627D01*
X80548Y12640D01*
X80546Y12653D01*
X80445Y12969D01*
X79247Y15860D01*
X79247Y34940D01*
X80717Y38488D01*
X83432Y41203D01*
X86980Y42673D01*
X90820Y42673D01*
X94368Y41203D01*
X97083Y38488D01*
X98553Y34940D01*
X98553Y15860D01*
X97355Y12969D01*
X97351Y12956D01*
X97345Y12945D01*
X97294Y12765D01*
X97239Y12584D01*
X97238Y12571D01*
X97234Y12558D01*
X97219Y12370D01*
X97201Y12183D01*
X97202Y12170D01*
X97201Y12156D01*
X97223Y11970D01*
X97242Y11783D01*
X97246Y11770D01*
X97248Y11757D01*
X97306Y11578D01*
X97362Y11398D01*
X97369Y11387D01*
X97373Y11374D01*
X97466Y11209D01*
X97556Y11045D01*
X97564Y11035D01*
X97571Y11023D01*
X97694Y10881D01*
X97815Y10737D01*
X97825Y10729D01*
X97834Y10718D01*
X97982Y10603D01*
X98130Y10486D01*
X98141Y10480D01*
X98152Y10472D01*
X98321Y10388D01*
X98488Y10302D01*
X98500Y10298D01*
X98513Y10292D01*
X98695Y10243D01*
X98875Y10192D01*
X98888Y10191D01*
X98901Y10188D01*
X99232Y10161D01*
X103968Y10161D01*
X103981Y10162D01*
X103995Y10161D01*
X104181Y10182D01*
X104369Y10201D01*
X104381Y10205D01*
X104395Y10206D01*
X104574Y10264D01*
X104754Y10319D01*
X104765Y10325D01*
X104778Y10329D01*
X104943Y10421D01*
X105108Y10511D01*
X105118Y10519D01*
X105130Y10526D01*
X105272Y10648D01*
X105417Y10768D01*
X105425Y10779D01*
X105435Y10787D01*
X105551Y10935D01*
X105669Y11082D01*
X105675Y11094D01*
X105684Y11104D01*
X105768Y11273D01*
X105855Y11439D01*
X105858Y11452D01*
X105864Y11464D01*
X105914Y11645D01*
X105966Y11826D01*
X105967Y11840D01*
X105971Y11853D01*
X105984Y12041D01*
X105999Y12228D01*
X105997Y12241D01*
X105998Y12254D01*
X105974Y12442D01*
X105952Y12627D01*
X105948Y12640D01*
X105946Y12653D01*
X105845Y12969D01*
X104647Y15860D01*
X104647Y34940D01*
X106117Y38488D01*
X108832Y41203D01*
X108981Y41265D01*
X109001Y41275D01*
X109022Y41282D01*
X109178Y41371D01*
X109336Y41455D01*
X109353Y41469D01*
X109373Y41480D01*
X109508Y41597D01*
X109647Y41712D01*
X109661Y41729D01*
X109678Y41743D01*
X109787Y41885D01*
X109900Y42024D01*
X109911Y42044D01*
X109924Y42062D01*
X110004Y42222D01*
X110087Y42381D01*
X110094Y42402D01*
X110104Y42422D01*
X110150Y42595D01*
X110200Y42767D01*
X110202Y42789D01*
X110208Y42811D01*
X110235Y43142D01*
X110235Y48275D01*
X110233Y48302D01*
X110235Y48328D01*
X110213Y48502D01*
X110195Y48676D01*
X110188Y48701D01*
X110184Y48728D01*
X110129Y48893D01*
X110077Y49060D01*
X110064Y49084D01*
X110056Y49109D01*
X109969Y49261D01*
X109885Y49415D01*
X109868Y49435D01*
X109855Y49458D01*
X109640Y49711D01*
X98154Y61198D01*
X97535Y62691D01*
X97535Y184959D01*
X98154Y186452D01*
X118348Y206646D01*
X119841Y207265D01*
X911474Y207265D01*
X911523Y207270D01*
X911587Y207268D01*
X912292Y207307D01*
X912350Y207292D01*
X912378Y207289D01*
X912401Y207284D01*
X912407Y207284D01*
X913042Y207020D01*
X913089Y207006D01*
X913149Y206980D01*
X913815Y206747D01*
X913862Y206710D01*
X913887Y206697D01*
X913906Y206684D01*
X913911Y206681D01*
X914398Y206195D01*
X914436Y206164D01*
X914481Y206117D01*
X973486Y153365D01*
X973628Y153262D01*
X973768Y153155D01*
X973793Y153142D01*
X973812Y153128D01*
X973817Y153126D01*
X974304Y152639D01*
X974342Y152608D01*
X974386Y152561D01*
X974913Y152090D01*
X974942Y152038D01*
X974961Y152017D01*
X974973Y151997D01*
X974977Y151993D01*
X975240Y151357D01*
X975263Y151314D01*
X975286Y151254D01*
X975593Y150617D01*
X975600Y150558D01*
X975609Y150531D01*
X975613Y150508D01*
X975615Y150503D01*
X975615Y149815D01*
X975620Y149766D01*
X975618Y149701D01*
X975657Y148996D01*
X975642Y148939D01*
X975639Y148910D01*
X975634Y148888D01*
X975631Y148805D01*
X975615Y148608D01*
X975615Y137114D01*
X975617Y137096D01*
X975615Y137078D01*
X975636Y136896D01*
X975655Y136713D01*
X975660Y136696D01*
X975662Y136679D01*
X975719Y136504D01*
X975773Y136328D01*
X975781Y136313D01*
X975787Y136296D01*
X975877Y136136D01*
X975965Y135974D01*
X975976Y135961D01*
X975985Y135945D01*
X976105Y135806D01*
X976222Y135665D01*
X976236Y135654D01*
X976248Y135640D01*
X976393Y135528D01*
X976536Y135413D01*
X976552Y135405D01*
X976566Y135394D01*
X976731Y135312D01*
X976893Y135227D01*
X976910Y135222D01*
X976926Y135214D01*
X977105Y135167D01*
X977280Y135116D01*
X977298Y135114D01*
X977315Y135110D01*
X977646Y135083D01*
X983498Y135083D01*
X995673Y122908D01*
X995673Y105692D01*
X983498Y93517D01*
X966282Y93517D01*
X954107Y105692D01*
X954107Y122908D01*
X966820Y135621D01*
X966903Y135690D01*
X966914Y135704D01*
X966928Y135716D01*
X967040Y135861D01*
X967155Y136004D01*
X967163Y136020D01*
X967174Y136034D01*
X967256Y136199D01*
X967341Y136361D01*
X967346Y136378D01*
X967354Y136394D01*
X967401Y136573D01*
X967452Y136748D01*
X967454Y136766D01*
X967458Y136783D01*
X967485Y137114D01*
X967485Y146917D01*
X967477Y147000D01*
X967478Y147084D01*
X967457Y147200D01*
X967445Y147318D01*
X967421Y147398D01*
X967406Y147480D01*
X967362Y147590D01*
X967327Y147703D01*
X967287Y147776D01*
X967256Y147854D01*
X967192Y147953D01*
X967135Y148057D01*
X967082Y148121D01*
X967036Y148191D01*
X966933Y148300D01*
X966878Y148366D01*
X966845Y148392D01*
X966808Y148432D01*
X910670Y198618D01*
X910532Y198719D01*
X910397Y198824D01*
X910370Y198838D01*
X910345Y198856D01*
X910190Y198927D01*
X910036Y199004D01*
X910007Y199011D01*
X909979Y199024D01*
X909813Y199064D01*
X909647Y199108D01*
X909614Y199111D01*
X909588Y199117D01*
X909503Y199120D01*
X909317Y199135D01*
X123175Y199135D01*
X123148Y199133D01*
X123122Y199135D01*
X122948Y199113D01*
X122774Y199095D01*
X122749Y199088D01*
X122722Y199084D01*
X122557Y199029D01*
X122390Y198977D01*
X122366Y198964D01*
X122341Y198956D01*
X122189Y198869D01*
X122035Y198785D01*
X122015Y198768D01*
X121992Y198755D01*
X121739Y198540D01*
X106260Y183061D01*
X106243Y183041D01*
X106222Y183023D01*
X106115Y182885D01*
X106005Y182750D01*
X105992Y182726D01*
X105976Y182705D01*
X105898Y182548D01*
X105816Y182394D01*
X105808Y182369D01*
X105796Y182344D01*
X105751Y182175D01*
X105701Y182008D01*
X105699Y181982D01*
X105692Y181956D01*
X105665Y181625D01*
X105665Y66025D01*
X105667Y65998D01*
X105665Y65972D01*
X105687Y65798D01*
X105705Y65624D01*
X105712Y65599D01*
X105716Y65572D01*
X105771Y65407D01*
X105823Y65240D01*
X105836Y65216D01*
X105844Y65191D01*
X105931Y65039D01*
X106015Y64885D01*
X106032Y64865D01*
X106045Y64842D01*
X106260Y64589D01*
X117746Y53102D01*
X118365Y51609D01*
X118365Y43142D01*
X118367Y43119D01*
X118365Y43097D01*
X118387Y42920D01*
X118405Y42741D01*
X118411Y42720D01*
X118414Y42697D01*
X118470Y42528D01*
X118523Y42356D01*
X118533Y42336D01*
X118540Y42315D01*
X118629Y42160D01*
X118715Y42002D01*
X118729Y41985D01*
X118740Y41966D01*
X118857Y41831D01*
X118972Y41693D01*
X118990Y41679D01*
X119004Y41662D01*
X119146Y41553D01*
X119286Y41440D01*
X119306Y41430D01*
X119324Y41417D01*
X119619Y41265D01*
X119768Y41203D01*
X122483Y38488D01*
X123953Y34940D01*
X123953Y15860D01*
X122755Y12969D01*
X122751Y12956D01*
X122745Y12945D01*
X122694Y12765D01*
X122639Y12584D01*
X122638Y12571D01*
X122634Y12558D01*
X122619Y12370D01*
X122601Y12183D01*
X122602Y12170D01*
X122601Y12156D01*
X122623Y11970D01*
X122642Y11783D01*
X122646Y11770D01*
X122648Y11757D01*
X122706Y11578D01*
X122762Y11398D01*
X122769Y11387D01*
X122773Y11374D01*
X122866Y11209D01*
X122956Y11045D01*
X122964Y11035D01*
X122971Y11023D01*
X123094Y10881D01*
X123215Y10737D01*
X123225Y10729D01*
X123234Y10718D01*
X123382Y10603D01*
X123530Y10486D01*
X123541Y10480D01*
X123552Y10472D01*
X123721Y10388D01*
X123888Y10302D01*
X123900Y10298D01*
X123913Y10292D01*
X124095Y10243D01*
X124275Y10192D01*
X124288Y10191D01*
X124301Y10188D01*
X124632Y10161D01*
X129368Y10161D01*
X129381Y10162D01*
X129395Y10161D01*
X129581Y10182D01*
X129769Y10201D01*
X129781Y10205D01*
X129795Y10206D01*
X129974Y10264D01*
X130154Y10319D01*
X130165Y10325D01*
X130178Y10329D01*
X130343Y10421D01*
X130508Y10511D01*
X130518Y10519D01*
X130530Y10526D01*
X130672Y10648D01*
X130817Y10768D01*
X130825Y10779D01*
X130835Y10787D01*
X130951Y10935D01*
X131069Y11082D01*
X131075Y11094D01*
X131084Y11104D01*
X131168Y11273D01*
X131255Y11439D01*
X131258Y11452D01*
X131264Y11464D01*
X131314Y11645D01*
X131366Y11826D01*
X131367Y11840D01*
X131371Y11853D01*
X131384Y12041D01*
X131399Y12228D01*
X131397Y12241D01*
X131398Y12254D01*
X131374Y12442D01*
X131352Y12627D01*
X131348Y12640D01*
X131346Y12653D01*
X131245Y12969D01*
X130047Y15860D01*
X130047Y34940D01*
X131517Y38488D01*
X134232Y41203D01*
X134381Y41265D01*
X134401Y41275D01*
X134422Y41282D01*
X134578Y41371D01*
X134736Y41455D01*
X134753Y41469D01*
X134773Y41480D01*
X134908Y41597D01*
X135047Y41712D01*
X135061Y41729D01*
X135078Y41743D01*
X135187Y41885D01*
X135300Y42024D01*
X135311Y42044D01*
X135324Y42062D01*
X135404Y42222D01*
X135487Y42381D01*
X135494Y42402D01*
X135504Y42422D01*
X135550Y42595D01*
X135600Y42767D01*
X135602Y42789D01*
X135608Y42811D01*
X135635Y43142D01*
X135635Y76854D01*
X135633Y76872D01*
X135635Y76890D01*
X135614Y77072D01*
X135595Y77255D01*
X135590Y77272D01*
X135588Y77289D01*
X135531Y77464D01*
X135477Y77640D01*
X135469Y77655D01*
X135463Y77672D01*
X135373Y77832D01*
X135285Y77994D01*
X135274Y78007D01*
X135265Y78023D01*
X135145Y78162D01*
X135028Y78303D01*
X135014Y78314D01*
X135002Y78328D01*
X134857Y78440D01*
X134714Y78555D01*
X134698Y78563D01*
X134684Y78574D01*
X134519Y78656D01*
X134357Y78741D01*
X134340Y78746D01*
X134324Y78754D01*
X134145Y78801D01*
X133970Y78852D01*
X133952Y78854D01*
X133935Y78858D01*
X133604Y78885D01*
X124276Y78885D01*
X123085Y80076D01*
X123085Y93061D01*
X123082Y93092D01*
X123084Y93123D01*
X123062Y93292D01*
X123045Y93462D01*
X123036Y93491D01*
X123032Y93522D01*
X122977Y93683D01*
X122927Y93847D01*
X122913Y93874D01*
X122903Y93903D01*
X122817Y94051D01*
X122735Y94201D01*
X122716Y94224D01*
X122700Y94251D01*
X122485Y94503D01*
X112289Y104619D01*
X112267Y104637D01*
X112248Y104659D01*
X112226Y104676D01*
X111438Y105464D01*
X111435Y105466D01*
X111432Y105470D01*
X110857Y106040D01*
X110550Y106782D01*
X110548Y106785D01*
X110547Y106789D01*
X110235Y107533D01*
X110235Y108338D01*
X110235Y108342D01*
X110235Y108346D01*
X110231Y109495D01*
X110235Y109550D01*
X110235Y170759D01*
X110854Y172253D01*
X126197Y187596D01*
X127691Y188215D01*
X663713Y188215D01*
X665207Y187596D01*
X689246Y163557D01*
X689865Y162063D01*
X689865Y94441D01*
X689246Y92948D01*
X681752Y85454D01*
X680259Y84835D01*
X679346Y84835D01*
X679328Y84833D01*
X679310Y84835D01*
X679128Y84814D01*
X678945Y84795D01*
X678928Y84790D01*
X678911Y84788D01*
X678736Y84731D01*
X678560Y84677D01*
X678545Y84669D01*
X678528Y84663D01*
X678368Y84573D01*
X678206Y84485D01*
X678193Y84474D01*
X678177Y84465D01*
X678038Y84345D01*
X677897Y84228D01*
X677886Y84214D01*
X677872Y84202D01*
X677760Y84057D01*
X677645Y83914D01*
X677637Y83898D01*
X677626Y83884D01*
X677544Y83719D01*
X677459Y83557D01*
X677454Y83540D01*
X677446Y83524D01*
X677399Y83345D01*
X677348Y83170D01*
X677346Y83152D01*
X677342Y83135D01*
X677315Y82804D01*
X677315Y80076D01*
X676124Y78885D01*
X657676Y78885D01*
X656485Y80076D01*
X656485Y98524D01*
X657676Y99715D01*
X676124Y99715D01*
X677315Y98524D01*
X677315Y97417D01*
X677316Y97408D01*
X677315Y97399D01*
X677336Y97208D01*
X677355Y97016D01*
X677357Y97008D01*
X677358Y96999D01*
X677416Y96816D01*
X677473Y96631D01*
X677477Y96623D01*
X677480Y96615D01*
X677573Y96446D01*
X677665Y96277D01*
X677670Y96271D01*
X677675Y96263D01*
X677800Y96114D01*
X677922Y95968D01*
X677929Y95963D01*
X677935Y95956D01*
X678088Y95835D01*
X678236Y95716D01*
X678244Y95712D01*
X678251Y95706D01*
X678424Y95618D01*
X678593Y95530D01*
X678602Y95528D01*
X678610Y95524D01*
X678796Y95472D01*
X678980Y95419D01*
X678989Y95418D01*
X678998Y95416D01*
X679190Y95402D01*
X679382Y95386D01*
X679390Y95387D01*
X679399Y95386D01*
X679591Y95411D01*
X679781Y95433D01*
X679790Y95436D01*
X679799Y95437D01*
X679980Y95498D01*
X680164Y95558D01*
X680172Y95562D01*
X680180Y95565D01*
X680346Y95661D01*
X680515Y95756D01*
X680522Y95762D01*
X680529Y95766D01*
X680782Y95981D01*
X681140Y96339D01*
X681157Y96359D01*
X681178Y96377D01*
X681285Y96515D01*
X681395Y96650D01*
X681408Y96674D01*
X681424Y96695D01*
X681502Y96851D01*
X681584Y97006D01*
X681592Y97032D01*
X681604Y97056D01*
X681649Y97225D01*
X681699Y97392D01*
X681701Y97418D01*
X681708Y97444D01*
X681735Y97775D01*
X681735Y158730D01*
X681733Y158756D01*
X681735Y158783D01*
X681713Y158957D01*
X681695Y159130D01*
X681688Y159156D01*
X681684Y159182D01*
X681629Y159348D01*
X681577Y159515D01*
X681564Y159539D01*
X681556Y159564D01*
X681469Y159716D01*
X681385Y159869D01*
X681368Y159890D01*
X681355Y159913D01*
X681140Y160166D01*
X661816Y179490D01*
X661795Y179507D01*
X661778Y179528D01*
X661640Y179635D01*
X661505Y179745D01*
X661481Y179758D01*
X661460Y179774D01*
X661303Y179852D01*
X661149Y179934D01*
X661123Y179942D01*
X661099Y179954D01*
X660930Y179999D01*
X660763Y180049D01*
X660736Y180051D01*
X660710Y180058D01*
X660380Y180085D01*
X615053Y180085D01*
X615044Y180084D01*
X615036Y180085D01*
X614844Y180064D01*
X614653Y180045D01*
X614644Y180043D01*
X614635Y180042D01*
X614453Y179984D01*
X614268Y179927D01*
X614260Y179923D01*
X614251Y179920D01*
X614083Y179827D01*
X613914Y179735D01*
X613907Y179730D01*
X613899Y179725D01*
X613751Y179600D01*
X613604Y179478D01*
X613599Y179471D01*
X613592Y179465D01*
X613471Y179312D01*
X613352Y179164D01*
X613348Y179156D01*
X613342Y179149D01*
X613255Y178977D01*
X613167Y178807D01*
X613164Y178798D01*
X613160Y178790D01*
X613108Y178604D01*
X613055Y178420D01*
X613055Y178411D01*
X613052Y178402D01*
X613038Y178210D01*
X613022Y178018D01*
X613023Y178010D01*
X613023Y178001D01*
X613047Y177808D01*
X613069Y177619D01*
X613072Y177610D01*
X613073Y177601D01*
X613135Y177418D01*
X613194Y177236D01*
X613199Y177228D01*
X613201Y177220D01*
X613297Y177054D01*
X613392Y176885D01*
X613398Y176878D01*
X613402Y176871D01*
X613617Y176618D01*
X614513Y175722D01*
X614513Y142878D01*
X613322Y141687D01*
X580478Y141687D01*
X579287Y142878D01*
X579287Y175722D01*
X580183Y176618D01*
X580189Y176625D01*
X580196Y176630D01*
X580317Y176781D01*
X580438Y176929D01*
X580442Y176937D01*
X580448Y176944D01*
X580536Y177114D01*
X580627Y177285D01*
X580629Y177294D01*
X580633Y177301D01*
X580686Y177486D01*
X580741Y177671D01*
X580742Y177680D01*
X580745Y177688D01*
X580760Y177879D01*
X580778Y178072D01*
X580777Y178081D01*
X580778Y178090D01*
X580755Y178279D01*
X580734Y178472D01*
X580732Y178481D01*
X580731Y178489D01*
X580671Y178671D01*
X580613Y178856D01*
X580609Y178864D01*
X580606Y178872D01*
X580512Y179039D01*
X580418Y179208D01*
X580412Y179215D01*
X580408Y179223D01*
X580283Y179368D01*
X580158Y179515D01*
X580151Y179521D01*
X580145Y179528D01*
X579994Y179644D01*
X579842Y179765D01*
X579834Y179769D01*
X579827Y179774D01*
X579656Y179859D01*
X579483Y179947D01*
X579474Y179950D01*
X579466Y179954D01*
X579281Y180003D01*
X579095Y180055D01*
X579086Y180056D01*
X579077Y180058D01*
X578747Y180085D01*
X437253Y180085D01*
X437244Y180084D01*
X437236Y180085D01*
X437044Y180064D01*
X436853Y180045D01*
X436844Y180043D01*
X436835Y180042D01*
X436653Y179984D01*
X436468Y179927D01*
X436460Y179923D01*
X436451Y179920D01*
X436283Y179827D01*
X436114Y179735D01*
X436107Y179730D01*
X436099Y179725D01*
X435951Y179600D01*
X435804Y179478D01*
X435799Y179471D01*
X435792Y179465D01*
X435671Y179312D01*
X435552Y179164D01*
X435548Y179156D01*
X435542Y179149D01*
X435455Y178977D01*
X435367Y178807D01*
X435364Y178798D01*
X435360Y178790D01*
X435308Y178604D01*
X435255Y178420D01*
X435255Y178411D01*
X435252Y178402D01*
X435238Y178210D01*
X435222Y178018D01*
X435223Y178010D01*
X435223Y178001D01*
X435247Y177808D01*
X435269Y177619D01*
X435272Y177610D01*
X435273Y177601D01*
X435335Y177418D01*
X435394Y177236D01*
X435399Y177228D01*
X435401Y177220D01*
X435497Y177054D01*
X435592Y176885D01*
X435598Y176878D01*
X435602Y176871D01*
X435817Y176618D01*
X436713Y175722D01*
X436713Y142878D01*
X435522Y141687D01*
X402678Y141687D01*
X401487Y142878D01*
X401487Y175722D01*
X402383Y176618D01*
X402389Y176625D01*
X402396Y176630D01*
X402517Y176781D01*
X402638Y176929D01*
X402642Y176937D01*
X402648Y176944D01*
X402736Y177114D01*
X402827Y177285D01*
X402829Y177294D01*
X402833Y177301D01*
X402886Y177486D01*
X402941Y177671D01*
X402942Y177680D01*
X402945Y177688D01*
X402960Y177879D01*
X402978Y178072D01*
X402977Y178081D01*
X402978Y178090D01*
X402955Y178279D01*
X402934Y178472D01*
X402932Y178481D01*
X402931Y178489D01*
X402871Y178671D01*
X402813Y178856D01*
X402809Y178864D01*
X402806Y178872D01*
X402712Y179039D01*
X402618Y179208D01*
X402612Y179215D01*
X402608Y179223D01*
X402483Y179368D01*
X402358Y179515D01*
X402351Y179521D01*
X402345Y179528D01*
X402194Y179644D01*
X402042Y179765D01*
X402034Y179769D01*
X402027Y179774D01*
X401856Y179859D01*
X401683Y179947D01*
X401674Y179950D01*
X401666Y179954D01*
X401481Y180003D01*
X401295Y180055D01*
X401286Y180056D01*
X401277Y180058D01*
X400947Y180085D01*
X291846Y180085D01*
X291828Y180083D01*
X291810Y180085D01*
X291628Y180064D01*
X291445Y180045D01*
X291428Y180040D01*
X291411Y180038D01*
X291236Y179981D01*
X291060Y179927D01*
X291045Y179919D01*
X291028Y179913D01*
X290868Y179823D01*
X290706Y179735D01*
X290693Y179724D01*
X290677Y179715D01*
X290537Y179594D01*
X290397Y179478D01*
X290386Y179464D01*
X290372Y179452D01*
X290260Y179307D01*
X290145Y179164D01*
X290137Y179148D01*
X290126Y179134D01*
X290044Y178969D01*
X289959Y178807D01*
X289954Y178790D01*
X289946Y178774D01*
X289899Y178595D01*
X289848Y178420D01*
X289846Y178402D01*
X289842Y178385D01*
X289815Y178054D01*
X289815Y105667D01*
X289817Y105641D01*
X289815Y105614D01*
X289837Y105440D01*
X289855Y105267D01*
X289862Y105241D01*
X289866Y105215D01*
X289921Y105049D01*
X289973Y104882D01*
X289986Y104858D01*
X289994Y104833D01*
X290081Y104682D01*
X290165Y104528D01*
X290182Y104507D01*
X290195Y104484D01*
X290410Y104231D01*
X297418Y97223D01*
X297425Y97217D01*
X297430Y97211D01*
X297580Y97090D01*
X297729Y96968D01*
X297737Y96964D01*
X297744Y96958D01*
X297914Y96870D01*
X298085Y96779D01*
X298094Y96777D01*
X298101Y96773D01*
X298286Y96720D01*
X298471Y96665D01*
X298480Y96664D01*
X298488Y96661D01*
X298680Y96646D01*
X298872Y96628D01*
X298881Y96629D01*
X298890Y96628D01*
X299079Y96651D01*
X299272Y96672D01*
X299281Y96674D01*
X299289Y96675D01*
X299471Y96735D01*
X299656Y96793D01*
X299664Y96797D01*
X299672Y96800D01*
X299841Y96895D01*
X300008Y96988D01*
X300015Y96994D01*
X300023Y96998D01*
X300169Y97124D01*
X300315Y97248D01*
X300321Y97255D01*
X300328Y97261D01*
X300445Y97413D01*
X300565Y97564D01*
X300569Y97572D01*
X300574Y97579D01*
X300660Y97751D01*
X300747Y97923D01*
X300750Y97932D01*
X300754Y97940D01*
X300804Y98126D01*
X300855Y98311D01*
X300856Y98320D01*
X300858Y98329D01*
X300873Y98512D01*
X302076Y99715D01*
X320524Y99715D01*
X321715Y98524D01*
X321715Y80076D01*
X320524Y78885D01*
X302076Y78885D01*
X300885Y80076D01*
X300885Y83204D01*
X300883Y83222D01*
X300885Y83240D01*
X300864Y83422D01*
X300845Y83605D01*
X300840Y83622D01*
X300838Y83639D01*
X300781Y83814D01*
X300727Y83990D01*
X300719Y84005D01*
X300713Y84022D01*
X300623Y84182D01*
X300535Y84344D01*
X300524Y84357D01*
X300515Y84373D01*
X300395Y84512D01*
X300278Y84653D01*
X300264Y84664D01*
X300252Y84678D01*
X300107Y84790D01*
X299964Y84905D01*
X299948Y84913D01*
X299934Y84924D01*
X299770Y85006D01*
X299607Y85091D01*
X299590Y85096D01*
X299574Y85104D01*
X299395Y85151D01*
X299220Y85202D01*
X299202Y85204D01*
X299185Y85208D01*
X298854Y85235D01*
X298784Y85235D01*
X297290Y85854D01*
X282304Y100840D01*
X281685Y102334D01*
X281685Y178054D01*
X281683Y178072D01*
X281685Y178090D01*
X281664Y178272D01*
X281645Y178455D01*
X281640Y178472D01*
X281638Y178489D01*
X281581Y178664D01*
X281527Y178840D01*
X281519Y178855D01*
X281513Y178872D01*
X281423Y179032D01*
X281335Y179194D01*
X281324Y179207D01*
X281315Y179223D01*
X281195Y179362D01*
X281078Y179503D01*
X281064Y179514D01*
X281052Y179528D01*
X280907Y179640D01*
X280764Y179755D01*
X280748Y179763D01*
X280734Y179774D01*
X280569Y179856D01*
X280407Y179941D01*
X280390Y179946D01*
X280374Y179954D01*
X280195Y180001D01*
X280020Y180052D01*
X280002Y180054D01*
X279985Y180058D01*
X279654Y180085D01*
X259453Y180085D01*
X259444Y180084D01*
X259436Y180085D01*
X259244Y180064D01*
X259053Y180045D01*
X259044Y180043D01*
X259035Y180042D01*
X258853Y179984D01*
X258668Y179927D01*
X258660Y179923D01*
X258651Y179920D01*
X258483Y179827D01*
X258314Y179735D01*
X258307Y179730D01*
X258299Y179725D01*
X258151Y179600D01*
X258004Y179478D01*
X257999Y179471D01*
X257992Y179465D01*
X257871Y179312D01*
X257752Y179164D01*
X257748Y179156D01*
X257742Y179149D01*
X257655Y178977D01*
X257567Y178807D01*
X257564Y178798D01*
X257560Y178790D01*
X257508Y178604D01*
X257455Y178420D01*
X257455Y178411D01*
X257452Y178402D01*
X257438Y178210D01*
X257422Y178018D01*
X257423Y178010D01*
X257423Y178001D01*
X257447Y177808D01*
X257469Y177619D01*
X257472Y177610D01*
X257473Y177601D01*
X257535Y177418D01*
X257594Y177236D01*
X257599Y177228D01*
X257601Y177220D01*
X257697Y177054D01*
X257792Y176885D01*
X257798Y176878D01*
X257802Y176871D01*
X258017Y176618D01*
X258913Y175722D01*
X258913Y142878D01*
X257722Y141687D01*
X224878Y141687D01*
X223687Y142878D01*
X223687Y175722D01*
X224583Y176618D01*
X224589Y176625D01*
X224596Y176630D01*
X224717Y176781D01*
X224838Y176929D01*
X224842Y176937D01*
X224848Y176944D01*
X224936Y177114D01*
X225027Y177285D01*
X225029Y177294D01*
X225033Y177301D01*
X225086Y177486D01*
X225141Y177671D01*
X225142Y177680D01*
X225145Y177688D01*
X225160Y177879D01*
X225178Y178072D01*
X225177Y178081D01*
X225178Y178090D01*
X225155Y178279D01*
X225134Y178472D01*
X225132Y178481D01*
X225131Y178489D01*
X225071Y178671D01*
X225013Y178856D01*
X225009Y178864D01*
X225006Y178872D01*
X224912Y179039D01*
X224818Y179208D01*
X224812Y179215D01*
X224808Y179223D01*
X224683Y179368D01*
X224558Y179515D01*
X224551Y179521D01*
X224545Y179528D01*
X224394Y179644D01*
X224242Y179765D01*
X224234Y179769D01*
X224227Y179774D01*
X224056Y179859D01*
X223883Y179947D01*
X223874Y179950D01*
X223866Y179954D01*
X223681Y180003D01*
X223495Y180055D01*
X223486Y180056D01*
X223477Y180058D01*
X223147Y180085D01*
X131024Y180085D01*
X130998Y180083D01*
X130971Y180085D01*
X130797Y180063D01*
X130623Y180045D01*
X130598Y180038D01*
X130571Y180034D01*
X130406Y179979D01*
X130239Y179927D01*
X130215Y179914D01*
X130190Y179906D01*
X130038Y179819D01*
X129885Y179735D01*
X129864Y179718D01*
X129841Y179705D01*
X129588Y179490D01*
X118960Y168862D01*
X118943Y168842D01*
X118922Y168824D01*
X118815Y168686D01*
X118705Y168551D01*
X118692Y168527D01*
X118676Y168506D01*
X118598Y168349D01*
X118516Y168195D01*
X118508Y168170D01*
X118496Y168145D01*
X118451Y167976D01*
X118401Y167809D01*
X118399Y167783D01*
X118392Y167757D01*
X118365Y167426D01*
X118365Y110889D01*
X118368Y110858D01*
X118366Y110828D01*
X118388Y110659D01*
X118405Y110488D01*
X118414Y110459D01*
X118418Y110429D01*
X118473Y110267D01*
X118523Y110104D01*
X118537Y110076D01*
X118547Y110047D01*
X118633Y109900D01*
X118715Y109749D01*
X118734Y109726D01*
X118750Y109699D01*
X118965Y109447D01*
X119623Y108794D01*
X119627Y108791D01*
X119630Y108787D01*
X119783Y108665D01*
X119936Y108540D01*
X119940Y108538D01*
X119944Y108535D01*
X120115Y108446D01*
X120292Y108353D01*
X120297Y108352D01*
X120301Y108349D01*
X120488Y108296D01*
X120679Y108240D01*
X120683Y108239D01*
X120688Y108238D01*
X120884Y108222D01*
X121080Y108205D01*
X121085Y108206D01*
X121090Y108205D01*
X121284Y108228D01*
X121480Y108250D01*
X121484Y108251D01*
X121489Y108252D01*
X121678Y108314D01*
X121863Y108373D01*
X121867Y108375D01*
X121872Y108377D01*
X122046Y108475D01*
X122215Y108569D01*
X122218Y108572D01*
X122223Y108575D01*
X122371Y108703D01*
X122521Y108831D01*
X122524Y108835D01*
X122528Y108838D01*
X122645Y108990D01*
X122769Y109148D01*
X122771Y109152D01*
X122774Y109156D01*
X122862Y109332D01*
X122950Y109507D01*
X122951Y109512D01*
X122954Y109517D01*
X123005Y109707D01*
X123057Y109896D01*
X123057Y109901D01*
X123058Y109905D01*
X123085Y110236D01*
X123085Y118614D01*
X128840Y124369D01*
X128857Y124390D01*
X128878Y124407D01*
X128985Y124545D01*
X129095Y124680D01*
X129108Y124704D01*
X129124Y124725D01*
X129202Y124882D01*
X129284Y125036D01*
X129292Y125062D01*
X129304Y125086D01*
X129349Y125255D01*
X129399Y125422D01*
X129401Y125449D01*
X129408Y125475D01*
X129435Y125805D01*
X129435Y127795D01*
X129433Y127821D01*
X129435Y127848D01*
X129413Y128022D01*
X129395Y128195D01*
X129388Y128221D01*
X129384Y128247D01*
X129329Y128413D01*
X129277Y128580D01*
X129264Y128604D01*
X129256Y128629D01*
X129169Y128781D01*
X129085Y128934D01*
X129068Y128955D01*
X129055Y128978D01*
X128840Y129231D01*
X123085Y134986D01*
X123085Y143614D01*
X129186Y149715D01*
X137814Y149715D01*
X143915Y143614D01*
X143915Y134986D01*
X138160Y129231D01*
X138143Y129210D01*
X138122Y129193D01*
X138015Y129055D01*
X137905Y128920D01*
X137892Y128896D01*
X137876Y128875D01*
X137798Y128718D01*
X137716Y128564D01*
X137708Y128538D01*
X137696Y128514D01*
X137651Y128345D01*
X137601Y128178D01*
X137599Y128151D01*
X137592Y128125D01*
X137565Y127795D01*
X137565Y125805D01*
X137567Y125779D01*
X137565Y125752D01*
X137587Y125578D01*
X137605Y125405D01*
X137612Y125379D01*
X137616Y125353D01*
X137672Y125186D01*
X137723Y125020D01*
X137736Y124996D01*
X137744Y124971D01*
X137831Y124819D01*
X137915Y124666D01*
X137932Y124645D01*
X137945Y124622D01*
X138160Y124369D01*
X143569Y118960D01*
X143590Y118943D01*
X143607Y118922D01*
X143745Y118815D01*
X143880Y118705D01*
X143904Y118692D01*
X143925Y118676D01*
X144082Y118598D01*
X144236Y118516D01*
X144262Y118508D01*
X144286Y118496D01*
X144455Y118451D01*
X144622Y118401D01*
X144649Y118399D01*
X144675Y118392D01*
X145005Y118365D01*
X249548Y118365D01*
X251042Y117746D01*
X270146Y98642D01*
X270765Y97148D01*
X270765Y86574D01*
X270767Y86548D01*
X270765Y86521D01*
X270787Y86347D01*
X270805Y86173D01*
X270812Y86148D01*
X270816Y86121D01*
X270871Y85956D01*
X270923Y85789D01*
X270936Y85765D01*
X270944Y85740D01*
X271031Y85588D01*
X271115Y85435D01*
X271132Y85414D01*
X271145Y85391D01*
X271360Y85138D01*
X281988Y74510D01*
X282008Y74493D01*
X282026Y74472D01*
X282164Y74365D01*
X282299Y74255D01*
X282323Y74242D01*
X282344Y74226D01*
X282501Y74148D01*
X282655Y74066D01*
X282680Y74058D01*
X282705Y74046D01*
X282874Y74001D01*
X283041Y73951D01*
X283067Y73949D01*
X283093Y73942D01*
X283424Y73915D01*
X372125Y73915D01*
X372152Y73917D01*
X372178Y73915D01*
X372352Y73937D01*
X372526Y73955D01*
X372551Y73962D01*
X372578Y73966D01*
X372743Y74021D01*
X372910Y74073D01*
X372934Y74086D01*
X372959Y74094D01*
X373111Y74181D01*
X373265Y74265D01*
X373285Y74282D01*
X373308Y74295D01*
X373561Y74510D01*
X397748Y98696D01*
X399241Y99315D01*
X436328Y99315D01*
X437822Y98696D01*
X447946Y88572D01*
X448565Y87078D01*
X448565Y49991D01*
X447946Y48498D01*
X440343Y40895D01*
X440329Y40878D01*
X440312Y40863D01*
X440202Y40722D01*
X440088Y40583D01*
X440078Y40564D01*
X440064Y40546D01*
X439983Y40386D01*
X439900Y40228D01*
X439893Y40206D01*
X439883Y40186D01*
X439836Y40014D01*
X439785Y39842D01*
X439783Y39820D01*
X439777Y39798D01*
X439765Y39619D01*
X439748Y39441D01*
X439751Y39419D01*
X439749Y39396D01*
X439773Y39219D01*
X439792Y39041D01*
X439799Y39019D01*
X439802Y38997D01*
X439903Y38681D01*
X441453Y34940D01*
X441453Y15860D01*
X440255Y12969D01*
X440251Y12956D01*
X440245Y12945D01*
X440194Y12765D01*
X440139Y12584D01*
X440138Y12571D01*
X440134Y12558D01*
X440119Y12370D01*
X440101Y12183D01*
X440102Y12170D01*
X440101Y12156D01*
X440123Y11970D01*
X440142Y11783D01*
X440146Y11770D01*
X440148Y11757D01*
X440206Y11578D01*
X440262Y11398D01*
X440269Y11387D01*
X440273Y11374D01*
X440366Y11209D01*
X440456Y11045D01*
X440464Y11035D01*
X440471Y11023D01*
X440594Y10881D01*
X440715Y10737D01*
X440725Y10729D01*
X440734Y10718D01*
X440882Y10603D01*
X441030Y10486D01*
X441041Y10480D01*
X441052Y10472D01*
X441221Y10388D01*
X441388Y10302D01*
X441400Y10298D01*
X441413Y10292D01*
X441595Y10243D01*
X441775Y10192D01*
X441788Y10191D01*
X441801Y10188D01*
X442132Y10161D01*
X446868Y10161D01*
X446881Y10162D01*
X446895Y10161D01*
X447081Y10182D01*
X447269Y10201D01*
X447281Y10205D01*
X447295Y10206D01*
X447474Y10264D01*
X447654Y10319D01*
X447665Y10325D01*
X447678Y10329D01*
X447843Y10421D01*
X448008Y10511D01*
X448018Y10519D01*
X448030Y10526D01*
X448172Y10648D01*
X448317Y10768D01*
X448325Y10779D01*
X448335Y10787D01*
X448451Y10935D01*
X448569Y11082D01*
X448575Y11094D01*
X448584Y11104D01*
X448668Y11273D01*
X448755Y11439D01*
X448758Y11452D01*
X448764Y11464D01*
X448814Y11645D01*
X448866Y11826D01*
X448867Y11840D01*
X448871Y11853D01*
X448884Y12041D01*
X448899Y12228D01*
X448897Y12241D01*
X448898Y12254D01*
X448874Y12442D01*
X448852Y12627D01*
X448848Y12640D01*
X448846Y12653D01*
X448745Y12969D01*
X447547Y15860D01*
X447547Y34940D01*
X449017Y38488D01*
X451732Y41203D01*
X451881Y41265D01*
X451901Y41275D01*
X451922Y41282D01*
X452078Y41371D01*
X452236Y41455D01*
X452253Y41469D01*
X452273Y41480D01*
X452408Y41597D01*
X452547Y41712D01*
X452561Y41729D01*
X452578Y41743D01*
X452687Y41885D01*
X452800Y42024D01*
X452811Y42044D01*
X452824Y42062D01*
X452904Y42222D01*
X452987Y42381D01*
X452994Y42402D01*
X453004Y42422D01*
X453050Y42595D01*
X453100Y42767D01*
X453102Y42789D01*
X453108Y42811D01*
X453135Y43142D01*
X453135Y88880D01*
X453133Y88906D01*
X453135Y88933D01*
X453113Y89107D01*
X453095Y89280D01*
X453088Y89306D01*
X453084Y89332D01*
X453029Y89498D01*
X452977Y89665D01*
X452964Y89689D01*
X452956Y89714D01*
X452869Y89866D01*
X452785Y90019D01*
X452768Y90040D01*
X452755Y90063D01*
X452540Y90316D01*
X433216Y109640D01*
X433195Y109657D01*
X433178Y109678D01*
X433040Y109785D01*
X432905Y109895D01*
X432881Y109908D01*
X432860Y109924D01*
X432703Y110002D01*
X432549Y110084D01*
X432523Y110092D01*
X432499Y110104D01*
X432330Y110149D01*
X432163Y110199D01*
X432136Y110201D01*
X432110Y110208D01*
X431780Y110235D01*
X322805Y110235D01*
X322779Y110233D01*
X322752Y110235D01*
X322578Y110213D01*
X322405Y110195D01*
X322379Y110188D01*
X322353Y110184D01*
X322187Y110129D01*
X322020Y110077D01*
X321996Y110064D01*
X321971Y110056D01*
X321819Y109969D01*
X321666Y109885D01*
X321645Y109868D01*
X321622Y109855D01*
X321369Y109640D01*
X315614Y103885D01*
X306986Y103885D01*
X300885Y109986D01*
X300885Y118614D01*
X306640Y124369D01*
X306657Y124390D01*
X306678Y124407D01*
X306785Y124545D01*
X306895Y124680D01*
X306908Y124704D01*
X306924Y124725D01*
X307002Y124882D01*
X307084Y125036D01*
X307092Y125062D01*
X307104Y125086D01*
X307149Y125255D01*
X307199Y125422D01*
X307201Y125449D01*
X307208Y125475D01*
X307235Y125805D01*
X307235Y127795D01*
X307233Y127821D01*
X307235Y127848D01*
X307213Y128022D01*
X307195Y128195D01*
X307188Y128221D01*
X307184Y128247D01*
X307129Y128413D01*
X307077Y128580D01*
X307064Y128604D01*
X307056Y128629D01*
X306969Y128781D01*
X306885Y128934D01*
X306868Y128955D01*
X306855Y128978D01*
X306640Y129231D01*
X300885Y134986D01*
X300885Y143614D01*
X306986Y149715D01*
X315614Y149715D01*
X321715Y143614D01*
X321715Y134986D01*
X315960Y129231D01*
X315943Y129210D01*
X315922Y129193D01*
X315815Y129055D01*
X315705Y128920D01*
X315692Y128896D01*
X315676Y128875D01*
X315598Y128718D01*
X315516Y128564D01*
X315508Y128538D01*
X315496Y128514D01*
X315451Y128345D01*
X315401Y128178D01*
X315399Y128151D01*
X315392Y128125D01*
X315365Y127795D01*
X315365Y125805D01*
X315367Y125779D01*
X315365Y125752D01*
X315387Y125578D01*
X315405Y125405D01*
X315412Y125379D01*
X315416Y125353D01*
X315472Y125186D01*
X315523Y125020D01*
X315536Y124996D01*
X315544Y124971D01*
X315631Y124819D01*
X315715Y124666D01*
X315732Y124645D01*
X315745Y124622D01*
X315960Y124369D01*
X321369Y118960D01*
X321390Y118943D01*
X321407Y118922D01*
X321545Y118815D01*
X321680Y118705D01*
X321704Y118692D01*
X321725Y118676D01*
X321882Y118598D01*
X322036Y118516D01*
X322062Y118508D01*
X322086Y118496D01*
X322255Y118451D01*
X322422Y118401D01*
X322449Y118399D01*
X322475Y118392D01*
X322805Y118365D01*
X435113Y118365D01*
X436607Y117746D01*
X460646Y93707D01*
X461265Y92213D01*
X461265Y43142D01*
X461267Y43119D01*
X461265Y43097D01*
X461287Y42920D01*
X461305Y42741D01*
X461311Y42720D01*
X461314Y42697D01*
X461370Y42528D01*
X461423Y42356D01*
X461433Y42336D01*
X461440Y42315D01*
X461529Y42160D01*
X461615Y42002D01*
X461629Y41985D01*
X461640Y41966D01*
X461757Y41831D01*
X461872Y41693D01*
X461890Y41679D01*
X461904Y41662D01*
X462046Y41553D01*
X462186Y41440D01*
X462206Y41430D01*
X462224Y41417D01*
X462519Y41265D01*
X462668Y41203D01*
X465383Y38488D01*
X466853Y34940D01*
X466853Y15860D01*
X465655Y12969D01*
X465651Y12956D01*
X465645Y12945D01*
X465594Y12765D01*
X465539Y12584D01*
X465538Y12571D01*
X465534Y12558D01*
X465519Y12370D01*
X465501Y12183D01*
X465502Y12170D01*
X465501Y12156D01*
X465523Y11970D01*
X465542Y11783D01*
X465546Y11770D01*
X465548Y11757D01*
X465606Y11578D01*
X465662Y11398D01*
X465669Y11387D01*
X465673Y11374D01*
X465766Y11209D01*
X465856Y11045D01*
X465864Y11035D01*
X465871Y11023D01*
X465994Y10881D01*
X466115Y10737D01*
X466125Y10729D01*
X466134Y10718D01*
X466282Y10603D01*
X466430Y10486D01*
X466441Y10480D01*
X466452Y10472D01*
X466621Y10388D01*
X466788Y10302D01*
X466800Y10298D01*
X466813Y10292D01*
X466995Y10243D01*
X467175Y10192D01*
X467188Y10191D01*
X467201Y10188D01*
X467532Y10161D01*
X472268Y10161D01*
X472281Y10162D01*
X472295Y10161D01*
X472481Y10182D01*
X472669Y10201D01*
X472681Y10205D01*
X472695Y10206D01*
X472874Y10264D01*
X473054Y10319D01*
X473065Y10325D01*
X473078Y10329D01*
X473243Y10421D01*
X473408Y10511D01*
X473418Y10519D01*
X473430Y10526D01*
X473572Y10648D01*
X473717Y10768D01*
X473725Y10779D01*
X473735Y10787D01*
X473851Y10935D01*
X473969Y11082D01*
X473975Y11094D01*
X473984Y11104D01*
X474068Y11273D01*
X474155Y11439D01*
X474158Y11452D01*
X474164Y11464D01*
X474214Y11645D01*
X474266Y11826D01*
X474267Y11840D01*
X474271Y11853D01*
X474284Y12041D01*
X474299Y12228D01*
X474297Y12241D01*
X474298Y12254D01*
X474274Y12442D01*
X474252Y12627D01*
X474248Y12640D01*
X474246Y12653D01*
X474145Y12969D01*
X472947Y15860D01*
X472947Y34940D01*
X474417Y38488D01*
X477132Y41203D01*
X477281Y41265D01*
X477301Y41275D01*
X477322Y41282D01*
X477478Y41371D01*
X477636Y41455D01*
X477653Y41469D01*
X477673Y41480D01*
X477808Y41597D01*
X477947Y41712D01*
X477961Y41729D01*
X477978Y41743D01*
X478087Y41885D01*
X478200Y42024D01*
X478211Y42044D01*
X478224Y42062D01*
X478304Y42222D01*
X478387Y42381D01*
X478394Y42402D01*
X478404Y42422D01*
X478450Y42595D01*
X478500Y42767D01*
X478502Y42789D01*
X478508Y42811D01*
X478535Y43142D01*
X478535Y48275D01*
X478533Y48302D01*
X478535Y48328D01*
X478513Y48502D01*
X478495Y48676D01*
X478488Y48701D01*
X478484Y48728D01*
X478429Y48893D01*
X478377Y49060D01*
X478364Y49084D01*
X478356Y49109D01*
X478269Y49261D01*
X478185Y49415D01*
X478168Y49435D01*
X478155Y49458D01*
X477940Y49711D01*
X466454Y61198D01*
X465835Y62691D01*
X465835Y134159D01*
X466454Y135652D01*
X473948Y143146D01*
X475441Y143765D01*
X477995Y143765D01*
X478021Y143767D01*
X478048Y143765D01*
X478222Y143787D01*
X478395Y143805D01*
X478421Y143812D01*
X478447Y143816D01*
X478613Y143871D01*
X478780Y143923D01*
X478804Y143936D01*
X478829Y143944D01*
X478981Y144031D01*
X479134Y144115D01*
X479155Y144132D01*
X479178Y144145D01*
X479431Y144360D01*
X484786Y149715D01*
X493414Y149715D01*
X499515Y143614D01*
X499515Y134986D01*
X493414Y128885D01*
X484786Y128885D01*
X479421Y134250D01*
X479407Y134261D01*
X479396Y134275D01*
X479252Y134389D01*
X479110Y134505D01*
X479094Y134514D01*
X479080Y134525D01*
X478916Y134608D01*
X478754Y134694D01*
X478737Y134699D01*
X478721Y134707D01*
X478544Y134756D01*
X478368Y134809D01*
X478350Y134810D01*
X478333Y134815D01*
X478150Y134828D01*
X477967Y134845D01*
X477949Y134843D01*
X477932Y134844D01*
X477750Y134821D01*
X477567Y134802D01*
X477550Y134796D01*
X477532Y134794D01*
X477359Y134736D01*
X477183Y134680D01*
X477167Y134671D01*
X477150Y134666D01*
X476991Y134574D01*
X476831Y134485D01*
X476817Y134474D01*
X476802Y134465D01*
X476549Y134250D01*
X474560Y132261D01*
X474543Y132241D01*
X474522Y132223D01*
X474415Y132085D01*
X474305Y131950D01*
X474292Y131926D01*
X474276Y131905D01*
X474198Y131748D01*
X474116Y131594D01*
X474108Y131569D01*
X474096Y131544D01*
X474051Y131375D01*
X474001Y131208D01*
X473999Y131182D01*
X473992Y131156D01*
X473965Y130825D01*
X473965Y66025D01*
X473967Y65998D01*
X473965Y65972D01*
X473987Y65798D01*
X474005Y65624D01*
X474012Y65599D01*
X474016Y65572D01*
X474071Y65407D01*
X474123Y65240D01*
X474136Y65216D01*
X474144Y65191D01*
X474231Y65039D01*
X474315Y64885D01*
X474332Y64865D01*
X474345Y64842D01*
X474560Y64589D01*
X486046Y53102D01*
X486665Y51609D01*
X486665Y43142D01*
X486667Y43119D01*
X486665Y43097D01*
X486687Y42920D01*
X486705Y42741D01*
X486711Y42720D01*
X486714Y42697D01*
X486770Y42528D01*
X486823Y42356D01*
X486833Y42336D01*
X486840Y42315D01*
X486929Y42160D01*
X487015Y42002D01*
X487029Y41985D01*
X487040Y41966D01*
X487157Y41831D01*
X487272Y41693D01*
X487290Y41679D01*
X487304Y41662D01*
X487446Y41553D01*
X487586Y41440D01*
X487606Y41430D01*
X487624Y41417D01*
X487919Y41265D01*
X488068Y41203D01*
X490783Y38488D01*
X492253Y34940D01*
X492253Y15860D01*
X491055Y12969D01*
X491051Y12956D01*
X491045Y12945D01*
X490994Y12765D01*
X490939Y12584D01*
X490938Y12571D01*
X490934Y12558D01*
X490919Y12370D01*
X490901Y12183D01*
X490902Y12170D01*
X490901Y12156D01*
X490923Y11970D01*
X490942Y11783D01*
X490946Y11770D01*
X490948Y11757D01*
X491006Y11578D01*
X491062Y11398D01*
X491069Y11387D01*
X491073Y11374D01*
X491166Y11209D01*
X491256Y11045D01*
X491264Y11035D01*
X491271Y11023D01*
X491394Y10881D01*
X491515Y10737D01*
X491525Y10729D01*
X491534Y10718D01*
X491682Y10603D01*
X491830Y10486D01*
X491841Y10480D01*
X491852Y10472D01*
X492021Y10388D01*
X492188Y10302D01*
X492200Y10298D01*
X492213Y10292D01*
X492395Y10243D01*
X492575Y10192D01*
X492588Y10191D01*
X492601Y10188D01*
X492932Y10161D01*
X497668Y10161D01*
X497681Y10162D01*
X497695Y10161D01*
X497881Y10182D01*
X498069Y10201D01*
X498081Y10205D01*
X498095Y10206D01*
X498274Y10264D01*
X498454Y10319D01*
X498465Y10325D01*
X498478Y10329D01*
X498643Y10421D01*
X498808Y10511D01*
X498818Y10519D01*
X498830Y10526D01*
X498972Y10648D01*
X499117Y10768D01*
X499125Y10779D01*
X499135Y10787D01*
X499251Y10935D01*
X499369Y11082D01*
X499375Y11094D01*
X499384Y11104D01*
X499468Y11273D01*
X499555Y11439D01*
X499558Y11452D01*
X499564Y11464D01*
X499614Y11645D01*
X499666Y11826D01*
X499667Y11840D01*
X499671Y11853D01*
X499684Y12041D01*
X499699Y12228D01*
X499697Y12241D01*
X499698Y12254D01*
X499674Y12442D01*
X499652Y12627D01*
X499648Y12640D01*
X499646Y12653D01*
X499545Y12969D01*
X498347Y15860D01*
X498347Y34940D01*
X499817Y38488D01*
X502532Y41203D01*
X502681Y41265D01*
X502701Y41275D01*
X502722Y41282D01*
X502878Y41371D01*
X503036Y41455D01*
X503053Y41469D01*
X503073Y41480D01*
X503208Y41597D01*
X503347Y41712D01*
X503361Y41729D01*
X503378Y41743D01*
X503487Y41885D01*
X503600Y42024D01*
X503611Y42044D01*
X503624Y42062D01*
X503704Y42222D01*
X503787Y42381D01*
X503794Y42402D01*
X503804Y42422D01*
X503850Y42595D01*
X503900Y42767D01*
X503902Y42789D01*
X503908Y42811D01*
X503935Y43142D01*
X503935Y63913D01*
X504554Y65407D01*
X556893Y117746D01*
X558387Y118365D01*
X655395Y118365D01*
X655421Y118367D01*
X655448Y118365D01*
X655622Y118387D01*
X655795Y118405D01*
X655821Y118412D01*
X655847Y118416D01*
X656013Y118471D01*
X656180Y118523D01*
X656204Y118536D01*
X656229Y118544D01*
X656381Y118631D01*
X656534Y118715D01*
X656555Y118732D01*
X656578Y118745D01*
X656831Y118960D01*
X662240Y124369D01*
X662257Y124390D01*
X662278Y124407D01*
X662385Y124545D01*
X662495Y124680D01*
X662508Y124704D01*
X662524Y124725D01*
X662602Y124882D01*
X662684Y125036D01*
X662692Y125062D01*
X662704Y125086D01*
X662749Y125255D01*
X662799Y125422D01*
X662801Y125449D01*
X662808Y125475D01*
X662835Y125805D01*
X662835Y127795D01*
X662833Y127821D01*
X662835Y127848D01*
X662813Y128022D01*
X662795Y128195D01*
X662788Y128221D01*
X662784Y128247D01*
X662729Y128413D01*
X662677Y128580D01*
X662664Y128604D01*
X662656Y128629D01*
X662569Y128781D01*
X662485Y128934D01*
X662468Y128955D01*
X662455Y128978D01*
X662240Y129231D01*
X656485Y134986D01*
X656485Y143614D01*
X662586Y149715D01*
X671214Y149715D01*
X677315Y143614D01*
X677315Y134986D01*
X671560Y129231D01*
X671543Y129210D01*
X671522Y129193D01*
X671415Y129055D01*
X671305Y128920D01*
X671292Y128896D01*
X671276Y128875D01*
X671198Y128718D01*
X671116Y128564D01*
X671108Y128538D01*
X671096Y128514D01*
X671051Y128345D01*
X671001Y128178D01*
X670999Y128151D01*
X670992Y128125D01*
X670965Y127795D01*
X670965Y125805D01*
X670967Y125779D01*
X670965Y125752D01*
X670987Y125578D01*
X671005Y125405D01*
X671012Y125379D01*
X671016Y125353D01*
X671072Y125186D01*
X671123Y125020D01*
X671136Y124996D01*
X671144Y124971D01*
X671231Y124819D01*
X671315Y124666D01*
X671332Y124645D01*
X671345Y124622D01*
X671560Y124369D01*
X677315Y118614D01*
X677315Y109986D01*
X671214Y103885D01*
X662586Y103885D01*
X656831Y109640D01*
X656810Y109657D01*
X656793Y109678D01*
X656655Y109785D01*
X656520Y109895D01*
X656496Y109908D01*
X656475Y109924D01*
X656318Y110002D01*
X656164Y110084D01*
X656138Y110092D01*
X656114Y110104D01*
X655945Y110149D01*
X655778Y110199D01*
X655751Y110201D01*
X655725Y110208D01*
X655395Y110235D01*
X561720Y110235D01*
X561694Y110233D01*
X561667Y110235D01*
X561493Y110213D01*
X561320Y110195D01*
X561294Y110188D01*
X561268Y110184D01*
X561102Y110129D01*
X560935Y110077D01*
X560911Y110064D01*
X560886Y110056D01*
X560734Y109969D01*
X560581Y109885D01*
X560560Y109868D01*
X560537Y109855D01*
X560284Y109640D01*
X512660Y62016D01*
X512643Y61995D01*
X512622Y61978D01*
X512515Y61840D01*
X512405Y61704D01*
X512392Y61681D01*
X512376Y61660D01*
X512298Y61503D01*
X512216Y61349D01*
X512208Y61323D01*
X512196Y61299D01*
X512151Y61130D01*
X512101Y60963D01*
X512099Y60936D01*
X512092Y60910D01*
X512065Y60580D01*
X512065Y43142D01*
X512067Y43119D01*
X512065Y43097D01*
X512087Y42920D01*
X512105Y42741D01*
X512111Y42720D01*
X512114Y42697D01*
X512170Y42528D01*
X512223Y42356D01*
X512233Y42336D01*
X512240Y42315D01*
X512329Y42160D01*
X512415Y42002D01*
X512429Y41985D01*
X512440Y41966D01*
X512557Y41831D01*
X512672Y41693D01*
X512690Y41679D01*
X512704Y41662D01*
X512846Y41553D01*
X512986Y41440D01*
X513006Y41430D01*
X513024Y41417D01*
X513319Y41265D01*
X513468Y41203D01*
X516183Y38488D01*
X517653Y34940D01*
X517653Y15860D01*
X516455Y12969D01*
X516451Y12956D01*
X516445Y12945D01*
X516394Y12765D01*
X516339Y12584D01*
X516338Y12571D01*
X516334Y12558D01*
X516319Y12370D01*
X516301Y12183D01*
X516302Y12170D01*
X516301Y12156D01*
X516323Y11970D01*
X516342Y11783D01*
X516346Y11770D01*
X516348Y11757D01*
X516406Y11578D01*
X516462Y11398D01*
X516469Y11387D01*
X516473Y11374D01*
X516566Y11209D01*
X516656Y11045D01*
X516664Y11035D01*
X516671Y11023D01*
X516794Y10881D01*
X516915Y10737D01*
X516925Y10729D01*
X516934Y10718D01*
X517082Y10603D01*
X517230Y10486D01*
X517241Y10480D01*
X517252Y10472D01*
X517421Y10388D01*
X517588Y10302D01*
X517600Y10298D01*
X517613Y10292D01*
X517795Y10243D01*
X517975Y10192D01*
X517988Y10191D01*
X518001Y10188D01*
X518332Y10161D01*
X523068Y10161D01*
X523081Y10162D01*
X523095Y10161D01*
X523281Y10182D01*
X523469Y10201D01*
X523481Y10205D01*
X523495Y10206D01*
X523674Y10264D01*
X523854Y10319D01*
X523865Y10325D01*
X523878Y10329D01*
X524043Y10421D01*
X524208Y10511D01*
X524218Y10519D01*
X524230Y10526D01*
X524372Y10648D01*
X524517Y10768D01*
X524525Y10779D01*
X524535Y10787D01*
X524651Y10935D01*
X524769Y11082D01*
X524775Y11094D01*
X524784Y11104D01*
X524868Y11273D01*
X524955Y11439D01*
X524958Y11452D01*
X524964Y11464D01*
X525014Y11645D01*
X525066Y11826D01*
X525067Y11840D01*
X525071Y11853D01*
X525084Y12041D01*
X525099Y12228D01*
X525097Y12241D01*
X525098Y12254D01*
X525074Y12442D01*
X525052Y12627D01*
X525048Y12640D01*
X525046Y12653D01*
X524945Y12969D01*
X523747Y15860D01*
X523747Y34940D01*
X525217Y38488D01*
X527932Y41203D01*
X531480Y42673D01*
X535320Y42673D01*
X538868Y41203D01*
X541583Y38488D01*
X543053Y34940D01*
X543053Y15860D01*
X541855Y12969D01*
X541851Y12956D01*
X541845Y12945D01*
X541794Y12765D01*
X541739Y12584D01*
X541738Y12571D01*
X541734Y12558D01*
X541719Y12370D01*
X541701Y12183D01*
X541702Y12170D01*
X541701Y12156D01*
X541723Y11970D01*
X541742Y11783D01*
X541746Y11770D01*
X541748Y11757D01*
X541806Y11578D01*
X541862Y11398D01*
X541869Y11387D01*
X541873Y11374D01*
X541966Y11209D01*
X542056Y11045D01*
X542064Y11035D01*
X542071Y11023D01*
X542194Y10881D01*
X542315Y10737D01*
X542325Y10729D01*
X542334Y10718D01*
X542482Y10603D01*
X542630Y10486D01*
X542641Y10480D01*
X542652Y10472D01*
X542821Y10388D01*
X542988Y10302D01*
X543000Y10298D01*
X543013Y10292D01*
X543195Y10243D01*
X543375Y10192D01*
X543388Y10191D01*
X543401Y10188D01*
X543732Y10161D01*
X878668Y10161D01*
X878681Y10162D01*
X878695Y10161D01*
X878881Y10182D01*
X879069Y10201D01*
X879081Y10205D01*
X879095Y10206D01*
X879274Y10264D01*
X879454Y10319D01*
X879465Y10325D01*
X879478Y10329D01*
X879643Y10421D01*
X879808Y10511D01*
X879818Y10519D01*
X879830Y10526D01*
X879972Y10648D01*
X880117Y10768D01*
X880125Y10779D01*
X880135Y10787D01*
X880251Y10935D01*
X880369Y11082D01*
X880375Y11094D01*
X880384Y11104D01*
X880468Y11273D01*
X880555Y11439D01*
X880558Y11452D01*
X880564Y11464D01*
X880614Y11645D01*
X880666Y11826D01*
X880667Y11840D01*
X880671Y11853D01*
X880684Y12041D01*
X880699Y12228D01*
X880697Y12241D01*
X880698Y12254D01*
X880674Y12442D01*
X880652Y12627D01*
X880648Y12640D01*
X880646Y12653D01*
X880545Y12969D01*
X879347Y15860D01*
X879347Y34940D01*
X880817Y38488D01*
X883532Y41203D01*
X887080Y42673D01*
X889774Y42673D01*
X889783Y42674D01*
X889792Y42673D01*
X889985Y42694D01*
X890174Y42713D01*
X890183Y42715D01*
X890192Y42716D01*
X890375Y42774D01*
X890559Y42831D01*
X890567Y42835D01*
X890576Y42838D01*
X890743Y42930D01*
X890913Y43023D01*
X890920Y43028D01*
X890928Y43033D01*
X891075Y43157D01*
X891223Y43280D01*
X891228Y43287D01*
X891235Y43293D01*
X891355Y43445D01*
X891475Y43594D01*
X891479Y43602D01*
X891485Y43609D01*
X891514Y43667D01*
X891528Y43550D01*
X891551Y43353D01*
X891553Y43348D01*
X891553Y43344D01*
X891615Y43159D01*
X891676Y42970D01*
X891678Y42966D01*
X891680Y42962D01*
X891778Y42790D01*
X891874Y42619D01*
X891877Y42616D01*
X891879Y42612D01*
X892011Y42461D01*
X892137Y42315D01*
X892141Y42312D01*
X892144Y42308D01*
X892300Y42188D01*
X892455Y42068D01*
X892459Y42066D01*
X892463Y42063D01*
X892758Y41911D01*
X894468Y41203D01*
X897183Y38488D01*
X898653Y34940D01*
X898653Y15860D01*
X897455Y12969D01*
X897451Y12956D01*
X897445Y12945D01*
X897394Y12765D01*
X897339Y12584D01*
X897338Y12571D01*
X897334Y12558D01*
X897319Y12370D01*
X897301Y12183D01*
X897302Y12170D01*
X897301Y12156D01*
X897323Y11970D01*
X897342Y11783D01*
X897346Y11770D01*
X897348Y11757D01*
X897406Y11578D01*
X897462Y11398D01*
X897469Y11387D01*
X897473Y11374D01*
X897566Y11209D01*
X897656Y11045D01*
X897664Y11035D01*
X897671Y11023D01*
X897794Y10881D01*
X897915Y10737D01*
X897925Y10729D01*
X897934Y10718D01*
X898082Y10603D01*
X898230Y10486D01*
X898241Y10480D01*
X898252Y10472D01*
X898421Y10388D01*
X898588Y10302D01*
X898600Y10298D01*
X898613Y10292D01*
X898795Y10243D01*
X898975Y10192D01*
X898988Y10191D01*
X899001Y10188D01*
X899332Y10161D01*
X904068Y10161D01*
X904081Y10162D01*
X904095Y10161D01*
X904281Y10182D01*
X904469Y10201D01*
X904481Y10205D01*
X904495Y10206D01*
X904674Y10264D01*
X904854Y10319D01*
X904865Y10325D01*
X904878Y10329D01*
X905043Y10421D01*
X905208Y10511D01*
X905218Y10519D01*
X905230Y10526D01*
X905372Y10648D01*
X905517Y10768D01*
X905525Y10779D01*
X905535Y10787D01*
X905651Y10935D01*
X905769Y11082D01*
X905775Y11094D01*
X905784Y11104D01*
X905868Y11273D01*
X905955Y11439D01*
X905958Y11452D01*
X905964Y11464D01*
X906014Y11645D01*
X906066Y11826D01*
X906067Y11840D01*
X906071Y11853D01*
X906084Y12041D01*
X906099Y12228D01*
X906097Y12241D01*
X906098Y12254D01*
X906074Y12442D01*
X906052Y12627D01*
X906048Y12640D01*
X906046Y12653D01*
X905945Y12969D01*
X904747Y15860D01*
X904747Y34940D01*
X906217Y38488D01*
X908932Y41203D01*
X910642Y41911D01*
X910646Y41913D01*
X910650Y41915D01*
X910823Y42008D01*
X910997Y42102D01*
X911000Y42104D01*
X911004Y42107D01*
X911153Y42231D01*
X911307Y42358D01*
X911310Y42361D01*
X911313Y42364D01*
X911436Y42517D01*
X911561Y42671D01*
X911563Y42675D01*
X911566Y42678D01*
X911656Y42851D01*
X911748Y43027D01*
X911749Y43031D01*
X911751Y43035D01*
X911806Y43224D01*
X911861Y43414D01*
X911861Y43418D01*
X911863Y43422D01*
X911879Y43620D01*
X911896Y43815D01*
X911895Y43819D01*
X911896Y43824D01*
X911873Y44018D01*
X911851Y44215D01*
X911849Y44219D01*
X911849Y44223D01*
X911788Y44409D01*
X911727Y44598D01*
X911725Y44602D01*
X911724Y44606D01*
X911626Y44779D01*
X911531Y44950D01*
X911528Y44953D01*
X911526Y44957D01*
X911397Y45106D01*
X911269Y45255D01*
X911266Y45258D01*
X911263Y45262D01*
X911108Y45382D01*
X910952Y45504D01*
X910948Y45506D01*
X910945Y45508D01*
X910767Y45597D01*
X910592Y45684D01*
X910588Y45686D01*
X910584Y45688D01*
X910392Y45739D01*
X910204Y45791D01*
X910200Y45791D01*
X910195Y45792D01*
X909865Y45819D01*
X904413Y45819D01*
X904413Y65078D01*
X904411Y65096D01*
X904413Y65113D01*
X904391Y65296D01*
X904373Y65478D01*
X904368Y65496D01*
X904366Y65513D01*
X904309Y65688D01*
X904255Y65863D01*
X904247Y65879D01*
X904241Y65896D01*
X904151Y66056D01*
X904063Y66217D01*
X904052Y66231D01*
X904043Y66247D01*
X903923Y66386D01*
X903806Y66527D01*
X903792Y66538D01*
X903780Y66551D01*
X903635Y66664D01*
X903492Y66779D01*
X903476Y66787D01*
X903462Y66798D01*
X903297Y66880D01*
X903135Y66965D01*
X903118Y66969D01*
X903101Y66977D01*
X902923Y67025D01*
X902748Y67076D01*
X902730Y67077D01*
X902713Y67082D01*
X902382Y67109D01*
X900349Y67109D01*
X900349Y69142D01*
X900347Y69160D01*
X900349Y69177D01*
X900327Y69360D01*
X900309Y69543D01*
X900304Y69560D01*
X900302Y69577D01*
X900245Y69752D01*
X900191Y69927D01*
X900183Y69943D01*
X900177Y69960D01*
X900087Y70120D01*
X899999Y70282D01*
X899988Y70295D01*
X899979Y70311D01*
X899859Y70450D01*
X899742Y70591D01*
X899728Y70602D01*
X899716Y70615D01*
X899571Y70728D01*
X899428Y70843D01*
X899412Y70851D01*
X899398Y70862D01*
X899233Y70944D01*
X899070Y71029D01*
X899053Y71034D01*
X899037Y71042D01*
X898859Y71089D01*
X898684Y71140D01*
X898666Y71141D01*
X898649Y71146D01*
X898318Y71173D01*
X879059Y71173D01*
X879059Y75929D01*
X890848Y87718D01*
X890854Y87725D01*
X890861Y87730D01*
X890981Y87880D01*
X891103Y88029D01*
X891107Y88037D01*
X891113Y88044D01*
X891201Y88214D01*
X891292Y88385D01*
X891294Y88394D01*
X891298Y88401D01*
X891352Y88586D01*
X891407Y88771D01*
X891407Y88780D01*
X891410Y88788D01*
X891426Y88980D01*
X891443Y89172D01*
X891442Y89181D01*
X891443Y89190D01*
X891421Y89379D01*
X891400Y89572D01*
X891397Y89581D01*
X891396Y89589D01*
X891337Y89771D01*
X891278Y89956D01*
X891274Y89964D01*
X891271Y89972D01*
X891176Y90141D01*
X891083Y90308D01*
X891078Y90315D01*
X891073Y90323D01*
X890948Y90468D01*
X890823Y90615D01*
X890816Y90621D01*
X890810Y90628D01*
X890659Y90745D01*
X890507Y90865D01*
X890499Y90869D01*
X890492Y90874D01*
X890320Y90960D01*
X890148Y91047D01*
X890139Y91050D01*
X890131Y91054D01*
X889945Y91104D01*
X889760Y91155D01*
X889751Y91156D01*
X889743Y91158D01*
X889412Y91185D01*
X878825Y91185D01*
X878798Y91183D01*
X878772Y91185D01*
X878598Y91163D01*
X878424Y91145D01*
X878399Y91138D01*
X878372Y91134D01*
X878207Y91079D01*
X878040Y91027D01*
X878016Y91014D01*
X877991Y91006D01*
X877839Y90919D01*
X877685Y90835D01*
X877665Y90818D01*
X877642Y90805D01*
X877389Y90590D01*
X865902Y79104D01*
X864409Y78485D01*
X796672Y78485D01*
X796654Y78483D01*
X796636Y78485D01*
X796454Y78464D01*
X796271Y78445D01*
X796254Y78440D01*
X796237Y78438D01*
X796062Y78381D01*
X795886Y78327D01*
X795871Y78319D01*
X795854Y78313D01*
X795694Y78223D01*
X795532Y78135D01*
X795519Y78124D01*
X795503Y78115D01*
X795364Y77995D01*
X795223Y77878D01*
X795212Y77864D01*
X795198Y77852D01*
X795086Y77707D01*
X794971Y77564D01*
X794963Y77548D01*
X794952Y77534D01*
X794870Y77369D01*
X794785Y77207D01*
X794780Y77190D01*
X794772Y77174D01*
X794725Y76995D01*
X794674Y76820D01*
X794672Y76802D01*
X794668Y76785D01*
X794641Y76454D01*
X794641Y71173D01*
X777413Y71173D01*
X777413Y88417D01*
X777458Y88422D01*
X777648Y88441D01*
X777656Y88443D01*
X777665Y88444D01*
X777850Y88503D01*
X778033Y88559D01*
X778040Y88563D01*
X778049Y88566D01*
X778218Y88659D01*
X778387Y88751D01*
X778393Y88756D01*
X778401Y88761D01*
X778548Y88885D01*
X778696Y89008D01*
X778701Y89015D01*
X778708Y89021D01*
X778828Y89173D01*
X778948Y89322D01*
X778952Y89330D01*
X778958Y89337D01*
X779046Y89510D01*
X779134Y89679D01*
X779136Y89688D01*
X779140Y89696D01*
X779192Y89882D01*
X779245Y90066D01*
X779246Y90075D01*
X779248Y90084D01*
X779262Y90277D01*
X779278Y90468D01*
X779277Y90476D01*
X779278Y90485D01*
X779253Y90677D01*
X779231Y90867D01*
X779228Y90876D01*
X779227Y90885D01*
X779166Y91068D01*
X779106Y91250D01*
X779102Y91258D01*
X779099Y91266D01*
X779003Y91433D01*
X778908Y91601D01*
X778903Y91608D01*
X778898Y91615D01*
X778683Y91868D01*
X760911Y109640D01*
X760891Y109657D01*
X760873Y109678D01*
X760735Y109785D01*
X760600Y109895D01*
X760576Y109908D01*
X760555Y109924D01*
X760398Y110002D01*
X760244Y110084D01*
X760219Y110092D01*
X760194Y110104D01*
X760025Y110149D01*
X759858Y110199D01*
X759832Y110201D01*
X759806Y110208D01*
X759475Y110235D01*
X743704Y110235D01*
X743686Y110233D01*
X743668Y110235D01*
X743486Y110214D01*
X743303Y110195D01*
X743286Y110190D01*
X743269Y110188D01*
X743094Y110131D01*
X742918Y110077D01*
X742903Y110069D01*
X742886Y110063D01*
X742726Y109973D01*
X742564Y109885D01*
X742551Y109874D01*
X742535Y109865D01*
X742396Y109745D01*
X742255Y109628D01*
X742244Y109614D01*
X742230Y109602D01*
X742118Y109457D01*
X742003Y109314D01*
X741995Y109298D01*
X741984Y109284D01*
X741902Y109119D01*
X741817Y108957D01*
X741812Y108940D01*
X741804Y108924D01*
X741757Y108745D01*
X741706Y108570D01*
X741704Y108552D01*
X741700Y108535D01*
X741673Y108204D01*
X741673Y105692D01*
X729498Y93517D01*
X712282Y93517D01*
X700107Y105692D01*
X700107Y122908D01*
X712282Y135083D01*
X729498Y135083D01*
X741673Y122908D01*
X741673Y120396D01*
X741675Y120378D01*
X741673Y120360D01*
X741694Y120178D01*
X741713Y119995D01*
X741718Y119978D01*
X741720Y119961D01*
X741777Y119786D01*
X741831Y119610D01*
X741839Y119595D01*
X741845Y119578D01*
X741935Y119418D01*
X742023Y119256D01*
X742034Y119243D01*
X742043Y119227D01*
X742163Y119088D01*
X742280Y118947D01*
X742294Y118936D01*
X742306Y118922D01*
X742451Y118810D01*
X742594Y118695D01*
X742610Y118687D01*
X742624Y118676D01*
X742789Y118594D01*
X742951Y118509D01*
X742968Y118504D01*
X742984Y118496D01*
X743163Y118449D01*
X743338Y118398D01*
X743356Y118396D01*
X743373Y118392D01*
X743704Y118365D01*
X762809Y118365D01*
X764302Y117746D01*
X777100Y104949D01*
X777107Y104943D01*
X777112Y104936D01*
X777262Y104816D01*
X777411Y104694D01*
X777419Y104689D01*
X777426Y104684D01*
X777596Y104595D01*
X777767Y104505D01*
X777776Y104502D01*
X777783Y104498D01*
X777968Y104445D01*
X778153Y104390D01*
X778162Y104389D01*
X778170Y104387D01*
X778362Y104371D01*
X778554Y104354D01*
X778563Y104355D01*
X778572Y104354D01*
X778761Y104376D01*
X778954Y104397D01*
X778963Y104400D01*
X778971Y104401D01*
X779153Y104460D01*
X779338Y104519D01*
X779346Y104523D01*
X779354Y104526D01*
X779523Y104621D01*
X779690Y104714D01*
X779697Y104719D01*
X779705Y104724D01*
X779851Y104850D01*
X779997Y104974D01*
X780003Y104981D01*
X780010Y104987D01*
X780127Y105138D01*
X780247Y105290D01*
X780251Y105298D01*
X780256Y105305D01*
X780342Y105477D01*
X780429Y105649D01*
X780432Y105657D01*
X780436Y105665D01*
X780486Y105852D01*
X780537Y106037D01*
X780538Y106046D01*
X780540Y106054D01*
X780567Y106385D01*
X780567Y122908D01*
X792742Y135083D01*
X809958Y135083D01*
X822133Y122908D01*
X822133Y105692D01*
X809958Y93517D01*
X793435Y93517D01*
X793426Y93516D01*
X793417Y93517D01*
X793225Y93496D01*
X793034Y93477D01*
X793026Y93475D01*
X793017Y93474D01*
X792835Y93416D01*
X792649Y93359D01*
X792642Y93355D01*
X792633Y93352D01*
X792465Y93259D01*
X792295Y93167D01*
X792289Y93162D01*
X792281Y93157D01*
X792134Y93033D01*
X791986Y92910D01*
X791981Y92903D01*
X791974Y92897D01*
X791855Y92746D01*
X791734Y92596D01*
X791730Y92588D01*
X791724Y92581D01*
X791636Y92408D01*
X791548Y92239D01*
X791546Y92230D01*
X791542Y92222D01*
X791490Y92036D01*
X791437Y91852D01*
X791436Y91843D01*
X791434Y91834D01*
X791420Y91641D01*
X791404Y91450D01*
X791405Y91442D01*
X791404Y91433D01*
X791429Y91240D01*
X791451Y91051D01*
X791454Y91042D01*
X791455Y91033D01*
X791516Y90850D01*
X791576Y90668D01*
X791580Y90660D01*
X791583Y90652D01*
X791679Y90485D01*
X791774Y90317D01*
X791780Y90310D01*
X791784Y90303D01*
X791999Y90050D01*
X794839Y87210D01*
X794859Y87193D01*
X794877Y87172D01*
X795015Y87066D01*
X795150Y86955D01*
X795174Y86942D01*
X795195Y86926D01*
X795351Y86848D01*
X795506Y86766D01*
X795532Y86758D01*
X795556Y86746D01*
X795724Y86701D01*
X795892Y86651D01*
X795918Y86649D01*
X795944Y86642D01*
X796275Y86615D01*
X861075Y86615D01*
X861102Y86617D01*
X861128Y86615D01*
X861302Y86637D01*
X861476Y86655D01*
X861501Y86662D01*
X861528Y86666D01*
X861693Y86721D01*
X861860Y86773D01*
X861884Y86786D01*
X861909Y86794D01*
X862061Y86881D01*
X862215Y86965D01*
X862235Y86982D01*
X862258Y86995D01*
X862511Y87210D01*
X873998Y98696D01*
X875491Y99315D01*
X909040Y99315D01*
X909049Y99316D01*
X909058Y99315D01*
X909250Y99336D01*
X909441Y99355D01*
X909449Y99357D01*
X909458Y99358D01*
X909641Y99416D01*
X909826Y99473D01*
X909834Y99477D01*
X909842Y99480D01*
X910010Y99573D01*
X910180Y99665D01*
X910187Y99670D01*
X910194Y99675D01*
X910341Y99799D01*
X910489Y99922D01*
X910495Y99929D01*
X910501Y99935D01*
X910620Y100086D01*
X910741Y100236D01*
X910745Y100244D01*
X910751Y100251D01*
X910839Y100424D01*
X910927Y100593D01*
X910929Y100602D01*
X910933Y100610D01*
X910985Y100796D01*
X911038Y100980D01*
X911039Y100989D01*
X911041Y100998D01*
X911055Y101188D01*
X911071Y101382D01*
X911070Y101390D01*
X911071Y101399D01*
X911046Y101592D01*
X911024Y101781D01*
X911021Y101790D01*
X911020Y101799D01*
X910959Y101982D01*
X910899Y102164D01*
X910895Y102172D01*
X910892Y102180D01*
X910796Y102347D01*
X910701Y102515D01*
X910696Y102522D01*
X910691Y102529D01*
X910477Y102782D01*
X907567Y105692D01*
X907567Y122908D01*
X919742Y135083D01*
X936958Y135083D01*
X949133Y122908D01*
X949133Y105692D01*
X936958Y93517D01*
X920435Y93517D01*
X920426Y93516D01*
X920417Y93517D01*
X920224Y93496D01*
X920034Y93477D01*
X920026Y93475D01*
X920017Y93474D01*
X919833Y93416D01*
X919649Y93359D01*
X919642Y93355D01*
X919633Y93352D01*
X919465Y93260D01*
X919295Y93167D01*
X919289Y93162D01*
X919281Y93157D01*
X919134Y93033D01*
X918986Y92910D01*
X918981Y92903D01*
X918974Y92897D01*
X918854Y92745D01*
X918734Y92596D01*
X918730Y92588D01*
X918724Y92581D01*
X918636Y92408D01*
X918548Y92239D01*
X918546Y92230D01*
X918542Y92222D01*
X918490Y92036D01*
X918437Y91852D01*
X918436Y91843D01*
X918434Y91834D01*
X918420Y91641D01*
X918404Y91450D01*
X918405Y91442D01*
X918404Y91433D01*
X918429Y91240D01*
X918451Y91051D01*
X918454Y91042D01*
X918455Y91033D01*
X918516Y90850D01*
X918576Y90668D01*
X918580Y90660D01*
X918583Y90652D01*
X918679Y90485D01*
X918774Y90317D01*
X918779Y90310D01*
X918784Y90303D01*
X918999Y90050D01*
X929117Y79932D01*
X930546Y78502D01*
X931165Y77009D01*
X931165Y37291D01*
X930546Y35798D01*
X924648Y29899D01*
X924631Y29879D01*
X924610Y29861D01*
X924503Y29723D01*
X924393Y29588D01*
X924380Y29564D01*
X924364Y29543D01*
X924286Y29386D01*
X924204Y29232D01*
X924196Y29207D01*
X924184Y29182D01*
X924139Y29013D01*
X924089Y28846D01*
X924087Y28820D01*
X924080Y28794D01*
X924053Y28463D01*
X924053Y15860D01*
X922855Y12969D01*
X922851Y12956D01*
X922845Y12945D01*
X922794Y12765D01*
X922739Y12584D01*
X922738Y12571D01*
X922734Y12558D01*
X922719Y12370D01*
X922701Y12183D01*
X922702Y12170D01*
X922701Y12156D01*
X922723Y11970D01*
X922742Y11783D01*
X922746Y11770D01*
X922748Y11757D01*
X922806Y11578D01*
X922862Y11398D01*
X922869Y11387D01*
X922873Y11374D01*
X922966Y11209D01*
X923056Y11045D01*
X923064Y11035D01*
X923071Y11023D01*
X923194Y10881D01*
X923315Y10737D01*
X923325Y10729D01*
X923334Y10718D01*
X923482Y10603D01*
X923630Y10486D01*
X923641Y10480D01*
X923652Y10472D01*
X923821Y10388D01*
X923988Y10302D01*
X924000Y10298D01*
X924013Y10292D01*
X924195Y10243D01*
X924375Y10192D01*
X924388Y10191D01*
X924401Y10188D01*
X924732Y10161D01*
X1029097Y10161D01*
X1029242Y10175D01*
X1029388Y10182D01*
X1029442Y10195D01*
X1029497Y10201D01*
X1029637Y10244D01*
X1029779Y10279D01*
X1029829Y10302D01*
X1029882Y10319D01*
X1030011Y10388D01*
X1030143Y10451D01*
X1030188Y10484D01*
X1030236Y10511D01*
X1030348Y10604D01*
X1030466Y10691D01*
X1030503Y10733D01*
X1030546Y10768D01*
X1030637Y10882D01*
X1030735Y10991D01*
X1030763Y11039D01*
X1030798Y11082D01*
X1030865Y11212D01*
X1030940Y11338D01*
X1030958Y11390D01*
X1030983Y11439D01*
X1031024Y11580D01*
X1031072Y11718D01*
X1031079Y11773D01*
X1031095Y11826D01*
X1031107Y11972D01*
X1031127Y12117D01*
X1031123Y12172D01*
X1031128Y12228D01*
X1031111Y12373D01*
X1031102Y12519D01*
X1031087Y12572D01*
X1031081Y12627D01*
X1031035Y12766D01*
X1030998Y12908D01*
X1030971Y12965D01*
X1030956Y13010D01*
X1030915Y13083D01*
X1030856Y13208D01*
X1029661Y15277D01*
X1027874Y21947D01*
X1027874Y28853D01*
X1029661Y35523D01*
X1033114Y41503D01*
X1033962Y42352D01*
X1033968Y42359D01*
X1033975Y42364D01*
X1034094Y42513D01*
X1034217Y42663D01*
X1034222Y42671D01*
X1034227Y42678D01*
X1034315Y42848D01*
X1034406Y43019D01*
X1034408Y43028D01*
X1034413Y43035D01*
X1034465Y43218D01*
X1034521Y43405D01*
X1034522Y43414D01*
X1034524Y43422D01*
X1034540Y43613D01*
X1034557Y43806D01*
X1034556Y43815D01*
X1034557Y43824D01*
X1034535Y44013D01*
X1034514Y44206D01*
X1034511Y44215D01*
X1034510Y44223D01*
X1034450Y44406D01*
X1034392Y44590D01*
X1034388Y44598D01*
X1034385Y44606D01*
X1034291Y44773D01*
X1034197Y44942D01*
X1034192Y44949D01*
X1034187Y44957D01*
X1034062Y45102D01*
X1033937Y45249D01*
X1033930Y45255D01*
X1033924Y45262D01*
X1033772Y45379D01*
X1033621Y45499D01*
X1033613Y45503D01*
X1033606Y45508D01*
X1033434Y45594D01*
X1033262Y45681D01*
X1033253Y45684D01*
X1033245Y45688D01*
X1033060Y45737D01*
X1032874Y45789D01*
X1032865Y45790D01*
X1032857Y45792D01*
X1032526Y45819D01*
X1031413Y45819D01*
X1031413Y63047D01*
X1048641Y63047D01*
X1048641Y58291D01*
X1044162Y53813D01*
X1044116Y53756D01*
X1044063Y53706D01*
X1043989Y53600D01*
X1043907Y53501D01*
X1043873Y53436D01*
X1043831Y53377D01*
X1043779Y53259D01*
X1043719Y53145D01*
X1043698Y53075D01*
X1043668Y53008D01*
X1043640Y52883D01*
X1043604Y52760D01*
X1043597Y52687D01*
X1043581Y52615D01*
X1043579Y52487D01*
X1043567Y52359D01*
X1043575Y52286D01*
X1043574Y52212D01*
X1043597Y52086D01*
X1043611Y51958D01*
X1043633Y51888D01*
X1043646Y51816D01*
X1043693Y51697D01*
X1043732Y51574D01*
X1043768Y51510D01*
X1043795Y51442D01*
X1043865Y51335D01*
X1043927Y51222D01*
X1043974Y51166D01*
X1044014Y51105D01*
X1044104Y51013D01*
X1044188Y50915D01*
X1044245Y50870D01*
X1044296Y50817D01*
X1044403Y50745D01*
X1044504Y50666D01*
X1044569Y50632D01*
X1044629Y50591D01*
X1044748Y50541D01*
X1044862Y50483D01*
X1044933Y50463D01*
X1045001Y50435D01*
X1045127Y50410D01*
X1045250Y50375D01*
X1045323Y50370D01*
X1045395Y50355D01*
X1045524Y50355D01*
X1045652Y50346D01*
X1045725Y50355D01*
X1045798Y50355D01*
X1045964Y50385D01*
X1046051Y50396D01*
X1046083Y50407D01*
X1046124Y50414D01*
X1050647Y51626D01*
X1057553Y51626D01*
X1064223Y49839D01*
X1066292Y48644D01*
X1066426Y48584D01*
X1066555Y48517D01*
X1066609Y48501D01*
X1066659Y48478D01*
X1066802Y48446D01*
X1066942Y48405D01*
X1066998Y48401D01*
X1067052Y48388D01*
X1067198Y48384D01*
X1067344Y48372D01*
X1067399Y48379D01*
X1067454Y48377D01*
X1067598Y48402D01*
X1067743Y48419D01*
X1067796Y48436D01*
X1067851Y48446D01*
X1067987Y48499D01*
X1068126Y48544D01*
X1068175Y48571D01*
X1068226Y48591D01*
X1068349Y48670D01*
X1068477Y48742D01*
X1068519Y48778D01*
X1068566Y48808D01*
X1068671Y48910D01*
X1068782Y49005D01*
X1068815Y49049D01*
X1068856Y49087D01*
X1068939Y49208D01*
X1069028Y49323D01*
X1069053Y49373D01*
X1069085Y49419D01*
X1069142Y49553D01*
X1069208Y49684D01*
X1069222Y49737D01*
X1069244Y49788D01*
X1069274Y49931D01*
X1069312Y50073D01*
X1069317Y50136D01*
X1069327Y50182D01*
X1069328Y50266D01*
X1069339Y50403D01*
X1069339Y93994D01*
X1069338Y94003D01*
X1069339Y94012D01*
X1069318Y94204D01*
X1069299Y94395D01*
X1069297Y94403D01*
X1069296Y94412D01*
X1069238Y94595D01*
X1069181Y94780D01*
X1069177Y94788D01*
X1069174Y94796D01*
X1069081Y94964D01*
X1068989Y95134D01*
X1068984Y95141D01*
X1068979Y95148D01*
X1068855Y95295D01*
X1068732Y95443D01*
X1068725Y95449D01*
X1068719Y95455D01*
X1068568Y95574D01*
X1068418Y95695D01*
X1068410Y95699D01*
X1068403Y95705D01*
X1068230Y95793D01*
X1068061Y95881D01*
X1068052Y95883D01*
X1068044Y95887D01*
X1067858Y95939D01*
X1067674Y95992D01*
X1067665Y95993D01*
X1067656Y95995D01*
X1067463Y96009D01*
X1067272Y96025D01*
X1067264Y96024D01*
X1067255Y96025D01*
X1067062Y96000D01*
X1066873Y95978D01*
X1066864Y95975D01*
X1066855Y95974D01*
X1066672Y95913D01*
X1066490Y95853D01*
X1066482Y95849D01*
X1066474Y95846D01*
X1066308Y95751D01*
X1066139Y95655D01*
X1066132Y95650D01*
X1066125Y95645D01*
X1065872Y95431D01*
X1063958Y93517D01*
X1046742Y93517D01*
X1034567Y105692D01*
X1034567Y122908D01*
X1046742Y135083D01*
X1063958Y135083D01*
X1065872Y133169D01*
X1065879Y133164D01*
X1065884Y133157D01*
X1066034Y133037D01*
X1066183Y132914D01*
X1066191Y132910D01*
X1066198Y132905D01*
X1066368Y132816D01*
X1066539Y132726D01*
X1066548Y132723D01*
X1066555Y132719D01*
X1066740Y132666D01*
X1066925Y132611D01*
X1066934Y132610D01*
X1066942Y132608D01*
X1067133Y132592D01*
X1067326Y132575D01*
X1067335Y132576D01*
X1067344Y132575D01*
X1067533Y132597D01*
X1067726Y132618D01*
X1067735Y132621D01*
X1067743Y132622D01*
X1067925Y132681D01*
X1068110Y132740D01*
X1068118Y132744D01*
X1068126Y132747D01*
X1068295Y132842D01*
X1068462Y132934D01*
X1068469Y132940D01*
X1068477Y132945D01*
X1068623Y133070D01*
X1068769Y133195D01*
X1068775Y133202D01*
X1068782Y133208D01*
X1068899Y133359D01*
X1069019Y133511D01*
X1069023Y133519D01*
X1069028Y133526D01*
X1069114Y133698D01*
X1069201Y133870D01*
X1069204Y133878D01*
X1069208Y133886D01*
X1069258Y134072D01*
X1069309Y134258D01*
X1069310Y134266D01*
X1069312Y134275D01*
X1069339Y134606D01*
X1069339Y347994D01*
X1069338Y348003D01*
X1069339Y348012D01*
X1069318Y348204D01*
X1069299Y348395D01*
X1069297Y348403D01*
X1069296Y348412D01*
X1069238Y348595D01*
X1069181Y348780D01*
X1069177Y348788D01*
X1069174Y348796D01*
X1069081Y348964D01*
X1068989Y349134D01*
X1068984Y349141D01*
X1068979Y349148D01*
X1068855Y349295D01*
X1068732Y349443D01*
X1068725Y349449D01*
X1068719Y349455D01*
X1068568Y349574D01*
X1068418Y349695D01*
X1068410Y349699D01*
X1068403Y349705D01*
X1068230Y349793D01*
X1068061Y349881D01*
X1068052Y349883D01*
X1068044Y349887D01*
X1067858Y349939D01*
X1067674Y349992D01*
X1067665Y349993D01*
X1067656Y349995D01*
X1067463Y350009D01*
X1067272Y350025D01*
X1067264Y350024D01*
X1067255Y350025D01*
X1067062Y350000D01*
X1066873Y349978D01*
X1066864Y349975D01*
X1066855Y349974D01*
X1066672Y349913D01*
X1066490Y349853D01*
X1066482Y349849D01*
X1066474Y349846D01*
X1066308Y349751D01*
X1066139Y349655D01*
X1066132Y349650D01*
X1066125Y349645D01*
X1065872Y349431D01*
X1063958Y347517D01*
X1046742Y347517D01*
X1034567Y359692D01*
X1034567Y376908D01*
X1046742Y389083D01*
X1063958Y389083D01*
X1065872Y387169D01*
X1065879Y387164D01*
X1065884Y387157D01*
X1066034Y387037D01*
X1066183Y386914D01*
X1066191Y386910D01*
X1066198Y386905D01*
X1066368Y386816D01*
X1066539Y386726D01*
X1066548Y386723D01*
X1066555Y386719D01*
X1066740Y386666D01*
X1066925Y386611D01*
X1066934Y386610D01*
X1066942Y386608D01*
X1067133Y386592D01*
X1067326Y386575D01*
X1067335Y386576D01*
X1067344Y386575D01*
X1067533Y386597D01*
X1067726Y386618D01*
X1067735Y386621D01*
X1067743Y386622D01*
X1067925Y386681D01*
X1068110Y386740D01*
X1068118Y386744D01*
X1068126Y386747D01*
X1068295Y386842D01*
X1068462Y386934D01*
X1068469Y386940D01*
X1068477Y386945D01*
X1068623Y387070D01*
X1068769Y387195D01*
X1068775Y387202D01*
X1068782Y387208D01*
X1068899Y387359D01*
X1069019Y387511D01*
X1069023Y387519D01*
X1069028Y387526D01*
X1069114Y387698D01*
X1069201Y387870D01*
X1069204Y387878D01*
X1069208Y387886D01*
X1069258Y388072D01*
X1069309Y388258D01*
X1069310Y388266D01*
X1069312Y388275D01*
X1069339Y388606D01*
X1069339Y432197D01*
X1069325Y432342D01*
X1069318Y432488D01*
X1069305Y432542D01*
X1069299Y432597D01*
X1069256Y432737D01*
X1069221Y432879D01*
X1069198Y432929D01*
X1069181Y432982D01*
X1069112Y433111D01*
X1069049Y433243D01*
X1069016Y433288D01*
X1068989Y433336D01*
X1068896Y433448D01*
X1068809Y433566D01*
X1068767Y433603D01*
X1068732Y433646D01*
X1068618Y433737D01*
X1068509Y433835D01*
X1068461Y433863D01*
X1068418Y433898D01*
X1068288Y433965D01*
X1068162Y434040D01*
X1068110Y434058D01*
X1068061Y434083D01*
X1067920Y434124D01*
X1067782Y434172D01*
X1067727Y434179D01*
X1067674Y434195D01*
X1067528Y434207D01*
X1067383Y434227D01*
X1067328Y434223D01*
X1067272Y434228D01*
X1067127Y434211D01*
X1066981Y434202D01*
X1066928Y434187D01*
X1066873Y434181D01*
X1066734Y434135D01*
X1066592Y434098D01*
X1066535Y434071D01*
X1066490Y434056D01*
X1066417Y434015D01*
X1066292Y433956D01*
X1064223Y432761D01*
X1057553Y430974D01*
X1050647Y430974D01*
X1047859Y431721D01*
X1047787Y431733D01*
X1047717Y431754D01*
X1047589Y431765D01*
X1047462Y431786D01*
X1047389Y431783D01*
X1047316Y431790D01*
X1047188Y431776D01*
X1047060Y431772D01*
X1046988Y431755D01*
X1046915Y431747D01*
X1046793Y431708D01*
X1046668Y431678D01*
X1046602Y431647D01*
X1046532Y431625D01*
X1046419Y431563D01*
X1046302Y431509D01*
X1046243Y431466D01*
X1046179Y431430D01*
X1046081Y431347D01*
X1045978Y431271D01*
X1045928Y431217D01*
X1045872Y431170D01*
X1045793Y431069D01*
X1045706Y430974D01*
X1045668Y430911D01*
X1045623Y430854D01*
X1045564Y430739D01*
X1045498Y430629D01*
X1045473Y430560D01*
X1045440Y430495D01*
X1045406Y430371D01*
X1045362Y430250D01*
X1045352Y430178D01*
X1045332Y430107D01*
X1045323Y429979D01*
X1045304Y429852D01*
X1045308Y429779D01*
X1045303Y429706D01*
X1045319Y429578D01*
X1045326Y429450D01*
X1045344Y429379D01*
X1045353Y429306D01*
X1045394Y429184D01*
X1045426Y429060D01*
X1045458Y428994D01*
X1045481Y428924D01*
X1045546Y428813D01*
X1045602Y428697D01*
X1045646Y428639D01*
X1045682Y428576D01*
X1045792Y428446D01*
X1045845Y428377D01*
X1045870Y428355D01*
X1045897Y428323D01*
X1049641Y424579D01*
X1049641Y419509D01*
X1032099Y419509D01*
X1032099Y437051D01*
X1032256Y437051D01*
X1032265Y437052D01*
X1032274Y437051D01*
X1032466Y437072D01*
X1032657Y437091D01*
X1032665Y437093D01*
X1032674Y437094D01*
X1032857Y437152D01*
X1033041Y437209D01*
X1033049Y437213D01*
X1033058Y437216D01*
X1033226Y437309D01*
X1033395Y437401D01*
X1033402Y437406D01*
X1033410Y437411D01*
X1033557Y437535D01*
X1033705Y437658D01*
X1033710Y437665D01*
X1033717Y437671D01*
X1033837Y437823D01*
X1033957Y437972D01*
X1033961Y437980D01*
X1033967Y437987D01*
X1034055Y438160D01*
X1034143Y438329D01*
X1034145Y438338D01*
X1034149Y438346D01*
X1034201Y438531D01*
X1034254Y438716D01*
X1034255Y438725D01*
X1034257Y438734D01*
X1034271Y438926D01*
X1034287Y439118D01*
X1034286Y439126D01*
X1034286Y439135D01*
X1034262Y439326D01*
X1034240Y439517D01*
X1034237Y439526D01*
X1034236Y439535D01*
X1034175Y439717D01*
X1034115Y439900D01*
X1034111Y439908D01*
X1034108Y439916D01*
X1034012Y440084D01*
X1033917Y440251D01*
X1033911Y440258D01*
X1033907Y440265D01*
X1033692Y440518D01*
X1033114Y441097D01*
X1029661Y447077D01*
X1027874Y453747D01*
X1027874Y460653D01*
X1029661Y467323D01*
X1030856Y469392D01*
X1030916Y469526D01*
X1030983Y469655D01*
X1030999Y469709D01*
X1031022Y469759D01*
X1031054Y469902D01*
X1031095Y470042D01*
X1031099Y470098D01*
X1031112Y470152D01*
X1031116Y470298D01*
X1031128Y470444D01*
X1031121Y470499D01*
X1031123Y470554D01*
X1031098Y470698D01*
X1031081Y470843D01*
X1031064Y470896D01*
X1031054Y470951D01*
X1031001Y471087D01*
X1030956Y471226D01*
X1030929Y471275D01*
X1030909Y471326D01*
X1030830Y471449D01*
X1030758Y471577D01*
X1030722Y471619D01*
X1030692Y471666D01*
X1030590Y471771D01*
X1030495Y471882D01*
X1030451Y471915D01*
X1030413Y471956D01*
X1030292Y472039D01*
X1030177Y472128D01*
X1030127Y472153D01*
X1030081Y472185D01*
X1029947Y472242D01*
X1029816Y472308D01*
X1029763Y472322D01*
X1029712Y472344D01*
X1029569Y472374D01*
X1029427Y472412D01*
X1029364Y472417D01*
X1029318Y472427D01*
X1029234Y472428D01*
X1029097Y472439D01*
X924732Y472439D01*
X924719Y472438D01*
X924705Y472439D01*
X924519Y472418D01*
X924331Y472399D01*
X924319Y472395D01*
X924305Y472394D01*
X924126Y472336D01*
X923946Y472281D01*
X923935Y472275D01*
X923922Y472271D01*
X923757Y472179D01*
X923592Y472089D01*
X923582Y472081D01*
X923570Y472074D01*
X923428Y471952D01*
X923283Y471832D01*
X923275Y471821D01*
X923265Y471813D01*
X923149Y471665D01*
X923031Y471518D01*
X923025Y471506D01*
X923016Y471496D01*
X922932Y471327D01*
X922845Y471161D01*
X922842Y471148D01*
X922836Y471136D01*
X922786Y470955D01*
X922734Y470774D01*
X922733Y470760D01*
X922729Y470747D01*
X922716Y470559D01*
X922701Y470372D01*
X922703Y470359D01*
X922702Y470346D01*
X922726Y470158D01*
X922748Y469973D01*
X922752Y469960D01*
X922754Y469947D01*
X922855Y469631D01*
X924053Y466740D01*
X924053Y447660D01*
X922583Y444112D01*
X919868Y441397D01*
X916320Y439927D01*
X912196Y439927D01*
X912187Y439926D01*
X912178Y439927D01*
X911985Y439906D01*
X911796Y439887D01*
X911787Y439885D01*
X911778Y439884D01*
X911595Y439826D01*
X911411Y439769D01*
X911403Y439765D01*
X911394Y439762D01*
X911227Y439670D01*
X911159Y439633D01*
X911134Y439710D01*
X911072Y439900D01*
X911070Y439904D01*
X911068Y439908D01*
X910972Y440077D01*
X910874Y440251D01*
X910871Y440254D01*
X910869Y440258D01*
X910741Y440405D01*
X910611Y440555D01*
X910607Y440558D01*
X910604Y440562D01*
X910447Y440682D01*
X910293Y440802D01*
X910289Y440804D01*
X910285Y440807D01*
X909990Y440959D01*
X908932Y441397D01*
X906217Y444112D01*
X904747Y447660D01*
X904747Y466740D01*
X905945Y469631D01*
X905949Y469644D01*
X905955Y469655D01*
X906006Y469835D01*
X906061Y470016D01*
X906062Y470029D01*
X906066Y470042D01*
X906081Y470230D01*
X906099Y470417D01*
X906098Y470430D01*
X906099Y470444D01*
X906077Y470630D01*
X906058Y470817D01*
X906054Y470830D01*
X906052Y470843D01*
X905994Y471022D01*
X905938Y471202D01*
X905931Y471213D01*
X905927Y471226D01*
X905834Y471391D01*
X905744Y471555D01*
X905736Y471565D01*
X905729Y471577D01*
X905606Y471719D01*
X905485Y471863D01*
X905475Y471871D01*
X905466Y471882D01*
X905318Y471997D01*
X905170Y472114D01*
X905159Y472120D01*
X905148Y472128D01*
X904979Y472212D01*
X904812Y472298D01*
X904800Y472302D01*
X904787Y472308D01*
X904605Y472357D01*
X904425Y472408D01*
X904412Y472409D01*
X904399Y472412D01*
X904068Y472439D01*
X899332Y472439D01*
X899319Y472438D01*
X899305Y472439D01*
X899119Y472418D01*
X898931Y472399D01*
X898919Y472395D01*
X898905Y472394D01*
X898726Y472336D01*
X898546Y472281D01*
X898535Y472275D01*
X898522Y472271D01*
X898357Y472179D01*
X898192Y472089D01*
X898182Y472081D01*
X898170Y472074D01*
X898028Y471952D01*
X897883Y471832D01*
X897875Y471821D01*
X897865Y471813D01*
X897749Y471665D01*
X897631Y471518D01*
X897625Y471506D01*
X897616Y471496D01*
X897532Y471327D01*
X897445Y471161D01*
X897442Y471148D01*
X897436Y471136D01*
X897386Y470955D01*
X897334Y470774D01*
X897333Y470760D01*
X897329Y470747D01*
X897316Y470559D01*
X897301Y470372D01*
X897303Y470359D01*
X897302Y470346D01*
X897326Y470158D01*
X897348Y469973D01*
X897352Y469960D01*
X897354Y469947D01*
X897455Y469631D01*
X898653Y466740D01*
X898653Y447660D01*
X897183Y444112D01*
X894468Y441397D01*
X893410Y440959D01*
X893406Y440957D01*
X893402Y440955D01*
X893229Y440862D01*
X893055Y440768D01*
X893052Y440766D01*
X893048Y440763D01*
X892899Y440639D01*
X892745Y440512D01*
X892742Y440509D01*
X892738Y440506D01*
X892614Y440351D01*
X892491Y440199D01*
X892489Y440195D01*
X892486Y440192D01*
X892396Y440019D01*
X892304Y439843D01*
X892303Y439839D01*
X892301Y439835D01*
X892246Y439646D01*
X892191Y439456D01*
X892190Y439452D01*
X892189Y439448D01*
X892173Y439250D01*
X892158Y439073D01*
X892039Y439211D01*
X891915Y439357D01*
X891908Y439363D01*
X891902Y439370D01*
X891751Y439487D01*
X891599Y439607D01*
X891591Y439611D01*
X891584Y439616D01*
X891413Y439701D01*
X891240Y439789D01*
X891231Y439792D01*
X891223Y439796D01*
X891037Y439846D01*
X890852Y439897D01*
X890843Y439898D01*
X890835Y439900D01*
X890504Y439927D01*
X887080Y439927D01*
X883532Y441397D01*
X880817Y444112D01*
X879347Y447660D01*
X879347Y451104D01*
X879345Y451122D01*
X879347Y451140D01*
X879326Y451322D01*
X879307Y451505D01*
X879302Y451522D01*
X879300Y451539D01*
X879243Y451714D01*
X879189Y451890D01*
X879181Y451905D01*
X879175Y451922D01*
X879085Y452082D01*
X878997Y452244D01*
X878986Y452257D01*
X878977Y452273D01*
X878857Y452412D01*
X878740Y452553D01*
X878726Y452564D01*
X878714Y452578D01*
X878569Y452690D01*
X878426Y452805D01*
X878410Y452813D01*
X878396Y452824D01*
X878231Y452906D01*
X878069Y452991D01*
X878052Y452996D01*
X878036Y453004D01*
X877857Y453051D01*
X877682Y453102D01*
X877664Y453104D01*
X877647Y453108D01*
X877316Y453135D01*
X766304Y453135D01*
X766277Y453133D01*
X766250Y453135D01*
X766077Y453113D01*
X765903Y453095D01*
X765878Y453088D01*
X765851Y453084D01*
X765685Y453029D01*
X765518Y452977D01*
X765495Y452964D01*
X765469Y452956D01*
X765318Y452869D01*
X765164Y452785D01*
X765144Y452768D01*
X765120Y452755D01*
X764867Y452540D01*
X722210Y409883D01*
X722193Y409862D01*
X722172Y409844D01*
X722065Y409706D01*
X721955Y409571D01*
X721942Y409547D01*
X721926Y409526D01*
X721848Y409369D01*
X721766Y409215D01*
X721758Y409190D01*
X721746Y409166D01*
X721701Y408996D01*
X721651Y408829D01*
X721649Y408803D01*
X721642Y408777D01*
X721615Y408446D01*
X721615Y391114D01*
X721617Y391096D01*
X721615Y391078D01*
X721636Y390896D01*
X721655Y390713D01*
X721660Y390696D01*
X721662Y390679D01*
X721719Y390504D01*
X721773Y390328D01*
X721781Y390313D01*
X721787Y390296D01*
X721877Y390136D01*
X721965Y389974D01*
X721976Y389961D01*
X721985Y389945D01*
X722105Y389806D01*
X722222Y389665D01*
X722236Y389654D01*
X722248Y389640D01*
X722393Y389528D01*
X722536Y389413D01*
X722552Y389405D01*
X722566Y389394D01*
X722731Y389312D01*
X722893Y389227D01*
X722910Y389222D01*
X722926Y389214D01*
X723105Y389167D01*
X723280Y389116D01*
X723298Y389114D01*
X723315Y389110D01*
X723646Y389083D01*
X729498Y389083D01*
X741673Y376908D01*
X741673Y359692D01*
X729498Y347517D01*
X712282Y347517D01*
X700107Y359692D01*
X700107Y376908D01*
X712820Y389621D01*
X712903Y389690D01*
X712914Y389704D01*
X712928Y389716D01*
X713040Y389861D01*
X713155Y390004D01*
X713163Y390020D01*
X713174Y390034D01*
X713256Y390199D01*
X713341Y390361D01*
X713346Y390378D01*
X713354Y390394D01*
X713401Y390573D01*
X713452Y390748D01*
X713454Y390766D01*
X713458Y390783D01*
X713485Y391114D01*
X713485Y411780D01*
X714104Y413274D01*
X761476Y460646D01*
X762970Y461265D01*
X877316Y461265D01*
X877334Y461267D01*
X877352Y461265D01*
X877534Y461286D01*
X877717Y461305D01*
X877734Y461310D01*
X877751Y461312D01*
X877926Y461369D01*
X878102Y461423D01*
X878117Y461431D01*
X878134Y461437D01*
X878294Y461527D01*
X878456Y461615D01*
X878469Y461626D01*
X878485Y461635D01*
X878624Y461755D01*
X878765Y461872D01*
X878776Y461886D01*
X878790Y461898D01*
X878902Y462043D01*
X879017Y462186D01*
X879025Y462202D01*
X879036Y462216D01*
X879118Y462381D01*
X879203Y462543D01*
X879208Y462560D01*
X879216Y462576D01*
X879263Y462755D01*
X879314Y462930D01*
X879316Y462948D01*
X879320Y462965D01*
X879347Y463296D01*
X879347Y466740D01*
X880545Y469631D01*
X880549Y469644D01*
X880555Y469655D01*
X880606Y469835D01*
X880661Y470016D01*
X880662Y470029D01*
X880666Y470042D01*
X880681Y470230D01*
X880699Y470417D01*
X880698Y470430D01*
X880699Y470444D01*
X880677Y470630D01*
X880658Y470817D01*
X880654Y470830D01*
X880652Y470843D01*
X880594Y471022D01*
X880538Y471202D01*
X880531Y471213D01*
X880527Y471226D01*
X880434Y471391D01*
X880344Y471555D01*
X880336Y471565D01*
X880329Y471577D01*
X880206Y471719D01*
X880085Y471863D01*
X880075Y471871D01*
X880066Y471882D01*
X879918Y471997D01*
X879770Y472114D01*
X879759Y472120D01*
X879748Y472128D01*
X879579Y472212D01*
X879412Y472298D01*
X879400Y472302D01*
X879387Y472308D01*
X879205Y472357D01*
X879025Y472408D01*
X879012Y472409D01*
X878999Y472412D01*
X878668Y472439D01*
X543732Y472439D01*
X543719Y472438D01*
X543705Y472439D01*
X543519Y472418D01*
X543331Y472399D01*
X543319Y472395D01*
X543305Y472394D01*
X543126Y472336D01*
X542946Y472281D01*
X542935Y472275D01*
X542922Y472271D01*
X542757Y472179D01*
X542592Y472089D01*
X542582Y472081D01*
X542570Y472074D01*
X542428Y471952D01*
X542283Y471832D01*
X542275Y471821D01*
X542265Y471813D01*
X542149Y471665D01*
X542031Y471518D01*
X542025Y471506D01*
X542016Y471496D01*
X541932Y471327D01*
X541845Y471161D01*
X541842Y471148D01*
X541836Y471136D01*
X541786Y470955D01*
X541734Y470774D01*
X541733Y470760D01*
X541729Y470747D01*
X541716Y470559D01*
X541701Y470372D01*
X541703Y470359D01*
X541702Y470346D01*
X541726Y470158D01*
X541748Y469973D01*
X541752Y469960D01*
X541754Y469947D01*
X541855Y469631D01*
X543053Y466740D01*
X543053Y447660D01*
X541583Y444112D01*
X538868Y441397D01*
X538719Y441335D01*
X538699Y441325D01*
X538678Y441318D01*
X538522Y441229D01*
X538364Y441145D01*
X538347Y441131D01*
X538327Y441120D01*
X538192Y441003D01*
X538053Y440888D01*
X538039Y440871D01*
X538022Y440857D01*
X537913Y440715D01*
X537800Y440576D01*
X537789Y440556D01*
X537776Y440538D01*
X537696Y440378D01*
X537613Y440219D01*
X537606Y440198D01*
X537596Y440178D01*
X537550Y440005D01*
X537500Y439833D01*
X537498Y439811D01*
X537492Y439789D01*
X537465Y439458D01*
X537465Y361141D01*
X536846Y359648D01*
X516652Y339454D01*
X515159Y338835D01*
X501546Y338835D01*
X501528Y338833D01*
X501510Y338835D01*
X501328Y338814D01*
X501145Y338795D01*
X501128Y338790D01*
X501111Y338788D01*
X500936Y338731D01*
X500760Y338677D01*
X500745Y338669D01*
X500728Y338663D01*
X500568Y338573D01*
X500406Y338485D01*
X500393Y338474D01*
X500377Y338465D01*
X500238Y338345D01*
X500097Y338228D01*
X500086Y338214D01*
X500072Y338202D01*
X499960Y338057D01*
X499845Y337914D01*
X499837Y337898D01*
X499826Y337884D01*
X499744Y337719D01*
X499659Y337557D01*
X499654Y337540D01*
X499646Y337524D01*
X499599Y337345D01*
X499548Y337170D01*
X499546Y337152D01*
X499542Y337135D01*
X499515Y336804D01*
X499515Y334076D01*
X498324Y332885D01*
X479876Y332885D01*
X478685Y334076D01*
X478685Y352524D01*
X479876Y353715D01*
X498324Y353715D01*
X499515Y352524D01*
X499515Y348996D01*
X499517Y348978D01*
X499515Y348960D01*
X499536Y348778D01*
X499555Y348595D01*
X499560Y348578D01*
X499562Y348561D01*
X499619Y348386D01*
X499673Y348210D01*
X499681Y348195D01*
X499687Y348178D01*
X499777Y348018D01*
X499865Y347856D01*
X499876Y347843D01*
X499885Y347827D01*
X500005Y347688D01*
X500122Y347547D01*
X500136Y347536D01*
X500148Y347522D01*
X500293Y347410D01*
X500436Y347295D01*
X500452Y347287D01*
X500466Y347276D01*
X500631Y347194D01*
X500793Y347109D01*
X500810Y347104D01*
X500826Y347096D01*
X501005Y347049D01*
X501180Y346998D01*
X501198Y346996D01*
X501215Y346992D01*
X501546Y346965D01*
X511825Y346965D01*
X511852Y346967D01*
X511878Y346965D01*
X512052Y346987D01*
X512226Y347005D01*
X512251Y347012D01*
X512278Y347016D01*
X512443Y347071D01*
X512610Y347123D01*
X512634Y347136D01*
X512659Y347144D01*
X512811Y347231D01*
X512965Y347315D01*
X512985Y347332D01*
X513008Y347345D01*
X513261Y347560D01*
X528740Y363039D01*
X528757Y363059D01*
X528778Y363077D01*
X528885Y363215D01*
X528995Y363350D01*
X529008Y363374D01*
X529024Y363395D01*
X529102Y363552D01*
X529184Y363706D01*
X529192Y363731D01*
X529204Y363756D01*
X529249Y363925D01*
X529299Y364092D01*
X529301Y364118D01*
X529308Y364144D01*
X529335Y364475D01*
X529335Y439458D01*
X529333Y439481D01*
X529335Y439503D01*
X529313Y439680D01*
X529295Y439859D01*
X529289Y439880D01*
X529286Y439903D01*
X529230Y440072D01*
X529177Y440244D01*
X529167Y440264D01*
X529160Y440285D01*
X529071Y440440D01*
X528985Y440598D01*
X528971Y440615D01*
X528960Y440634D01*
X528843Y440769D01*
X528728Y440907D01*
X528710Y440921D01*
X528696Y440938D01*
X528554Y441047D01*
X528414Y441160D01*
X528394Y441170D01*
X528376Y441183D01*
X528081Y441335D01*
X527932Y441397D01*
X525217Y444112D01*
X523747Y447660D01*
X523747Y466740D01*
X524945Y469631D01*
X524949Y469644D01*
X524955Y469655D01*
X525006Y469835D01*
X525061Y470016D01*
X525062Y470029D01*
X525066Y470042D01*
X525081Y470230D01*
X525099Y470417D01*
X525098Y470430D01*
X525099Y470444D01*
X525077Y470630D01*
X525058Y470817D01*
X525054Y470830D01*
X525052Y470843D01*
X524994Y471022D01*
X524938Y471202D01*
X524931Y471213D01*
X524927Y471226D01*
X524834Y471391D01*
X524744Y471555D01*
X524736Y471565D01*
X524729Y471577D01*
X524606Y471719D01*
X524485Y471863D01*
X524475Y471871D01*
X524466Y471882D01*
X524318Y471997D01*
X524170Y472114D01*
X524159Y472120D01*
X524148Y472128D01*
X523979Y472212D01*
X523812Y472298D01*
X523800Y472302D01*
X523787Y472308D01*
X523605Y472357D01*
X523425Y472408D01*
X523412Y472409D01*
X523399Y472412D01*
X523068Y472439D01*
X518332Y472439D01*
X518319Y472438D01*
X518305Y472439D01*
X518119Y472418D01*
X517931Y472399D01*
X517919Y472395D01*
X517905Y472394D01*
X517726Y472336D01*
X517546Y472281D01*
X517535Y472275D01*
X517522Y472271D01*
X517357Y472179D01*
X517192Y472089D01*
X517182Y472081D01*
X517170Y472074D01*
X517028Y471952D01*
X516883Y471832D01*
X516875Y471821D01*
X516865Y471813D01*
X516749Y471665D01*
X516631Y471518D01*
X516625Y471506D01*
X516616Y471496D01*
X516532Y471327D01*
X516445Y471161D01*
X516442Y471148D01*
X516436Y471136D01*
X516386Y470955D01*
X516334Y470774D01*
X516333Y470760D01*
X516329Y470747D01*
X516316Y470559D01*
X516301Y470372D01*
X516303Y470359D01*
X516302Y470346D01*
X516326Y470158D01*
X516348Y469973D01*
X516352Y469960D01*
X516354Y469947D01*
X516455Y469631D01*
X517653Y466740D01*
X517653Y447660D01*
X516183Y444112D01*
X513468Y441397D01*
X509920Y439927D01*
X506080Y439927D01*
X502532Y441397D01*
X499817Y444112D01*
X498347Y447660D01*
X498347Y466740D01*
X499545Y469631D01*
X499549Y469644D01*
X499555Y469655D01*
X499606Y469835D01*
X499661Y470016D01*
X499662Y470029D01*
X499666Y470042D01*
X499681Y470230D01*
X499699Y470417D01*
X499698Y470430D01*
X499699Y470444D01*
X499677Y470630D01*
X499658Y470817D01*
X499654Y470830D01*
X499652Y470843D01*
X499594Y471022D01*
X499538Y471202D01*
X499531Y471213D01*
X499527Y471226D01*
X499434Y471391D01*
X499344Y471555D01*
X499336Y471565D01*
X499329Y471577D01*
X499206Y471719D01*
X499085Y471863D01*
X499075Y471871D01*
X499066Y471882D01*
X498918Y471997D01*
X498770Y472114D01*
X498759Y472120D01*
X498748Y472128D01*
X498579Y472212D01*
X498412Y472298D01*
X498400Y472302D01*
X498387Y472308D01*
X498205Y472357D01*
X498025Y472408D01*
X498012Y472409D01*
X497999Y472412D01*
X497668Y472439D01*
X492932Y472439D01*
X492919Y472438D01*
X492905Y472439D01*
X492719Y472418D01*
X492531Y472399D01*
X492519Y472395D01*
X492505Y472394D01*
X492326Y472336D01*
X492146Y472281D01*
X492135Y472275D01*
X492122Y472271D01*
X491957Y472179D01*
X491792Y472089D01*
X491782Y472081D01*
X491770Y472074D01*
X491628Y471952D01*
X491483Y471832D01*
X491475Y471821D01*
X491465Y471813D01*
X491349Y471665D01*
X491231Y471518D01*
X491225Y471506D01*
X491216Y471496D01*
X491132Y471327D01*
X491045Y471161D01*
X491042Y471148D01*
X491036Y471136D01*
X490986Y470955D01*
X490934Y470774D01*
X490933Y470760D01*
X490929Y470747D01*
X490916Y470559D01*
X490901Y470372D01*
X490903Y470359D01*
X490902Y470346D01*
X490926Y470158D01*
X490948Y469973D01*
X490952Y469960D01*
X490954Y469947D01*
X491055Y469631D01*
X492253Y466740D01*
X492253Y447660D01*
X490783Y444112D01*
X488068Y441397D01*
X484520Y439927D01*
X480680Y439927D01*
X477132Y441397D01*
X474417Y444112D01*
X472947Y447660D01*
X472947Y466740D01*
X474145Y469631D01*
X474149Y469644D01*
X474155Y469655D01*
X474206Y469835D01*
X474261Y470016D01*
X474262Y470029D01*
X474266Y470042D01*
X474281Y470230D01*
X474299Y470417D01*
X474298Y470430D01*
X474299Y470444D01*
X474277Y470630D01*
X474258Y470817D01*
X474254Y470830D01*
X474252Y470843D01*
X474194Y471022D01*
X474138Y471202D01*
X474131Y471213D01*
X474127Y471226D01*
X474034Y471391D01*
X473944Y471555D01*
X473936Y471565D01*
X473929Y471577D01*
X473806Y471719D01*
X473685Y471863D01*
X473675Y471871D01*
X473666Y471882D01*
X473518Y471997D01*
X473370Y472114D01*
X473359Y472120D01*
X473348Y472128D01*
X473179Y472212D01*
X473012Y472298D01*
X473000Y472302D01*
X472987Y472308D01*
X472805Y472357D01*
X472625Y472408D01*
X472612Y472409D01*
X472599Y472412D01*
X472268Y472439D01*
X467532Y472439D01*
X467519Y472438D01*
X467505Y472439D01*
X467319Y472418D01*
X467131Y472399D01*
X467119Y472395D01*
X467105Y472394D01*
X466926Y472336D01*
X466746Y472281D01*
X466735Y472275D01*
X466722Y472271D01*
X466557Y472179D01*
X466392Y472089D01*
X466382Y472081D01*
X466370Y472074D01*
X466228Y471952D01*
X466083Y471832D01*
X466075Y471821D01*
X466065Y471813D01*
X465949Y471665D01*
X465831Y471518D01*
X465825Y471506D01*
X465816Y471496D01*
X465732Y471327D01*
X465645Y471161D01*
X465642Y471148D01*
X465636Y471136D01*
X465586Y470955D01*
X465534Y470774D01*
X465533Y470760D01*
X465529Y470747D01*
X465516Y470559D01*
X465501Y470372D01*
X465503Y470359D01*
X465502Y470346D01*
X465526Y470158D01*
X465548Y469973D01*
X465552Y469960D01*
X465554Y469947D01*
X465655Y469631D01*
X466853Y466740D01*
X466853Y447660D01*
X465383Y444112D01*
X462621Y441350D01*
X462610Y441336D01*
X462596Y441325D01*
X462482Y441180D01*
X462366Y441038D01*
X462358Y441023D01*
X462347Y441009D01*
X462263Y440844D01*
X462177Y440683D01*
X462172Y440666D01*
X462164Y440650D01*
X462115Y440472D01*
X462063Y440297D01*
X462061Y440279D01*
X462056Y440262D01*
X462043Y440079D01*
X462026Y439896D01*
X462028Y439878D01*
X462027Y439860D01*
X462050Y439678D01*
X462070Y439496D01*
X462075Y439479D01*
X462077Y439461D01*
X462135Y439287D01*
X462191Y439112D01*
X462200Y439096D01*
X462205Y439079D01*
X462297Y438920D01*
X462386Y438759D01*
X462397Y438746D01*
X462406Y438730D01*
X462621Y438477D01*
X466419Y434679D01*
X466421Y434678D01*
X466423Y434675D01*
X491112Y410131D01*
X491136Y410112D01*
X491156Y410089D01*
X491171Y410077D01*
X491970Y409279D01*
X491972Y409277D01*
X491974Y409274D01*
X492544Y408708D01*
X492852Y407963D01*
X492853Y407961D01*
X492854Y407958D01*
X493165Y407215D01*
X493165Y406407D01*
X493165Y406405D01*
X493165Y406401D01*
X493168Y405238D01*
X493165Y405197D01*
X493165Y404805D01*
X493167Y404779D01*
X493165Y404752D01*
X493187Y404578D01*
X493205Y404405D01*
X493212Y404379D01*
X493216Y404352D01*
X493272Y404187D01*
X493323Y404020D01*
X493336Y403996D01*
X493344Y403971D01*
X493431Y403819D01*
X493515Y403666D01*
X493532Y403645D01*
X493545Y403622D01*
X493760Y403369D01*
X499515Y397614D01*
X499515Y388986D01*
X493414Y382885D01*
X484786Y382885D01*
X478685Y388986D01*
X478685Y397614D01*
X483969Y402897D01*
X483982Y402913D01*
X483998Y402927D01*
X484109Y403069D01*
X484224Y403209D01*
X484233Y403227D01*
X484246Y403243D01*
X484328Y403405D01*
X484412Y403564D01*
X484418Y403584D01*
X484428Y403603D01*
X484476Y403777D01*
X484527Y403950D01*
X484529Y403971D01*
X484534Y403991D01*
X484547Y404171D01*
X484563Y404351D01*
X484561Y404372D01*
X484563Y404393D01*
X484540Y404571D01*
X484520Y404752D01*
X484514Y404771D01*
X484511Y404792D01*
X484453Y404963D01*
X484399Y405135D01*
X484388Y405154D01*
X484382Y405173D01*
X484291Y405329D01*
X484204Y405488D01*
X484190Y405504D01*
X484180Y405522D01*
X483964Y405774D01*
X461538Y428069D01*
X461514Y428088D01*
X461494Y428111D01*
X461479Y428123D01*
X460680Y428921D01*
X460678Y428923D01*
X460676Y428926D01*
X459852Y429744D01*
X459825Y429777D01*
X453754Y435848D01*
X453135Y437341D01*
X453135Y439458D01*
X453133Y439481D01*
X453135Y439503D01*
X453113Y439680D01*
X453095Y439859D01*
X453089Y439880D01*
X453086Y439903D01*
X453030Y440072D01*
X452977Y440244D01*
X452967Y440264D01*
X452960Y440285D01*
X452871Y440440D01*
X452785Y440598D01*
X452771Y440615D01*
X452760Y440634D01*
X452643Y440769D01*
X452528Y440907D01*
X452510Y440921D01*
X452496Y440938D01*
X452354Y441047D01*
X452214Y441160D01*
X452194Y441170D01*
X452176Y441183D01*
X451881Y441335D01*
X451693Y441413D01*
X451663Y441437D01*
X451510Y441562D01*
X451506Y441564D01*
X451503Y441567D01*
X451326Y441660D01*
X451155Y441751D01*
X451150Y441752D01*
X451146Y441754D01*
X450955Y441810D01*
X450769Y441866D01*
X450764Y441866D01*
X450760Y441867D01*
X450567Y441884D01*
X450368Y441902D01*
X450363Y441902D01*
X450359Y441902D01*
X450168Y441881D01*
X449968Y441859D01*
X449963Y441857D01*
X449959Y441857D01*
X449776Y441798D01*
X449584Y441737D01*
X449580Y441735D01*
X449575Y441734D01*
X449406Y441639D01*
X449231Y441543D01*
X449228Y441540D01*
X449224Y441537D01*
X449074Y441409D01*
X448924Y441282D01*
X448921Y441278D01*
X448918Y441276D01*
X448795Y441119D01*
X448675Y440966D01*
X448673Y440962D01*
X448670Y440959D01*
X448579Y440777D01*
X448492Y440607D01*
X448491Y440603D01*
X448489Y440599D01*
X448437Y440408D01*
X448384Y440219D01*
X448384Y440215D01*
X448383Y440210D01*
X448369Y440014D01*
X448355Y439818D01*
X448355Y439813D01*
X448355Y439809D01*
X448381Y439607D01*
X448405Y439418D01*
X448407Y439414D01*
X448407Y439410D01*
X448509Y439094D01*
X448565Y438959D01*
X448565Y409210D01*
X448575Y409104D01*
X448576Y408998D01*
X448595Y408904D01*
X448605Y408809D01*
X448636Y408708D01*
X448657Y408603D01*
X448695Y408516D01*
X448723Y408424D01*
X448773Y408331D01*
X448815Y408233D01*
X448869Y408154D01*
X448915Y408070D01*
X448983Y407989D01*
X449043Y407901D01*
X449124Y407820D01*
X449172Y407761D01*
X449219Y407724D01*
X449277Y407665D01*
X482612Y379188D01*
X482728Y379108D01*
X482838Y379021D01*
X482893Y378993D01*
X482943Y378958D01*
X483072Y378902D01*
X483198Y378839D01*
X483256Y378822D01*
X483312Y378798D01*
X483450Y378769D01*
X483586Y378731D01*
X483646Y378727D01*
X483706Y378714D01*
X483846Y378712D01*
X483987Y378702D01*
X484048Y378710D01*
X484108Y378709D01*
X484138Y378715D01*
X493414Y378715D01*
X499515Y372614D01*
X499515Y363986D01*
X493414Y357885D01*
X484786Y357885D01*
X478685Y363986D01*
X478685Y370915D01*
X478675Y371021D01*
X478674Y371127D01*
X478655Y371220D01*
X478645Y371315D01*
X478614Y371417D01*
X478593Y371521D01*
X478555Y371609D01*
X478527Y371700D01*
X478477Y371794D01*
X478435Y371892D01*
X478381Y371970D01*
X478335Y372054D01*
X478267Y372136D01*
X478207Y372224D01*
X478126Y372305D01*
X478078Y372363D01*
X478031Y372401D01*
X477973Y372459D01*
X442594Y402682D01*
X442469Y402769D01*
X442347Y402863D01*
X442298Y402888D01*
X442264Y402912D01*
X442221Y402930D01*
X441795Y403357D01*
X441744Y403399D01*
X441678Y403465D01*
X441210Y403864D01*
X441158Y403956D01*
X441122Y403998D01*
X441099Y404033D01*
X441067Y404067D01*
X440836Y404623D01*
X440805Y404682D01*
X440770Y404768D01*
X440554Y405191D01*
X440486Y405298D01*
X440425Y405409D01*
X440377Y405467D01*
X440337Y405530D01*
X440249Y405621D01*
X440168Y405718D01*
X440109Y405765D01*
X440057Y405820D01*
X439952Y405891D01*
X439854Y405971D01*
X439787Y406005D01*
X439725Y406048D01*
X439609Y406098D01*
X439497Y406156D01*
X439424Y406177D01*
X439355Y406207D01*
X439231Y406233D01*
X439110Y406268D01*
X439035Y406274D01*
X438961Y406289D01*
X438835Y406290D01*
X438708Y406300D01*
X438634Y406292D01*
X438558Y406292D01*
X438434Y406268D01*
X438309Y406253D01*
X438237Y406230D01*
X438163Y406216D01*
X438046Y406168D01*
X437926Y406129D01*
X437860Y406092D01*
X437791Y406063D01*
X437685Y405993D01*
X437575Y405931D01*
X437518Y405882D01*
X437456Y405840D01*
X437366Y405750D01*
X437270Y405668D01*
X437224Y405608D01*
X437171Y405555D01*
X437101Y405449D01*
X437024Y405349D01*
X436990Y405282D01*
X436949Y405219D01*
X436901Y405102D01*
X436844Y404989D01*
X436825Y404916D01*
X436796Y404847D01*
X436773Y404722D01*
X436740Y404600D01*
X436733Y404513D01*
X436721Y404451D01*
X436722Y404377D01*
X436713Y404269D01*
X436713Y396878D01*
X435522Y395687D01*
X402678Y395687D01*
X401487Y396878D01*
X401487Y429722D01*
X402678Y430913D01*
X435522Y430913D01*
X436968Y429467D01*
X436975Y429461D01*
X436980Y429454D01*
X437130Y429334D01*
X437279Y429212D01*
X437287Y429208D01*
X437294Y429202D01*
X437464Y429114D01*
X437635Y429023D01*
X437644Y429021D01*
X437651Y429017D01*
X437836Y428964D01*
X438021Y428909D01*
X438030Y428908D01*
X438038Y428905D01*
X438229Y428890D01*
X438422Y428872D01*
X438431Y428873D01*
X438440Y428872D01*
X438629Y428895D01*
X438822Y428916D01*
X438831Y428918D01*
X438839Y428919D01*
X439021Y428979D01*
X439206Y429037D01*
X439214Y429041D01*
X439222Y429044D01*
X439389Y429138D01*
X439558Y429232D01*
X439565Y429238D01*
X439573Y429242D01*
X439718Y429367D01*
X439865Y429492D01*
X439871Y429499D01*
X439878Y429505D01*
X439994Y429656D01*
X440115Y429808D01*
X440119Y429816D01*
X440124Y429823D01*
X440210Y429995D01*
X440297Y430167D01*
X440300Y430176D01*
X440304Y430184D01*
X440354Y430370D01*
X440405Y430555D01*
X440406Y430564D01*
X440408Y430573D01*
X440435Y430903D01*
X440435Y435625D01*
X440433Y435652D01*
X440435Y435678D01*
X440413Y435852D01*
X440395Y436026D01*
X440388Y436051D01*
X440384Y436078D01*
X440329Y436243D01*
X440277Y436410D01*
X440264Y436434D01*
X440256Y436459D01*
X440169Y436611D01*
X440085Y436765D01*
X440068Y436785D01*
X440055Y436808D01*
X439840Y437061D01*
X436981Y439921D01*
X436964Y439935D01*
X436949Y439952D01*
X436808Y440062D01*
X436669Y440176D01*
X436650Y440186D01*
X436632Y440200D01*
X436472Y440281D01*
X436314Y440364D01*
X436292Y440371D01*
X436272Y440381D01*
X436099Y440428D01*
X435928Y440479D01*
X435906Y440481D01*
X435884Y440487D01*
X435706Y440499D01*
X435527Y440516D01*
X435504Y440513D01*
X435482Y440515D01*
X435306Y440492D01*
X435127Y440472D01*
X435105Y440465D01*
X435083Y440463D01*
X434767Y440361D01*
X433720Y439927D01*
X429880Y439927D01*
X426332Y441397D01*
X423617Y444112D01*
X422147Y447660D01*
X422147Y466740D01*
X423345Y469631D01*
X423349Y469644D01*
X423355Y469655D01*
X423406Y469835D01*
X423461Y470016D01*
X423462Y470029D01*
X423466Y470042D01*
X423481Y470230D01*
X423499Y470417D01*
X423498Y470430D01*
X423499Y470444D01*
X423477Y470630D01*
X423458Y470817D01*
X423454Y470830D01*
X423452Y470843D01*
X423394Y471022D01*
X423338Y471202D01*
X423331Y471213D01*
X423327Y471226D01*
X423234Y471391D01*
X423144Y471555D01*
X423136Y471565D01*
X423129Y471577D01*
X423006Y471719D01*
X422885Y471863D01*
X422875Y471871D01*
X422866Y471882D01*
X422718Y471997D01*
X422570Y472114D01*
X422559Y472120D01*
X422548Y472128D01*
X422379Y472212D01*
X422212Y472298D01*
X422200Y472302D01*
X422187Y472308D01*
X422005Y472357D01*
X421825Y472408D01*
X421812Y472409D01*
X421799Y472412D01*
X421468Y472439D01*
X416732Y472439D01*
X416719Y472438D01*
X416705Y472439D01*
X416519Y472418D01*
X416331Y472399D01*
X416319Y472395D01*
X416305Y472394D01*
X416126Y472336D01*
X415946Y472281D01*
X415935Y472275D01*
X415922Y472271D01*
X415757Y472179D01*
X415592Y472089D01*
X415582Y472081D01*
X415570Y472074D01*
X415428Y471952D01*
X415283Y471832D01*
X415275Y471821D01*
X415265Y471813D01*
X415149Y471665D01*
X415031Y471518D01*
X415025Y471506D01*
X415016Y471496D01*
X414932Y471327D01*
X414845Y471161D01*
X414842Y471148D01*
X414836Y471136D01*
X414786Y470955D01*
X414734Y470774D01*
X414733Y470760D01*
X414729Y470747D01*
X414716Y470559D01*
X414701Y470372D01*
X414703Y470359D01*
X414702Y470346D01*
X414726Y470158D01*
X414748Y469973D01*
X414752Y469960D01*
X414754Y469947D01*
X414855Y469631D01*
X416053Y466740D01*
X416053Y447660D01*
X414583Y444112D01*
X411868Y441397D01*
X408320Y439927D01*
X404480Y439927D01*
X400932Y441397D01*
X400075Y442254D01*
X400069Y442259D01*
X400066Y442262D01*
X400061Y442265D01*
X400050Y442279D01*
X399906Y442392D01*
X399763Y442509D01*
X399748Y442517D01*
X399734Y442528D01*
X399569Y442612D01*
X399408Y442698D01*
X399391Y442703D01*
X399375Y442711D01*
X399197Y442760D01*
X399022Y442812D01*
X399004Y442814D01*
X398987Y442819D01*
X398804Y442832D01*
X398621Y442849D01*
X398603Y442847D01*
X398585Y442848D01*
X398403Y442825D01*
X398221Y442805D01*
X398204Y442800D01*
X398186Y442798D01*
X398012Y442739D01*
X397837Y442684D01*
X397821Y442675D01*
X397804Y442670D01*
X397645Y442578D01*
X397484Y442489D01*
X397471Y442478D01*
X397455Y442469D01*
X397202Y442254D01*
X392010Y437061D01*
X391993Y437041D01*
X391972Y437023D01*
X391866Y436886D01*
X391755Y436750D01*
X391742Y436726D01*
X391726Y436705D01*
X391648Y436548D01*
X391566Y436394D01*
X391558Y436369D01*
X391546Y436344D01*
X391501Y436175D01*
X391451Y436008D01*
X391449Y435982D01*
X391442Y435956D01*
X391415Y435625D01*
X391415Y369736D01*
X391417Y369709D01*
X391415Y369682D01*
X391437Y369508D01*
X391455Y369335D01*
X391462Y369309D01*
X391466Y369283D01*
X391522Y369117D01*
X391573Y368950D01*
X391586Y368926D01*
X391594Y368901D01*
X391681Y368749D01*
X391765Y368596D01*
X391782Y368576D01*
X391795Y368552D01*
X392010Y368299D01*
X406399Y353910D01*
X406420Y353893D01*
X406437Y353872D01*
X406575Y353765D01*
X406711Y353655D01*
X406734Y353642D01*
X406756Y353626D01*
X406912Y353548D01*
X407066Y353466D01*
X407092Y353458D01*
X407116Y353446D01*
X407285Y353401D01*
X407452Y353351D01*
X407479Y353349D01*
X407505Y353342D01*
X407836Y353315D01*
X445309Y353315D01*
X446802Y352696D01*
X477339Y322160D01*
X477359Y322143D01*
X477377Y322122D01*
X477515Y322015D01*
X477650Y321905D01*
X477674Y321892D01*
X477695Y321876D01*
X477852Y321798D01*
X478006Y321716D01*
X478031Y321708D01*
X478056Y321696D01*
X478225Y321651D01*
X478392Y321601D01*
X478418Y321599D01*
X478444Y321592D01*
X478775Y321565D01*
X537225Y321565D01*
X537252Y321567D01*
X537278Y321565D01*
X537452Y321587D01*
X537626Y321605D01*
X537651Y321612D01*
X537678Y321616D01*
X537843Y321671D01*
X538010Y321723D01*
X538034Y321736D01*
X538059Y321744D01*
X538211Y321831D01*
X538365Y321915D01*
X538385Y321932D01*
X538408Y321945D01*
X538661Y322160D01*
X594598Y378096D01*
X596091Y378715D01*
X660804Y378715D01*
X660822Y378717D01*
X660840Y378715D01*
X661022Y378736D01*
X661205Y378755D01*
X661222Y378760D01*
X661239Y378762D01*
X661414Y378819D01*
X661590Y378873D01*
X661605Y378881D01*
X661622Y378887D01*
X661782Y378977D01*
X661944Y379065D01*
X661957Y379076D01*
X661973Y379085D01*
X662112Y379205D01*
X662253Y379322D01*
X662264Y379336D01*
X662278Y379348D01*
X662390Y379493D01*
X662505Y379636D01*
X662513Y379652D01*
X662524Y379666D01*
X662606Y379831D01*
X662691Y379993D01*
X662696Y380010D01*
X662704Y380026D01*
X662751Y380205D01*
X662802Y380380D01*
X662804Y380398D01*
X662808Y380415D01*
X662835Y380746D01*
X662835Y381795D01*
X662833Y381821D01*
X662835Y381848D01*
X662813Y382022D01*
X662795Y382195D01*
X662788Y382221D01*
X662784Y382248D01*
X662728Y382413D01*
X662677Y382580D01*
X662664Y382604D01*
X662656Y382629D01*
X662569Y382781D01*
X662485Y382934D01*
X662468Y382955D01*
X662455Y382978D01*
X662240Y383231D01*
X656485Y388986D01*
X656485Y397614D01*
X662586Y403715D01*
X671214Y403715D01*
X677315Y397614D01*
X677315Y388986D01*
X671560Y383231D01*
X671543Y383210D01*
X671522Y383193D01*
X671415Y383055D01*
X671305Y382920D01*
X671292Y382896D01*
X671276Y382875D01*
X671198Y382718D01*
X671116Y382564D01*
X671108Y382538D01*
X671096Y382514D01*
X671051Y382345D01*
X671001Y382178D01*
X670999Y382151D01*
X670992Y382125D01*
X670965Y381795D01*
X670965Y379805D01*
X670967Y379779D01*
X670965Y379752D01*
X670987Y379578D01*
X671005Y379405D01*
X671012Y379379D01*
X671016Y379352D01*
X671072Y379187D01*
X671123Y379020D01*
X671136Y378996D01*
X671144Y378971D01*
X671231Y378819D01*
X671315Y378666D01*
X671332Y378645D01*
X671345Y378622D01*
X671560Y378369D01*
X677315Y372614D01*
X677315Y363986D01*
X671214Y357885D01*
X662586Y357885D01*
X656485Y363986D01*
X656485Y368554D01*
X656483Y368572D01*
X656485Y368590D01*
X656464Y368772D01*
X656445Y368955D01*
X656440Y368972D01*
X656438Y368989D01*
X656381Y369164D01*
X656327Y369340D01*
X656319Y369355D01*
X656313Y369372D01*
X656223Y369532D01*
X656135Y369694D01*
X656124Y369707D01*
X656115Y369723D01*
X655995Y369862D01*
X655878Y370003D01*
X655864Y370014D01*
X655852Y370028D01*
X655707Y370140D01*
X655564Y370255D01*
X655548Y370263D01*
X655534Y370274D01*
X655369Y370356D01*
X655207Y370441D01*
X655190Y370446D01*
X655174Y370454D01*
X654995Y370501D01*
X654820Y370552D01*
X654802Y370554D01*
X654785Y370558D01*
X654454Y370585D01*
X599425Y370585D01*
X599398Y370583D01*
X599372Y370585D01*
X599198Y370563D01*
X599024Y370545D01*
X598999Y370538D01*
X598972Y370534D01*
X598807Y370479D01*
X598640Y370427D01*
X598616Y370414D01*
X598591Y370406D01*
X598439Y370319D01*
X598285Y370235D01*
X598265Y370218D01*
X598242Y370205D01*
X597989Y369990D01*
X542052Y314054D01*
X540559Y313435D01*
X475441Y313435D01*
X473948Y314054D01*
X443411Y344590D01*
X443391Y344607D01*
X443373Y344628D01*
X443235Y344735D01*
X443100Y344845D01*
X443076Y344858D01*
X443055Y344874D01*
X442898Y344952D01*
X442744Y345034D01*
X442719Y345042D01*
X442694Y345054D01*
X442525Y345099D01*
X442358Y345149D01*
X442332Y345151D01*
X442306Y345158D01*
X441975Y345185D01*
X404502Y345185D01*
X403008Y345804D01*
X383904Y364908D01*
X383285Y366402D01*
X383285Y438959D01*
X383904Y440452D01*
X396152Y452701D01*
X396169Y452721D01*
X396190Y452739D01*
X396297Y452877D01*
X396407Y453012D01*
X396420Y453036D01*
X396436Y453057D01*
X396514Y453214D01*
X396596Y453368D01*
X396604Y453393D01*
X396616Y453418D01*
X396661Y453587D01*
X396711Y453754D01*
X396713Y453780D01*
X396720Y453806D01*
X396747Y454137D01*
X396747Y466740D01*
X397945Y469631D01*
X397949Y469644D01*
X397955Y469655D01*
X398006Y469835D01*
X398061Y470016D01*
X398062Y470029D01*
X398066Y470042D01*
X398081Y470230D01*
X398099Y470417D01*
X398098Y470430D01*
X398099Y470444D01*
X398077Y470630D01*
X398058Y470817D01*
X398054Y470830D01*
X398052Y470843D01*
X397994Y471022D01*
X397938Y471202D01*
X397931Y471213D01*
X397927Y471226D01*
X397834Y471391D01*
X397744Y471555D01*
X397736Y471565D01*
X397729Y471577D01*
X397606Y471719D01*
X397485Y471863D01*
X397475Y471871D01*
X397466Y471882D01*
X397318Y471997D01*
X397170Y472114D01*
X397159Y472120D01*
X397148Y472128D01*
X396979Y472212D01*
X396812Y472298D01*
X396800Y472302D01*
X396787Y472308D01*
X396605Y472357D01*
X396425Y472408D01*
X396412Y472409D01*
X396399Y472412D01*
X396068Y472439D01*
X150032Y472439D01*
X150019Y472438D01*
X150005Y472439D01*
X149819Y472418D01*
X149631Y472399D01*
X149619Y472395D01*
X149605Y472394D01*
X149426Y472336D01*
X149246Y472281D01*
X149235Y472275D01*
X149222Y472271D01*
X149057Y472179D01*
X148892Y472089D01*
X148882Y472081D01*
X148870Y472074D01*
X148728Y471952D01*
X148583Y471832D01*
X148575Y471821D01*
X148565Y471813D01*
X148449Y471665D01*
X148331Y471518D01*
X148325Y471506D01*
X148316Y471496D01*
X148232Y471327D01*
X148145Y471161D01*
X148142Y471148D01*
X148136Y471136D01*
X148086Y470955D01*
X148034Y470774D01*
X148033Y470760D01*
X148029Y470747D01*
X148016Y470559D01*
X148001Y470372D01*
X148003Y470359D01*
X148002Y470346D01*
X148026Y470158D01*
X148048Y469973D01*
X148052Y469960D01*
X148054Y469947D01*
X148155Y469631D01*
X149353Y466740D01*
X149353Y447660D01*
X147883Y444112D01*
X145168Y441397D01*
X141620Y439927D01*
X137780Y439927D01*
X134232Y441397D01*
X131517Y444112D01*
X130047Y447660D01*
X130047Y466740D01*
X131245Y469631D01*
X131249Y469644D01*
X131255Y469655D01*
X131306Y469835D01*
X131361Y470016D01*
X131362Y470029D01*
X131366Y470042D01*
X131381Y470230D01*
X131399Y470417D01*
X131398Y470430D01*
X131399Y470444D01*
X131377Y470630D01*
X131358Y470817D01*
X131354Y470830D01*
X131352Y470843D01*
X131294Y471022D01*
X131238Y471202D01*
X131231Y471213D01*
X131227Y471226D01*
X131134Y471391D01*
X131044Y471555D01*
X131036Y471565D01*
X131029Y471577D01*
X130906Y471719D01*
X130785Y471863D01*
X130775Y471871D01*
X130766Y471882D01*
X130618Y471997D01*
X130470Y472114D01*
X130459Y472120D01*
X130448Y472128D01*
X130279Y472212D01*
X130112Y472298D01*
X130100Y472302D01*
X130087Y472308D01*
X129905Y472357D01*
X129725Y472408D01*
X129712Y472409D01*
X129699Y472412D01*
X129368Y472439D01*
X124632Y472439D01*
X124619Y472438D01*
X124605Y472439D01*
X124419Y472418D01*
X124231Y472399D01*
X124219Y472395D01*
X124205Y472394D01*
X124026Y472336D01*
X123846Y472281D01*
X123835Y472275D01*
X123822Y472271D01*
X123657Y472179D01*
X123492Y472089D01*
X123482Y472081D01*
X123470Y472074D01*
X123328Y471952D01*
X123183Y471832D01*
X123175Y471821D01*
X123165Y471813D01*
X123049Y471665D01*
X122931Y471518D01*
X122925Y471506D01*
X122916Y471496D01*
X122832Y471327D01*
X122745Y471161D01*
X122742Y471148D01*
X122736Y471136D01*
X122686Y470955D01*
X122634Y470774D01*
X122633Y470760D01*
X122629Y470747D01*
X122616Y470559D01*
X122601Y470372D01*
X122603Y470359D01*
X122602Y470346D01*
X122626Y470158D01*
X122648Y469973D01*
X122652Y469960D01*
X122654Y469947D01*
X122755Y469631D01*
X123953Y466740D01*
X123953Y447660D01*
X122483Y444112D01*
X119768Y441397D01*
X116220Y439927D01*
X112380Y439927D01*
X108832Y441397D01*
X106117Y444112D01*
X104647Y447660D01*
X104647Y466740D01*
X105845Y469631D01*
X105849Y469644D01*
X105855Y469655D01*
X105906Y469835D01*
X105961Y470016D01*
X105962Y470029D01*
X105966Y470042D01*
X105981Y470230D01*
X105999Y470417D01*
X105998Y470430D01*
X105999Y470444D01*
X105977Y470630D01*
X105958Y470817D01*
X105954Y470830D01*
X105952Y470843D01*
X105894Y471022D01*
X105838Y471202D01*
X105831Y471213D01*
X105827Y471226D01*
X105734Y471391D01*
X105644Y471555D01*
X105636Y471565D01*
X105629Y471577D01*
X105506Y471719D01*
X105385Y471863D01*
X105375Y471871D01*
X105366Y471882D01*
X105218Y471997D01*
X105070Y472114D01*
X105059Y472120D01*
X105048Y472128D01*
X104879Y472212D01*
X104712Y472298D01*
X104700Y472302D01*
X104687Y472308D01*
X104505Y472357D01*
X104325Y472408D01*
X104312Y472409D01*
X104299Y472412D01*
X103968Y472439D01*
X99232Y472439D01*
X99219Y472438D01*
X99205Y472439D01*
X99019Y472418D01*
X98831Y472399D01*
X98819Y472395D01*
X98805Y472394D01*
X98626Y472336D01*
X98446Y472281D01*
X98435Y472275D01*
X98422Y472271D01*
X98257Y472179D01*
X98092Y472089D01*
X98082Y472081D01*
X98070Y472074D01*
X97928Y471952D01*
X97783Y471832D01*
X97775Y471821D01*
X97765Y471813D01*
X97649Y471665D01*
X97531Y471518D01*
X97525Y471506D01*
X97516Y471496D01*
X97432Y471327D01*
X97345Y471161D01*
X97342Y471148D01*
X97336Y471136D01*
X97286Y470955D01*
X97234Y470774D01*
X97233Y470760D01*
X97229Y470747D01*
X97216Y470559D01*
X97201Y470372D01*
X97203Y470359D01*
X97202Y470346D01*
X97226Y470158D01*
X97248Y469973D01*
X97252Y469960D01*
X97254Y469947D01*
X97355Y469631D01*
X98553Y466740D01*
X98553Y447660D01*
X97083Y444112D01*
X94368Y441397D01*
X94219Y441335D01*
X94199Y441325D01*
X94178Y441318D01*
X94022Y441229D01*
X93864Y441145D01*
X93847Y441131D01*
X93827Y441120D01*
X93692Y441003D01*
X93553Y440888D01*
X93539Y440871D01*
X93522Y440857D01*
X93413Y440715D01*
X93300Y440576D01*
X93289Y440556D01*
X93276Y440538D01*
X93196Y440378D01*
X93113Y440219D01*
X93106Y440198D01*
X93096Y440178D01*
X93050Y440005D01*
X93000Y439833D01*
X92998Y439811D01*
X92992Y439789D01*
X92965Y439458D01*
X92965Y368320D01*
X92967Y368294D01*
X92965Y368267D01*
X92987Y368093D01*
X93005Y367920D01*
X93012Y367894D01*
X93016Y367868D01*
X93071Y367702D01*
X93123Y367535D01*
X93136Y367511D01*
X93144Y367486D01*
X93231Y367334D01*
X93315Y367181D01*
X93332Y367160D01*
X93345Y367137D01*
X93560Y366884D01*
X112884Y347560D01*
X112905Y347543D01*
X112922Y347522D01*
X113060Y347415D01*
X113195Y347305D01*
X113219Y347292D01*
X113240Y347276D01*
X113397Y347198D01*
X113551Y347116D01*
X113577Y347108D01*
X113601Y347096D01*
X113770Y347051D01*
X113937Y347001D01*
X113964Y346999D01*
X113990Y346992D01*
X114320Y346965D01*
X121054Y346965D01*
X121072Y346967D01*
X121090Y346965D01*
X121272Y346986D01*
X121455Y347005D01*
X121472Y347010D01*
X121489Y347012D01*
X121664Y347069D01*
X121840Y347123D01*
X121855Y347131D01*
X121872Y347137D01*
X122032Y347227D01*
X122194Y347315D01*
X122207Y347326D01*
X122223Y347335D01*
X122362Y347455D01*
X122503Y347572D01*
X122514Y347586D01*
X122528Y347598D01*
X122640Y347743D01*
X122755Y347886D01*
X122763Y347902D01*
X122774Y347916D01*
X122856Y348081D01*
X122941Y348243D01*
X122946Y348260D01*
X122954Y348276D01*
X123001Y348455D01*
X123052Y348630D01*
X123054Y348648D01*
X123058Y348665D01*
X123085Y348996D01*
X123085Y352524D01*
X124276Y353715D01*
X142724Y353715D01*
X143915Y352524D01*
X143915Y334076D01*
X142724Y332885D01*
X139446Y332885D01*
X139428Y332883D01*
X139410Y332885D01*
X139228Y332864D01*
X139045Y332845D01*
X139028Y332840D01*
X139011Y332838D01*
X138836Y332781D01*
X138660Y332727D01*
X138645Y332719D01*
X138628Y332713D01*
X138468Y332623D01*
X138306Y332535D01*
X138293Y332524D01*
X138277Y332515D01*
X138138Y332395D01*
X137997Y332278D01*
X137986Y332264D01*
X137972Y332252D01*
X137860Y332107D01*
X137745Y331964D01*
X137737Y331948D01*
X137726Y331934D01*
X137644Y331769D01*
X137559Y331607D01*
X137554Y331590D01*
X137546Y331574D01*
X137499Y331395D01*
X137448Y331220D01*
X137446Y331202D01*
X137442Y331185D01*
X137415Y330854D01*
X137415Y321055D01*
X137417Y321029D01*
X137415Y321002D01*
X137437Y320828D01*
X137455Y320655D01*
X137462Y320629D01*
X137466Y320603D01*
X137521Y320437D01*
X137573Y320270D01*
X137586Y320246D01*
X137594Y320221D01*
X137681Y320069D01*
X137765Y319916D01*
X137782Y319895D01*
X137795Y319872D01*
X138010Y319619D01*
X154519Y303110D01*
X154540Y303093D01*
X154557Y303072D01*
X154695Y302965D01*
X154831Y302855D01*
X154854Y302842D01*
X154875Y302826D01*
X155032Y302748D01*
X155186Y302666D01*
X155212Y302658D01*
X155236Y302646D01*
X155405Y302601D01*
X155572Y302551D01*
X155599Y302549D01*
X155625Y302542D01*
X155955Y302515D01*
X223147Y302515D01*
X223156Y302516D01*
X223164Y302515D01*
X223356Y302536D01*
X223547Y302555D01*
X223556Y302557D01*
X223565Y302558D01*
X223747Y302616D01*
X223932Y302673D01*
X223940Y302677D01*
X223949Y302680D01*
X224117Y302773D01*
X224286Y302865D01*
X224293Y302870D01*
X224301Y302875D01*
X224449Y303000D01*
X224596Y303122D01*
X224601Y303129D01*
X224608Y303135D01*
X224728Y303287D01*
X224848Y303436D01*
X224852Y303444D01*
X224858Y303451D01*
X224945Y303623D01*
X225033Y303793D01*
X225036Y303802D01*
X225040Y303810D01*
X225092Y303996D01*
X225145Y304180D01*
X225145Y304189D01*
X225148Y304198D01*
X225162Y304390D01*
X225178Y304582D01*
X225177Y304590D01*
X225177Y304599D01*
X225153Y304792D01*
X225131Y304981D01*
X225128Y304990D01*
X225127Y304999D01*
X225065Y305182D01*
X225006Y305364D01*
X225001Y305372D01*
X224999Y305380D01*
X224903Y305546D01*
X224808Y305715D01*
X224802Y305722D01*
X224798Y305729D01*
X224583Y305982D01*
X223687Y306878D01*
X223687Y339722D01*
X224878Y340913D01*
X257722Y340913D01*
X258913Y339722D01*
X258913Y306878D01*
X258017Y305982D01*
X258011Y305975D01*
X258004Y305970D01*
X257883Y305819D01*
X257762Y305671D01*
X257758Y305663D01*
X257752Y305656D01*
X257664Y305486D01*
X257573Y305315D01*
X257571Y305306D01*
X257567Y305299D01*
X257514Y305114D01*
X257459Y304929D01*
X257458Y304920D01*
X257455Y304912D01*
X257440Y304721D01*
X257422Y304528D01*
X257423Y304519D01*
X257422Y304510D01*
X257445Y304321D01*
X257466Y304128D01*
X257468Y304119D01*
X257469Y304111D01*
X257529Y303929D01*
X257587Y303744D01*
X257591Y303736D01*
X257594Y303728D01*
X257688Y303561D01*
X257782Y303392D01*
X257788Y303385D01*
X257792Y303377D01*
X257917Y303232D01*
X258042Y303085D01*
X258049Y303079D01*
X258055Y303072D01*
X258206Y302956D01*
X258358Y302835D01*
X258366Y302831D01*
X258373Y302826D01*
X258544Y302741D01*
X258717Y302653D01*
X258726Y302650D01*
X258734Y302646D01*
X258919Y302597D01*
X259105Y302545D01*
X259114Y302544D01*
X259123Y302542D01*
X259453Y302515D01*
X305054Y302515D01*
X305072Y302517D01*
X305090Y302515D01*
X305272Y302536D01*
X305455Y302555D01*
X305472Y302560D01*
X305489Y302562D01*
X305664Y302619D01*
X305840Y302673D01*
X305855Y302681D01*
X305872Y302687D01*
X306032Y302777D01*
X306194Y302865D01*
X306207Y302876D01*
X306223Y302885D01*
X306362Y303005D01*
X306503Y303122D01*
X306514Y303136D01*
X306528Y303148D01*
X306640Y303293D01*
X306755Y303436D01*
X306763Y303452D01*
X306774Y303466D01*
X306856Y303631D01*
X306941Y303793D01*
X306946Y303810D01*
X306954Y303826D01*
X307001Y304005D01*
X307052Y304180D01*
X307054Y304198D01*
X307058Y304215D01*
X307085Y304546D01*
X307085Y330854D01*
X307083Y330872D01*
X307085Y330890D01*
X307064Y331071D01*
X307045Y331255D01*
X307040Y331272D01*
X307038Y331289D01*
X306981Y331464D01*
X306927Y331640D01*
X306919Y331655D01*
X306913Y331672D01*
X306823Y331832D01*
X306735Y331994D01*
X306724Y332007D01*
X306715Y332023D01*
X306595Y332162D01*
X306478Y332303D01*
X306464Y332314D01*
X306452Y332328D01*
X306307Y332440D01*
X306164Y332555D01*
X306148Y332563D01*
X306134Y332574D01*
X305969Y332656D01*
X305807Y332741D01*
X305790Y332746D01*
X305774Y332754D01*
X305595Y332801D01*
X305420Y332852D01*
X305402Y332854D01*
X305385Y332858D01*
X305054Y332885D01*
X302076Y332885D01*
X300885Y334076D01*
X300885Y352524D01*
X302076Y353715D01*
X320524Y353715D01*
X321715Y352524D01*
X321715Y334076D01*
X320524Y332885D01*
X317396Y332885D01*
X317378Y332883D01*
X317360Y332885D01*
X317178Y332864D01*
X316995Y332845D01*
X316978Y332840D01*
X316961Y332838D01*
X316786Y332781D01*
X316610Y332727D01*
X316595Y332719D01*
X316578Y332713D01*
X316418Y332623D01*
X316256Y332535D01*
X316243Y332524D01*
X316227Y332515D01*
X316088Y332395D01*
X315947Y332278D01*
X315936Y332264D01*
X315922Y332252D01*
X315810Y332107D01*
X315695Y331964D01*
X315687Y331948D01*
X315676Y331934D01*
X315594Y331769D01*
X315509Y331607D01*
X315504Y331590D01*
X315496Y331574D01*
X315449Y331395D01*
X315398Y331220D01*
X315396Y331202D01*
X315392Y331185D01*
X315365Y330854D01*
X315365Y304546D01*
X315367Y304528D01*
X315365Y304510D01*
X315386Y304328D01*
X315405Y304145D01*
X315410Y304128D01*
X315412Y304111D01*
X315469Y303936D01*
X315523Y303760D01*
X315531Y303745D01*
X315537Y303728D01*
X315627Y303568D01*
X315715Y303406D01*
X315726Y303393D01*
X315735Y303377D01*
X315855Y303238D01*
X315972Y303097D01*
X315986Y303086D01*
X315998Y303072D01*
X316143Y302960D01*
X316286Y302845D01*
X316302Y302837D01*
X316316Y302826D01*
X316481Y302744D01*
X316643Y302659D01*
X316660Y302654D01*
X316676Y302646D01*
X316855Y302599D01*
X317030Y302548D01*
X317048Y302546D01*
X317065Y302542D01*
X317396Y302515D01*
X400947Y302515D01*
X400956Y302516D01*
X400964Y302515D01*
X401156Y302536D01*
X401347Y302555D01*
X401356Y302557D01*
X401365Y302558D01*
X401547Y302616D01*
X401732Y302673D01*
X401740Y302677D01*
X401749Y302680D01*
X401917Y302773D01*
X402086Y302865D01*
X402093Y302870D01*
X402101Y302875D01*
X402249Y303000D01*
X402396Y303122D01*
X402401Y303129D01*
X402408Y303135D01*
X402528Y303287D01*
X402648Y303436D01*
X402652Y303444D01*
X402658Y303451D01*
X402745Y303623D01*
X402833Y303793D01*
X402836Y303802D01*
X402840Y303810D01*
X402892Y303996D01*
X402945Y304180D01*
X402945Y304189D01*
X402948Y304198D01*
X402962Y304390D01*
X402978Y304582D01*
X402977Y304590D01*
X402977Y304599D01*
X402953Y304792D01*
X402931Y304981D01*
X402928Y304990D01*
X402927Y304999D01*
X402865Y305182D01*
X402806Y305364D01*
X402801Y305372D01*
X402799Y305380D01*
X402703Y305546D01*
X402608Y305715D01*
X402602Y305722D01*
X402598Y305729D01*
X402383Y305982D01*
X401487Y306878D01*
X401487Y339722D01*
X402678Y340913D01*
X435522Y340913D01*
X436713Y339722D01*
X436713Y306878D01*
X435817Y305982D01*
X435811Y305975D01*
X435804Y305970D01*
X435683Y305819D01*
X435562Y305671D01*
X435558Y305663D01*
X435552Y305656D01*
X435464Y305486D01*
X435373Y305315D01*
X435371Y305306D01*
X435367Y305299D01*
X435314Y305114D01*
X435259Y304929D01*
X435258Y304920D01*
X435255Y304912D01*
X435240Y304721D01*
X435222Y304528D01*
X435223Y304519D01*
X435222Y304510D01*
X435245Y304321D01*
X435266Y304128D01*
X435268Y304119D01*
X435269Y304111D01*
X435329Y303929D01*
X435387Y303744D01*
X435391Y303736D01*
X435394Y303728D01*
X435488Y303561D01*
X435582Y303392D01*
X435588Y303385D01*
X435592Y303377D01*
X435717Y303232D01*
X435842Y303085D01*
X435849Y303079D01*
X435855Y303072D01*
X436006Y302956D01*
X436158Y302835D01*
X436166Y302831D01*
X436173Y302826D01*
X436344Y302741D01*
X436517Y302653D01*
X436526Y302650D01*
X436534Y302646D01*
X436719Y302597D01*
X436905Y302545D01*
X436914Y302544D01*
X436923Y302542D01*
X437253Y302515D01*
X578747Y302515D01*
X578756Y302516D01*
X578764Y302515D01*
X578956Y302536D01*
X579147Y302555D01*
X579156Y302557D01*
X579165Y302558D01*
X579347Y302616D01*
X579532Y302673D01*
X579540Y302677D01*
X579549Y302680D01*
X579717Y302773D01*
X579886Y302865D01*
X579893Y302870D01*
X579901Y302875D01*
X580049Y303000D01*
X580196Y303122D01*
X580201Y303129D01*
X580208Y303135D01*
X580328Y303287D01*
X580448Y303436D01*
X580452Y303444D01*
X580458Y303451D01*
X580545Y303623D01*
X580633Y303793D01*
X580636Y303802D01*
X580640Y303810D01*
X580692Y303996D01*
X580745Y304180D01*
X580745Y304189D01*
X580748Y304198D01*
X580762Y304390D01*
X580778Y304582D01*
X580777Y304590D01*
X580777Y304599D01*
X580753Y304792D01*
X580731Y304981D01*
X580728Y304990D01*
X580727Y304999D01*
X580665Y305182D01*
X580606Y305364D01*
X580601Y305372D01*
X580599Y305380D01*
X580503Y305546D01*
X580408Y305715D01*
X580402Y305722D01*
X580398Y305729D01*
X580183Y305982D01*
X579287Y306878D01*
X579287Y339722D01*
X580478Y340913D01*
X613322Y340913D01*
X614513Y339722D01*
X614513Y306878D01*
X613617Y305982D01*
X613611Y305975D01*
X613604Y305970D01*
X613483Y305819D01*
X613362Y305671D01*
X613358Y305663D01*
X613352Y305656D01*
X613264Y305486D01*
X613173Y305315D01*
X613171Y305306D01*
X613167Y305299D01*
X613114Y305114D01*
X613059Y304929D01*
X613058Y304920D01*
X613055Y304912D01*
X613040Y304721D01*
X613022Y304528D01*
X613023Y304519D01*
X613022Y304510D01*
X613045Y304321D01*
X613066Y304128D01*
X613068Y304119D01*
X613069Y304111D01*
X613129Y303929D01*
X613187Y303744D01*
X613191Y303736D01*
X613194Y303728D01*
X613288Y303561D01*
X613382Y303392D01*
X613388Y303385D01*
X613392Y303377D01*
X613517Y303232D01*
X613642Y303085D01*
X613649Y303079D01*
X613655Y303072D01*
X613806Y302956D01*
X613958Y302835D01*
X613966Y302831D01*
X613973Y302826D01*
X614144Y302741D01*
X614317Y302653D01*
X614326Y302650D01*
X614334Y302646D01*
X614519Y302597D01*
X614705Y302545D01*
X614714Y302544D01*
X614723Y302542D01*
X615053Y302515D01*
X644152Y302515D01*
X644179Y302517D01*
X644205Y302515D01*
X644379Y302537D01*
X644553Y302555D01*
X644578Y302562D01*
X644605Y302566D01*
X644771Y302621D01*
X644938Y302673D01*
X644961Y302686D01*
X644987Y302694D01*
X645138Y302781D01*
X645292Y302865D01*
X645312Y302882D01*
X645335Y302895D01*
X645588Y303110D01*
X662240Y319762D01*
X662257Y319782D01*
X662278Y319800D01*
X662385Y319938D01*
X662495Y320073D01*
X662508Y320097D01*
X662524Y320118D01*
X662602Y320275D01*
X662684Y320429D01*
X662692Y320454D01*
X662704Y320478D01*
X662749Y320648D01*
X662799Y320815D01*
X662801Y320841D01*
X662808Y320867D01*
X662835Y321198D01*
X662835Y330854D01*
X662833Y330872D01*
X662835Y330890D01*
X662814Y331071D01*
X662795Y331255D01*
X662790Y331272D01*
X662788Y331289D01*
X662731Y331464D01*
X662677Y331640D01*
X662669Y331655D01*
X662663Y331672D01*
X662573Y331832D01*
X662485Y331994D01*
X662474Y332007D01*
X662465Y332023D01*
X662345Y332162D01*
X662228Y332303D01*
X662214Y332314D01*
X662202Y332328D01*
X662057Y332440D01*
X661914Y332555D01*
X661898Y332563D01*
X661884Y332574D01*
X661719Y332656D01*
X661557Y332741D01*
X661540Y332746D01*
X661524Y332754D01*
X661345Y332801D01*
X661170Y332852D01*
X661152Y332854D01*
X661135Y332858D01*
X660804Y332885D01*
X657676Y332885D01*
X656485Y334076D01*
X656485Y352524D01*
X657676Y353715D01*
X676124Y353715D01*
X677315Y352524D01*
X677315Y334076D01*
X676124Y332885D01*
X672996Y332885D01*
X672978Y332883D01*
X672960Y332885D01*
X672778Y332864D01*
X672595Y332845D01*
X672578Y332840D01*
X672561Y332838D01*
X672386Y332781D01*
X672210Y332727D01*
X672195Y332719D01*
X672178Y332713D01*
X672018Y332623D01*
X671856Y332535D01*
X671843Y332524D01*
X671827Y332515D01*
X671688Y332395D01*
X671547Y332278D01*
X671536Y332264D01*
X671522Y332252D01*
X671410Y332107D01*
X671295Y331964D01*
X671287Y331948D01*
X671276Y331934D01*
X671194Y331769D01*
X671109Y331607D01*
X671104Y331590D01*
X671096Y331574D01*
X671049Y331395D01*
X670998Y331220D01*
X670996Y331202D01*
X670992Y331185D01*
X670965Y330854D01*
X670965Y317864D01*
X670346Y316370D01*
X648980Y295004D01*
X647486Y294385D01*
X152622Y294385D01*
X151128Y295004D01*
X129904Y316228D01*
X129285Y317722D01*
X129285Y330854D01*
X129283Y330872D01*
X129285Y330890D01*
X129264Y331071D01*
X129245Y331255D01*
X129240Y331272D01*
X129238Y331289D01*
X129181Y331464D01*
X129127Y331640D01*
X129119Y331655D01*
X129113Y331672D01*
X129023Y331832D01*
X128935Y331994D01*
X128924Y332007D01*
X128915Y332023D01*
X128795Y332162D01*
X128678Y332303D01*
X128664Y332314D01*
X128652Y332328D01*
X128507Y332440D01*
X128364Y332555D01*
X128348Y332563D01*
X128334Y332574D01*
X128169Y332656D01*
X128007Y332741D01*
X127990Y332746D01*
X127974Y332754D01*
X127795Y332801D01*
X127620Y332852D01*
X127602Y332854D01*
X127585Y332858D01*
X127254Y332885D01*
X124276Y332885D01*
X123085Y334076D01*
X123085Y336804D01*
X123083Y336822D01*
X123085Y336840D01*
X123064Y337022D01*
X123045Y337205D01*
X123040Y337222D01*
X123038Y337239D01*
X122981Y337414D01*
X122927Y337590D01*
X122919Y337605D01*
X122913Y337622D01*
X122823Y337782D01*
X122735Y337944D01*
X122724Y337957D01*
X122715Y337973D01*
X122595Y338112D01*
X122478Y338253D01*
X122464Y338264D01*
X122452Y338278D01*
X122307Y338390D01*
X122164Y338505D01*
X122148Y338513D01*
X122134Y338524D01*
X121969Y338606D01*
X121807Y338691D01*
X121790Y338696D01*
X121774Y338704D01*
X121595Y338751D01*
X121420Y338802D01*
X121402Y338804D01*
X121385Y338808D01*
X121054Y338835D01*
X110987Y338835D01*
X109493Y339454D01*
X85454Y363493D01*
X84835Y364987D01*
X84835Y395697D01*
X84834Y395706D01*
X84835Y395714D01*
X84814Y395906D01*
X84795Y396097D01*
X84793Y396106D01*
X84792Y396115D01*
X84734Y396297D01*
X84677Y396482D01*
X84673Y396490D01*
X84670Y396499D01*
X84577Y396667D01*
X84485Y396836D01*
X84480Y396843D01*
X84475Y396851D01*
X84350Y396999D01*
X84228Y397146D01*
X84221Y397151D01*
X84215Y397158D01*
X84063Y397278D01*
X83914Y397398D01*
X83906Y397402D01*
X83899Y397408D01*
X83727Y397495D01*
X83557Y397583D01*
X83548Y397586D01*
X83540Y397590D01*
X83354Y397642D01*
X83170Y397695D01*
X83161Y397695D01*
X83152Y397698D01*
X82960Y397712D01*
X82768Y397728D01*
X82760Y397727D01*
X82751Y397727D01*
X82558Y397703D01*
X82369Y397681D01*
X82360Y397678D01*
X82351Y397677D01*
X82168Y397615D01*
X81986Y397556D01*
X81978Y397551D01*
X81970Y397549D01*
X81804Y397453D01*
X81635Y397358D01*
X81628Y397352D01*
X81621Y397348D01*
X81368Y397133D01*
X79922Y395687D01*
X47078Y395687D01*
X45887Y396878D01*
X45887Y429722D01*
X47078Y430913D01*
X79922Y430913D01*
X81368Y429467D01*
X81375Y429461D01*
X81380Y429454D01*
X81530Y429334D01*
X81679Y429212D01*
X81687Y429208D01*
X81694Y429202D01*
X81864Y429114D01*
X82035Y429023D01*
X82044Y429021D01*
X82051Y429017D01*
X82236Y428964D01*
X82421Y428909D01*
X82430Y428908D01*
X82438Y428905D01*
X82629Y428890D01*
X82822Y428872D01*
X82831Y428873D01*
X82840Y428872D01*
X83029Y428895D01*
X83222Y428916D01*
X83231Y428918D01*
X83239Y428919D01*
X83421Y428979D01*
X83606Y429037D01*
X83614Y429041D01*
X83622Y429044D01*
X83789Y429138D01*
X83958Y429232D01*
X83965Y429238D01*
X83973Y429242D01*
X84118Y429367D01*
X84265Y429492D01*
X84271Y429499D01*
X84278Y429505D01*
X84394Y429656D01*
X84515Y429808D01*
X84519Y429816D01*
X84524Y429823D01*
X84610Y429995D01*
X84697Y430167D01*
X84700Y430176D01*
X84704Y430184D01*
X84754Y430370D01*
X84805Y430555D01*
X84806Y430564D01*
X84808Y430573D01*
X84835Y430903D01*
X84835Y439458D01*
X84833Y439481D01*
X84835Y439503D01*
X84813Y439680D01*
X84795Y439859D01*
X84789Y439880D01*
X84786Y439903D01*
X84730Y440072D01*
X84677Y440244D01*
X84667Y440264D01*
X84660Y440285D01*
X84571Y440440D01*
X84485Y440598D01*
X84471Y440615D01*
X84460Y440634D01*
X84343Y440769D01*
X84228Y440907D01*
X84210Y440921D01*
X84196Y440938D01*
X84054Y441047D01*
X83914Y441160D01*
X83894Y441170D01*
X83876Y441183D01*
X83581Y441335D01*
X83432Y441397D01*
X80717Y444112D01*
X79247Y447660D01*
X79247Y466740D01*
X80445Y469631D01*
X80449Y469644D01*
X80455Y469655D01*
X80506Y469835D01*
X80561Y470016D01*
X80562Y470029D01*
X80566Y470042D01*
X80581Y470230D01*
X80599Y470417D01*
X80598Y470430D01*
X80599Y470444D01*
X80577Y470630D01*
X80558Y470817D01*
X80554Y470830D01*
X80552Y470843D01*
X80494Y471022D01*
X80438Y471202D01*
X80431Y471213D01*
X80427Y471226D01*
X80334Y471391D01*
X80244Y471555D01*
X80236Y471565D01*
X80229Y471577D01*
X80106Y471719D01*
X79985Y471863D01*
X79975Y471871D01*
X79966Y471882D01*
X79818Y471997D01*
X79670Y472114D01*
X79659Y472120D01*
X79648Y472128D01*
X79479Y472212D01*
X79312Y472298D01*
X79300Y472302D01*
X79287Y472308D01*
X79105Y472357D01*
X78925Y472408D01*
X78912Y472409D01*
X78899Y472412D01*
X78568Y472439D01*
X50403Y472439D01*
X50258Y472425D01*
X50112Y472418D01*
X50058Y472405D01*
X50003Y472399D01*
X49863Y472356D01*
X49721Y472321D01*
X49671Y472298D01*
X49618Y472281D01*
X49489Y472212D01*
X49357Y472149D01*
X49312Y472116D01*
X49264Y472089D01*
X49152Y471996D01*
X49034Y471909D01*
X48997Y471867D01*
X48954Y471832D01*
X48863Y471718D01*
X48765Y471609D01*
X48737Y471561D01*
X48702Y471518D01*
X48635Y471388D01*
X48560Y471262D01*
X48542Y471210D01*
X48517Y471161D01*
X48476Y471020D01*
X48428Y470882D01*
X48421Y470827D01*
X48405Y470774D01*
X48393Y470628D01*
X48373Y470483D01*
X48377Y470428D01*
X48372Y470372D01*
X48389Y470227D01*
X48398Y470081D01*
X48413Y470028D01*
X48419Y469973D01*
X48465Y469834D01*
X48502Y469692D01*
X48529Y469635D01*
X48544Y469590D01*
X48585Y469517D01*
X48644Y469392D01*
X49839Y467323D01*
X51626Y460653D01*
X51626Y453747D01*
X49839Y447077D01*
X46386Y441097D01*
X41503Y436214D01*
X35523Y432761D01*
X28853Y430974D01*
X21947Y430974D01*
X15277Y432761D01*
X13208Y433956D01*
X13074Y434016D01*
X12945Y434083D01*
X12891Y434099D01*
X12841Y434122D01*
X12698Y434154D01*
X12558Y434195D01*
X12502Y434199D01*
X12448Y434212D01*
X12302Y434216D01*
X12156Y434228D01*
X12101Y434221D01*
X12046Y434223D01*
X11902Y434198D01*
X11757Y434181D01*
X11704Y434164D01*
X11649Y434154D01*
X11513Y434101D01*
X11374Y434056D01*
X11325Y434029D01*
X11274Y434009D01*
X11151Y433930D01*
X11023Y433858D01*
X10981Y433822D01*
X10934Y433792D01*
X10829Y433690D01*
X10718Y433595D01*
X10685Y433551D01*
X10644Y433513D01*
X10561Y433392D01*
X10472Y433277D01*
X10447Y433227D01*
X10415Y433181D01*
X10358Y433047D01*
X10292Y432916D01*
X10278Y432863D01*
X10256Y432812D01*
X10226Y432669D01*
X10188Y432527D01*
X10183Y432464D01*
X10173Y432418D01*
X10172Y432334D01*
X10161Y432197D01*
X10161Y50403D01*
X10175Y50258D01*
X10182Y50112D01*
X10195Y50058D01*
X10201Y50003D01*
X10244Y49863D01*
X10279Y49721D01*
X10302Y49671D01*
X10319Y49618D01*
X10388Y49489D01*
X10451Y49357D01*
X10484Y49312D01*
X10511Y49264D01*
X10604Y49152D01*
X10691Y49034D01*
X10733Y48997D01*
X10768Y48954D01*
X10882Y48863D01*
X10991Y48765D01*
X11039Y48737D01*
X11082Y48702D01*
X11212Y48635D01*
X11338Y48560D01*
X11390Y48542D01*
X11439Y48517D01*
X11580Y48476D01*
X11718Y48428D01*
X11773Y48421D01*
X11826Y48405D01*
X11972Y48393D01*
X12117Y48373D01*
X12172Y48377D01*
X12228Y48372D01*
X12373Y48389D01*
X12519Y48398D01*
X12572Y48413D01*
X12627Y48419D01*
X12766Y48465D01*
X12908Y48502D01*
X12965Y48529D01*
X13010Y48544D01*
X13083Y48585D01*
X13208Y48644D01*
X15277Y49839D01*
X21947Y51626D01*
X28853Y51626D01*
X35523Y49839D01*
X41503Y46386D01*
X46386Y41503D01*
X49839Y35523D01*
X51626Y28853D01*
X51626Y21947D01*
X49839Y15277D01*
X48644Y13208D01*
X48584Y13074D01*
X48517Y12945D01*
X48501Y12891D01*
X48478Y12841D01*
X48446Y12698D01*
X48405Y12558D01*
X48401Y12502D01*
X48388Y12448D01*
X48384Y12302D01*
X48372Y12156D01*
X48379Y12101D01*
X48377Y12046D01*
X48402Y11902D01*
X48419Y11757D01*
X48436Y11704D01*
X48446Y11649D01*
X48499Y11513D01*
X48544Y11374D01*
X48571Y11325D01*
X48591Y11274D01*
X48670Y11151D01*
X48742Y11023D01*
X48778Y10981D01*
X48808Y10934D01*
X48910Y10829D01*
X49005Y10718D01*
X49049Y10685D01*
X49087Y10644D01*
X49208Y10561D01*
X49323Y10472D01*
X49373Y10447D01*
X49419Y10415D01*
X49553Y10358D01*
X49684Y10292D01*
X49737Y10278D01*
X49788Y10256D01*
X49931Y10226D01*
X50073Y10188D01*
X50136Y10183D01*
X50182Y10173D01*
X50266Y10172D01*
X50403Y10161D01*
X78568Y10161D01*
X78581Y10162D01*
G37*
G36*
X396081Y10162D02*
X396081Y10162D01*
X396095Y10161D01*
X396281Y10182D01*
X396469Y10201D01*
X396481Y10205D01*
X396495Y10206D01*
X396674Y10264D01*
X396854Y10319D01*
X396865Y10325D01*
X396878Y10329D01*
X397043Y10421D01*
X397208Y10511D01*
X397218Y10519D01*
X397230Y10526D01*
X397372Y10648D01*
X397517Y10768D01*
X397525Y10779D01*
X397535Y10787D01*
X397651Y10935D01*
X397769Y11082D01*
X397775Y11094D01*
X397784Y11104D01*
X397868Y11273D01*
X397955Y11439D01*
X397958Y11452D01*
X397964Y11464D01*
X398014Y11645D01*
X398066Y11826D01*
X398067Y11840D01*
X398071Y11853D01*
X398084Y12041D01*
X398099Y12228D01*
X398097Y12241D01*
X398098Y12254D01*
X398074Y12442D01*
X398052Y12627D01*
X398048Y12640D01*
X398046Y12653D01*
X397945Y12969D01*
X396747Y15860D01*
X396747Y34940D01*
X398217Y38488D01*
X400932Y41203D01*
X404480Y42673D01*
X408320Y42673D01*
X411868Y41203D01*
X414583Y38488D01*
X416053Y34940D01*
X416053Y15860D01*
X414855Y12969D01*
X414851Y12956D01*
X414845Y12945D01*
X414794Y12765D01*
X414739Y12584D01*
X414738Y12571D01*
X414734Y12558D01*
X414719Y12370D01*
X414701Y12183D01*
X414702Y12170D01*
X414701Y12156D01*
X414723Y11970D01*
X414742Y11783D01*
X414746Y11770D01*
X414748Y11757D01*
X414806Y11578D01*
X414862Y11398D01*
X414869Y11387D01*
X414873Y11374D01*
X414966Y11209D01*
X415056Y11045D01*
X415064Y11035D01*
X415071Y11023D01*
X415194Y10881D01*
X415315Y10737D01*
X415325Y10729D01*
X415334Y10718D01*
X415482Y10603D01*
X415630Y10486D01*
X415641Y10480D01*
X415652Y10472D01*
X415821Y10388D01*
X415988Y10302D01*
X416000Y10298D01*
X416013Y10292D01*
X416195Y10243D01*
X416375Y10192D01*
X416388Y10191D01*
X416401Y10188D01*
X416732Y10161D01*
X421468Y10161D01*
X421481Y10162D01*
X421495Y10161D01*
X421681Y10182D01*
X421869Y10201D01*
X421881Y10205D01*
X421895Y10206D01*
X422074Y10264D01*
X422254Y10319D01*
X422265Y10325D01*
X422278Y10329D01*
X422443Y10421D01*
X422608Y10511D01*
X422618Y10519D01*
X422630Y10526D01*
X422772Y10648D01*
X422917Y10768D01*
X422925Y10779D01*
X422935Y10787D01*
X423051Y10935D01*
X423169Y11082D01*
X423175Y11094D01*
X423184Y11104D01*
X423268Y11273D01*
X423355Y11439D01*
X423358Y11452D01*
X423364Y11464D01*
X423414Y11645D01*
X423466Y11826D01*
X423467Y11840D01*
X423471Y11853D01*
X423484Y12041D01*
X423499Y12228D01*
X423497Y12241D01*
X423498Y12254D01*
X423474Y12442D01*
X423452Y12627D01*
X423448Y12640D01*
X423446Y12653D01*
X423345Y12969D01*
X422147Y15860D01*
X422147Y34940D01*
X423617Y38488D01*
X426332Y41203D01*
X429901Y42682D01*
X430010Y42695D01*
X430184Y42713D01*
X430209Y42720D01*
X430236Y42724D01*
X430401Y42779D01*
X430568Y42831D01*
X430592Y42844D01*
X430617Y42852D01*
X430769Y42939D01*
X430923Y43023D01*
X430943Y43040D01*
X430966Y43053D01*
X431219Y43268D01*
X436171Y48220D01*
X436177Y48227D01*
X436184Y48232D01*
X436304Y48382D01*
X436426Y48531D01*
X436431Y48539D01*
X436436Y48546D01*
X436525Y48716D01*
X436615Y48887D01*
X436618Y48896D01*
X436622Y48903D01*
X436675Y49087D01*
X436730Y49273D01*
X436731Y49282D01*
X436733Y49290D01*
X436749Y49482D01*
X436766Y49674D01*
X436765Y49683D01*
X436766Y49692D01*
X436744Y49881D01*
X436723Y50074D01*
X436720Y50083D01*
X436719Y50091D01*
X436660Y50273D01*
X436601Y50458D01*
X436597Y50466D01*
X436594Y50474D01*
X436499Y50643D01*
X436406Y50810D01*
X436401Y50817D01*
X436396Y50825D01*
X436270Y50971D01*
X436146Y51117D01*
X436139Y51123D01*
X436133Y51130D01*
X435982Y51247D01*
X435830Y51367D01*
X435822Y51371D01*
X435815Y51376D01*
X435643Y51462D01*
X435471Y51549D01*
X435463Y51552D01*
X435455Y51556D01*
X435269Y51606D01*
X435083Y51657D01*
X435074Y51658D01*
X435066Y51660D01*
X434735Y51687D01*
X402678Y51687D01*
X401487Y52878D01*
X401487Y86035D01*
X401486Y86044D01*
X401487Y86053D01*
X401466Y86246D01*
X401447Y86436D01*
X401445Y86444D01*
X401444Y86453D01*
X401385Y86638D01*
X401329Y86821D01*
X401325Y86828D01*
X401322Y86837D01*
X401229Y87006D01*
X401137Y87175D01*
X401132Y87181D01*
X401127Y87189D01*
X401003Y87336D01*
X400880Y87484D01*
X400873Y87489D01*
X400867Y87496D01*
X400715Y87616D01*
X400566Y87736D01*
X400558Y87740D01*
X400551Y87746D01*
X400378Y87834D01*
X400209Y87922D01*
X400200Y87924D01*
X400192Y87928D01*
X400006Y87980D01*
X399822Y88033D01*
X399813Y88034D01*
X399804Y88036D01*
X399611Y88050D01*
X399420Y88066D01*
X399412Y88065D01*
X399403Y88066D01*
X399210Y88041D01*
X399021Y88019D01*
X399012Y88016D01*
X399003Y88015D01*
X398820Y87954D01*
X398638Y87894D01*
X398630Y87890D01*
X398622Y87887D01*
X398455Y87791D01*
X398287Y87696D01*
X398280Y87691D01*
X398273Y87686D01*
X398020Y87471D01*
X376952Y66404D01*
X375459Y65785D01*
X280091Y65785D01*
X278597Y66404D01*
X263254Y81746D01*
X262821Y82793D01*
X262818Y82797D01*
X262817Y82801D01*
X262725Y82971D01*
X262630Y83148D01*
X262628Y83151D01*
X262625Y83155D01*
X262500Y83306D01*
X262374Y83458D01*
X262371Y83461D01*
X262368Y83465D01*
X262215Y83587D01*
X262061Y83712D01*
X262057Y83714D01*
X262054Y83717D01*
X261881Y83807D01*
X261705Y83899D01*
X261701Y83900D01*
X261697Y83902D01*
X261509Y83956D01*
X261318Y84012D01*
X261314Y84013D01*
X261310Y84014D01*
X261112Y84030D01*
X260917Y84047D01*
X260913Y84046D01*
X260908Y84047D01*
X260714Y84024D01*
X260517Y84002D01*
X260513Y84000D01*
X260509Y84000D01*
X260323Y83939D01*
X260134Y83879D01*
X260130Y83876D01*
X260126Y83875D01*
X259954Y83778D01*
X259782Y83682D01*
X259779Y83679D01*
X259775Y83677D01*
X259627Y83549D01*
X259477Y83420D01*
X259474Y83417D01*
X259470Y83414D01*
X259350Y83259D01*
X259228Y83103D01*
X259226Y83099D01*
X259224Y83096D01*
X259136Y82919D01*
X259048Y82744D01*
X259046Y82739D01*
X259044Y82735D01*
X258993Y82544D01*
X258941Y82355D01*
X258941Y82351D01*
X258940Y82346D01*
X258913Y82016D01*
X258913Y52878D01*
X257722Y51687D01*
X224878Y51687D01*
X223687Y52878D01*
X223687Y85722D01*
X224878Y86913D01*
X257722Y86913D01*
X259168Y85467D01*
X259175Y85461D01*
X259180Y85454D01*
X259330Y85334D01*
X259479Y85212D01*
X259487Y85208D01*
X259494Y85202D01*
X259664Y85114D01*
X259835Y85023D01*
X259844Y85021D01*
X259851Y85017D01*
X260036Y84964D01*
X260221Y84909D01*
X260230Y84908D01*
X260238Y84905D01*
X260429Y84890D01*
X260622Y84872D01*
X260631Y84873D01*
X260640Y84872D01*
X260829Y84895D01*
X261022Y84916D01*
X261031Y84918D01*
X261039Y84919D01*
X261221Y84979D01*
X261406Y85037D01*
X261414Y85041D01*
X261422Y85044D01*
X261589Y85138D01*
X261758Y85232D01*
X261765Y85238D01*
X261773Y85242D01*
X261918Y85367D01*
X262065Y85492D01*
X262071Y85499D01*
X262078Y85505D01*
X262194Y85656D01*
X262315Y85808D01*
X262319Y85816D01*
X262324Y85823D01*
X262410Y85995D01*
X262497Y86167D01*
X262500Y86176D01*
X262504Y86184D01*
X262554Y86370D01*
X262605Y86555D01*
X262606Y86564D01*
X262608Y86573D01*
X262635Y86903D01*
X262635Y93814D01*
X262633Y93841D01*
X262635Y93868D01*
X262613Y94042D01*
X262595Y94215D01*
X262588Y94241D01*
X262584Y94267D01*
X262529Y94433D01*
X262477Y94600D01*
X262464Y94624D01*
X262456Y94649D01*
X262369Y94801D01*
X262285Y94954D01*
X262268Y94974D01*
X262255Y94998D01*
X262040Y95251D01*
X247651Y109640D01*
X247630Y109657D01*
X247613Y109678D01*
X247475Y109785D01*
X247339Y109895D01*
X247316Y109908D01*
X247294Y109924D01*
X247138Y110002D01*
X246984Y110084D01*
X246958Y110092D01*
X246934Y110104D01*
X246765Y110149D01*
X246598Y110199D01*
X246571Y110201D01*
X246545Y110208D01*
X246214Y110235D01*
X145005Y110235D01*
X144979Y110233D01*
X144952Y110235D01*
X144778Y110213D01*
X144605Y110195D01*
X144579Y110188D01*
X144553Y110184D01*
X144387Y110129D01*
X144220Y110077D01*
X144196Y110064D01*
X144171Y110056D01*
X144019Y109969D01*
X143866Y109885D01*
X143845Y109868D01*
X143822Y109855D01*
X143569Y109640D01*
X137814Y103885D01*
X129502Y103885D01*
X129489Y103884D01*
X129476Y103885D01*
X129288Y103864D01*
X129102Y103845D01*
X129089Y103842D01*
X129076Y103840D01*
X128896Y103782D01*
X128717Y103727D01*
X128705Y103721D01*
X128693Y103717D01*
X128527Y103625D01*
X128363Y103535D01*
X128353Y103527D01*
X128341Y103521D01*
X128197Y103397D01*
X128053Y103278D01*
X128045Y103268D01*
X128035Y103259D01*
X127918Y103110D01*
X127801Y102964D01*
X127795Y102952D01*
X127787Y102942D01*
X127702Y102774D01*
X127615Y102607D01*
X127612Y102594D01*
X127606Y102582D01*
X127556Y102401D01*
X127504Y102220D01*
X127503Y102207D01*
X127500Y102194D01*
X127487Y102007D01*
X127471Y101818D01*
X127473Y101806D01*
X127472Y101793D01*
X127496Y101605D01*
X127518Y101419D01*
X127522Y101406D01*
X127524Y101393D01*
X127585Y101215D01*
X127643Y101036D01*
X127649Y101024D01*
X127654Y101012D01*
X127748Y100850D01*
X127841Y100685D01*
X127849Y100675D01*
X127856Y100664D01*
X128072Y100412D01*
X128181Y100304D01*
X128198Y100290D01*
X128213Y100272D01*
X128354Y100163D01*
X128493Y100050D01*
X128513Y100040D01*
X128531Y100026D01*
X128691Y99946D01*
X128850Y99863D01*
X128871Y99857D01*
X128892Y99846D01*
X129065Y99800D01*
X129236Y99750D01*
X129258Y99748D01*
X129280Y99742D01*
X129611Y99715D01*
X142724Y99715D01*
X143915Y98524D01*
X143915Y79850D01*
X143908Y79828D01*
X143896Y79804D01*
X143851Y79635D01*
X143801Y79468D01*
X143799Y79441D01*
X143792Y79415D01*
X143765Y79085D01*
X143765Y43142D01*
X143767Y43119D01*
X143765Y43097D01*
X143787Y42920D01*
X143805Y42741D01*
X143811Y42720D01*
X143814Y42697D01*
X143870Y42528D01*
X143923Y42356D01*
X143933Y42336D01*
X143940Y42315D01*
X144029Y42160D01*
X144115Y42002D01*
X144129Y41985D01*
X144140Y41966D01*
X144257Y41831D01*
X144372Y41693D01*
X144390Y41679D01*
X144404Y41662D01*
X144546Y41553D01*
X144686Y41440D01*
X144706Y41430D01*
X144724Y41417D01*
X145019Y41265D01*
X145168Y41203D01*
X147883Y38488D01*
X149353Y34940D01*
X149353Y15860D01*
X148155Y12969D01*
X148151Y12956D01*
X148145Y12945D01*
X148094Y12765D01*
X148039Y12584D01*
X148038Y12571D01*
X148034Y12558D01*
X148019Y12370D01*
X148001Y12183D01*
X148002Y12170D01*
X148001Y12156D01*
X148023Y11970D01*
X148042Y11783D01*
X148046Y11770D01*
X148048Y11757D01*
X148106Y11578D01*
X148162Y11398D01*
X148169Y11387D01*
X148173Y11374D01*
X148266Y11209D01*
X148356Y11045D01*
X148364Y11035D01*
X148371Y11023D01*
X148494Y10881D01*
X148615Y10737D01*
X148625Y10729D01*
X148634Y10718D01*
X148782Y10603D01*
X148930Y10486D01*
X148941Y10480D01*
X148952Y10472D01*
X149121Y10388D01*
X149288Y10302D01*
X149300Y10298D01*
X149313Y10292D01*
X149495Y10243D01*
X149675Y10192D01*
X149688Y10191D01*
X149701Y10188D01*
X150032Y10161D01*
X396068Y10161D01*
X396081Y10162D01*
G37*
%LPC*%
G36*
X792742Y347517D02*
X792742Y347517D01*
X780567Y359692D01*
X780567Y376908D01*
X792742Y389083D01*
X809958Y389083D01*
X822133Y376908D01*
X822133Y359692D01*
X809958Y347517D01*
X792742Y347517D01*
G37*
%LPD*%
%LPC*%
G36*
X839282Y93517D02*
X839282Y93517D01*
X827107Y105692D01*
X827107Y122908D01*
X839282Y135083D01*
X856498Y135083D01*
X868673Y122908D01*
X868673Y105692D01*
X856498Y93517D01*
X839282Y93517D01*
G37*
%LPD*%
%LPC*%
G36*
X839282Y347517D02*
X839282Y347517D01*
X827107Y359692D01*
X827107Y376908D01*
X839282Y389083D01*
X856498Y389083D01*
X868673Y376908D01*
X868673Y359692D01*
X856498Y347517D01*
X839282Y347517D01*
G37*
%LPD*%
%LPC*%
G36*
X919742Y347517D02*
X919742Y347517D01*
X907567Y359692D01*
X907567Y376908D01*
X919742Y389083D01*
X936958Y389083D01*
X949133Y376908D01*
X949133Y359692D01*
X936958Y347517D01*
X919742Y347517D01*
G37*
%LPD*%
%LPC*%
G36*
X966282Y347517D02*
X966282Y347517D01*
X954107Y359692D01*
X954107Y376908D01*
X966282Y389083D01*
X983498Y389083D01*
X995673Y376908D01*
X995673Y359692D01*
X983498Y347517D01*
X966282Y347517D01*
G37*
%LPD*%
%LPC*%
G36*
X580478Y395687D02*
X580478Y395687D01*
X579287Y396878D01*
X579287Y429722D01*
X580478Y430913D01*
X613322Y430913D01*
X614513Y429722D01*
X614513Y396878D01*
X613322Y395687D01*
X580478Y395687D01*
G37*
%LPD*%
%LPC*%
G36*
X224878Y395687D02*
X224878Y395687D01*
X223687Y396878D01*
X223687Y429722D01*
X224878Y430913D01*
X257722Y430913D01*
X258913Y429722D01*
X258913Y396878D01*
X257722Y395687D01*
X224878Y395687D01*
G37*
%LPD*%
%LPC*%
G36*
X47078Y141687D02*
X47078Y141687D01*
X45887Y142878D01*
X45887Y175722D01*
X47078Y176913D01*
X79922Y176913D01*
X81113Y175722D01*
X81113Y142878D01*
X79922Y141687D01*
X47078Y141687D01*
G37*
%LPD*%
%LPC*%
G36*
X47078Y305687D02*
X47078Y305687D01*
X45887Y306878D01*
X45887Y339722D01*
X47078Y340913D01*
X79922Y340913D01*
X81113Y339722D01*
X81113Y306878D01*
X79922Y305687D01*
X47078Y305687D01*
G37*
%LPD*%
%LPC*%
G36*
X580478Y51687D02*
X580478Y51687D01*
X579287Y52878D01*
X579287Y85722D01*
X580478Y86913D01*
X613322Y86913D01*
X614513Y85722D01*
X614513Y52878D01*
X613322Y51687D01*
X580478Y51687D01*
G37*
%LPD*%
%LPC*%
G36*
X47078Y51687D02*
X47078Y51687D01*
X45887Y52878D01*
X45887Y85722D01*
X47078Y86913D01*
X79922Y86913D01*
X81113Y85722D01*
X81113Y52878D01*
X79922Y51687D01*
X47078Y51687D01*
G37*
%LPD*%
%LPC*%
G36*
X898510Y218947D02*
X898510Y218947D01*
X894962Y220417D01*
X892247Y223132D01*
X890777Y226680D01*
X890777Y230520D01*
X892247Y234068D01*
X894962Y236783D01*
X897462Y237819D01*
X898510Y238253D01*
X917590Y238253D01*
X921138Y236783D01*
X923853Y234068D01*
X925323Y230520D01*
X925323Y226680D01*
X923853Y223132D01*
X921138Y220417D01*
X918252Y219221D01*
X917590Y218947D01*
X898510Y218947D01*
G37*
%LPD*%
%LPC*%
G36*
X479876Y78885D02*
X479876Y78885D01*
X478685Y80076D01*
X478685Y98524D01*
X479876Y99715D01*
X498324Y99715D01*
X499515Y98524D01*
X499515Y80076D01*
X498324Y78885D01*
X479876Y78885D01*
G37*
%LPD*%
%LPC*%
G36*
X129186Y382885D02*
X129186Y382885D01*
X123085Y388986D01*
X123085Y397614D01*
X129186Y403715D01*
X137814Y403715D01*
X143915Y397614D01*
X143915Y388986D01*
X137814Y382885D01*
X129186Y382885D01*
G37*
%LPD*%
%LPC*%
G36*
X306986Y382885D02*
X306986Y382885D01*
X300885Y388986D01*
X300885Y397614D01*
X306986Y403715D01*
X315614Y403715D01*
X321715Y397614D01*
X321715Y388986D01*
X315614Y382885D01*
X306986Y382885D01*
G37*
%LPD*%
%LPC*%
G36*
X484786Y103885D02*
X484786Y103885D01*
X478685Y109986D01*
X478685Y118614D01*
X484786Y124715D01*
X493414Y124715D01*
X499515Y118614D01*
X499515Y109986D01*
X493414Y103885D01*
X484786Y103885D01*
G37*
%LPD*%
%LPC*%
G36*
X129186Y357885D02*
X129186Y357885D01*
X123085Y363986D01*
X123085Y372614D01*
X129186Y378715D01*
X137814Y378715D01*
X143915Y372614D01*
X143915Y363986D01*
X137814Y357885D01*
X129186Y357885D01*
G37*
%LPD*%
%LPC*%
G36*
X306986Y357885D02*
X306986Y357885D01*
X300885Y363986D01*
X300885Y372614D01*
X306986Y378715D01*
X315614Y378715D01*
X321715Y372614D01*
X321715Y363986D01*
X315614Y357885D01*
X306986Y357885D01*
G37*
%LPD*%
%LPC*%
G36*
X880059Y419509D02*
X880059Y419509D01*
X880059Y424579D01*
X891940Y436460D01*
X891946Y436467D01*
X891953Y436472D01*
X892073Y436622D01*
X892195Y436771D01*
X892199Y436779D01*
X892205Y436786D01*
X892293Y436956D01*
X892384Y437127D01*
X892386Y437136D01*
X892390Y437143D01*
X892444Y437328D01*
X892499Y437513D01*
X892499Y437522D01*
X892502Y437530D01*
X892518Y437722D01*
X892534Y437904D01*
X892654Y437765D01*
X892783Y437615D01*
X892786Y437612D01*
X892789Y437608D01*
X892944Y437488D01*
X893100Y437366D01*
X893104Y437364D01*
X893107Y437362D01*
X893285Y437273D01*
X893459Y437186D01*
X893464Y437184D01*
X893468Y437182D01*
X893660Y437131D01*
X893848Y437079D01*
X893852Y437079D01*
X893857Y437078D01*
X894187Y437051D01*
X897601Y437051D01*
X897601Y419509D01*
X880059Y419509D01*
G37*
%LPD*%
%LPC*%
G36*
X905099Y419509D02*
X905099Y419509D01*
X905099Y437051D01*
X909213Y437051D01*
X909217Y437051D01*
X909222Y437051D01*
X909416Y437071D01*
X909613Y437091D01*
X909618Y437092D01*
X909622Y437092D01*
X909810Y437151D01*
X909998Y437209D01*
X910002Y437211D01*
X910007Y437212D01*
X910181Y437308D01*
X910249Y437345D01*
X910277Y437260D01*
X910337Y437078D01*
X910341Y437070D01*
X910344Y437062D01*
X910440Y436895D01*
X910535Y436727D01*
X910541Y436720D01*
X910545Y436713D01*
X910760Y436460D01*
X922641Y424579D01*
X922641Y419509D01*
X905099Y419509D01*
G37*
%LPD*%
%LPC*%
G36*
X778099Y419509D02*
X778099Y419509D01*
X778099Y437051D01*
X783169Y437051D01*
X795641Y424579D01*
X795641Y419509D01*
X778099Y419509D01*
G37*
%LPD*%
%LPC*%
G36*
X905099Y165509D02*
X905099Y165509D01*
X905099Y183051D01*
X910169Y183051D01*
X922641Y170579D01*
X922641Y165509D01*
X905099Y165509D01*
G37*
%LPD*%
%LPC*%
G36*
X1032099Y165509D02*
X1032099Y165509D01*
X1032099Y183051D01*
X1037169Y183051D01*
X1049641Y170579D01*
X1049641Y165509D01*
X1032099Y165509D01*
G37*
%LPD*%
%LPC*%
G36*
X778099Y165509D02*
X778099Y165509D01*
X778099Y183051D01*
X783169Y183051D01*
X795641Y170579D01*
X795641Y165509D01*
X778099Y165509D01*
G37*
%LPD*%
%LPC*%
G36*
X880059Y165509D02*
X880059Y165509D01*
X880059Y170579D01*
X892531Y183051D01*
X897601Y183051D01*
X897601Y165509D01*
X880059Y165509D01*
G37*
%LPD*%
%LPC*%
G36*
X753059Y419509D02*
X753059Y419509D01*
X753059Y424579D01*
X765531Y437051D01*
X770601Y437051D01*
X770601Y419509D01*
X753059Y419509D01*
G37*
%LPD*%
%LPC*%
G36*
X1007059Y419509D02*
X1007059Y419509D01*
X1007059Y424579D01*
X1019531Y437051D01*
X1024601Y437051D01*
X1024601Y419509D01*
X1007059Y419509D01*
G37*
%LPD*%
%LPC*%
G36*
X1007059Y165509D02*
X1007059Y165509D01*
X1007059Y170579D01*
X1019531Y183051D01*
X1024601Y183051D01*
X1024601Y165509D01*
X1007059Y165509D01*
G37*
%LPD*%
%LPC*%
G36*
X753059Y165509D02*
X753059Y165509D01*
X753059Y170579D01*
X765531Y183051D01*
X770601Y183051D01*
X770601Y165509D01*
X753059Y165509D01*
G37*
%LPD*%
%LPC*%
G36*
X778099Y394469D02*
X778099Y394469D01*
X778099Y412011D01*
X795641Y412011D01*
X795641Y406941D01*
X783169Y394469D01*
X778099Y394469D01*
G37*
%LPD*%
%LPC*%
G36*
X778099Y140469D02*
X778099Y140469D01*
X778099Y158011D01*
X795641Y158011D01*
X795641Y152941D01*
X783169Y140469D01*
X778099Y140469D01*
G37*
%LPD*%
%LPC*%
G36*
X1032099Y394469D02*
X1032099Y394469D01*
X1032099Y412011D01*
X1049641Y412011D01*
X1049641Y406941D01*
X1037169Y394469D01*
X1032099Y394469D01*
G37*
%LPD*%
%LPC*%
G36*
X905099Y394469D02*
X905099Y394469D01*
X905099Y412011D01*
X922641Y412011D01*
X922641Y406941D01*
X910169Y394469D01*
X905099Y394469D01*
G37*
%LPD*%
%LPC*%
G36*
X1032099Y140469D02*
X1032099Y140469D01*
X1032099Y158011D01*
X1049641Y158011D01*
X1049641Y152941D01*
X1037169Y140469D01*
X1032099Y140469D01*
G37*
%LPD*%
%LPC*%
G36*
X905099Y140469D02*
X905099Y140469D01*
X905099Y158011D01*
X922641Y158011D01*
X922641Y152941D01*
X910169Y140469D01*
X905099Y140469D01*
G37*
%LPD*%
%LPC*%
G36*
X1019531Y140469D02*
X1019531Y140469D01*
X1007059Y152941D01*
X1007059Y158011D01*
X1024601Y158011D01*
X1024601Y140469D01*
X1019531Y140469D01*
G37*
%LPD*%
%LPC*%
G36*
X892531Y394469D02*
X892531Y394469D01*
X880059Y406941D01*
X880059Y412011D01*
X897601Y412011D01*
X897601Y394469D01*
X892531Y394469D01*
G37*
%LPD*%
%LPC*%
G36*
X765531Y394469D02*
X765531Y394469D01*
X753059Y406941D01*
X753059Y412011D01*
X770601Y412011D01*
X770601Y394469D01*
X765531Y394469D01*
G37*
%LPD*%
%LPC*%
G36*
X765531Y140469D02*
X765531Y140469D01*
X753059Y152941D01*
X753059Y158011D01*
X770601Y158011D01*
X770601Y140469D01*
X765531Y140469D01*
G37*
%LPD*%
%LPC*%
G36*
X1019531Y394469D02*
X1019531Y394469D01*
X1007059Y406941D01*
X1007059Y412011D01*
X1024601Y412011D01*
X1024601Y394469D01*
X1019531Y394469D01*
G37*
%LPD*%
%LPC*%
G36*
X892531Y140469D02*
X892531Y140469D01*
X880059Y152941D01*
X880059Y158011D01*
X897601Y158011D01*
X897601Y140469D01*
X892531Y140469D01*
G37*
%LPD*%
%LPC*%
G36*
X891780Y44950D02*
X891780Y44950D01*
X891758Y45139D01*
X891755Y45148D01*
X891754Y45157D01*
X891693Y45340D01*
X891633Y45522D01*
X891629Y45530D01*
X891626Y45538D01*
X891530Y45705D01*
X891435Y45873D01*
X891429Y45880D01*
X891425Y45887D01*
X891210Y46140D01*
X879059Y58291D01*
X879059Y63047D01*
X896287Y63047D01*
X896287Y45819D01*
X893535Y45819D01*
X893531Y45819D01*
X893526Y45819D01*
X893333Y45799D01*
X893135Y45779D01*
X893130Y45778D01*
X893126Y45778D01*
X892940Y45720D01*
X892750Y45661D01*
X892746Y45659D01*
X892742Y45658D01*
X892570Y45564D01*
X892396Y45469D01*
X892392Y45467D01*
X892388Y45464D01*
X892237Y45337D01*
X892087Y45212D01*
X892084Y45208D01*
X892080Y45205D01*
X891957Y45051D01*
X891834Y44898D01*
X891832Y44894D01*
X891829Y44891D01*
X891796Y44825D01*
X891780Y44950D01*
G37*
%LPD*%
%LPC*%
G36*
X904413Y325173D02*
X904413Y325173D01*
X904413Y342401D01*
X909169Y342401D01*
X921641Y329929D01*
X921641Y325173D01*
X904413Y325173D01*
G37*
%LPD*%
%LPC*%
G36*
X1031413Y71173D02*
X1031413Y71173D01*
X1031413Y88401D01*
X1036169Y88401D01*
X1048641Y75929D01*
X1048641Y71173D01*
X1031413Y71173D01*
G37*
%LPD*%
%LPC*%
G36*
X777413Y325173D02*
X777413Y325173D01*
X777413Y342401D01*
X782169Y342401D01*
X794641Y329929D01*
X794641Y325173D01*
X777413Y325173D01*
G37*
%LPD*%
%LPC*%
G36*
X1031413Y325173D02*
X1031413Y325173D01*
X1031413Y342401D01*
X1036169Y342401D01*
X1048641Y329929D01*
X1048641Y325173D01*
X1031413Y325173D01*
G37*
%LPD*%
%LPC*%
G36*
X1006059Y325173D02*
X1006059Y325173D01*
X1006059Y329929D01*
X1018531Y342401D01*
X1023287Y342401D01*
X1023287Y325173D01*
X1006059Y325173D01*
G37*
%LPD*%
%LPC*%
G36*
X752059Y71173D02*
X752059Y71173D01*
X752059Y75929D01*
X764531Y88401D01*
X769287Y88401D01*
X769287Y71173D01*
X752059Y71173D01*
G37*
%LPD*%
%LPC*%
G36*
X752059Y325173D02*
X752059Y325173D01*
X752059Y329929D01*
X764531Y342401D01*
X769287Y342401D01*
X769287Y325173D01*
X752059Y325173D01*
G37*
%LPD*%
%LPC*%
G36*
X1006059Y71173D02*
X1006059Y71173D01*
X1006059Y75929D01*
X1018531Y88401D01*
X1023287Y88401D01*
X1023287Y71173D01*
X1006059Y71173D01*
G37*
%LPD*%
%LPC*%
G36*
X879059Y325173D02*
X879059Y325173D01*
X879059Y329929D01*
X891531Y342401D01*
X896287Y342401D01*
X896287Y325173D01*
X879059Y325173D01*
G37*
%LPD*%
%LPC*%
G36*
X777413Y299819D02*
X777413Y299819D01*
X777413Y317047D01*
X794641Y317047D01*
X794641Y312291D01*
X782169Y299819D01*
X777413Y299819D01*
G37*
%LPD*%
%LPC*%
G36*
X777413Y45819D02*
X777413Y45819D01*
X777413Y63047D01*
X794641Y63047D01*
X794641Y58291D01*
X782169Y45819D01*
X777413Y45819D01*
G37*
%LPD*%
%LPC*%
G36*
X904413Y299819D02*
X904413Y299819D01*
X904413Y317047D01*
X921641Y317047D01*
X921641Y312291D01*
X909169Y299819D01*
X904413Y299819D01*
G37*
%LPD*%
%LPC*%
G36*
X1031413Y299819D02*
X1031413Y299819D01*
X1031413Y317047D01*
X1048641Y317047D01*
X1048641Y312291D01*
X1036169Y299819D01*
X1031413Y299819D01*
G37*
%LPD*%
%LPC*%
G36*
X764531Y299819D02*
X764531Y299819D01*
X752059Y312291D01*
X752059Y317047D01*
X769287Y317047D01*
X769287Y299819D01*
X764531Y299819D01*
G37*
%LPD*%
%LPC*%
G36*
X891531Y299819D02*
X891531Y299819D01*
X879059Y312291D01*
X879059Y317047D01*
X896287Y317047D01*
X896287Y299819D01*
X891531Y299819D01*
G37*
%LPD*%
%LPC*%
G36*
X1018531Y45819D02*
X1018531Y45819D01*
X1006059Y58291D01*
X1006059Y63047D01*
X1023287Y63047D01*
X1023287Y45819D01*
X1018531Y45819D01*
G37*
%LPD*%
%LPC*%
G36*
X1018531Y299819D02*
X1018531Y299819D01*
X1006059Y312291D01*
X1006059Y317047D01*
X1023287Y317047D01*
X1023287Y299819D01*
X1018531Y299819D01*
G37*
%LPD*%
%LPC*%
G36*
X764531Y45819D02*
X764531Y45819D01*
X752059Y58291D01*
X752059Y63047D01*
X769287Y63047D01*
X769287Y45819D01*
X764531Y45819D01*
G37*
%LPD*%
%LPC*%
G36*
X910589Y256539D02*
X910589Y256539D01*
X910589Y264161D01*
X916470Y264161D01*
X918049Y263911D01*
X919570Y263416D01*
X920995Y262690D01*
X922289Y261750D01*
X923420Y260619D01*
X924360Y259325D01*
X925086Y257900D01*
X925529Y256539D01*
X910589Y256539D01*
G37*
%LPD*%
%LPC*%
G36*
X890571Y256539D02*
X890571Y256539D01*
X891014Y257900D01*
X891740Y259325D01*
X892680Y260619D01*
X893811Y261750D01*
X895105Y262690D01*
X896530Y263416D01*
X898051Y263911D01*
X899630Y264161D01*
X905511Y264161D01*
X905511Y256539D01*
X890571Y256539D01*
G37*
%LPD*%
%LPC*%
G36*
X910589Y243839D02*
X910589Y243839D01*
X910589Y251461D01*
X925529Y251461D01*
X925086Y250100D01*
X924360Y248675D01*
X923420Y247381D01*
X922289Y246250D01*
X920995Y245310D01*
X919570Y244584D01*
X918049Y244089D01*
X916470Y243839D01*
X910589Y243839D01*
G37*
%LPD*%
%LPC*%
G36*
X899630Y243839D02*
X899630Y243839D01*
X898051Y244089D01*
X896530Y244584D01*
X895105Y245310D01*
X893811Y246250D01*
X892680Y247381D01*
X891740Y248675D01*
X891014Y250100D01*
X890571Y251461D01*
X905511Y251461D01*
X905511Y243839D01*
X899630Y243839D01*
G37*
%LPD*%
%LPC*%
G36*
X773349Y67109D02*
X773349Y67109D01*
X773349Y67111D01*
X773351Y67111D01*
X773351Y67109D01*
X773349Y67109D01*
G37*
%LPD*%
%LPC*%
G36*
X1027349Y67109D02*
X1027349Y67109D01*
X1027349Y67111D01*
X1027351Y67111D01*
X1027351Y67109D01*
X1027349Y67109D01*
G37*
%LPD*%
%LPC*%
G36*
X1027349Y321109D02*
X1027349Y321109D01*
X1027349Y321111D01*
X1027351Y321111D01*
X1027351Y321109D01*
X1027349Y321109D01*
G37*
%LPD*%
%LPC*%
G36*
X773349Y321109D02*
X773349Y321109D01*
X773349Y321111D01*
X773351Y321111D01*
X773351Y321109D01*
X773349Y321109D01*
G37*
%LPD*%
%LPC*%
G36*
X900349Y321109D02*
X900349Y321109D01*
X900349Y321111D01*
X900351Y321111D01*
X900351Y321109D01*
X900349Y321109D01*
G37*
%LPD*%
D10*
X133500Y89300D03*
D11*
X133500Y114300D03*
X133500Y139300D03*
D12*
X63500Y159300D03*
X63500Y69300D03*
D10*
X311300Y89300D03*
D11*
X311300Y114300D03*
X311300Y139300D03*
D12*
X241300Y159300D03*
X241300Y69300D03*
D10*
X489100Y89300D03*
D11*
X489100Y114300D03*
X489100Y139300D03*
D12*
X419100Y159300D03*
X419100Y69300D03*
D10*
X666900Y89300D03*
D11*
X666900Y114300D03*
X666900Y139300D03*
D12*
X596900Y159300D03*
X596900Y69300D03*
D10*
X133500Y343300D03*
D11*
X133500Y368300D03*
X133500Y393300D03*
D12*
X63500Y413300D03*
X63500Y323300D03*
D10*
X311300Y343300D03*
D11*
X311300Y368300D03*
X311300Y393300D03*
D12*
X241300Y413300D03*
X241300Y323300D03*
D10*
X489100Y343300D03*
D11*
X489100Y368300D03*
X489100Y393300D03*
D12*
X419100Y413300D03*
X419100Y323300D03*
D10*
X666900Y343300D03*
D11*
X666900Y368300D03*
X666900Y393300D03*
D12*
X596900Y413300D03*
X596900Y323300D03*
D13*
X773350Y67110D03*
X774350Y161760D03*
D14*
X801350Y114300D03*
X720890Y114300D03*
D13*
X900350Y67110D03*
X901350Y161760D03*
D14*
X928350Y114300D03*
X847890Y114300D03*
D13*
X1027350Y67110D03*
X1028350Y161760D03*
D14*
X1055350Y114300D03*
X974890Y114300D03*
D13*
X773350Y321110D03*
X774350Y415760D03*
D14*
X801350Y368300D03*
X720890Y368300D03*
D13*
X900350Y321110D03*
X901350Y415760D03*
D14*
X928350Y368300D03*
X847890Y368300D03*
D13*
X1027350Y321110D03*
X1028350Y415760D03*
D14*
X1055350Y368300D03*
X974890Y368300D03*
D15*
X533400Y33020D02*
X533400Y17780D01*
X508000Y17780D02*
X508000Y33020D01*
X482600Y33020D02*
X482600Y17780D01*
X457200Y17780D02*
X457200Y33020D01*
X431800Y33020D02*
X431800Y17780D01*
X406400Y17780D02*
X406400Y33020D01*
X139700Y33020D02*
X139700Y17780D01*
X114300Y17780D02*
X114300Y33020D01*
X88900Y33020D02*
X88900Y17780D01*
X889000Y17780D02*
X889000Y33020D01*
X914400Y33020D02*
X914400Y17780D01*
X406400Y449580D02*
X406400Y464820D01*
X431800Y464820D02*
X431800Y449580D01*
X457200Y449580D02*
X457200Y464820D01*
X482600Y464820D02*
X482600Y449580D01*
X508000Y449580D02*
X508000Y464820D01*
X533400Y464820D02*
X533400Y449580D01*
X914400Y449580D02*
X914400Y464820D01*
X889000Y464820D02*
X889000Y449580D01*
X88900Y449580D02*
X88900Y464820D01*
X114300Y464820D02*
X114300Y449580D01*
X139700Y449580D02*
X139700Y464820D01*
X900430Y254000D02*
X915670Y254000D01*
X915670Y228600D02*
X900430Y228600D01*
D16*
X133500Y139300D02*
X133500Y114300D01*
X248740Y114300D01*
X266700Y96340D01*
X266700Y84049D01*
X280899Y69850D01*
X374650Y69850D01*
X400050Y95250D01*
X435520Y95250D01*
X444500Y86270D01*
X444500Y50800D01*
X431800Y38100D01*
X431800Y25400D01*
X139700Y25400D02*
X139700Y88900D01*
X133500Y88900D01*
X133500Y89300D01*
X114300Y108350D01*
X114300Y169951D01*
X128499Y184150D01*
X311300Y89300D02*
X311300Y88900D01*
X285750Y184150D02*
X128499Y184150D01*
X285750Y184150D02*
X662905Y184150D01*
X685800Y161255D01*
X685800Y95250D01*
X679450Y88900D01*
X666900Y88900D01*
X666900Y89300D01*
X311300Y89300D02*
X299592Y89300D01*
X285750Y103142D01*
X285750Y184150D01*
X482600Y50800D02*
X482600Y25400D01*
X482600Y50800D02*
X469900Y63500D01*
X469900Y133350D01*
X476250Y139700D01*
X489100Y139700D01*
X489100Y139300D01*
X311300Y139300D02*
X311300Y114300D01*
X457200Y91405D02*
X457200Y25400D01*
X457200Y91405D02*
X434305Y114300D01*
X311300Y114300D01*
X666900Y114300D02*
X666900Y139300D01*
X666900Y114300D02*
X559195Y114300D01*
X508000Y63105D01*
X508000Y25400D01*
X720890Y114300D02*
X762000Y114300D01*
X793750Y82550D01*
X863600Y82550D01*
X876300Y95250D01*
X908050Y95250D01*
X927100Y76200D01*
X927100Y38100D01*
X914400Y25400D01*
X114300Y25400D02*
X114300Y50800D01*
X101600Y63500D01*
X101600Y184150D01*
X971550Y114300D02*
X974890Y114300D01*
X971550Y114300D02*
X971550Y149644D01*
X911644Y203200D01*
X120650Y203200D01*
X101600Y184150D01*
X533400Y361950D02*
X533400Y457200D01*
X533400Y361950D02*
X514350Y342900D01*
X489100Y342900D01*
X489100Y343300D01*
X489100Y368300D02*
X444500Y406400D01*
X444500Y438150D01*
X431800Y450850D01*
X431800Y457200D01*
X88900Y457200D02*
X88900Y365795D01*
X111795Y342900D01*
X133500Y342900D01*
X133500Y343300D01*
X133350Y343300D01*
X133350Y318530D01*
X153430Y298450D01*
X311150Y298450D01*
X311300Y298450D01*
X311300Y343300D01*
X311150Y343300D01*
X311150Y298450D01*
X311300Y298450D02*
X646677Y298450D01*
X666900Y318673D01*
X666900Y343300D01*
X457200Y438150D02*
X457200Y457200D01*
X457200Y438150D02*
X463550Y431800D01*
X489100Y406400D01*
X489100Y393300D01*
X666900Y393300D02*
X666900Y374650D01*
X406400Y457200D02*
X387350Y438150D01*
X387350Y367211D01*
X405311Y349250D01*
X444500Y349250D01*
X476250Y317500D01*
X539750Y317500D01*
X596900Y374650D01*
X666900Y374650D01*
X666900Y368300D01*
X717550Y368300D02*
X720890Y368300D01*
X717550Y368300D02*
X717550Y410971D01*
X763779Y457200D01*
X889000Y457200D01*
D17*
X63500Y241300D03*
X292100Y444500D03*
X304800Y31750D03*
X685800Y31750D03*
X679450Y444500D03*
X711200Y292100D03*
X1009650Y260350D03*
X393700Y222250D03*
M02*
