G04 EAGLE Gerber RS-274X export*
G75*
%MOMM*%
%FSLAX34Y34*%
%LPD*%
%INTop Copper*%
%IPPOS*%
%AMOC8*
5,1,8,0,0,1.08239X$1,22.5*%
G01*
%ADD10R,1.676400X1.676400*%
%ADD11P,1.814519X8X22.500000*%
%ADD12R,3.116000X3.116000*%
%ADD13P,4.058962X8X202.500000*%
%ADD14P,4.058962X8X112.500000*%
%ADD15C,1.524000*%
%ADD16C,0.406400*%
%ADD17R,1.006400X1.006400*%

G36*
X78581Y10162D02*
X78581Y10162D01*
X78595Y10161D01*
X78781Y10182D01*
X78969Y10201D01*
X78981Y10205D01*
X78995Y10206D01*
X79174Y10264D01*
X79354Y10319D01*
X79365Y10325D01*
X79378Y10329D01*
X79543Y10421D01*
X79708Y10511D01*
X79718Y10519D01*
X79730Y10526D01*
X79872Y10648D01*
X80017Y10768D01*
X80025Y10779D01*
X80035Y10787D01*
X80151Y10935D01*
X80269Y11082D01*
X80275Y11094D01*
X80284Y11104D01*
X80368Y11273D01*
X80455Y11439D01*
X80458Y11452D01*
X80464Y11464D01*
X80514Y11645D01*
X80566Y11826D01*
X80567Y11840D01*
X80571Y11853D01*
X80584Y12041D01*
X80599Y12228D01*
X80597Y12241D01*
X80598Y12254D01*
X80574Y12442D01*
X80552Y12627D01*
X80548Y12640D01*
X80546Y12653D01*
X80445Y12969D01*
X79247Y15860D01*
X79247Y34940D01*
X80717Y38488D01*
X83432Y41203D01*
X83581Y41265D01*
X83601Y41275D01*
X83622Y41282D01*
X83778Y41371D01*
X83936Y41455D01*
X83953Y41469D01*
X83973Y41480D01*
X84108Y41597D01*
X84247Y41712D01*
X84261Y41729D01*
X84278Y41743D01*
X84387Y41885D01*
X84500Y42024D01*
X84511Y42044D01*
X84524Y42062D01*
X84604Y42222D01*
X84687Y42381D01*
X84694Y42402D01*
X84704Y42422D01*
X84750Y42595D01*
X84800Y42767D01*
X84802Y42789D01*
X84808Y42811D01*
X84835Y43142D01*
X84835Y51697D01*
X84834Y51706D01*
X84835Y51714D01*
X84814Y51906D01*
X84795Y52097D01*
X84793Y52106D01*
X84792Y52115D01*
X84734Y52297D01*
X84677Y52482D01*
X84673Y52490D01*
X84670Y52499D01*
X84577Y52667D01*
X84485Y52836D01*
X84480Y52843D01*
X84475Y52851D01*
X84350Y52999D01*
X84228Y53146D01*
X84221Y53151D01*
X84215Y53158D01*
X84063Y53278D01*
X83914Y53398D01*
X83906Y53402D01*
X83899Y53408D01*
X83727Y53495D01*
X83557Y53583D01*
X83548Y53586D01*
X83540Y53590D01*
X83354Y53642D01*
X83170Y53695D01*
X83161Y53695D01*
X83152Y53698D01*
X82960Y53712D01*
X82768Y53728D01*
X82760Y53727D01*
X82751Y53727D01*
X82558Y53703D01*
X82369Y53681D01*
X82360Y53678D01*
X82351Y53677D01*
X82168Y53615D01*
X81986Y53556D01*
X81978Y53551D01*
X81970Y53549D01*
X81804Y53453D01*
X81635Y53358D01*
X81628Y53352D01*
X81621Y53348D01*
X81368Y53133D01*
X79922Y51687D01*
X47078Y51687D01*
X45887Y52878D01*
X45887Y85722D01*
X47078Y86913D01*
X79922Y86913D01*
X81368Y85467D01*
X81375Y85461D01*
X81380Y85454D01*
X81530Y85334D01*
X81679Y85212D01*
X81687Y85208D01*
X81694Y85202D01*
X81864Y85114D01*
X82035Y85023D01*
X82044Y85021D01*
X82051Y85017D01*
X82236Y84964D01*
X82421Y84909D01*
X82430Y84908D01*
X82438Y84905D01*
X82629Y84890D01*
X82822Y84872D01*
X82831Y84873D01*
X82840Y84872D01*
X83029Y84895D01*
X83222Y84916D01*
X83231Y84918D01*
X83239Y84919D01*
X83421Y84979D01*
X83606Y85037D01*
X83614Y85041D01*
X83622Y85044D01*
X83789Y85138D01*
X83958Y85232D01*
X83965Y85238D01*
X83973Y85242D01*
X84118Y85367D01*
X84265Y85492D01*
X84271Y85499D01*
X84278Y85505D01*
X84394Y85656D01*
X84515Y85808D01*
X84519Y85816D01*
X84524Y85823D01*
X84610Y85995D01*
X84697Y86167D01*
X84700Y86176D01*
X84704Y86184D01*
X84754Y86370D01*
X84805Y86555D01*
X84806Y86564D01*
X84808Y86573D01*
X84835Y86903D01*
X84835Y141697D01*
X84834Y141706D01*
X84835Y141714D01*
X84814Y141906D01*
X84795Y142097D01*
X84793Y142106D01*
X84792Y142115D01*
X84734Y142297D01*
X84677Y142482D01*
X84673Y142490D01*
X84670Y142499D01*
X84577Y142667D01*
X84485Y142836D01*
X84480Y142843D01*
X84475Y142851D01*
X84350Y142999D01*
X84228Y143146D01*
X84221Y143151D01*
X84215Y143158D01*
X84063Y143278D01*
X83914Y143398D01*
X83906Y143402D01*
X83899Y143408D01*
X83727Y143495D01*
X83557Y143583D01*
X83548Y143586D01*
X83540Y143590D01*
X83354Y143642D01*
X83170Y143695D01*
X83161Y143695D01*
X83152Y143698D01*
X82960Y143712D01*
X82768Y143728D01*
X82760Y143727D01*
X82751Y143727D01*
X82558Y143703D01*
X82369Y143681D01*
X82360Y143678D01*
X82351Y143677D01*
X82168Y143615D01*
X81986Y143556D01*
X81978Y143551D01*
X81970Y143549D01*
X81804Y143453D01*
X81635Y143358D01*
X81628Y143352D01*
X81621Y143348D01*
X81368Y143133D01*
X79922Y141687D01*
X47078Y141687D01*
X45887Y142878D01*
X45887Y175722D01*
X47078Y176913D01*
X79922Y176913D01*
X81368Y175467D01*
X81375Y175461D01*
X81380Y175454D01*
X81530Y175334D01*
X81679Y175212D01*
X81687Y175208D01*
X81694Y175202D01*
X81864Y175114D01*
X82035Y175023D01*
X82044Y175021D01*
X82051Y175017D01*
X82236Y174964D01*
X82421Y174909D01*
X82430Y174908D01*
X82438Y174905D01*
X82629Y174890D01*
X82822Y174872D01*
X82831Y174873D01*
X82840Y174872D01*
X83029Y174895D01*
X83222Y174916D01*
X83231Y174918D01*
X83239Y174919D01*
X83421Y174979D01*
X83606Y175037D01*
X83614Y175041D01*
X83622Y175044D01*
X83789Y175138D01*
X83958Y175232D01*
X83965Y175238D01*
X83973Y175242D01*
X84118Y175367D01*
X84265Y175492D01*
X84271Y175499D01*
X84278Y175505D01*
X84394Y175656D01*
X84515Y175808D01*
X84519Y175816D01*
X84524Y175823D01*
X84610Y175995D01*
X84697Y176167D01*
X84700Y176176D01*
X84704Y176184D01*
X84754Y176370D01*
X84805Y176555D01*
X84806Y176564D01*
X84808Y176573D01*
X84835Y176903D01*
X84835Y189968D01*
X85454Y191462D01*
X132388Y238396D01*
X133882Y239015D01*
X797252Y239015D01*
X798746Y238396D01*
X851336Y185806D01*
X851955Y184312D01*
X851955Y137114D01*
X851957Y137096D01*
X851955Y137078D01*
X851976Y136896D01*
X851995Y136713D01*
X852000Y136696D01*
X852002Y136679D01*
X852059Y136504D01*
X852113Y136328D01*
X852121Y136313D01*
X852127Y136296D01*
X852217Y136136D01*
X852305Y135974D01*
X852316Y135961D01*
X852325Y135945D01*
X852445Y135806D01*
X852562Y135665D01*
X852576Y135654D01*
X852588Y135640D01*
X852733Y135528D01*
X852876Y135413D01*
X852892Y135405D01*
X852906Y135394D01*
X853071Y135312D01*
X853233Y135227D01*
X853250Y135222D01*
X853266Y135214D01*
X853445Y135167D01*
X853620Y135116D01*
X853638Y135114D01*
X853655Y135110D01*
X853986Y135083D01*
X856498Y135083D01*
X868673Y122908D01*
X868673Y105692D01*
X856498Y93517D01*
X839282Y93517D01*
X827107Y105692D01*
X827107Y122908D01*
X839282Y135083D01*
X841794Y135083D01*
X841812Y135085D01*
X841830Y135083D01*
X842012Y135104D01*
X842195Y135123D01*
X842212Y135128D01*
X842229Y135130D01*
X842404Y135187D01*
X842580Y135241D01*
X842595Y135249D01*
X842612Y135255D01*
X842772Y135345D01*
X842934Y135433D01*
X842947Y135444D01*
X842963Y135453D01*
X843102Y135573D01*
X843243Y135690D01*
X843254Y135704D01*
X843268Y135716D01*
X843380Y135861D01*
X843495Y136004D01*
X843503Y136020D01*
X843514Y136034D01*
X843596Y136199D01*
X843681Y136361D01*
X843686Y136378D01*
X843694Y136394D01*
X843741Y136573D01*
X843792Y136748D01*
X843794Y136766D01*
X843798Y136783D01*
X843825Y137114D01*
X843825Y180978D01*
X843823Y181005D01*
X843825Y181031D01*
X843803Y181205D01*
X843785Y181379D01*
X843778Y181404D01*
X843774Y181431D01*
X843719Y181596D01*
X843667Y181764D01*
X843654Y181787D01*
X843646Y181812D01*
X843559Y181964D01*
X843475Y182118D01*
X843458Y182138D01*
X843445Y182161D01*
X843230Y182414D01*
X795354Y230290D01*
X795334Y230307D01*
X795316Y230328D01*
X795178Y230435D01*
X795043Y230545D01*
X795019Y230558D01*
X794998Y230574D01*
X794841Y230652D01*
X794687Y230734D01*
X794662Y230742D01*
X794638Y230754D01*
X794468Y230799D01*
X794301Y230849D01*
X794275Y230851D01*
X794249Y230858D01*
X793918Y230885D01*
X137216Y230885D01*
X137189Y230883D01*
X137162Y230885D01*
X136988Y230863D01*
X136815Y230845D01*
X136789Y230838D01*
X136763Y230834D01*
X136597Y230779D01*
X136430Y230727D01*
X136406Y230714D01*
X136381Y230706D01*
X136229Y230619D01*
X136076Y230535D01*
X136056Y230518D01*
X136032Y230505D01*
X135779Y230290D01*
X93560Y188071D01*
X93543Y188050D01*
X93522Y188033D01*
X93415Y187895D01*
X93305Y187759D01*
X93292Y187736D01*
X93276Y187714D01*
X93198Y187558D01*
X93116Y187404D01*
X93108Y187378D01*
X93096Y187354D01*
X93051Y187185D01*
X93001Y187018D01*
X92999Y186991D01*
X92992Y186965D01*
X92965Y186634D01*
X92965Y43142D01*
X92967Y43119D01*
X92965Y43097D01*
X92987Y42920D01*
X93005Y42741D01*
X93011Y42720D01*
X93014Y42697D01*
X93070Y42528D01*
X93123Y42356D01*
X93133Y42336D01*
X93140Y42315D01*
X93229Y42160D01*
X93315Y42002D01*
X93329Y41985D01*
X93340Y41966D01*
X93457Y41831D01*
X93572Y41693D01*
X93590Y41679D01*
X93604Y41662D01*
X93746Y41553D01*
X93886Y41440D01*
X93906Y41430D01*
X93924Y41417D01*
X94219Y41265D01*
X94368Y41203D01*
X97083Y38488D01*
X98553Y34940D01*
X98553Y15860D01*
X97355Y12969D01*
X97351Y12956D01*
X97345Y12945D01*
X97294Y12765D01*
X97239Y12584D01*
X97238Y12571D01*
X97234Y12558D01*
X97219Y12370D01*
X97201Y12183D01*
X97202Y12170D01*
X97201Y12156D01*
X97223Y11970D01*
X97242Y11783D01*
X97246Y11770D01*
X97248Y11757D01*
X97306Y11578D01*
X97362Y11398D01*
X97369Y11387D01*
X97373Y11374D01*
X97466Y11209D01*
X97556Y11045D01*
X97564Y11035D01*
X97571Y11023D01*
X97694Y10881D01*
X97815Y10737D01*
X97825Y10729D01*
X97834Y10718D01*
X97982Y10603D01*
X98130Y10486D01*
X98141Y10480D01*
X98152Y10472D01*
X98321Y10388D01*
X98488Y10302D01*
X98500Y10298D01*
X98513Y10292D01*
X98695Y10243D01*
X98875Y10192D01*
X98888Y10191D01*
X98901Y10188D01*
X99232Y10161D01*
X103968Y10161D01*
X103981Y10162D01*
X103995Y10161D01*
X104181Y10182D01*
X104369Y10201D01*
X104381Y10205D01*
X104395Y10206D01*
X104574Y10264D01*
X104754Y10319D01*
X104765Y10325D01*
X104778Y10329D01*
X104943Y10421D01*
X105108Y10511D01*
X105118Y10519D01*
X105130Y10526D01*
X105272Y10648D01*
X105417Y10768D01*
X105425Y10779D01*
X105435Y10787D01*
X105551Y10935D01*
X105669Y11082D01*
X105675Y11094D01*
X105684Y11104D01*
X105768Y11273D01*
X105855Y11439D01*
X105858Y11452D01*
X105864Y11464D01*
X105914Y11645D01*
X105966Y11826D01*
X105967Y11840D01*
X105971Y11853D01*
X105984Y12041D01*
X105999Y12228D01*
X105997Y12241D01*
X105998Y12254D01*
X105974Y12442D01*
X105952Y12627D01*
X105948Y12640D01*
X105946Y12653D01*
X105845Y12969D01*
X104647Y15860D01*
X104647Y34940D01*
X106117Y38488D01*
X108832Y41203D01*
X112380Y42673D01*
X116220Y42673D01*
X119768Y41203D01*
X122483Y38488D01*
X123953Y34940D01*
X123953Y15860D01*
X122755Y12969D01*
X122751Y12956D01*
X122745Y12945D01*
X122694Y12765D01*
X122639Y12584D01*
X122638Y12571D01*
X122634Y12558D01*
X122619Y12370D01*
X122601Y12183D01*
X122602Y12170D01*
X122601Y12156D01*
X122623Y11970D01*
X122642Y11783D01*
X122646Y11770D01*
X122648Y11757D01*
X122706Y11578D01*
X122762Y11398D01*
X122769Y11387D01*
X122773Y11374D01*
X122866Y11209D01*
X122956Y11045D01*
X122964Y11035D01*
X122971Y11023D01*
X123094Y10881D01*
X123215Y10737D01*
X123225Y10729D01*
X123234Y10718D01*
X123382Y10603D01*
X123530Y10486D01*
X123541Y10480D01*
X123552Y10472D01*
X123721Y10388D01*
X123888Y10302D01*
X123900Y10298D01*
X123913Y10292D01*
X124095Y10243D01*
X124275Y10192D01*
X124288Y10191D01*
X124301Y10188D01*
X124632Y10161D01*
X129368Y10161D01*
X129381Y10162D01*
X129395Y10161D01*
X129581Y10182D01*
X129769Y10201D01*
X129781Y10205D01*
X129795Y10206D01*
X129974Y10264D01*
X130154Y10319D01*
X130165Y10325D01*
X130178Y10329D01*
X130343Y10421D01*
X130508Y10511D01*
X130518Y10519D01*
X130530Y10526D01*
X130672Y10648D01*
X130817Y10768D01*
X130825Y10779D01*
X130835Y10787D01*
X130951Y10935D01*
X131069Y11082D01*
X131075Y11094D01*
X131084Y11104D01*
X131168Y11273D01*
X131255Y11439D01*
X131258Y11452D01*
X131264Y11464D01*
X131314Y11645D01*
X131366Y11826D01*
X131367Y11840D01*
X131371Y11853D01*
X131384Y12041D01*
X131399Y12228D01*
X131397Y12241D01*
X131398Y12254D01*
X131374Y12442D01*
X131352Y12627D01*
X131348Y12640D01*
X131346Y12653D01*
X131245Y12969D01*
X130047Y15860D01*
X130047Y34940D01*
X131517Y38488D01*
X134232Y41203D01*
X137780Y42673D01*
X141620Y42673D01*
X145168Y41203D01*
X147883Y38488D01*
X149353Y34940D01*
X149353Y15860D01*
X148155Y12969D01*
X148151Y12956D01*
X148145Y12945D01*
X148094Y12765D01*
X148039Y12584D01*
X148038Y12571D01*
X148034Y12558D01*
X148019Y12370D01*
X148001Y12183D01*
X148002Y12170D01*
X148001Y12156D01*
X148023Y11970D01*
X148042Y11783D01*
X148046Y11770D01*
X148048Y11757D01*
X148106Y11578D01*
X148162Y11398D01*
X148169Y11387D01*
X148173Y11374D01*
X148266Y11209D01*
X148356Y11045D01*
X148364Y11035D01*
X148371Y11023D01*
X148494Y10881D01*
X148615Y10737D01*
X148625Y10729D01*
X148634Y10718D01*
X148782Y10603D01*
X148930Y10486D01*
X148941Y10480D01*
X148952Y10472D01*
X149121Y10388D01*
X149288Y10302D01*
X149300Y10298D01*
X149313Y10292D01*
X149495Y10243D01*
X149675Y10192D01*
X149688Y10191D01*
X149701Y10188D01*
X150032Y10161D01*
X396068Y10161D01*
X396081Y10162D01*
X396095Y10161D01*
X396281Y10182D01*
X396469Y10201D01*
X396481Y10205D01*
X396495Y10206D01*
X396674Y10264D01*
X396854Y10319D01*
X396865Y10325D01*
X396878Y10329D01*
X397043Y10421D01*
X397208Y10511D01*
X397218Y10519D01*
X397230Y10526D01*
X397372Y10648D01*
X397517Y10768D01*
X397525Y10779D01*
X397535Y10787D01*
X397651Y10935D01*
X397769Y11082D01*
X397775Y11094D01*
X397784Y11104D01*
X397868Y11273D01*
X397955Y11439D01*
X397958Y11452D01*
X397964Y11464D01*
X398014Y11645D01*
X398066Y11826D01*
X398067Y11840D01*
X398071Y11853D01*
X398084Y12041D01*
X398099Y12228D01*
X398097Y12241D01*
X398098Y12254D01*
X398074Y12442D01*
X398052Y12627D01*
X398048Y12640D01*
X398046Y12653D01*
X397945Y12969D01*
X396747Y15860D01*
X396747Y22113D01*
X396745Y22140D01*
X396747Y22166D01*
X396725Y22340D01*
X396707Y22514D01*
X396700Y22539D01*
X396696Y22566D01*
X396640Y22732D01*
X396589Y22899D01*
X396576Y22922D01*
X396568Y22947D01*
X396481Y23099D01*
X396397Y23253D01*
X396380Y23273D01*
X396367Y23296D01*
X396152Y23549D01*
X385333Y34368D01*
X383904Y35798D01*
X383285Y37291D01*
X383285Y116198D01*
X383904Y117692D01*
X403008Y136796D01*
X404502Y137415D01*
X458009Y137415D01*
X459502Y136796D01*
X476749Y119550D01*
X476762Y119539D01*
X476774Y119525D01*
X476918Y119411D01*
X477060Y119295D01*
X477076Y119286D01*
X477090Y119275D01*
X477254Y119192D01*
X477416Y119106D01*
X477433Y119101D01*
X477449Y119093D01*
X477626Y119044D01*
X477802Y118991D01*
X477819Y118990D01*
X477837Y118985D01*
X478020Y118972D01*
X478203Y118955D01*
X478220Y118957D01*
X478238Y118956D01*
X478420Y118979D01*
X478603Y118998D01*
X478620Y119004D01*
X478638Y119006D01*
X478811Y119064D01*
X478987Y119120D01*
X479002Y119129D01*
X479019Y119134D01*
X479179Y119226D01*
X479339Y119315D01*
X479353Y119326D01*
X479368Y119335D01*
X479621Y119550D01*
X484786Y124715D01*
X493414Y124715D01*
X499515Y118614D01*
X499515Y109986D01*
X493414Y103885D01*
X484786Y103885D01*
X479031Y109640D01*
X479010Y109657D01*
X478993Y109678D01*
X478855Y109785D01*
X478720Y109895D01*
X478696Y109908D01*
X478675Y109924D01*
X478518Y110002D01*
X478364Y110084D01*
X478338Y110092D01*
X478314Y110104D01*
X478145Y110149D01*
X477978Y110199D01*
X477951Y110201D01*
X477925Y110208D01*
X477595Y110235D01*
X475441Y110235D01*
X473948Y110854D01*
X456111Y128690D01*
X456091Y128707D01*
X456073Y128728D01*
X455935Y128835D01*
X455800Y128945D01*
X455776Y128958D01*
X455755Y128974D01*
X455598Y129052D01*
X455444Y129134D01*
X455419Y129142D01*
X455394Y129154D01*
X455225Y129199D01*
X455058Y129249D01*
X455032Y129251D01*
X455006Y129258D01*
X454675Y129285D01*
X407836Y129285D01*
X407809Y129283D01*
X407782Y129285D01*
X407608Y129263D01*
X407435Y129245D01*
X407409Y129238D01*
X407383Y129234D01*
X407217Y129179D01*
X407050Y129127D01*
X407026Y129114D01*
X407001Y129106D01*
X406849Y129019D01*
X406696Y128935D01*
X406676Y128918D01*
X406652Y128905D01*
X406399Y128690D01*
X392010Y114301D01*
X391993Y114280D01*
X391972Y114263D01*
X391865Y114125D01*
X391755Y113989D01*
X391742Y113966D01*
X391726Y113944D01*
X391648Y113788D01*
X391566Y113634D01*
X391558Y113608D01*
X391546Y113584D01*
X391501Y113415D01*
X391451Y113248D01*
X391449Y113221D01*
X391442Y113195D01*
X391415Y112864D01*
X391415Y40625D01*
X391416Y40609D01*
X391415Y40594D01*
X391416Y40583D01*
X391415Y40572D01*
X391437Y40398D01*
X391455Y40224D01*
X391461Y40205D01*
X391462Y40194D01*
X391464Y40188D01*
X391466Y40172D01*
X391522Y40006D01*
X391573Y39840D01*
X391585Y39817D01*
X391587Y39811D01*
X391587Y39810D01*
X391594Y39791D01*
X391681Y39639D01*
X391765Y39485D01*
X391782Y39465D01*
X391795Y39442D01*
X392010Y39189D01*
X394454Y36744D01*
X394465Y36735D01*
X394473Y36725D01*
X394621Y36608D01*
X394766Y36489D01*
X394778Y36483D01*
X394788Y36474D01*
X394956Y36388D01*
X395122Y36300D01*
X395134Y36296D01*
X395146Y36290D01*
X395328Y36239D01*
X395508Y36185D01*
X395521Y36184D01*
X395534Y36181D01*
X395721Y36166D01*
X395909Y36149D01*
X395922Y36150D01*
X395935Y36149D01*
X396120Y36172D01*
X396309Y36192D01*
X396322Y36197D01*
X396335Y36198D01*
X396512Y36257D01*
X396693Y36314D01*
X396704Y36320D01*
X396717Y36325D01*
X396880Y36418D01*
X397045Y36509D01*
X397055Y36517D01*
X397067Y36524D01*
X397208Y36647D01*
X397352Y36769D01*
X397360Y36780D01*
X397370Y36789D01*
X397485Y36937D01*
X397602Y37085D01*
X397608Y37097D01*
X397616Y37108D01*
X397767Y37403D01*
X398217Y38488D01*
X400932Y41203D01*
X404480Y42673D01*
X408320Y42673D01*
X411868Y41203D01*
X414583Y38488D01*
X416053Y34940D01*
X416053Y15860D01*
X414855Y12969D01*
X414851Y12956D01*
X414845Y12945D01*
X414794Y12765D01*
X414739Y12584D01*
X414738Y12571D01*
X414734Y12558D01*
X414719Y12370D01*
X414701Y12183D01*
X414702Y12170D01*
X414701Y12156D01*
X414723Y11970D01*
X414742Y11783D01*
X414746Y11770D01*
X414748Y11757D01*
X414806Y11578D01*
X414862Y11398D01*
X414869Y11387D01*
X414873Y11374D01*
X414966Y11209D01*
X415056Y11045D01*
X415064Y11035D01*
X415071Y11023D01*
X415194Y10881D01*
X415315Y10737D01*
X415325Y10729D01*
X415334Y10718D01*
X415482Y10603D01*
X415630Y10486D01*
X415641Y10480D01*
X415652Y10472D01*
X415821Y10388D01*
X415988Y10302D01*
X416000Y10298D01*
X416013Y10292D01*
X416195Y10243D01*
X416375Y10192D01*
X416388Y10191D01*
X416401Y10188D01*
X416732Y10161D01*
X421468Y10161D01*
X421481Y10162D01*
X421495Y10161D01*
X421681Y10182D01*
X421869Y10201D01*
X421881Y10205D01*
X421895Y10206D01*
X422074Y10264D01*
X422254Y10319D01*
X422265Y10325D01*
X422278Y10329D01*
X422443Y10421D01*
X422608Y10511D01*
X422618Y10519D01*
X422630Y10526D01*
X422772Y10648D01*
X422917Y10768D01*
X422925Y10779D01*
X422935Y10787D01*
X423051Y10935D01*
X423169Y11082D01*
X423175Y11094D01*
X423184Y11104D01*
X423268Y11273D01*
X423355Y11439D01*
X423358Y11452D01*
X423364Y11464D01*
X423414Y11645D01*
X423466Y11826D01*
X423467Y11840D01*
X423471Y11853D01*
X423484Y12041D01*
X423499Y12228D01*
X423497Y12241D01*
X423498Y12254D01*
X423474Y12442D01*
X423452Y12627D01*
X423448Y12640D01*
X423446Y12653D01*
X423345Y12969D01*
X422147Y15860D01*
X422147Y34940D01*
X423617Y38488D01*
X426332Y41203D01*
X429880Y42673D01*
X433720Y42673D01*
X437268Y41203D01*
X439983Y38488D01*
X441453Y34940D01*
X441453Y15860D01*
X440255Y12969D01*
X440251Y12956D01*
X440245Y12945D01*
X440194Y12765D01*
X440139Y12584D01*
X440138Y12571D01*
X440134Y12558D01*
X440119Y12370D01*
X440101Y12183D01*
X440102Y12170D01*
X440101Y12156D01*
X440123Y11970D01*
X440142Y11783D01*
X440146Y11770D01*
X440148Y11757D01*
X440206Y11578D01*
X440262Y11398D01*
X440269Y11387D01*
X440273Y11374D01*
X440366Y11209D01*
X440456Y11045D01*
X440464Y11035D01*
X440471Y11023D01*
X440594Y10881D01*
X440715Y10737D01*
X440725Y10729D01*
X440734Y10718D01*
X440882Y10603D01*
X441030Y10486D01*
X441041Y10480D01*
X441052Y10472D01*
X441221Y10388D01*
X441388Y10302D01*
X441400Y10298D01*
X441413Y10292D01*
X441595Y10243D01*
X441775Y10192D01*
X441788Y10191D01*
X441801Y10188D01*
X442132Y10161D01*
X446868Y10161D01*
X446881Y10162D01*
X446895Y10161D01*
X447081Y10182D01*
X447269Y10201D01*
X447281Y10205D01*
X447295Y10206D01*
X447474Y10264D01*
X447654Y10319D01*
X447665Y10325D01*
X447678Y10329D01*
X447843Y10421D01*
X448008Y10511D01*
X448018Y10519D01*
X448030Y10526D01*
X448172Y10648D01*
X448317Y10768D01*
X448325Y10779D01*
X448335Y10787D01*
X448451Y10935D01*
X448569Y11082D01*
X448575Y11094D01*
X448584Y11104D01*
X448668Y11273D01*
X448755Y11439D01*
X448758Y11452D01*
X448764Y11464D01*
X448814Y11645D01*
X448866Y11826D01*
X448867Y11840D01*
X448871Y11853D01*
X448884Y12041D01*
X448899Y12228D01*
X448897Y12241D01*
X448898Y12254D01*
X448874Y12442D01*
X448852Y12627D01*
X448848Y12640D01*
X448846Y12653D01*
X448745Y12969D01*
X447547Y15860D01*
X447547Y34940D01*
X449017Y38488D01*
X451732Y41203D01*
X455280Y42673D01*
X459120Y42673D01*
X462668Y41203D01*
X465383Y38488D01*
X466853Y34940D01*
X466853Y15860D01*
X465655Y12969D01*
X465651Y12956D01*
X465645Y12945D01*
X465594Y12765D01*
X465539Y12584D01*
X465538Y12571D01*
X465534Y12558D01*
X465519Y12370D01*
X465501Y12183D01*
X465502Y12170D01*
X465501Y12156D01*
X465523Y11970D01*
X465542Y11783D01*
X465546Y11770D01*
X465548Y11757D01*
X465606Y11578D01*
X465662Y11398D01*
X465669Y11387D01*
X465673Y11374D01*
X465766Y11209D01*
X465856Y11045D01*
X465864Y11035D01*
X465871Y11023D01*
X465994Y10881D01*
X466115Y10737D01*
X466125Y10729D01*
X466134Y10718D01*
X466282Y10603D01*
X466430Y10486D01*
X466441Y10480D01*
X466452Y10472D01*
X466621Y10388D01*
X466788Y10302D01*
X466800Y10298D01*
X466813Y10292D01*
X466995Y10243D01*
X467175Y10192D01*
X467188Y10191D01*
X467201Y10188D01*
X467532Y10161D01*
X472268Y10161D01*
X472281Y10162D01*
X472295Y10161D01*
X472481Y10182D01*
X472669Y10201D01*
X472681Y10205D01*
X472695Y10206D01*
X472874Y10264D01*
X473054Y10319D01*
X473065Y10325D01*
X473078Y10329D01*
X473243Y10421D01*
X473408Y10511D01*
X473418Y10519D01*
X473430Y10526D01*
X473572Y10648D01*
X473717Y10768D01*
X473725Y10779D01*
X473735Y10787D01*
X473851Y10935D01*
X473969Y11082D01*
X473975Y11094D01*
X473984Y11104D01*
X474068Y11273D01*
X474155Y11439D01*
X474158Y11452D01*
X474164Y11464D01*
X474214Y11645D01*
X474266Y11826D01*
X474267Y11840D01*
X474271Y11853D01*
X474284Y12041D01*
X474299Y12228D01*
X474297Y12241D01*
X474298Y12254D01*
X474274Y12442D01*
X474252Y12627D01*
X474248Y12640D01*
X474246Y12653D01*
X474145Y12969D01*
X472947Y15860D01*
X472947Y34940D01*
X474417Y38488D01*
X477132Y41203D01*
X480680Y42673D01*
X484520Y42673D01*
X488068Y41203D01*
X490783Y38488D01*
X492253Y34940D01*
X492253Y15860D01*
X491055Y12969D01*
X491051Y12956D01*
X491045Y12945D01*
X490994Y12765D01*
X490939Y12584D01*
X490938Y12571D01*
X490934Y12558D01*
X490919Y12370D01*
X490901Y12183D01*
X490902Y12170D01*
X490901Y12156D01*
X490923Y11970D01*
X490942Y11783D01*
X490946Y11770D01*
X490948Y11757D01*
X491006Y11578D01*
X491062Y11398D01*
X491069Y11387D01*
X491073Y11374D01*
X491166Y11209D01*
X491256Y11045D01*
X491264Y11035D01*
X491271Y11023D01*
X491394Y10881D01*
X491515Y10737D01*
X491525Y10729D01*
X491534Y10718D01*
X491682Y10603D01*
X491830Y10486D01*
X491841Y10480D01*
X491852Y10472D01*
X492021Y10388D01*
X492188Y10302D01*
X492200Y10298D01*
X492213Y10292D01*
X492395Y10243D01*
X492575Y10192D01*
X492588Y10191D01*
X492601Y10188D01*
X492932Y10161D01*
X497668Y10161D01*
X497681Y10162D01*
X497695Y10161D01*
X497881Y10182D01*
X498069Y10201D01*
X498081Y10205D01*
X498095Y10206D01*
X498274Y10264D01*
X498454Y10319D01*
X498465Y10325D01*
X498478Y10329D01*
X498643Y10421D01*
X498808Y10511D01*
X498818Y10519D01*
X498830Y10526D01*
X498972Y10648D01*
X499117Y10768D01*
X499125Y10779D01*
X499135Y10787D01*
X499251Y10935D01*
X499369Y11082D01*
X499375Y11094D01*
X499384Y11104D01*
X499468Y11273D01*
X499555Y11439D01*
X499558Y11452D01*
X499564Y11464D01*
X499614Y11645D01*
X499666Y11826D01*
X499667Y11840D01*
X499671Y11853D01*
X499684Y12041D01*
X499699Y12228D01*
X499697Y12241D01*
X499698Y12254D01*
X499674Y12442D01*
X499652Y12627D01*
X499648Y12640D01*
X499646Y12653D01*
X499545Y12969D01*
X498347Y15860D01*
X498347Y34940D01*
X499817Y38488D01*
X502532Y41203D01*
X506080Y42673D01*
X509920Y42673D01*
X513468Y41203D01*
X516183Y38488D01*
X517653Y34940D01*
X517653Y15860D01*
X516455Y12969D01*
X516451Y12956D01*
X516445Y12945D01*
X516394Y12765D01*
X516339Y12584D01*
X516338Y12571D01*
X516334Y12558D01*
X516319Y12370D01*
X516301Y12183D01*
X516302Y12170D01*
X516301Y12156D01*
X516323Y11970D01*
X516342Y11783D01*
X516346Y11770D01*
X516348Y11757D01*
X516406Y11578D01*
X516462Y11398D01*
X516469Y11387D01*
X516473Y11374D01*
X516566Y11209D01*
X516656Y11045D01*
X516664Y11035D01*
X516671Y11023D01*
X516794Y10881D01*
X516915Y10737D01*
X516925Y10729D01*
X516934Y10718D01*
X517082Y10603D01*
X517230Y10486D01*
X517241Y10480D01*
X517252Y10472D01*
X517421Y10388D01*
X517588Y10302D01*
X517600Y10298D01*
X517613Y10292D01*
X517795Y10243D01*
X517975Y10192D01*
X517988Y10191D01*
X518001Y10188D01*
X518332Y10161D01*
X523068Y10161D01*
X523081Y10162D01*
X523095Y10161D01*
X523281Y10182D01*
X523469Y10201D01*
X523481Y10205D01*
X523495Y10206D01*
X523674Y10264D01*
X523854Y10319D01*
X523865Y10325D01*
X523878Y10329D01*
X524043Y10421D01*
X524208Y10511D01*
X524218Y10519D01*
X524230Y10526D01*
X524372Y10648D01*
X524517Y10768D01*
X524525Y10779D01*
X524535Y10787D01*
X524651Y10935D01*
X524769Y11082D01*
X524775Y11094D01*
X524784Y11104D01*
X524868Y11273D01*
X524955Y11439D01*
X524958Y11452D01*
X524964Y11464D01*
X525014Y11645D01*
X525066Y11826D01*
X525067Y11840D01*
X525071Y11853D01*
X525084Y12041D01*
X525099Y12228D01*
X525097Y12241D01*
X525098Y12254D01*
X525074Y12442D01*
X525052Y12627D01*
X525048Y12640D01*
X525046Y12653D01*
X524945Y12969D01*
X523747Y15860D01*
X523747Y34940D01*
X525217Y38488D01*
X527932Y41203D01*
X528081Y41265D01*
X528101Y41275D01*
X528122Y41282D01*
X528278Y41371D01*
X528436Y41455D01*
X528453Y41469D01*
X528473Y41480D01*
X528608Y41597D01*
X528747Y41712D01*
X528761Y41729D01*
X528778Y41743D01*
X528887Y41885D01*
X529000Y42024D01*
X529011Y42044D01*
X529024Y42062D01*
X529104Y42222D01*
X529187Y42381D01*
X529194Y42402D01*
X529204Y42422D01*
X529250Y42595D01*
X529300Y42767D01*
X529302Y42789D01*
X529308Y42811D01*
X529335Y43142D01*
X529335Y68529D01*
X529333Y68556D01*
X529335Y68583D01*
X529313Y68756D01*
X529295Y68930D01*
X529288Y68956D01*
X529284Y68982D01*
X529229Y69148D01*
X529177Y69315D01*
X529164Y69339D01*
X529156Y69364D01*
X529069Y69516D01*
X528985Y69669D01*
X528968Y69689D01*
X528955Y69713D01*
X528740Y69966D01*
X514066Y84640D01*
X514045Y84657D01*
X514028Y84678D01*
X513890Y84785D01*
X513754Y84895D01*
X513731Y84908D01*
X513709Y84924D01*
X513553Y85002D01*
X513399Y85084D01*
X513373Y85092D01*
X513349Y85104D01*
X513180Y85149D01*
X513013Y85199D01*
X512986Y85201D01*
X512960Y85208D01*
X512629Y85235D01*
X501546Y85235D01*
X501528Y85233D01*
X501510Y85235D01*
X501328Y85214D01*
X501145Y85195D01*
X501128Y85190D01*
X501111Y85188D01*
X500936Y85131D01*
X500760Y85077D01*
X500745Y85069D01*
X500728Y85063D01*
X500568Y84973D01*
X500406Y84885D01*
X500393Y84874D01*
X500377Y84865D01*
X500238Y84745D01*
X500097Y84628D01*
X500086Y84614D01*
X500072Y84602D01*
X499960Y84457D01*
X499845Y84314D01*
X499837Y84298D01*
X499826Y84284D01*
X499744Y84119D01*
X499659Y83957D01*
X499654Y83940D01*
X499646Y83924D01*
X499599Y83745D01*
X499548Y83570D01*
X499546Y83552D01*
X499542Y83535D01*
X499515Y83204D01*
X499515Y80076D01*
X498324Y78885D01*
X479876Y78885D01*
X478685Y80076D01*
X478685Y98524D01*
X479876Y99715D01*
X498324Y99715D01*
X499515Y98524D01*
X499515Y95396D01*
X499517Y95378D01*
X499515Y95360D01*
X499536Y95178D01*
X499555Y94995D01*
X499560Y94978D01*
X499562Y94961D01*
X499619Y94786D01*
X499673Y94610D01*
X499681Y94595D01*
X499687Y94578D01*
X499777Y94418D01*
X499865Y94256D01*
X499876Y94243D01*
X499885Y94227D01*
X500005Y94088D01*
X500122Y93947D01*
X500136Y93936D01*
X500148Y93922D01*
X500293Y93810D01*
X500436Y93695D01*
X500452Y93687D01*
X500466Y93676D01*
X500631Y93594D01*
X500793Y93509D01*
X500810Y93504D01*
X500826Y93496D01*
X501005Y93449D01*
X501180Y93398D01*
X501198Y93396D01*
X501215Y93392D01*
X501546Y93365D01*
X515963Y93365D01*
X517457Y92746D01*
X536846Y73357D01*
X537465Y71863D01*
X537465Y43142D01*
X537467Y43119D01*
X537465Y43097D01*
X537487Y42920D01*
X537505Y42741D01*
X537511Y42720D01*
X537514Y42697D01*
X537570Y42528D01*
X537623Y42356D01*
X537633Y42336D01*
X537640Y42315D01*
X537729Y42160D01*
X537815Y42002D01*
X537829Y41985D01*
X537840Y41966D01*
X537957Y41831D01*
X538072Y41693D01*
X538090Y41679D01*
X538104Y41662D01*
X538246Y41553D01*
X538386Y41440D01*
X538406Y41430D01*
X538424Y41417D01*
X538719Y41265D01*
X538868Y41203D01*
X541583Y38488D01*
X543053Y34940D01*
X543053Y15860D01*
X541855Y12969D01*
X541851Y12956D01*
X541845Y12945D01*
X541794Y12765D01*
X541739Y12584D01*
X541738Y12571D01*
X541734Y12558D01*
X541719Y12370D01*
X541701Y12183D01*
X541702Y12170D01*
X541701Y12156D01*
X541723Y11970D01*
X541742Y11783D01*
X541746Y11770D01*
X541748Y11757D01*
X541806Y11578D01*
X541862Y11398D01*
X541869Y11387D01*
X541873Y11374D01*
X541966Y11209D01*
X542056Y11045D01*
X542064Y11035D01*
X542071Y11023D01*
X542194Y10881D01*
X542315Y10737D01*
X542325Y10729D01*
X542334Y10718D01*
X542482Y10603D01*
X542630Y10486D01*
X542641Y10480D01*
X542652Y10472D01*
X542821Y10388D01*
X542988Y10302D01*
X543000Y10298D01*
X543013Y10292D01*
X543195Y10243D01*
X543375Y10192D01*
X543388Y10191D01*
X543401Y10188D01*
X543732Y10161D01*
X878668Y10161D01*
X878681Y10162D01*
X878695Y10161D01*
X878881Y10182D01*
X879069Y10201D01*
X879081Y10205D01*
X879095Y10206D01*
X879274Y10264D01*
X879454Y10319D01*
X879465Y10325D01*
X879478Y10329D01*
X879643Y10421D01*
X879808Y10511D01*
X879818Y10519D01*
X879830Y10526D01*
X879972Y10648D01*
X880117Y10768D01*
X880125Y10779D01*
X880135Y10787D01*
X880251Y10935D01*
X880369Y11082D01*
X880375Y11094D01*
X880384Y11104D01*
X880468Y11273D01*
X880555Y11439D01*
X880558Y11452D01*
X880564Y11464D01*
X880614Y11645D01*
X880666Y11826D01*
X880667Y11840D01*
X880671Y11853D01*
X880684Y12041D01*
X880699Y12228D01*
X880697Y12241D01*
X880698Y12254D01*
X880674Y12442D01*
X880652Y12627D01*
X880648Y12640D01*
X880646Y12653D01*
X880545Y12969D01*
X879347Y15860D01*
X879347Y34940D01*
X880817Y38488D01*
X883532Y41203D01*
X887080Y42673D01*
X889774Y42673D01*
X889783Y42674D01*
X889792Y42673D01*
X889985Y42694D01*
X890174Y42713D01*
X890183Y42715D01*
X890192Y42716D01*
X890375Y42774D01*
X890559Y42831D01*
X890567Y42835D01*
X890576Y42838D01*
X890743Y42930D01*
X890913Y43023D01*
X890920Y43028D01*
X890928Y43033D01*
X891075Y43157D01*
X891223Y43280D01*
X891228Y43287D01*
X891235Y43293D01*
X891355Y43445D01*
X891475Y43594D01*
X891479Y43602D01*
X891485Y43609D01*
X891514Y43667D01*
X891528Y43550D01*
X891551Y43353D01*
X891553Y43348D01*
X891553Y43344D01*
X891615Y43159D01*
X891676Y42970D01*
X891678Y42966D01*
X891680Y42962D01*
X891778Y42790D01*
X891874Y42619D01*
X891877Y42616D01*
X891879Y42612D01*
X892011Y42461D01*
X892137Y42315D01*
X892141Y42312D01*
X892144Y42308D01*
X892300Y42188D01*
X892455Y42068D01*
X892459Y42066D01*
X892463Y42063D01*
X892758Y41911D01*
X894468Y41203D01*
X897183Y38488D01*
X898653Y34940D01*
X898653Y15860D01*
X897455Y12969D01*
X897451Y12956D01*
X897445Y12945D01*
X897394Y12765D01*
X897339Y12584D01*
X897338Y12571D01*
X897334Y12558D01*
X897319Y12370D01*
X897301Y12183D01*
X897302Y12170D01*
X897301Y12156D01*
X897323Y11970D01*
X897342Y11783D01*
X897346Y11770D01*
X897348Y11757D01*
X897406Y11578D01*
X897462Y11398D01*
X897469Y11387D01*
X897473Y11374D01*
X897566Y11209D01*
X897656Y11045D01*
X897664Y11035D01*
X897671Y11023D01*
X897794Y10881D01*
X897915Y10737D01*
X897925Y10729D01*
X897934Y10718D01*
X898082Y10603D01*
X898230Y10486D01*
X898241Y10480D01*
X898252Y10472D01*
X898421Y10388D01*
X898588Y10302D01*
X898600Y10298D01*
X898613Y10292D01*
X898795Y10243D01*
X898975Y10192D01*
X898988Y10191D01*
X899001Y10188D01*
X899332Y10161D01*
X904068Y10161D01*
X904081Y10162D01*
X904095Y10161D01*
X904281Y10182D01*
X904469Y10201D01*
X904481Y10205D01*
X904495Y10206D01*
X904674Y10264D01*
X904854Y10319D01*
X904865Y10325D01*
X904878Y10329D01*
X905043Y10421D01*
X905208Y10511D01*
X905218Y10519D01*
X905230Y10526D01*
X905372Y10648D01*
X905517Y10768D01*
X905525Y10779D01*
X905535Y10787D01*
X905651Y10935D01*
X905769Y11082D01*
X905775Y11094D01*
X905784Y11104D01*
X905868Y11273D01*
X905955Y11439D01*
X905958Y11452D01*
X905964Y11464D01*
X906014Y11645D01*
X906066Y11826D01*
X906067Y11840D01*
X906071Y11853D01*
X906084Y12041D01*
X906099Y12228D01*
X906097Y12241D01*
X906098Y12254D01*
X906074Y12442D01*
X906052Y12627D01*
X906048Y12640D01*
X906046Y12653D01*
X905945Y12969D01*
X904747Y15860D01*
X904747Y34940D01*
X906217Y38488D01*
X908932Y41203D01*
X910642Y41911D01*
X910646Y41913D01*
X910650Y41915D01*
X910751Y41970D01*
X910891Y42014D01*
X912480Y42673D01*
X916320Y42673D01*
X919868Y41203D01*
X922583Y38488D01*
X924053Y34940D01*
X924053Y15860D01*
X922855Y12969D01*
X922851Y12956D01*
X922845Y12945D01*
X922794Y12765D01*
X922739Y12584D01*
X922738Y12571D01*
X922734Y12558D01*
X922719Y12370D01*
X922701Y12183D01*
X922702Y12170D01*
X922701Y12156D01*
X922723Y11970D01*
X922742Y11783D01*
X922746Y11770D01*
X922748Y11757D01*
X922806Y11578D01*
X922862Y11398D01*
X922869Y11387D01*
X922873Y11374D01*
X922966Y11209D01*
X923056Y11045D01*
X923064Y11035D01*
X923071Y11023D01*
X923194Y10881D01*
X923315Y10737D01*
X923325Y10729D01*
X923334Y10718D01*
X923482Y10603D01*
X923630Y10486D01*
X923641Y10480D01*
X923652Y10472D01*
X923821Y10388D01*
X923988Y10302D01*
X924000Y10298D01*
X924013Y10292D01*
X924195Y10243D01*
X924375Y10192D01*
X924388Y10191D01*
X924401Y10188D01*
X924732Y10161D01*
X1029097Y10161D01*
X1029242Y10175D01*
X1029388Y10182D01*
X1029442Y10195D01*
X1029497Y10201D01*
X1029637Y10244D01*
X1029779Y10279D01*
X1029829Y10302D01*
X1029882Y10319D01*
X1030011Y10388D01*
X1030143Y10451D01*
X1030188Y10484D01*
X1030236Y10511D01*
X1030348Y10604D01*
X1030466Y10691D01*
X1030503Y10733D01*
X1030546Y10768D01*
X1030637Y10882D01*
X1030735Y10991D01*
X1030763Y11039D01*
X1030798Y11082D01*
X1030865Y11212D01*
X1030940Y11338D01*
X1030958Y11390D01*
X1030983Y11439D01*
X1031024Y11580D01*
X1031072Y11718D01*
X1031079Y11773D01*
X1031095Y11826D01*
X1031107Y11972D01*
X1031127Y12117D01*
X1031123Y12172D01*
X1031128Y12228D01*
X1031111Y12373D01*
X1031102Y12519D01*
X1031087Y12572D01*
X1031081Y12627D01*
X1031035Y12766D01*
X1030998Y12908D01*
X1030971Y12965D01*
X1030956Y13010D01*
X1030915Y13083D01*
X1030856Y13208D01*
X1029661Y15277D01*
X1027874Y21947D01*
X1027874Y28853D01*
X1029661Y35523D01*
X1033114Y41503D01*
X1033962Y42352D01*
X1033968Y42359D01*
X1033975Y42364D01*
X1034094Y42513D01*
X1034217Y42663D01*
X1034222Y42671D01*
X1034227Y42678D01*
X1034315Y42848D01*
X1034406Y43019D01*
X1034408Y43028D01*
X1034413Y43035D01*
X1034465Y43218D01*
X1034521Y43405D01*
X1034522Y43414D01*
X1034524Y43422D01*
X1034540Y43613D01*
X1034557Y43806D01*
X1034556Y43815D01*
X1034557Y43824D01*
X1034535Y44013D01*
X1034514Y44206D01*
X1034511Y44215D01*
X1034510Y44223D01*
X1034450Y44406D01*
X1034392Y44590D01*
X1034388Y44598D01*
X1034385Y44606D01*
X1034291Y44773D01*
X1034197Y44942D01*
X1034192Y44949D01*
X1034187Y44957D01*
X1034062Y45102D01*
X1033937Y45249D01*
X1033930Y45255D01*
X1033924Y45262D01*
X1033772Y45379D01*
X1033621Y45499D01*
X1033613Y45503D01*
X1033606Y45508D01*
X1033434Y45594D01*
X1033262Y45681D01*
X1033253Y45684D01*
X1033245Y45688D01*
X1033060Y45737D01*
X1032874Y45789D01*
X1032865Y45790D01*
X1032857Y45792D01*
X1032526Y45819D01*
X1031413Y45819D01*
X1031413Y63047D01*
X1048641Y63047D01*
X1048641Y58291D01*
X1044162Y53813D01*
X1044116Y53756D01*
X1044063Y53706D01*
X1043989Y53600D01*
X1043907Y53501D01*
X1043873Y53436D01*
X1043831Y53377D01*
X1043779Y53259D01*
X1043719Y53145D01*
X1043698Y53075D01*
X1043668Y53008D01*
X1043640Y52883D01*
X1043604Y52760D01*
X1043597Y52687D01*
X1043581Y52615D01*
X1043579Y52487D01*
X1043567Y52359D01*
X1043575Y52286D01*
X1043574Y52212D01*
X1043597Y52086D01*
X1043611Y51958D01*
X1043633Y51888D01*
X1043646Y51816D01*
X1043693Y51697D01*
X1043732Y51574D01*
X1043768Y51510D01*
X1043795Y51442D01*
X1043865Y51335D01*
X1043927Y51222D01*
X1043974Y51166D01*
X1044014Y51105D01*
X1044104Y51013D01*
X1044188Y50915D01*
X1044245Y50870D01*
X1044296Y50817D01*
X1044403Y50745D01*
X1044504Y50666D01*
X1044569Y50632D01*
X1044629Y50591D01*
X1044748Y50541D01*
X1044862Y50483D01*
X1044933Y50463D01*
X1045001Y50435D01*
X1045127Y50410D01*
X1045250Y50375D01*
X1045323Y50370D01*
X1045395Y50355D01*
X1045524Y50355D01*
X1045652Y50346D01*
X1045725Y50355D01*
X1045798Y50355D01*
X1045964Y50385D01*
X1046051Y50396D01*
X1046083Y50407D01*
X1046124Y50414D01*
X1050647Y51626D01*
X1057553Y51626D01*
X1064223Y49839D01*
X1066292Y48644D01*
X1066426Y48584D01*
X1066555Y48517D01*
X1066609Y48501D01*
X1066659Y48478D01*
X1066802Y48446D01*
X1066942Y48405D01*
X1066998Y48401D01*
X1067052Y48388D01*
X1067198Y48384D01*
X1067344Y48372D01*
X1067399Y48379D01*
X1067454Y48377D01*
X1067598Y48402D01*
X1067743Y48419D01*
X1067796Y48436D01*
X1067851Y48446D01*
X1067987Y48499D01*
X1068126Y48544D01*
X1068175Y48571D01*
X1068226Y48591D01*
X1068349Y48670D01*
X1068477Y48742D01*
X1068519Y48778D01*
X1068566Y48808D01*
X1068671Y48910D01*
X1068782Y49005D01*
X1068815Y49049D01*
X1068856Y49087D01*
X1068939Y49208D01*
X1069028Y49323D01*
X1069053Y49373D01*
X1069085Y49419D01*
X1069142Y49553D01*
X1069208Y49684D01*
X1069222Y49737D01*
X1069244Y49788D01*
X1069274Y49931D01*
X1069312Y50073D01*
X1069317Y50136D01*
X1069327Y50182D01*
X1069328Y50266D01*
X1069339Y50403D01*
X1069339Y93994D01*
X1069338Y94003D01*
X1069339Y94012D01*
X1069318Y94204D01*
X1069299Y94395D01*
X1069297Y94403D01*
X1069296Y94412D01*
X1069238Y94595D01*
X1069181Y94780D01*
X1069177Y94788D01*
X1069174Y94796D01*
X1069081Y94964D01*
X1068989Y95134D01*
X1068984Y95141D01*
X1068979Y95148D01*
X1068856Y95294D01*
X1068732Y95443D01*
X1068725Y95449D01*
X1068719Y95455D01*
X1068568Y95574D01*
X1068418Y95695D01*
X1068410Y95699D01*
X1068403Y95705D01*
X1068230Y95793D01*
X1068061Y95881D01*
X1068052Y95883D01*
X1068044Y95887D01*
X1067858Y95939D01*
X1067674Y95992D01*
X1067665Y95993D01*
X1067656Y95995D01*
X1067463Y96009D01*
X1067272Y96025D01*
X1067264Y96024D01*
X1067255Y96025D01*
X1067062Y96000D01*
X1066873Y95978D01*
X1066864Y95975D01*
X1066855Y95974D01*
X1066672Y95913D01*
X1066490Y95853D01*
X1066482Y95849D01*
X1066474Y95846D01*
X1066308Y95751D01*
X1066139Y95655D01*
X1066132Y95650D01*
X1066125Y95645D01*
X1065872Y95431D01*
X1063958Y93517D01*
X1046742Y93517D01*
X1034567Y105692D01*
X1034567Y122908D01*
X1046742Y135083D01*
X1063958Y135083D01*
X1065872Y133169D01*
X1065879Y133164D01*
X1065884Y133157D01*
X1066034Y133037D01*
X1066183Y132914D01*
X1066191Y132910D01*
X1066198Y132905D01*
X1066368Y132816D01*
X1066539Y132726D01*
X1066548Y132723D01*
X1066555Y132719D01*
X1066740Y132666D01*
X1066925Y132611D01*
X1066934Y132610D01*
X1066942Y132608D01*
X1067133Y132592D01*
X1067326Y132575D01*
X1067335Y132576D01*
X1067344Y132575D01*
X1067533Y132597D01*
X1067726Y132618D01*
X1067735Y132621D01*
X1067743Y132622D01*
X1067925Y132681D01*
X1068110Y132740D01*
X1068118Y132744D01*
X1068126Y132747D01*
X1068295Y132842D01*
X1068462Y132934D01*
X1068469Y132940D01*
X1068477Y132945D01*
X1068623Y133070D01*
X1068769Y133195D01*
X1068775Y133202D01*
X1068782Y133208D01*
X1068899Y133359D01*
X1069019Y133511D01*
X1069023Y133519D01*
X1069028Y133526D01*
X1069114Y133698D01*
X1069201Y133870D01*
X1069204Y133878D01*
X1069208Y133886D01*
X1069258Y134072D01*
X1069309Y134258D01*
X1069310Y134266D01*
X1069312Y134275D01*
X1069339Y134606D01*
X1069339Y347994D01*
X1069338Y348003D01*
X1069339Y348012D01*
X1069318Y348204D01*
X1069299Y348395D01*
X1069297Y348403D01*
X1069296Y348412D01*
X1069238Y348595D01*
X1069181Y348780D01*
X1069177Y348788D01*
X1069174Y348796D01*
X1069081Y348964D01*
X1068989Y349134D01*
X1068984Y349141D01*
X1068979Y349148D01*
X1068855Y349295D01*
X1068732Y349443D01*
X1068725Y349449D01*
X1068719Y349455D01*
X1068568Y349574D01*
X1068418Y349695D01*
X1068410Y349699D01*
X1068403Y349705D01*
X1068230Y349793D01*
X1068061Y349881D01*
X1068052Y349883D01*
X1068044Y349887D01*
X1067858Y349939D01*
X1067674Y349992D01*
X1067665Y349993D01*
X1067656Y349995D01*
X1067463Y350009D01*
X1067272Y350025D01*
X1067264Y350024D01*
X1067255Y350025D01*
X1067062Y350000D01*
X1066873Y349978D01*
X1066864Y349975D01*
X1066855Y349974D01*
X1066672Y349913D01*
X1066490Y349853D01*
X1066482Y349849D01*
X1066474Y349846D01*
X1066308Y349751D01*
X1066139Y349655D01*
X1066132Y349650D01*
X1066125Y349645D01*
X1065872Y349431D01*
X1063958Y347517D01*
X1046742Y347517D01*
X1034567Y359692D01*
X1034567Y376908D01*
X1046742Y389083D01*
X1063958Y389083D01*
X1065872Y387169D01*
X1065879Y387164D01*
X1065884Y387157D01*
X1066034Y387037D01*
X1066183Y386914D01*
X1066191Y386910D01*
X1066198Y386905D01*
X1066368Y386816D01*
X1066539Y386726D01*
X1066548Y386723D01*
X1066555Y386719D01*
X1066740Y386666D01*
X1066925Y386611D01*
X1066934Y386610D01*
X1066942Y386608D01*
X1067133Y386592D01*
X1067326Y386575D01*
X1067335Y386576D01*
X1067344Y386575D01*
X1067533Y386597D01*
X1067726Y386618D01*
X1067735Y386621D01*
X1067743Y386622D01*
X1067925Y386681D01*
X1068110Y386740D01*
X1068118Y386744D01*
X1068126Y386747D01*
X1068295Y386842D01*
X1068462Y386934D01*
X1068469Y386940D01*
X1068477Y386945D01*
X1068623Y387070D01*
X1068769Y387195D01*
X1068775Y387202D01*
X1068782Y387208D01*
X1068899Y387359D01*
X1069019Y387511D01*
X1069023Y387519D01*
X1069028Y387526D01*
X1069114Y387698D01*
X1069201Y387870D01*
X1069204Y387878D01*
X1069208Y387886D01*
X1069258Y388072D01*
X1069309Y388258D01*
X1069310Y388266D01*
X1069312Y388275D01*
X1069339Y388606D01*
X1069339Y432197D01*
X1069325Y432342D01*
X1069318Y432488D01*
X1069305Y432542D01*
X1069299Y432597D01*
X1069256Y432737D01*
X1069221Y432879D01*
X1069198Y432929D01*
X1069181Y432982D01*
X1069112Y433111D01*
X1069049Y433243D01*
X1069016Y433288D01*
X1068989Y433336D01*
X1068896Y433448D01*
X1068809Y433566D01*
X1068767Y433603D01*
X1068732Y433646D01*
X1068618Y433737D01*
X1068509Y433835D01*
X1068461Y433863D01*
X1068418Y433898D01*
X1068288Y433965D01*
X1068162Y434040D01*
X1068110Y434058D01*
X1068061Y434083D01*
X1067920Y434124D01*
X1067782Y434172D01*
X1067727Y434179D01*
X1067674Y434195D01*
X1067528Y434207D01*
X1067383Y434227D01*
X1067328Y434223D01*
X1067272Y434228D01*
X1067127Y434211D01*
X1066981Y434202D01*
X1066928Y434187D01*
X1066873Y434181D01*
X1066734Y434135D01*
X1066592Y434098D01*
X1066535Y434071D01*
X1066490Y434056D01*
X1066417Y434015D01*
X1066292Y433956D01*
X1064223Y432761D01*
X1057553Y430974D01*
X1050647Y430974D01*
X1047859Y431721D01*
X1047787Y431733D01*
X1047717Y431754D01*
X1047589Y431765D01*
X1047462Y431786D01*
X1047389Y431783D01*
X1047316Y431790D01*
X1047188Y431776D01*
X1047060Y431772D01*
X1046988Y431755D01*
X1046915Y431747D01*
X1046793Y431708D01*
X1046668Y431678D01*
X1046602Y431647D01*
X1046532Y431625D01*
X1046419Y431563D01*
X1046302Y431509D01*
X1046243Y431466D01*
X1046179Y431430D01*
X1046081Y431347D01*
X1045978Y431271D01*
X1045928Y431217D01*
X1045872Y431170D01*
X1045793Y431069D01*
X1045706Y430974D01*
X1045668Y430911D01*
X1045623Y430854D01*
X1045564Y430739D01*
X1045498Y430629D01*
X1045473Y430560D01*
X1045440Y430495D01*
X1045406Y430371D01*
X1045362Y430250D01*
X1045352Y430178D01*
X1045332Y430107D01*
X1045323Y429979D01*
X1045304Y429852D01*
X1045308Y429779D01*
X1045303Y429706D01*
X1045319Y429578D01*
X1045326Y429450D01*
X1045344Y429379D01*
X1045353Y429306D01*
X1045394Y429184D01*
X1045426Y429060D01*
X1045458Y428994D01*
X1045481Y428924D01*
X1045546Y428813D01*
X1045602Y428697D01*
X1045646Y428639D01*
X1045682Y428576D01*
X1045792Y428446D01*
X1045845Y428377D01*
X1045870Y428355D01*
X1045897Y428323D01*
X1049641Y424579D01*
X1049641Y419509D01*
X1032099Y419509D01*
X1032099Y437051D01*
X1032256Y437051D01*
X1032265Y437052D01*
X1032274Y437051D01*
X1032466Y437072D01*
X1032657Y437091D01*
X1032665Y437093D01*
X1032674Y437094D01*
X1032857Y437152D01*
X1033041Y437209D01*
X1033049Y437213D01*
X1033058Y437216D01*
X1033226Y437309D01*
X1033395Y437401D01*
X1033402Y437406D01*
X1033410Y437411D01*
X1033557Y437535D01*
X1033705Y437658D01*
X1033710Y437665D01*
X1033717Y437671D01*
X1033837Y437823D01*
X1033957Y437972D01*
X1033961Y437980D01*
X1033967Y437987D01*
X1034055Y438160D01*
X1034143Y438329D01*
X1034145Y438338D01*
X1034149Y438346D01*
X1034201Y438531D01*
X1034254Y438716D01*
X1034255Y438725D01*
X1034257Y438734D01*
X1034271Y438926D01*
X1034287Y439118D01*
X1034286Y439126D01*
X1034286Y439135D01*
X1034262Y439327D01*
X1034240Y439517D01*
X1034237Y439526D01*
X1034236Y439535D01*
X1034175Y439717D01*
X1034115Y439900D01*
X1034111Y439908D01*
X1034108Y439916D01*
X1034012Y440084D01*
X1033917Y440251D01*
X1033911Y440258D01*
X1033907Y440265D01*
X1033692Y440518D01*
X1033114Y441097D01*
X1029661Y447077D01*
X1027874Y453747D01*
X1027874Y460653D01*
X1029661Y467323D01*
X1030856Y469392D01*
X1030916Y469526D01*
X1030983Y469655D01*
X1030999Y469709D01*
X1031022Y469759D01*
X1031054Y469902D01*
X1031095Y470042D01*
X1031099Y470098D01*
X1031112Y470152D01*
X1031116Y470298D01*
X1031128Y470444D01*
X1031121Y470499D01*
X1031123Y470554D01*
X1031098Y470698D01*
X1031081Y470843D01*
X1031064Y470896D01*
X1031054Y470951D01*
X1031001Y471087D01*
X1030956Y471226D01*
X1030929Y471275D01*
X1030909Y471326D01*
X1030830Y471449D01*
X1030758Y471577D01*
X1030722Y471619D01*
X1030692Y471666D01*
X1030590Y471771D01*
X1030495Y471882D01*
X1030451Y471915D01*
X1030413Y471956D01*
X1030292Y472039D01*
X1030177Y472128D01*
X1030127Y472153D01*
X1030081Y472185D01*
X1029947Y472242D01*
X1029816Y472308D01*
X1029763Y472322D01*
X1029712Y472344D01*
X1029569Y472374D01*
X1029427Y472412D01*
X1029364Y472417D01*
X1029318Y472427D01*
X1029234Y472428D01*
X1029097Y472439D01*
X924732Y472439D01*
X924719Y472438D01*
X924705Y472439D01*
X924519Y472418D01*
X924331Y472399D01*
X924319Y472395D01*
X924305Y472394D01*
X924126Y472336D01*
X923946Y472281D01*
X923935Y472275D01*
X923922Y472271D01*
X923757Y472179D01*
X923592Y472089D01*
X923582Y472081D01*
X923570Y472074D01*
X923428Y471952D01*
X923283Y471832D01*
X923275Y471821D01*
X923265Y471813D01*
X923149Y471665D01*
X923031Y471518D01*
X923025Y471506D01*
X923016Y471496D01*
X922932Y471327D01*
X922845Y471161D01*
X922842Y471148D01*
X922836Y471136D01*
X922786Y470955D01*
X922734Y470774D01*
X922733Y470760D01*
X922729Y470747D01*
X922716Y470559D01*
X922701Y470372D01*
X922703Y470359D01*
X922702Y470346D01*
X922726Y470158D01*
X922748Y469973D01*
X922752Y469960D01*
X922754Y469947D01*
X922855Y469631D01*
X924053Y466740D01*
X924053Y447660D01*
X922583Y444112D01*
X919868Y441397D01*
X916320Y439927D01*
X912196Y439927D01*
X912187Y439926D01*
X912178Y439927D01*
X911985Y439906D01*
X911796Y439887D01*
X911787Y439885D01*
X911778Y439884D01*
X911595Y439826D01*
X911411Y439769D01*
X911403Y439765D01*
X911394Y439762D01*
X911227Y439670D01*
X911159Y439633D01*
X911134Y439711D01*
X911072Y439900D01*
X911070Y439904D01*
X911068Y439908D01*
X910972Y440077D01*
X910874Y440251D01*
X910871Y440254D01*
X910869Y440258D01*
X910741Y440405D01*
X910611Y440555D01*
X910607Y440558D01*
X910604Y440562D01*
X910447Y440682D01*
X910293Y440802D01*
X910289Y440804D01*
X910285Y440807D01*
X909990Y440959D01*
X908932Y441397D01*
X906217Y444112D01*
X904747Y447660D01*
X904747Y466740D01*
X905945Y469631D01*
X905949Y469644D01*
X905955Y469655D01*
X906006Y469835D01*
X906061Y470016D01*
X906062Y470029D01*
X906066Y470042D01*
X906081Y470230D01*
X906099Y470417D01*
X906098Y470430D01*
X906099Y470444D01*
X906077Y470630D01*
X906058Y470817D01*
X906054Y470830D01*
X906052Y470843D01*
X905994Y471022D01*
X905938Y471202D01*
X905931Y471213D01*
X905927Y471226D01*
X905834Y471391D01*
X905744Y471555D01*
X905736Y471565D01*
X905729Y471577D01*
X905606Y471719D01*
X905485Y471863D01*
X905475Y471871D01*
X905466Y471882D01*
X905318Y471997D01*
X905170Y472114D01*
X905159Y472120D01*
X905148Y472128D01*
X904979Y472212D01*
X904812Y472298D01*
X904800Y472302D01*
X904787Y472308D01*
X904605Y472357D01*
X904425Y472408D01*
X904412Y472409D01*
X904399Y472412D01*
X904068Y472439D01*
X899332Y472439D01*
X899319Y472438D01*
X899305Y472439D01*
X899119Y472418D01*
X898931Y472399D01*
X898919Y472395D01*
X898905Y472394D01*
X898726Y472336D01*
X898546Y472281D01*
X898535Y472275D01*
X898522Y472271D01*
X898357Y472179D01*
X898192Y472089D01*
X898182Y472081D01*
X898170Y472074D01*
X898028Y471952D01*
X897883Y471832D01*
X897875Y471821D01*
X897865Y471813D01*
X897749Y471665D01*
X897631Y471518D01*
X897625Y471506D01*
X897616Y471496D01*
X897532Y471327D01*
X897445Y471161D01*
X897442Y471148D01*
X897436Y471136D01*
X897386Y470955D01*
X897334Y470774D01*
X897333Y470760D01*
X897329Y470747D01*
X897316Y470559D01*
X897301Y470372D01*
X897303Y470359D01*
X897302Y470346D01*
X897326Y470158D01*
X897348Y469973D01*
X897352Y469960D01*
X897354Y469947D01*
X897455Y469631D01*
X898653Y466740D01*
X898653Y447660D01*
X897183Y444112D01*
X894468Y441397D01*
X893410Y440959D01*
X893406Y440957D01*
X893402Y440955D01*
X893229Y440862D01*
X893055Y440768D01*
X893052Y440766D01*
X893048Y440763D01*
X892899Y440639D01*
X892745Y440512D01*
X892742Y440509D01*
X892738Y440506D01*
X892616Y440353D01*
X892491Y440199D01*
X892489Y440195D01*
X892486Y440192D01*
X892396Y440019D01*
X892304Y439843D01*
X892303Y439839D01*
X892301Y439835D01*
X892247Y439647D01*
X892191Y439456D01*
X892190Y439452D01*
X892189Y439448D01*
X892173Y439250D01*
X892158Y439073D01*
X892039Y439211D01*
X891915Y439357D01*
X891908Y439363D01*
X891902Y439370D01*
X891751Y439487D01*
X891599Y439607D01*
X891591Y439611D01*
X891584Y439616D01*
X891413Y439701D01*
X891240Y439789D01*
X891231Y439792D01*
X891223Y439796D01*
X891037Y439846D01*
X890852Y439897D01*
X890843Y439898D01*
X890835Y439900D01*
X890504Y439927D01*
X887080Y439927D01*
X883532Y441397D01*
X880817Y444112D01*
X879347Y447660D01*
X879347Y466740D01*
X880545Y469631D01*
X880549Y469644D01*
X880555Y469655D01*
X880606Y469835D01*
X880661Y470016D01*
X880662Y470029D01*
X880666Y470042D01*
X880681Y470230D01*
X880699Y470417D01*
X880698Y470430D01*
X880699Y470444D01*
X880677Y470630D01*
X880658Y470817D01*
X880654Y470830D01*
X880652Y470843D01*
X880594Y471022D01*
X880538Y471202D01*
X880531Y471213D01*
X880527Y471226D01*
X880434Y471391D01*
X880344Y471555D01*
X880336Y471565D01*
X880329Y471577D01*
X880206Y471719D01*
X880085Y471863D01*
X880075Y471871D01*
X880066Y471882D01*
X879918Y471997D01*
X879770Y472114D01*
X879759Y472120D01*
X879748Y472128D01*
X879579Y472212D01*
X879412Y472298D01*
X879400Y472302D01*
X879387Y472308D01*
X879205Y472357D01*
X879025Y472408D01*
X879012Y472409D01*
X878999Y472412D01*
X878668Y472439D01*
X543732Y472439D01*
X543719Y472438D01*
X543705Y472439D01*
X543519Y472418D01*
X543331Y472399D01*
X543319Y472395D01*
X543305Y472394D01*
X543126Y472336D01*
X542946Y472281D01*
X542935Y472275D01*
X542922Y472271D01*
X542757Y472179D01*
X542592Y472089D01*
X542582Y472081D01*
X542570Y472074D01*
X542428Y471952D01*
X542283Y471832D01*
X542275Y471821D01*
X542265Y471813D01*
X542149Y471665D01*
X542031Y471518D01*
X542025Y471506D01*
X542016Y471496D01*
X541932Y471327D01*
X541845Y471161D01*
X541842Y471148D01*
X541836Y471136D01*
X541786Y470955D01*
X541734Y470774D01*
X541733Y470760D01*
X541729Y470747D01*
X541716Y470559D01*
X541701Y470372D01*
X541703Y470359D01*
X541702Y470346D01*
X541726Y470158D01*
X541748Y469973D01*
X541752Y469960D01*
X541754Y469947D01*
X541855Y469631D01*
X543053Y466740D01*
X543053Y447660D01*
X541583Y444112D01*
X538868Y441397D01*
X535320Y439927D01*
X531480Y439927D01*
X527932Y441397D01*
X525217Y444112D01*
X523747Y447660D01*
X523747Y466740D01*
X524945Y469631D01*
X524949Y469644D01*
X524955Y469655D01*
X525006Y469835D01*
X525061Y470016D01*
X525062Y470029D01*
X525066Y470042D01*
X525081Y470230D01*
X525099Y470417D01*
X525098Y470430D01*
X525099Y470444D01*
X525077Y470630D01*
X525058Y470817D01*
X525054Y470830D01*
X525052Y470843D01*
X524994Y471022D01*
X524938Y471202D01*
X524931Y471213D01*
X524927Y471226D01*
X524834Y471391D01*
X524744Y471555D01*
X524736Y471565D01*
X524729Y471577D01*
X524606Y471719D01*
X524485Y471863D01*
X524475Y471871D01*
X524466Y471882D01*
X524318Y471997D01*
X524170Y472114D01*
X524159Y472120D01*
X524148Y472128D01*
X523979Y472212D01*
X523812Y472298D01*
X523800Y472302D01*
X523787Y472308D01*
X523605Y472357D01*
X523425Y472408D01*
X523412Y472409D01*
X523399Y472412D01*
X523068Y472439D01*
X518332Y472439D01*
X518319Y472438D01*
X518305Y472439D01*
X518119Y472418D01*
X517931Y472399D01*
X517919Y472395D01*
X517905Y472394D01*
X517726Y472336D01*
X517546Y472281D01*
X517535Y472275D01*
X517522Y472271D01*
X517357Y472179D01*
X517192Y472089D01*
X517182Y472081D01*
X517170Y472074D01*
X517028Y471952D01*
X516883Y471832D01*
X516875Y471821D01*
X516865Y471813D01*
X516749Y471665D01*
X516631Y471518D01*
X516625Y471506D01*
X516616Y471496D01*
X516532Y471327D01*
X516445Y471161D01*
X516442Y471148D01*
X516436Y471136D01*
X516386Y470955D01*
X516334Y470774D01*
X516333Y470760D01*
X516329Y470747D01*
X516316Y470559D01*
X516301Y470372D01*
X516303Y470359D01*
X516302Y470346D01*
X516326Y470158D01*
X516348Y469973D01*
X516352Y469960D01*
X516354Y469947D01*
X516455Y469631D01*
X517653Y466740D01*
X517653Y447660D01*
X516183Y444112D01*
X513468Y441397D01*
X513319Y441335D01*
X513299Y441325D01*
X513278Y441318D01*
X513122Y441229D01*
X512964Y441145D01*
X512947Y441131D01*
X512927Y441120D01*
X512792Y441003D01*
X512653Y440888D01*
X512639Y440871D01*
X512622Y440857D01*
X512513Y440715D01*
X512400Y440576D01*
X512389Y440556D01*
X512376Y440538D01*
X512296Y440378D01*
X512213Y440219D01*
X512206Y440198D01*
X512196Y440178D01*
X512150Y440005D01*
X512100Y439833D01*
X512098Y439811D01*
X512092Y439789D01*
X512065Y439458D01*
X512065Y311123D01*
X511446Y309629D01*
X484121Y282304D01*
X482627Y281685D01*
X196823Y281685D01*
X195329Y282304D01*
X168004Y309629D01*
X167385Y311123D01*
X167385Y373214D01*
X167383Y373241D01*
X167385Y373268D01*
X167363Y373442D01*
X167345Y373615D01*
X167338Y373641D01*
X167334Y373667D01*
X167279Y373833D01*
X167227Y374000D01*
X167214Y374024D01*
X167206Y374049D01*
X167119Y374201D01*
X167035Y374354D01*
X167018Y374374D01*
X167005Y374398D01*
X166790Y374651D01*
X152401Y389040D01*
X152380Y389057D01*
X152363Y389078D01*
X152225Y389185D01*
X152089Y389295D01*
X152066Y389308D01*
X152044Y389324D01*
X151888Y389402D01*
X151734Y389484D01*
X151708Y389492D01*
X151684Y389504D01*
X151515Y389549D01*
X151348Y389599D01*
X151321Y389601D01*
X151295Y389608D01*
X150964Y389635D01*
X145405Y389635D01*
X145379Y389633D01*
X145352Y389635D01*
X145178Y389613D01*
X145005Y389595D01*
X144979Y389588D01*
X144953Y389584D01*
X144787Y389529D01*
X144620Y389477D01*
X144596Y389464D01*
X144571Y389456D01*
X144419Y389369D01*
X144266Y389285D01*
X144245Y389268D01*
X144222Y389255D01*
X143969Y389040D01*
X138160Y383231D01*
X138143Y383210D01*
X138122Y383193D01*
X138015Y383055D01*
X137905Y382920D01*
X137892Y382896D01*
X137876Y382875D01*
X137798Y382718D01*
X137716Y382564D01*
X137708Y382538D01*
X137696Y382514D01*
X137651Y382345D01*
X137601Y382178D01*
X137599Y382151D01*
X137592Y382125D01*
X137565Y381795D01*
X137565Y379805D01*
X137567Y379779D01*
X137565Y379752D01*
X137587Y379578D01*
X137605Y379405D01*
X137612Y379379D01*
X137616Y379353D01*
X137672Y379186D01*
X137723Y379020D01*
X137736Y378996D01*
X137744Y378971D01*
X137831Y378819D01*
X137915Y378666D01*
X137932Y378645D01*
X137945Y378622D01*
X138160Y378369D01*
X143915Y372614D01*
X143915Y363986D01*
X137814Y357885D01*
X129186Y357885D01*
X123085Y363986D01*
X123085Y372614D01*
X128840Y378369D01*
X128857Y378390D01*
X128878Y378407D01*
X128985Y378545D01*
X129095Y378680D01*
X129108Y378704D01*
X129124Y378725D01*
X129202Y378882D01*
X129284Y379036D01*
X129292Y379062D01*
X129304Y379086D01*
X129349Y379255D01*
X129399Y379422D01*
X129401Y379449D01*
X129408Y379475D01*
X129435Y379805D01*
X129435Y381795D01*
X129433Y381821D01*
X129435Y381848D01*
X129413Y382022D01*
X129395Y382195D01*
X129388Y382221D01*
X129384Y382247D01*
X129329Y382413D01*
X129277Y382580D01*
X129264Y382604D01*
X129256Y382629D01*
X129169Y382781D01*
X129085Y382934D01*
X129068Y382955D01*
X129055Y382978D01*
X128840Y383231D01*
X123085Y388986D01*
X123085Y397614D01*
X129186Y403715D01*
X137814Y403715D01*
X143169Y398360D01*
X143190Y398343D01*
X143207Y398322D01*
X143345Y398215D01*
X143480Y398105D01*
X143504Y398092D01*
X143525Y398076D01*
X143682Y397998D01*
X143836Y397916D01*
X143862Y397908D01*
X143886Y397896D01*
X144055Y397851D01*
X144222Y397801D01*
X144249Y397799D01*
X144275Y397792D01*
X144605Y397765D01*
X154298Y397765D01*
X155792Y397146D01*
X174896Y378042D01*
X175515Y376548D01*
X175515Y314457D01*
X175517Y314430D01*
X175515Y314403D01*
X175537Y314230D01*
X175555Y314056D01*
X175562Y314031D01*
X175566Y314004D01*
X175621Y313838D01*
X175673Y313671D01*
X175686Y313648D01*
X175694Y313622D01*
X175781Y313471D01*
X175865Y313317D01*
X175882Y313297D01*
X175895Y313273D01*
X176110Y313020D01*
X198720Y290410D01*
X198741Y290393D01*
X198759Y290372D01*
X198897Y290265D01*
X199032Y290155D01*
X199056Y290142D01*
X199077Y290126D01*
X199234Y290048D01*
X199388Y289966D01*
X199413Y289958D01*
X199437Y289946D01*
X199607Y289901D01*
X199774Y289851D01*
X199800Y289849D01*
X199826Y289842D01*
X200157Y289815D01*
X479293Y289815D01*
X479320Y289817D01*
X479347Y289815D01*
X479520Y289837D01*
X479694Y289855D01*
X479719Y289862D01*
X479746Y289866D01*
X479912Y289921D01*
X480079Y289973D01*
X480102Y289986D01*
X480128Y289994D01*
X480279Y290081D01*
X480433Y290165D01*
X480453Y290182D01*
X480477Y290195D01*
X480730Y290410D01*
X503340Y313020D01*
X503357Y313041D01*
X503378Y313059D01*
X503485Y313197D01*
X503595Y313332D01*
X503608Y313356D01*
X503624Y313377D01*
X503702Y313534D01*
X503784Y313688D01*
X503792Y313713D01*
X503804Y313737D01*
X503849Y313907D01*
X503899Y314074D01*
X503901Y314100D01*
X503908Y314126D01*
X503935Y314457D01*
X503935Y439458D01*
X503933Y439481D01*
X503935Y439503D01*
X503913Y439680D01*
X503895Y439859D01*
X503889Y439880D01*
X503886Y439903D01*
X503830Y440072D01*
X503777Y440244D01*
X503767Y440264D01*
X503760Y440285D01*
X503671Y440440D01*
X503585Y440598D01*
X503571Y440615D01*
X503560Y440634D01*
X503443Y440769D01*
X503328Y440907D01*
X503310Y440921D01*
X503296Y440938D01*
X503154Y441047D01*
X503014Y441160D01*
X502994Y441170D01*
X502976Y441183D01*
X502681Y441335D01*
X502532Y441397D01*
X499817Y444112D01*
X498347Y447660D01*
X498347Y466740D01*
X499545Y469631D01*
X499549Y469644D01*
X499555Y469655D01*
X499606Y469835D01*
X499661Y470016D01*
X499662Y470029D01*
X499666Y470042D01*
X499681Y470230D01*
X499699Y470417D01*
X499698Y470430D01*
X499699Y470444D01*
X499677Y470630D01*
X499658Y470817D01*
X499654Y470830D01*
X499652Y470843D01*
X499594Y471022D01*
X499538Y471202D01*
X499531Y471213D01*
X499527Y471226D01*
X499434Y471391D01*
X499344Y471555D01*
X499336Y471565D01*
X499329Y471577D01*
X499206Y471719D01*
X499085Y471863D01*
X499075Y471871D01*
X499066Y471882D01*
X498918Y471997D01*
X498770Y472114D01*
X498759Y472120D01*
X498748Y472128D01*
X498579Y472212D01*
X498412Y472298D01*
X498400Y472302D01*
X498387Y472308D01*
X498205Y472357D01*
X498025Y472408D01*
X498012Y472409D01*
X497999Y472412D01*
X497668Y472439D01*
X492932Y472439D01*
X492919Y472438D01*
X492905Y472439D01*
X492719Y472418D01*
X492531Y472399D01*
X492519Y472395D01*
X492505Y472394D01*
X492326Y472336D01*
X492146Y472281D01*
X492135Y472275D01*
X492122Y472271D01*
X491957Y472179D01*
X491792Y472089D01*
X491782Y472081D01*
X491770Y472074D01*
X491628Y471952D01*
X491483Y471832D01*
X491475Y471821D01*
X491465Y471813D01*
X491349Y471665D01*
X491231Y471518D01*
X491225Y471506D01*
X491216Y471496D01*
X491132Y471327D01*
X491045Y471161D01*
X491042Y471148D01*
X491036Y471136D01*
X490986Y470955D01*
X490934Y470774D01*
X490933Y470760D01*
X490929Y470747D01*
X490916Y470559D01*
X490901Y470372D01*
X490903Y470359D01*
X490902Y470346D01*
X490926Y470158D01*
X490948Y469973D01*
X490952Y469960D01*
X490954Y469947D01*
X491055Y469631D01*
X492253Y466740D01*
X492253Y447660D01*
X490783Y444112D01*
X488068Y441397D01*
X487919Y441335D01*
X487899Y441325D01*
X487878Y441318D01*
X487722Y441229D01*
X487564Y441145D01*
X487547Y441131D01*
X487527Y441120D01*
X487392Y441003D01*
X487253Y440888D01*
X487239Y440871D01*
X487222Y440857D01*
X487113Y440715D01*
X487000Y440576D01*
X486989Y440556D01*
X486976Y440538D01*
X486896Y440378D01*
X486813Y440219D01*
X486806Y440198D01*
X486796Y440178D01*
X486750Y440005D01*
X486700Y439833D01*
X486698Y439811D01*
X486692Y439789D01*
X486665Y439458D01*
X486665Y430991D01*
X486046Y429498D01*
X466440Y409891D01*
X466436Y409887D01*
X466431Y409882D01*
X435523Y378585D01*
X435509Y378568D01*
X435492Y378553D01*
X435442Y378489D01*
X434684Y377736D01*
X434679Y377729D01*
X434671Y377722D01*
X434110Y377154D01*
X433368Y376850D01*
X433360Y376846D01*
X433350Y376842D01*
X432615Y376533D01*
X431814Y376535D01*
X431805Y376534D01*
X431794Y376535D01*
X430730Y376528D01*
X430604Y376539D01*
X322341Y376898D01*
X322329Y376897D01*
X322317Y376898D01*
X322127Y376878D01*
X321940Y376860D01*
X321929Y376856D01*
X321916Y376855D01*
X321735Y376797D01*
X321555Y376743D01*
X321544Y376737D01*
X321532Y376733D01*
X321367Y376642D01*
X321200Y376552D01*
X321191Y376544D01*
X321180Y376538D01*
X321036Y376416D01*
X320890Y376295D01*
X320883Y376286D01*
X320873Y376278D01*
X320755Y376129D01*
X320637Y375983D01*
X320631Y375972D01*
X320624Y375962D01*
X320537Y375792D01*
X320450Y375626D01*
X320447Y375614D01*
X320441Y375603D01*
X320390Y375420D01*
X320338Y375239D01*
X320336Y375227D01*
X320333Y375215D01*
X320319Y375026D01*
X320303Y374838D01*
X320305Y374826D01*
X320304Y374814D01*
X320328Y374624D01*
X320349Y374438D01*
X320353Y374426D01*
X320354Y374414D01*
X320414Y374235D01*
X320472Y374055D01*
X320479Y374044D01*
X320482Y374032D01*
X320577Y373869D01*
X320669Y373704D01*
X320677Y373694D01*
X320683Y373684D01*
X320898Y373431D01*
X321715Y372614D01*
X321715Y363986D01*
X315614Y357885D01*
X306986Y357885D01*
X300885Y363986D01*
X300885Y372614D01*
X306529Y378258D01*
X306543Y378275D01*
X306560Y378290D01*
X306671Y378431D01*
X306784Y378569D01*
X306795Y378589D01*
X306808Y378607D01*
X306889Y378767D01*
X306973Y378925D01*
X306979Y378946D01*
X306989Y378966D01*
X307037Y379139D01*
X307088Y379311D01*
X307090Y379333D01*
X307095Y379355D01*
X307108Y379532D01*
X307124Y379712D01*
X307121Y379734D01*
X307123Y379756D01*
X307100Y379934D01*
X307082Y380096D01*
X307085Y381004D01*
X307085Y381007D01*
X307085Y381011D01*
X307085Y381945D01*
X307083Y381971D01*
X307085Y381998D01*
X307063Y382172D01*
X307045Y382345D01*
X307038Y382371D01*
X307034Y382397D01*
X306979Y382563D01*
X306927Y382730D01*
X306914Y382754D01*
X306906Y382779D01*
X306819Y382931D01*
X306735Y383084D01*
X306718Y383105D01*
X306705Y383128D01*
X306490Y383381D01*
X300885Y388986D01*
X300885Y397614D01*
X306986Y403715D01*
X315614Y403715D01*
X321715Y397614D01*
X321715Y388986D01*
X321223Y388494D01*
X321219Y388490D01*
X321215Y388486D01*
X321093Y388335D01*
X320968Y388183D01*
X320965Y388178D01*
X320962Y388173D01*
X320870Y387999D01*
X320779Y387827D01*
X320778Y387822D01*
X320775Y387817D01*
X320720Y387627D01*
X320664Y387441D01*
X320664Y387436D01*
X320662Y387430D01*
X320646Y387237D01*
X320628Y387040D01*
X320629Y387034D01*
X320628Y387029D01*
X320650Y386838D01*
X320671Y386640D01*
X320673Y386634D01*
X320674Y386629D01*
X320733Y386444D01*
X320793Y386256D01*
X320796Y386251D01*
X320797Y386246D01*
X320894Y386073D01*
X320988Y385904D01*
X320991Y385900D01*
X320994Y385895D01*
X321123Y385744D01*
X321248Y385597D01*
X321253Y385593D01*
X321256Y385589D01*
X321411Y385468D01*
X321564Y385347D01*
X321569Y385345D01*
X321573Y385341D01*
X321749Y385253D01*
X321923Y385165D01*
X321928Y385163D01*
X321933Y385161D01*
X322120Y385110D01*
X322311Y385057D01*
X322317Y385056D01*
X322322Y385055D01*
X322652Y385027D01*
X429254Y384673D01*
X429290Y384677D01*
X429327Y384674D01*
X429491Y384696D01*
X429655Y384712D01*
X429690Y384722D01*
X429726Y384727D01*
X429882Y384781D01*
X430040Y384829D01*
X430072Y384846D01*
X430107Y384858D01*
X430250Y384941D01*
X430395Y385019D01*
X430423Y385042D01*
X430455Y385061D01*
X430700Y385272D01*
X430705Y385276D01*
X430705Y385277D01*
X430706Y385277D01*
X437571Y392229D01*
X437573Y392231D01*
X437575Y392232D01*
X437698Y392385D01*
X437824Y392542D01*
X437826Y392544D01*
X437827Y392546D01*
X437918Y392721D01*
X438011Y392899D01*
X438012Y392901D01*
X438013Y392903D01*
X438068Y393096D01*
X438123Y393285D01*
X438123Y393288D01*
X438124Y393290D01*
X438140Y393490D01*
X438157Y393687D01*
X438157Y393689D01*
X438157Y393692D01*
X438135Y393883D01*
X438111Y394086D01*
X438110Y394089D01*
X438110Y394091D01*
X438050Y394276D01*
X438004Y394417D01*
X438006Y394416D01*
X438020Y394409D01*
X438199Y394360D01*
X438378Y394309D01*
X438394Y394308D01*
X438408Y394304D01*
X438594Y394291D01*
X438780Y394276D01*
X438795Y394278D01*
X438810Y394277D01*
X438995Y394301D01*
X439179Y394323D01*
X439194Y394328D01*
X439209Y394330D01*
X439385Y394390D01*
X439562Y394448D01*
X439576Y394455D01*
X439590Y394460D01*
X439751Y394554D01*
X439913Y394646D01*
X439924Y394656D01*
X439938Y394663D01*
X440189Y394880D01*
X459820Y414758D01*
X459835Y414776D01*
X459854Y414793D01*
X459885Y414833D01*
X460662Y415611D01*
X460666Y415615D01*
X460672Y415620D01*
X461454Y416412D01*
X461519Y416468D01*
X477940Y432889D01*
X477957Y432909D01*
X477978Y432927D01*
X478085Y433065D01*
X478195Y433200D01*
X478208Y433224D01*
X478224Y433245D01*
X478302Y433402D01*
X478384Y433556D01*
X478392Y433581D01*
X478404Y433606D01*
X478449Y433775D01*
X478499Y433942D01*
X478501Y433968D01*
X478508Y433994D01*
X478535Y434325D01*
X478535Y439458D01*
X478533Y439481D01*
X478535Y439503D01*
X478513Y439680D01*
X478495Y439859D01*
X478489Y439880D01*
X478486Y439903D01*
X478430Y440072D01*
X478377Y440244D01*
X478367Y440264D01*
X478360Y440285D01*
X478271Y440440D01*
X478185Y440598D01*
X478171Y440615D01*
X478160Y440634D01*
X478043Y440769D01*
X477928Y440907D01*
X477910Y440921D01*
X477896Y440938D01*
X477754Y441047D01*
X477614Y441160D01*
X477594Y441170D01*
X477576Y441183D01*
X477281Y441335D01*
X477132Y441397D01*
X474417Y444112D01*
X472947Y447660D01*
X472947Y466740D01*
X474145Y469631D01*
X474149Y469644D01*
X474155Y469655D01*
X474206Y469835D01*
X474261Y470016D01*
X474262Y470029D01*
X474266Y470042D01*
X474281Y470230D01*
X474299Y470417D01*
X474298Y470430D01*
X474299Y470444D01*
X474277Y470630D01*
X474258Y470817D01*
X474254Y470830D01*
X474252Y470843D01*
X474194Y471022D01*
X474138Y471202D01*
X474131Y471213D01*
X474127Y471226D01*
X474034Y471391D01*
X473944Y471555D01*
X473936Y471565D01*
X473929Y471577D01*
X473806Y471719D01*
X473685Y471863D01*
X473675Y471871D01*
X473666Y471882D01*
X473518Y471997D01*
X473370Y472114D01*
X473359Y472120D01*
X473348Y472128D01*
X473179Y472212D01*
X473012Y472298D01*
X473000Y472302D01*
X472987Y472308D01*
X472805Y472357D01*
X472625Y472408D01*
X472612Y472409D01*
X472599Y472412D01*
X472268Y472439D01*
X467532Y472439D01*
X467519Y472438D01*
X467505Y472439D01*
X467319Y472418D01*
X467131Y472399D01*
X467119Y472395D01*
X467105Y472394D01*
X466926Y472336D01*
X466746Y472281D01*
X466735Y472275D01*
X466722Y472271D01*
X466557Y472179D01*
X466392Y472089D01*
X466382Y472081D01*
X466370Y472074D01*
X466228Y471952D01*
X466083Y471832D01*
X466075Y471821D01*
X466065Y471813D01*
X465949Y471665D01*
X465831Y471518D01*
X465825Y471506D01*
X465816Y471496D01*
X465732Y471327D01*
X465645Y471161D01*
X465642Y471148D01*
X465636Y471136D01*
X465586Y470955D01*
X465534Y470774D01*
X465533Y470760D01*
X465529Y470747D01*
X465516Y470559D01*
X465501Y470372D01*
X465503Y470359D01*
X465502Y470346D01*
X465526Y470158D01*
X465548Y469973D01*
X465552Y469960D01*
X465554Y469947D01*
X465655Y469631D01*
X466853Y466740D01*
X466853Y447660D01*
X465383Y444112D01*
X462668Y441397D01*
X459120Y439927D01*
X455280Y439927D01*
X451732Y441397D01*
X449017Y444112D01*
X447547Y447660D01*
X447547Y466740D01*
X448745Y469631D01*
X448749Y469644D01*
X448755Y469655D01*
X448806Y469835D01*
X448861Y470016D01*
X448862Y470029D01*
X448866Y470042D01*
X448881Y470230D01*
X448899Y470417D01*
X448898Y470430D01*
X448899Y470444D01*
X448877Y470630D01*
X448858Y470817D01*
X448854Y470830D01*
X448852Y470843D01*
X448794Y471022D01*
X448738Y471202D01*
X448731Y471213D01*
X448727Y471226D01*
X448634Y471391D01*
X448544Y471555D01*
X448536Y471565D01*
X448529Y471577D01*
X448406Y471719D01*
X448285Y471863D01*
X448275Y471871D01*
X448266Y471882D01*
X448118Y471997D01*
X447970Y472114D01*
X447959Y472120D01*
X447948Y472128D01*
X447779Y472212D01*
X447612Y472298D01*
X447600Y472302D01*
X447587Y472308D01*
X447405Y472357D01*
X447225Y472408D01*
X447212Y472409D01*
X447199Y472412D01*
X446868Y472439D01*
X442132Y472439D01*
X442119Y472438D01*
X442105Y472439D01*
X441919Y472418D01*
X441731Y472399D01*
X441719Y472395D01*
X441705Y472394D01*
X441526Y472336D01*
X441346Y472281D01*
X441335Y472275D01*
X441322Y472271D01*
X441157Y472179D01*
X440992Y472089D01*
X440982Y472081D01*
X440970Y472074D01*
X440828Y471952D01*
X440683Y471832D01*
X440675Y471821D01*
X440665Y471813D01*
X440549Y471665D01*
X440431Y471518D01*
X440425Y471506D01*
X440416Y471496D01*
X440332Y471327D01*
X440245Y471161D01*
X440242Y471148D01*
X440236Y471136D01*
X440186Y470955D01*
X440134Y470774D01*
X440133Y470760D01*
X440129Y470747D01*
X440116Y470559D01*
X440101Y470372D01*
X440103Y470359D01*
X440102Y470346D01*
X440126Y470158D01*
X440148Y469973D01*
X440152Y469960D01*
X440154Y469947D01*
X440255Y469631D01*
X441453Y466740D01*
X441453Y447660D01*
X439983Y444112D01*
X437268Y441397D01*
X433720Y439927D01*
X429880Y439927D01*
X426332Y441397D01*
X423617Y444112D01*
X422147Y447660D01*
X422147Y466740D01*
X423345Y469631D01*
X423349Y469644D01*
X423355Y469655D01*
X423406Y469835D01*
X423461Y470016D01*
X423462Y470029D01*
X423466Y470042D01*
X423481Y470230D01*
X423499Y470417D01*
X423498Y470430D01*
X423499Y470444D01*
X423477Y470630D01*
X423458Y470817D01*
X423454Y470830D01*
X423452Y470843D01*
X423394Y471022D01*
X423338Y471202D01*
X423331Y471213D01*
X423327Y471226D01*
X423234Y471391D01*
X423144Y471555D01*
X423136Y471565D01*
X423129Y471577D01*
X423006Y471719D01*
X422885Y471863D01*
X422875Y471871D01*
X422866Y471882D01*
X422718Y471997D01*
X422570Y472114D01*
X422559Y472120D01*
X422548Y472128D01*
X422379Y472212D01*
X422212Y472298D01*
X422200Y472302D01*
X422187Y472308D01*
X422005Y472357D01*
X421825Y472408D01*
X421812Y472409D01*
X421799Y472412D01*
X421468Y472439D01*
X416732Y472439D01*
X416719Y472438D01*
X416705Y472439D01*
X416519Y472418D01*
X416331Y472399D01*
X416319Y472395D01*
X416305Y472394D01*
X416126Y472336D01*
X415946Y472281D01*
X415935Y472275D01*
X415922Y472271D01*
X415757Y472179D01*
X415592Y472089D01*
X415582Y472081D01*
X415570Y472074D01*
X415428Y471952D01*
X415283Y471832D01*
X415275Y471821D01*
X415265Y471813D01*
X415149Y471665D01*
X415031Y471518D01*
X415025Y471506D01*
X415016Y471496D01*
X414932Y471327D01*
X414845Y471161D01*
X414842Y471148D01*
X414836Y471136D01*
X414786Y470955D01*
X414734Y470774D01*
X414733Y470760D01*
X414729Y470747D01*
X414716Y470559D01*
X414701Y470372D01*
X414703Y470359D01*
X414702Y470346D01*
X414726Y470158D01*
X414748Y469973D01*
X414752Y469960D01*
X414754Y469947D01*
X414855Y469631D01*
X416053Y466740D01*
X416053Y447660D01*
X414583Y444112D01*
X411868Y441397D01*
X408320Y439927D01*
X404480Y439927D01*
X400932Y441397D01*
X398217Y444112D01*
X396747Y447660D01*
X396747Y466740D01*
X397945Y469631D01*
X397949Y469644D01*
X397955Y469655D01*
X398006Y469835D01*
X398061Y470016D01*
X398062Y470029D01*
X398066Y470042D01*
X398081Y470230D01*
X398099Y470417D01*
X398098Y470430D01*
X398099Y470444D01*
X398077Y470630D01*
X398058Y470817D01*
X398054Y470830D01*
X398052Y470843D01*
X397994Y471022D01*
X397938Y471202D01*
X397931Y471213D01*
X397927Y471226D01*
X397834Y471391D01*
X397744Y471555D01*
X397736Y471565D01*
X397729Y471577D01*
X397606Y471719D01*
X397485Y471863D01*
X397475Y471871D01*
X397466Y471882D01*
X397318Y471997D01*
X397170Y472114D01*
X397159Y472120D01*
X397148Y472128D01*
X396979Y472212D01*
X396812Y472298D01*
X396800Y472302D01*
X396787Y472308D01*
X396605Y472357D01*
X396425Y472408D01*
X396412Y472409D01*
X396399Y472412D01*
X396068Y472439D01*
X150032Y472439D01*
X150019Y472438D01*
X150005Y472439D01*
X149819Y472418D01*
X149631Y472399D01*
X149619Y472395D01*
X149605Y472394D01*
X149426Y472336D01*
X149246Y472281D01*
X149235Y472275D01*
X149222Y472271D01*
X149057Y472179D01*
X148892Y472089D01*
X148882Y472081D01*
X148870Y472074D01*
X148728Y471952D01*
X148583Y471832D01*
X148575Y471821D01*
X148565Y471813D01*
X148449Y471665D01*
X148331Y471518D01*
X148325Y471506D01*
X148316Y471496D01*
X148232Y471327D01*
X148145Y471161D01*
X148142Y471148D01*
X148136Y471136D01*
X148086Y470955D01*
X148034Y470774D01*
X148033Y470760D01*
X148029Y470747D01*
X148016Y470559D01*
X148001Y470372D01*
X148003Y470359D01*
X148002Y470346D01*
X148026Y470158D01*
X148048Y469973D01*
X148052Y469960D01*
X148054Y469947D01*
X148155Y469631D01*
X149353Y466740D01*
X149353Y447660D01*
X147883Y444112D01*
X145168Y441397D01*
X141599Y439918D01*
X141490Y439905D01*
X141316Y439887D01*
X141291Y439880D01*
X141264Y439876D01*
X141099Y439821D01*
X140931Y439769D01*
X140908Y439756D01*
X140883Y439748D01*
X140731Y439661D01*
X140577Y439577D01*
X140557Y439560D01*
X140534Y439547D01*
X140281Y439332D01*
X112610Y411661D01*
X112593Y411641D01*
X112572Y411623D01*
X112465Y411485D01*
X112355Y411350D01*
X112342Y411326D01*
X112326Y411305D01*
X112248Y411148D01*
X112166Y410994D01*
X112158Y410969D01*
X112146Y410944D01*
X112101Y410775D01*
X112051Y410608D01*
X112049Y410582D01*
X112042Y410556D01*
X112015Y410225D01*
X112015Y315454D01*
X112017Y315427D01*
X112015Y315400D01*
X112037Y315227D01*
X112055Y315053D01*
X112062Y315028D01*
X112066Y315001D01*
X112121Y314835D01*
X112173Y314668D01*
X112186Y314645D01*
X112194Y314619D01*
X112281Y314468D01*
X112365Y314314D01*
X112382Y314294D01*
X112395Y314270D01*
X112610Y314017D01*
X155267Y271360D01*
X155288Y271343D01*
X155306Y271322D01*
X155444Y271215D01*
X155579Y271105D01*
X155603Y271092D01*
X155624Y271076D01*
X155781Y270998D01*
X155935Y270916D01*
X155960Y270908D01*
X155984Y270896D01*
X156154Y270851D01*
X156321Y270801D01*
X156347Y270799D01*
X156373Y270792D01*
X156704Y270765D01*
X795514Y270765D01*
X795541Y270767D01*
X795567Y270765D01*
X795741Y270787D01*
X795915Y270805D01*
X795940Y270812D01*
X795967Y270816D01*
X796132Y270871D01*
X796300Y270923D01*
X796323Y270936D01*
X796349Y270944D01*
X796500Y271031D01*
X796654Y271115D01*
X796674Y271132D01*
X796697Y271145D01*
X796950Y271360D01*
X839890Y314300D01*
X839907Y314320D01*
X839928Y314338D01*
X840035Y314476D01*
X840145Y314611D01*
X840158Y314635D01*
X840174Y314656D01*
X840252Y314813D01*
X840334Y314967D01*
X840342Y314992D01*
X840354Y315016D01*
X840399Y315186D01*
X840449Y315353D01*
X840451Y315379D01*
X840458Y315405D01*
X840485Y315736D01*
X840485Y345486D01*
X840483Y345504D01*
X840485Y345522D01*
X840464Y345704D01*
X840445Y345887D01*
X840440Y345904D01*
X840438Y345921D01*
X840381Y346096D01*
X840327Y346272D01*
X840319Y346287D01*
X840313Y346304D01*
X840223Y346464D01*
X840135Y346626D01*
X840124Y346639D01*
X840115Y346655D01*
X839995Y346794D01*
X839878Y346935D01*
X839864Y346946D01*
X839852Y346960D01*
X839795Y347004D01*
X827107Y359692D01*
X827107Y376908D01*
X839282Y389083D01*
X856498Y389083D01*
X868673Y376908D01*
X868673Y359692D01*
X856498Y347517D01*
X850646Y347517D01*
X850628Y347515D01*
X850610Y347517D01*
X850428Y347496D01*
X850245Y347477D01*
X850228Y347472D01*
X850211Y347470D01*
X850036Y347413D01*
X849860Y347359D01*
X849845Y347351D01*
X849828Y347345D01*
X849668Y347255D01*
X849506Y347167D01*
X849493Y347156D01*
X849477Y347147D01*
X849338Y347027D01*
X849197Y346910D01*
X849186Y346896D01*
X849172Y346884D01*
X849060Y346739D01*
X848945Y346596D01*
X848937Y346580D01*
X848926Y346566D01*
X848844Y346401D01*
X848759Y346239D01*
X848754Y346222D01*
X848746Y346206D01*
X848699Y346027D01*
X848648Y345852D01*
X848646Y345834D01*
X848642Y345817D01*
X848615Y345486D01*
X848615Y312402D01*
X847996Y310908D01*
X801771Y264683D01*
X800342Y263254D01*
X798848Y262635D01*
X153370Y262635D01*
X151876Y263254D01*
X104504Y310626D01*
X103885Y312120D01*
X103885Y413559D01*
X104504Y415052D01*
X131157Y441705D01*
X131171Y441722D01*
X131188Y441737D01*
X131298Y441878D01*
X131412Y442017D01*
X131422Y442036D01*
X131436Y442054D01*
X131517Y442214D01*
X131600Y442372D01*
X131607Y442394D01*
X131617Y442414D01*
X131664Y442587D01*
X131715Y442758D01*
X131717Y442780D01*
X131723Y442802D01*
X131735Y442981D01*
X131752Y443159D01*
X131749Y443181D01*
X131751Y443204D01*
X131727Y443381D01*
X131708Y443559D01*
X131701Y443581D01*
X131698Y443603D01*
X131597Y443919D01*
X130047Y447660D01*
X130047Y466740D01*
X131245Y469631D01*
X131249Y469644D01*
X131255Y469655D01*
X131306Y469835D01*
X131361Y470016D01*
X131362Y470029D01*
X131366Y470042D01*
X131381Y470230D01*
X131399Y470417D01*
X131398Y470430D01*
X131399Y470444D01*
X131377Y470630D01*
X131358Y470817D01*
X131354Y470830D01*
X131352Y470843D01*
X131294Y471022D01*
X131238Y471202D01*
X131231Y471213D01*
X131227Y471226D01*
X131134Y471391D01*
X131044Y471555D01*
X131036Y471565D01*
X131029Y471577D01*
X130906Y471719D01*
X130785Y471863D01*
X130775Y471871D01*
X130766Y471882D01*
X130618Y471997D01*
X130470Y472114D01*
X130459Y472120D01*
X130448Y472128D01*
X130279Y472212D01*
X130112Y472298D01*
X130100Y472302D01*
X130087Y472308D01*
X129905Y472357D01*
X129725Y472408D01*
X129712Y472409D01*
X129699Y472412D01*
X129368Y472439D01*
X124632Y472439D01*
X124619Y472438D01*
X124605Y472439D01*
X124419Y472418D01*
X124231Y472399D01*
X124219Y472395D01*
X124205Y472394D01*
X124026Y472336D01*
X123846Y472281D01*
X123835Y472275D01*
X123822Y472271D01*
X123657Y472179D01*
X123492Y472089D01*
X123482Y472081D01*
X123470Y472074D01*
X123328Y471952D01*
X123183Y471832D01*
X123175Y471821D01*
X123165Y471813D01*
X123049Y471665D01*
X122931Y471518D01*
X122925Y471506D01*
X122916Y471496D01*
X122832Y471327D01*
X122745Y471161D01*
X122742Y471148D01*
X122736Y471136D01*
X122686Y470955D01*
X122634Y470774D01*
X122633Y470760D01*
X122629Y470747D01*
X122616Y470559D01*
X122601Y470372D01*
X122603Y470359D01*
X122602Y470346D01*
X122626Y470158D01*
X122648Y469973D01*
X122652Y469960D01*
X122654Y469947D01*
X122755Y469631D01*
X123953Y466740D01*
X123953Y447660D01*
X122483Y444112D01*
X119768Y441397D01*
X116199Y439918D01*
X116090Y439905D01*
X115916Y439887D01*
X115891Y439880D01*
X115864Y439876D01*
X115698Y439820D01*
X115531Y439769D01*
X115508Y439756D01*
X115483Y439748D01*
X115331Y439661D01*
X115177Y439577D01*
X115157Y439560D01*
X115134Y439547D01*
X114881Y439332D01*
X99910Y424361D01*
X99893Y424341D01*
X99872Y424323D01*
X99765Y424185D01*
X99655Y424050D01*
X99642Y424026D01*
X99626Y424005D01*
X99548Y423848D01*
X99466Y423694D01*
X99458Y423669D01*
X99446Y423644D01*
X99401Y423475D01*
X99351Y423308D01*
X99349Y423282D01*
X99342Y423256D01*
X99315Y422925D01*
X99315Y310779D01*
X99316Y310765D01*
X99315Y310750D01*
X99316Y310739D01*
X99315Y310726D01*
X99337Y310552D01*
X99355Y310379D01*
X99361Y310358D01*
X99362Y310350D01*
X99363Y310346D01*
X99366Y310327D01*
X99421Y310161D01*
X99473Y309994D01*
X99486Y309970D01*
X99494Y309945D01*
X99581Y309793D01*
X99665Y309640D01*
X99682Y309619D01*
X99695Y309596D01*
X99910Y309343D01*
X150593Y258660D01*
X150614Y258643D01*
X150631Y258622D01*
X150769Y258515D01*
X150905Y258405D01*
X150928Y258392D01*
X150949Y258376D01*
X151106Y258298D01*
X151260Y258216D01*
X151286Y258208D01*
X151310Y258196D01*
X151479Y258151D01*
X151646Y258101D01*
X151673Y258099D01*
X151699Y258092D01*
X152029Y258065D01*
X861075Y258065D01*
X861102Y258067D01*
X861128Y258065D01*
X861302Y258087D01*
X861476Y258105D01*
X861501Y258112D01*
X861528Y258116D01*
X861693Y258171D01*
X861860Y258223D01*
X861884Y258236D01*
X861909Y258244D01*
X862061Y258331D01*
X862215Y258415D01*
X862235Y258432D01*
X862258Y258445D01*
X862511Y258660D01*
X893048Y289196D01*
X894541Y289815D01*
X947747Y289815D01*
X947774Y289817D01*
X947801Y289815D01*
X947975Y289837D01*
X948148Y289855D01*
X948174Y289862D01*
X948200Y289866D01*
X948366Y289921D01*
X948533Y289973D01*
X948557Y289986D01*
X948582Y289994D01*
X948734Y290081D01*
X948887Y290165D01*
X948907Y290182D01*
X948931Y290195D01*
X949184Y290410D01*
X970230Y311456D01*
X970247Y311477D01*
X970268Y311494D01*
X970375Y311632D01*
X970485Y311768D01*
X970498Y311791D01*
X970514Y311813D01*
X970592Y311969D01*
X970674Y312123D01*
X970682Y312149D01*
X970694Y312173D01*
X970739Y312342D01*
X970789Y312509D01*
X970791Y312536D01*
X970798Y312562D01*
X970825Y312893D01*
X970825Y345486D01*
X970823Y345504D01*
X970825Y345522D01*
X970804Y345704D01*
X970785Y345887D01*
X970780Y345904D01*
X970778Y345921D01*
X970721Y346096D01*
X970667Y346272D01*
X970659Y346287D01*
X970653Y346304D01*
X970563Y346464D01*
X970475Y346626D01*
X970464Y346639D01*
X970455Y346655D01*
X970335Y346794D01*
X970218Y346935D01*
X970204Y346946D01*
X970192Y346960D01*
X970047Y347072D01*
X969904Y347187D01*
X969888Y347195D01*
X969874Y347206D01*
X969709Y347288D01*
X969547Y347373D01*
X969530Y347378D01*
X969514Y347386D01*
X969335Y347433D01*
X969160Y347484D01*
X969142Y347486D01*
X969125Y347490D01*
X968794Y347517D01*
X966282Y347517D01*
X954107Y359692D01*
X954107Y376908D01*
X966282Y389083D01*
X983498Y389083D01*
X995673Y376908D01*
X995673Y359692D01*
X983498Y347517D01*
X980986Y347517D01*
X980968Y347515D01*
X980950Y347517D01*
X980768Y347496D01*
X980585Y347477D01*
X980568Y347472D01*
X980551Y347470D01*
X980376Y347413D01*
X980200Y347359D01*
X980185Y347351D01*
X980168Y347345D01*
X980008Y347255D01*
X979846Y347167D01*
X979833Y347156D01*
X979817Y347147D01*
X979678Y347027D01*
X979537Y346910D01*
X979526Y346896D01*
X979512Y346884D01*
X979400Y346739D01*
X979285Y346596D01*
X979277Y346580D01*
X979266Y346566D01*
X979184Y346401D01*
X979099Y346239D01*
X979094Y346222D01*
X979086Y346206D01*
X979039Y346027D01*
X978988Y345852D01*
X978986Y345834D01*
X978982Y345817D01*
X978955Y345486D01*
X978955Y309559D01*
X978336Y308065D01*
X952575Y282304D01*
X951081Y281685D01*
X897875Y281685D01*
X897848Y281683D01*
X897822Y281685D01*
X897648Y281663D01*
X897474Y281645D01*
X897449Y281638D01*
X897422Y281634D01*
X897257Y281579D01*
X897090Y281527D01*
X897066Y281514D01*
X897041Y281506D01*
X896889Y281419D01*
X896735Y281335D01*
X896715Y281318D01*
X896692Y281305D01*
X896439Y281090D01*
X865902Y250554D01*
X864409Y249935D01*
X148696Y249935D01*
X147202Y250554D01*
X91804Y305952D01*
X91185Y307446D01*
X91185Y426259D01*
X91804Y427752D01*
X93233Y429182D01*
X105757Y441705D01*
X105771Y441722D01*
X105788Y441737D01*
X105898Y441878D01*
X106012Y442017D01*
X106022Y442036D01*
X106036Y442054D01*
X106116Y442214D01*
X106200Y442372D01*
X106207Y442394D01*
X106217Y442414D01*
X106264Y442586D01*
X106315Y442758D01*
X106317Y442780D01*
X106323Y442802D01*
X106335Y442981D01*
X106352Y443159D01*
X106349Y443181D01*
X106351Y443204D01*
X106327Y443381D01*
X106308Y443559D01*
X106301Y443581D01*
X106298Y443603D01*
X106197Y443919D01*
X104647Y447660D01*
X104647Y466740D01*
X105845Y469631D01*
X105849Y469644D01*
X105855Y469655D01*
X105906Y469835D01*
X105961Y470016D01*
X105962Y470029D01*
X105966Y470042D01*
X105981Y470230D01*
X105999Y470417D01*
X105998Y470430D01*
X105999Y470444D01*
X105977Y470630D01*
X105958Y470817D01*
X105954Y470830D01*
X105952Y470843D01*
X105894Y471022D01*
X105838Y471202D01*
X105831Y471213D01*
X105827Y471226D01*
X105734Y471391D01*
X105644Y471555D01*
X105636Y471565D01*
X105629Y471577D01*
X105506Y471719D01*
X105385Y471863D01*
X105375Y471871D01*
X105366Y471882D01*
X105218Y471997D01*
X105070Y472114D01*
X105059Y472120D01*
X105048Y472128D01*
X104879Y472212D01*
X104712Y472298D01*
X104700Y472302D01*
X104687Y472308D01*
X104505Y472357D01*
X104325Y472408D01*
X104312Y472409D01*
X104299Y472412D01*
X103968Y472439D01*
X99232Y472439D01*
X99219Y472438D01*
X99205Y472439D01*
X99019Y472418D01*
X98831Y472399D01*
X98819Y472395D01*
X98805Y472394D01*
X98626Y472336D01*
X98446Y472281D01*
X98435Y472275D01*
X98422Y472271D01*
X98257Y472179D01*
X98092Y472089D01*
X98082Y472081D01*
X98070Y472074D01*
X97928Y471952D01*
X97783Y471832D01*
X97775Y471821D01*
X97765Y471813D01*
X97649Y471665D01*
X97531Y471518D01*
X97525Y471506D01*
X97516Y471496D01*
X97432Y471327D01*
X97345Y471161D01*
X97342Y471148D01*
X97336Y471136D01*
X97286Y470955D01*
X97234Y470774D01*
X97233Y470760D01*
X97229Y470747D01*
X97216Y470559D01*
X97201Y470372D01*
X97203Y470359D01*
X97202Y470346D01*
X97226Y470158D01*
X97248Y469973D01*
X97252Y469960D01*
X97254Y469947D01*
X97355Y469631D01*
X98553Y466740D01*
X98553Y447660D01*
X97083Y444112D01*
X94368Y441397D01*
X90820Y439927D01*
X86980Y439927D01*
X83432Y441397D01*
X80717Y444112D01*
X79247Y447660D01*
X79247Y466740D01*
X80445Y469631D01*
X80449Y469644D01*
X80455Y469655D01*
X80506Y469835D01*
X80561Y470016D01*
X80562Y470029D01*
X80566Y470042D01*
X80581Y470230D01*
X80599Y470417D01*
X80598Y470430D01*
X80599Y470444D01*
X80577Y470630D01*
X80558Y470817D01*
X80554Y470830D01*
X80552Y470843D01*
X80494Y471022D01*
X80438Y471202D01*
X80431Y471213D01*
X80427Y471226D01*
X80334Y471391D01*
X80244Y471555D01*
X80236Y471565D01*
X80229Y471577D01*
X80106Y471719D01*
X79985Y471863D01*
X79975Y471871D01*
X79966Y471882D01*
X79818Y471997D01*
X79670Y472114D01*
X79659Y472120D01*
X79648Y472128D01*
X79479Y472212D01*
X79312Y472298D01*
X79300Y472302D01*
X79287Y472308D01*
X79105Y472357D01*
X78925Y472408D01*
X78912Y472409D01*
X78899Y472412D01*
X78568Y472439D01*
X50403Y472439D01*
X50258Y472425D01*
X50112Y472418D01*
X50058Y472405D01*
X50003Y472399D01*
X49863Y472356D01*
X49721Y472321D01*
X49671Y472298D01*
X49618Y472281D01*
X49489Y472212D01*
X49357Y472149D01*
X49312Y472116D01*
X49264Y472089D01*
X49152Y471996D01*
X49034Y471909D01*
X48997Y471867D01*
X48954Y471832D01*
X48863Y471718D01*
X48765Y471609D01*
X48737Y471561D01*
X48702Y471518D01*
X48635Y471388D01*
X48560Y471262D01*
X48542Y471210D01*
X48517Y471161D01*
X48476Y471020D01*
X48428Y470882D01*
X48421Y470827D01*
X48405Y470774D01*
X48393Y470628D01*
X48373Y470483D01*
X48377Y470428D01*
X48372Y470372D01*
X48389Y470227D01*
X48398Y470081D01*
X48413Y470028D01*
X48419Y469973D01*
X48465Y469834D01*
X48502Y469692D01*
X48529Y469635D01*
X48544Y469590D01*
X48585Y469517D01*
X48644Y469392D01*
X49839Y467323D01*
X51626Y460653D01*
X51626Y453747D01*
X49839Y447077D01*
X46386Y441097D01*
X41503Y436214D01*
X35523Y432761D01*
X28853Y430974D01*
X21947Y430974D01*
X15277Y432761D01*
X13208Y433956D01*
X13074Y434016D01*
X12945Y434083D01*
X12891Y434099D01*
X12841Y434122D01*
X12698Y434154D01*
X12558Y434195D01*
X12502Y434199D01*
X12448Y434212D01*
X12302Y434216D01*
X12156Y434228D01*
X12101Y434221D01*
X12046Y434223D01*
X11902Y434198D01*
X11757Y434181D01*
X11704Y434164D01*
X11649Y434154D01*
X11513Y434101D01*
X11374Y434056D01*
X11325Y434029D01*
X11274Y434009D01*
X11151Y433930D01*
X11023Y433858D01*
X10981Y433822D01*
X10934Y433792D01*
X10829Y433690D01*
X10718Y433595D01*
X10685Y433551D01*
X10644Y433513D01*
X10561Y433392D01*
X10472Y433277D01*
X10447Y433227D01*
X10415Y433181D01*
X10358Y433047D01*
X10292Y432916D01*
X10278Y432863D01*
X10256Y432812D01*
X10226Y432669D01*
X10188Y432527D01*
X10183Y432464D01*
X10173Y432418D01*
X10172Y432334D01*
X10161Y432197D01*
X10161Y50403D01*
X10175Y50258D01*
X10182Y50112D01*
X10195Y50058D01*
X10201Y50003D01*
X10244Y49863D01*
X10279Y49721D01*
X10302Y49671D01*
X10319Y49618D01*
X10388Y49489D01*
X10451Y49357D01*
X10484Y49312D01*
X10511Y49264D01*
X10604Y49152D01*
X10691Y49034D01*
X10733Y48997D01*
X10768Y48954D01*
X10882Y48863D01*
X10991Y48765D01*
X11039Y48737D01*
X11082Y48702D01*
X11212Y48635D01*
X11338Y48560D01*
X11390Y48542D01*
X11439Y48517D01*
X11580Y48476D01*
X11718Y48428D01*
X11773Y48421D01*
X11826Y48405D01*
X11972Y48393D01*
X12117Y48373D01*
X12172Y48377D01*
X12228Y48372D01*
X12373Y48389D01*
X12519Y48398D01*
X12572Y48413D01*
X12627Y48419D01*
X12766Y48465D01*
X12908Y48502D01*
X12965Y48529D01*
X13010Y48544D01*
X13083Y48585D01*
X13208Y48644D01*
X15277Y49839D01*
X21947Y51626D01*
X28853Y51626D01*
X35523Y49839D01*
X41503Y46386D01*
X46386Y41503D01*
X49839Y35523D01*
X51626Y28853D01*
X51626Y21947D01*
X49839Y15277D01*
X48644Y13208D01*
X48584Y13074D01*
X48517Y12945D01*
X48501Y12891D01*
X48478Y12841D01*
X48446Y12698D01*
X48405Y12558D01*
X48401Y12502D01*
X48388Y12448D01*
X48384Y12302D01*
X48372Y12156D01*
X48379Y12101D01*
X48377Y12046D01*
X48402Y11902D01*
X48419Y11757D01*
X48436Y11704D01*
X48446Y11649D01*
X48499Y11513D01*
X48544Y11374D01*
X48571Y11325D01*
X48591Y11274D01*
X48670Y11151D01*
X48742Y11023D01*
X48778Y10981D01*
X48808Y10934D01*
X48910Y10829D01*
X49005Y10718D01*
X49049Y10685D01*
X49087Y10644D01*
X49208Y10561D01*
X49323Y10472D01*
X49373Y10447D01*
X49419Y10415D01*
X49553Y10358D01*
X49684Y10292D01*
X49737Y10278D01*
X49788Y10256D01*
X49931Y10226D01*
X50073Y10188D01*
X50136Y10183D01*
X50182Y10173D01*
X50266Y10172D01*
X50403Y10161D01*
X78568Y10161D01*
X78581Y10162D01*
G37*
%LPC*%
G36*
X966282Y93517D02*
X966282Y93517D01*
X954107Y105692D01*
X954107Y122908D01*
X966282Y135083D01*
X983498Y135083D01*
X995673Y122908D01*
X995673Y105692D01*
X983498Y93517D01*
X966282Y93517D01*
G37*
%LPD*%
%LPC*%
G36*
X919742Y347517D02*
X919742Y347517D01*
X907567Y359692D01*
X907567Y376908D01*
X919742Y389083D01*
X936958Y389083D01*
X949133Y376908D01*
X949133Y359692D01*
X936958Y347517D01*
X919742Y347517D01*
G37*
%LPD*%
%LPC*%
G36*
X792742Y347517D02*
X792742Y347517D01*
X780567Y359692D01*
X780567Y376908D01*
X792742Y389083D01*
X809958Y389083D01*
X822133Y376908D01*
X822133Y359692D01*
X809958Y347517D01*
X792742Y347517D01*
G37*
%LPD*%
%LPC*%
G36*
X712282Y347517D02*
X712282Y347517D01*
X700107Y359692D01*
X700107Y376908D01*
X712282Y389083D01*
X729498Y389083D01*
X741673Y376908D01*
X741673Y359692D01*
X729498Y347517D01*
X712282Y347517D01*
G37*
%LPD*%
%LPC*%
G36*
X919742Y93517D02*
X919742Y93517D01*
X907567Y105692D01*
X907567Y122908D01*
X919742Y135083D01*
X936958Y135083D01*
X949133Y122908D01*
X949133Y105692D01*
X936958Y93517D01*
X919742Y93517D01*
G37*
%LPD*%
%LPC*%
G36*
X712282Y93517D02*
X712282Y93517D01*
X700107Y105692D01*
X700107Y122908D01*
X712282Y135083D01*
X729498Y135083D01*
X741673Y122908D01*
X741673Y105692D01*
X729498Y93517D01*
X712282Y93517D01*
G37*
%LPD*%
%LPC*%
G36*
X792742Y93517D02*
X792742Y93517D01*
X780567Y105692D01*
X780567Y122908D01*
X792742Y135083D01*
X809958Y135083D01*
X822133Y122908D01*
X822133Y105692D01*
X809958Y93517D01*
X792742Y93517D01*
G37*
%LPD*%
%LPC*%
G36*
X436850Y395554D02*
X436850Y395554D01*
X436848Y395554D01*
X436846Y395556D01*
X436647Y395609D01*
X436462Y395659D01*
X436459Y395659D01*
X436457Y395660D01*
X436126Y395687D01*
X402678Y395687D01*
X401487Y396878D01*
X401487Y429722D01*
X402678Y430913D01*
X435522Y430913D01*
X436713Y429722D01*
X436713Y396307D01*
X436714Y396292D01*
X436713Y396276D01*
X436734Y396091D01*
X436753Y395906D01*
X436757Y395892D01*
X436759Y395876D01*
X436816Y395699D01*
X436863Y395547D01*
X436850Y395554D01*
G37*
%LPD*%
%LPC*%
G36*
X47078Y395687D02*
X47078Y395687D01*
X45887Y396878D01*
X45887Y429722D01*
X47078Y430913D01*
X79922Y430913D01*
X81113Y429722D01*
X81113Y396878D01*
X79922Y395687D01*
X47078Y395687D01*
G37*
%LPD*%
%LPC*%
G36*
X224878Y395687D02*
X224878Y395687D01*
X223687Y396878D01*
X223687Y429722D01*
X224878Y430913D01*
X257722Y430913D01*
X258913Y429722D01*
X258913Y396878D01*
X257722Y395687D01*
X224878Y395687D01*
G37*
%LPD*%
%LPC*%
G36*
X224878Y51687D02*
X224878Y51687D01*
X223687Y52878D01*
X223687Y85722D01*
X224878Y86913D01*
X257722Y86913D01*
X258913Y85722D01*
X258913Y52878D01*
X257722Y51687D01*
X224878Y51687D01*
G37*
%LPD*%
%LPC*%
G36*
X580478Y395687D02*
X580478Y395687D01*
X579287Y396878D01*
X579287Y429722D01*
X580478Y430913D01*
X613322Y430913D01*
X614513Y429722D01*
X614513Y396878D01*
X613322Y395687D01*
X580478Y395687D01*
G37*
%LPD*%
%LPC*%
G36*
X580478Y51687D02*
X580478Y51687D01*
X579287Y52878D01*
X579287Y85722D01*
X580478Y86913D01*
X613322Y86913D01*
X614513Y85722D01*
X614513Y52878D01*
X613322Y51687D01*
X580478Y51687D01*
G37*
%LPD*%
%LPC*%
G36*
X402678Y51687D02*
X402678Y51687D01*
X401487Y52878D01*
X401487Y85722D01*
X402678Y86913D01*
X435522Y86913D01*
X436713Y85722D01*
X436713Y52878D01*
X435522Y51687D01*
X402678Y51687D01*
G37*
%LPD*%
%LPC*%
G36*
X580478Y141687D02*
X580478Y141687D01*
X579287Y142878D01*
X579287Y175722D01*
X580478Y176913D01*
X613322Y176913D01*
X614513Y175722D01*
X614513Y142878D01*
X613322Y141687D01*
X580478Y141687D01*
G37*
%LPD*%
%LPC*%
G36*
X580478Y305687D02*
X580478Y305687D01*
X579287Y306878D01*
X579287Y339722D01*
X580478Y340913D01*
X613322Y340913D01*
X614513Y339722D01*
X614513Y306878D01*
X613322Y305687D01*
X580478Y305687D01*
G37*
%LPD*%
%LPC*%
G36*
X224878Y305687D02*
X224878Y305687D01*
X223687Y306878D01*
X223687Y339722D01*
X224878Y340913D01*
X257722Y340913D01*
X258913Y339722D01*
X258913Y306878D01*
X257722Y305687D01*
X224878Y305687D01*
G37*
%LPD*%
%LPC*%
G36*
X47078Y305687D02*
X47078Y305687D01*
X45887Y306878D01*
X45887Y339722D01*
X47078Y340913D01*
X79922Y340913D01*
X81113Y339722D01*
X81113Y306878D01*
X79922Y305687D01*
X47078Y305687D01*
G37*
%LPD*%
%LPC*%
G36*
X224878Y141687D02*
X224878Y141687D01*
X223687Y142878D01*
X223687Y175722D01*
X224878Y176913D01*
X257722Y176913D01*
X258913Y175722D01*
X258913Y142878D01*
X257722Y141687D01*
X224878Y141687D01*
G37*
%LPD*%
%LPC*%
G36*
X402678Y141687D02*
X402678Y141687D01*
X401487Y142878D01*
X401487Y175722D01*
X402678Y176913D01*
X435522Y176913D01*
X436713Y175722D01*
X436713Y142878D01*
X435522Y141687D01*
X402678Y141687D01*
G37*
%LPD*%
%LPC*%
G36*
X402678Y305687D02*
X402678Y305687D01*
X401487Y306878D01*
X401487Y339722D01*
X402678Y340913D01*
X435522Y340913D01*
X436713Y339722D01*
X436713Y306878D01*
X435522Y305687D01*
X402678Y305687D01*
G37*
%LPD*%
%LPC*%
G36*
X898510Y218947D02*
X898510Y218947D01*
X894962Y220417D01*
X892247Y223132D01*
X890777Y226680D01*
X890777Y230520D01*
X892247Y234068D01*
X894962Y236783D01*
X897462Y237819D01*
X898510Y238253D01*
X917590Y238253D01*
X921138Y236783D01*
X923853Y234068D01*
X925323Y230520D01*
X925323Y226680D01*
X923853Y223132D01*
X921138Y220417D01*
X918252Y219221D01*
X917590Y218947D01*
X898510Y218947D01*
G37*
%LPD*%
%LPC*%
G36*
X657676Y332885D02*
X657676Y332885D01*
X656485Y334076D01*
X656485Y352524D01*
X657676Y353715D01*
X676124Y353715D01*
X677315Y352524D01*
X677315Y334076D01*
X676124Y332885D01*
X657676Y332885D01*
G37*
%LPD*%
%LPC*%
G36*
X124276Y332885D02*
X124276Y332885D01*
X123085Y334076D01*
X123085Y352524D01*
X124276Y353715D01*
X142724Y353715D01*
X143915Y352524D01*
X143915Y334076D01*
X142724Y332885D01*
X124276Y332885D01*
G37*
%LPD*%
%LPC*%
G36*
X302076Y332885D02*
X302076Y332885D01*
X300885Y334076D01*
X300885Y352524D01*
X302076Y353715D01*
X320524Y353715D01*
X321715Y352524D01*
X321715Y334076D01*
X320524Y332885D01*
X302076Y332885D01*
G37*
%LPD*%
%LPC*%
G36*
X479876Y332885D02*
X479876Y332885D01*
X478685Y334076D01*
X478685Y352524D01*
X479876Y353715D01*
X498324Y353715D01*
X499515Y352524D01*
X499515Y334076D01*
X498324Y332885D01*
X479876Y332885D01*
G37*
%LPD*%
%LPC*%
G36*
X657676Y78885D02*
X657676Y78885D01*
X656485Y80076D01*
X656485Y98524D01*
X657676Y99715D01*
X676124Y99715D01*
X677315Y98524D01*
X677315Y80076D01*
X676124Y78885D01*
X657676Y78885D01*
G37*
%LPD*%
%LPC*%
G36*
X302076Y78885D02*
X302076Y78885D01*
X300885Y80076D01*
X300885Y98524D01*
X302076Y99715D01*
X320524Y99715D01*
X321715Y98524D01*
X321715Y80076D01*
X320524Y78885D01*
X302076Y78885D01*
G37*
%LPD*%
%LPC*%
G36*
X124276Y78885D02*
X124276Y78885D01*
X123085Y80076D01*
X123085Y98524D01*
X124276Y99715D01*
X142724Y99715D01*
X143915Y98524D01*
X143915Y80076D01*
X142724Y78885D01*
X124276Y78885D01*
G37*
%LPD*%
%LPC*%
G36*
X662586Y103885D02*
X662586Y103885D01*
X656485Y109986D01*
X656485Y118614D01*
X662586Y124715D01*
X671214Y124715D01*
X677315Y118614D01*
X677315Y109986D01*
X671214Y103885D01*
X662586Y103885D01*
G37*
%LPD*%
%LPC*%
G36*
X129186Y103885D02*
X129186Y103885D01*
X123085Y109986D01*
X123085Y118614D01*
X129186Y124715D01*
X137814Y124715D01*
X143915Y118614D01*
X143915Y109986D01*
X137814Y103885D01*
X129186Y103885D01*
G37*
%LPD*%
%LPC*%
G36*
X306986Y103885D02*
X306986Y103885D01*
X300885Y109986D01*
X300885Y118614D01*
X306986Y124715D01*
X315614Y124715D01*
X321715Y118614D01*
X321715Y109986D01*
X315614Y103885D01*
X306986Y103885D01*
G37*
%LPD*%
%LPC*%
G36*
X484786Y357885D02*
X484786Y357885D01*
X478685Y363986D01*
X478685Y372614D01*
X484786Y378715D01*
X493414Y378715D01*
X499515Y372614D01*
X499515Y363986D01*
X493414Y357885D01*
X484786Y357885D01*
G37*
%LPD*%
%LPC*%
G36*
X662586Y357885D02*
X662586Y357885D01*
X656485Y363986D01*
X656485Y372614D01*
X662586Y378715D01*
X671214Y378715D01*
X677315Y372614D01*
X677315Y363986D01*
X671214Y357885D01*
X662586Y357885D01*
G37*
%LPD*%
%LPC*%
G36*
X484786Y382885D02*
X484786Y382885D01*
X478685Y388986D01*
X478685Y397614D01*
X484786Y403715D01*
X493414Y403715D01*
X499515Y397614D01*
X499515Y388986D01*
X493414Y382885D01*
X484786Y382885D01*
G37*
%LPD*%
%LPC*%
G36*
X662586Y382885D02*
X662586Y382885D01*
X656485Y388986D01*
X656485Y397614D01*
X662586Y403715D01*
X671214Y403715D01*
X677315Y397614D01*
X677315Y388986D01*
X671214Y382885D01*
X662586Y382885D01*
G37*
%LPD*%
%LPC*%
G36*
X662586Y128885D02*
X662586Y128885D01*
X656485Y134986D01*
X656485Y143614D01*
X662586Y149715D01*
X671214Y149715D01*
X677315Y143614D01*
X677315Y134986D01*
X671214Y128885D01*
X662586Y128885D01*
G37*
%LPD*%
%LPC*%
G36*
X484786Y128885D02*
X484786Y128885D01*
X478685Y134986D01*
X478685Y143614D01*
X484786Y149715D01*
X493414Y149715D01*
X499515Y143614D01*
X499515Y134986D01*
X493414Y128885D01*
X484786Y128885D01*
G37*
%LPD*%
%LPC*%
G36*
X306986Y128885D02*
X306986Y128885D01*
X300885Y134986D01*
X300885Y143614D01*
X306986Y149715D01*
X315614Y149715D01*
X321715Y143614D01*
X321715Y134986D01*
X315614Y128885D01*
X306986Y128885D01*
G37*
%LPD*%
%LPC*%
G36*
X129186Y128885D02*
X129186Y128885D01*
X123085Y134986D01*
X123085Y143614D01*
X129186Y149715D01*
X137814Y149715D01*
X143915Y143614D01*
X143915Y134986D01*
X137814Y128885D01*
X129186Y128885D01*
G37*
%LPD*%
%LPC*%
G36*
X880059Y419509D02*
X880059Y419509D01*
X880059Y424579D01*
X891940Y436460D01*
X891946Y436467D01*
X891953Y436472D01*
X892073Y436622D01*
X892195Y436771D01*
X892199Y436779D01*
X892205Y436786D01*
X892293Y436956D01*
X892384Y437127D01*
X892386Y437136D01*
X892390Y437143D01*
X892444Y437328D01*
X892499Y437513D01*
X892499Y437522D01*
X892502Y437530D01*
X892518Y437722D01*
X892534Y437904D01*
X892654Y437765D01*
X892783Y437615D01*
X892786Y437612D01*
X892789Y437608D01*
X892944Y437488D01*
X893100Y437366D01*
X893104Y437364D01*
X893107Y437362D01*
X893285Y437273D01*
X893459Y437186D01*
X893464Y437184D01*
X893468Y437182D01*
X893660Y437131D01*
X893848Y437079D01*
X893852Y437079D01*
X893857Y437078D01*
X894187Y437051D01*
X897601Y437051D01*
X897601Y419509D01*
X880059Y419509D01*
G37*
%LPD*%
%LPC*%
G36*
X905099Y419509D02*
X905099Y419509D01*
X905099Y437051D01*
X909213Y437051D01*
X909217Y437051D01*
X909222Y437051D01*
X909416Y437071D01*
X909613Y437091D01*
X909618Y437092D01*
X909622Y437092D01*
X909810Y437151D01*
X909998Y437209D01*
X910002Y437211D01*
X910007Y437212D01*
X910181Y437308D01*
X910249Y437345D01*
X910277Y437260D01*
X910337Y437078D01*
X910341Y437070D01*
X910344Y437062D01*
X910440Y436895D01*
X910535Y436727D01*
X910541Y436720D01*
X910545Y436713D01*
X910760Y436460D01*
X922641Y424579D01*
X922641Y419509D01*
X905099Y419509D01*
G37*
%LPD*%
%LPC*%
G36*
X905099Y165509D02*
X905099Y165509D01*
X905099Y183051D01*
X910169Y183051D01*
X922641Y170579D01*
X922641Y165509D01*
X905099Y165509D01*
G37*
%LPD*%
%LPC*%
G36*
X778099Y419509D02*
X778099Y419509D01*
X778099Y437051D01*
X783169Y437051D01*
X795641Y424579D01*
X795641Y419509D01*
X778099Y419509D01*
G37*
%LPD*%
%LPC*%
G36*
X778099Y165509D02*
X778099Y165509D01*
X778099Y183051D01*
X783169Y183051D01*
X795641Y170579D01*
X795641Y165509D01*
X778099Y165509D01*
G37*
%LPD*%
%LPC*%
G36*
X1032099Y165509D02*
X1032099Y165509D01*
X1032099Y183051D01*
X1037169Y183051D01*
X1049641Y170579D01*
X1049641Y165509D01*
X1032099Y165509D01*
G37*
%LPD*%
%LPC*%
G36*
X753059Y419509D02*
X753059Y419509D01*
X753059Y424579D01*
X765531Y437051D01*
X770601Y437051D01*
X770601Y419509D01*
X753059Y419509D01*
G37*
%LPD*%
%LPC*%
G36*
X880059Y165509D02*
X880059Y165509D01*
X880059Y170579D01*
X892531Y183051D01*
X897601Y183051D01*
X897601Y165509D01*
X880059Y165509D01*
G37*
%LPD*%
%LPC*%
G36*
X1007059Y165509D02*
X1007059Y165509D01*
X1007059Y170579D01*
X1019531Y183051D01*
X1024601Y183051D01*
X1024601Y165509D01*
X1007059Y165509D01*
G37*
%LPD*%
%LPC*%
G36*
X1007059Y419509D02*
X1007059Y419509D01*
X1007059Y424579D01*
X1019531Y437051D01*
X1024601Y437051D01*
X1024601Y419509D01*
X1007059Y419509D01*
G37*
%LPD*%
%LPC*%
G36*
X753059Y165509D02*
X753059Y165509D01*
X753059Y170579D01*
X765531Y183051D01*
X770601Y183051D01*
X770601Y165509D01*
X753059Y165509D01*
G37*
%LPD*%
%LPC*%
G36*
X905099Y140469D02*
X905099Y140469D01*
X905099Y158011D01*
X922641Y158011D01*
X922641Y152941D01*
X910169Y140469D01*
X905099Y140469D01*
G37*
%LPD*%
%LPC*%
G36*
X1032099Y394469D02*
X1032099Y394469D01*
X1032099Y412011D01*
X1049641Y412011D01*
X1049641Y406941D01*
X1037169Y394469D01*
X1032099Y394469D01*
G37*
%LPD*%
%LPC*%
G36*
X778099Y394469D02*
X778099Y394469D01*
X778099Y412011D01*
X795641Y412011D01*
X795641Y406941D01*
X783169Y394469D01*
X778099Y394469D01*
G37*
%LPD*%
%LPC*%
G36*
X1032099Y140469D02*
X1032099Y140469D01*
X1032099Y158011D01*
X1049641Y158011D01*
X1049641Y152941D01*
X1037169Y140469D01*
X1032099Y140469D01*
G37*
%LPD*%
%LPC*%
G36*
X778099Y140469D02*
X778099Y140469D01*
X778099Y158011D01*
X795641Y158011D01*
X795641Y152941D01*
X783169Y140469D01*
X778099Y140469D01*
G37*
%LPD*%
%LPC*%
G36*
X905099Y394469D02*
X905099Y394469D01*
X905099Y412011D01*
X922641Y412011D01*
X922641Y406941D01*
X910169Y394469D01*
X905099Y394469D01*
G37*
%LPD*%
%LPC*%
G36*
X892531Y394469D02*
X892531Y394469D01*
X880059Y406941D01*
X880059Y412011D01*
X897601Y412011D01*
X897601Y394469D01*
X892531Y394469D01*
G37*
%LPD*%
%LPC*%
G36*
X765531Y140469D02*
X765531Y140469D01*
X753059Y152941D01*
X753059Y158011D01*
X770601Y158011D01*
X770601Y140469D01*
X765531Y140469D01*
G37*
%LPD*%
%LPC*%
G36*
X765531Y394469D02*
X765531Y394469D01*
X753059Y406941D01*
X753059Y412011D01*
X770601Y412011D01*
X770601Y394469D01*
X765531Y394469D01*
G37*
%LPD*%
%LPC*%
G36*
X892531Y140469D02*
X892531Y140469D01*
X880059Y152941D01*
X880059Y158011D01*
X897601Y158011D01*
X897601Y140469D01*
X892531Y140469D01*
G37*
%LPD*%
%LPC*%
G36*
X1019531Y140469D02*
X1019531Y140469D01*
X1007059Y152941D01*
X1007059Y158011D01*
X1024601Y158011D01*
X1024601Y140469D01*
X1019531Y140469D01*
G37*
%LPD*%
%LPC*%
G36*
X1019531Y394469D02*
X1019531Y394469D01*
X1007059Y406941D01*
X1007059Y412011D01*
X1024601Y412011D01*
X1024601Y394469D01*
X1019531Y394469D01*
G37*
%LPD*%
%LPC*%
G36*
X891780Y44950D02*
X891780Y44950D01*
X891758Y45139D01*
X891755Y45148D01*
X891754Y45157D01*
X891693Y45340D01*
X891633Y45522D01*
X891629Y45530D01*
X891626Y45538D01*
X891530Y45705D01*
X891435Y45873D01*
X891429Y45880D01*
X891425Y45887D01*
X891210Y46140D01*
X879059Y58291D01*
X879059Y63047D01*
X896287Y63047D01*
X896287Y45819D01*
X893535Y45819D01*
X893531Y45819D01*
X893526Y45819D01*
X893333Y45799D01*
X893135Y45779D01*
X893130Y45778D01*
X893126Y45778D01*
X892940Y45720D01*
X892750Y45661D01*
X892746Y45659D01*
X892742Y45658D01*
X892570Y45564D01*
X892396Y45469D01*
X892392Y45467D01*
X892388Y45464D01*
X892237Y45337D01*
X892087Y45212D01*
X892084Y45208D01*
X892080Y45205D01*
X891957Y45051D01*
X891834Y44898D01*
X891832Y44894D01*
X891829Y44891D01*
X891796Y44825D01*
X891780Y44950D01*
G37*
%LPD*%
%LPC*%
G36*
X777413Y71173D02*
X777413Y71173D01*
X777413Y88401D01*
X782169Y88401D01*
X794641Y75929D01*
X794641Y71173D01*
X777413Y71173D01*
G37*
%LPD*%
%LPC*%
G36*
X1031413Y71173D02*
X1031413Y71173D01*
X1031413Y88401D01*
X1036169Y88401D01*
X1048641Y75929D01*
X1048641Y71173D01*
X1031413Y71173D01*
G37*
%LPD*%
%LPC*%
G36*
X904413Y71173D02*
X904413Y71173D01*
X904413Y88401D01*
X909169Y88401D01*
X921641Y75929D01*
X921641Y71173D01*
X904413Y71173D01*
G37*
%LPD*%
%LPC*%
G36*
X777413Y325173D02*
X777413Y325173D01*
X777413Y342401D01*
X782169Y342401D01*
X794641Y329929D01*
X794641Y325173D01*
X777413Y325173D01*
G37*
%LPD*%
%LPC*%
G36*
X904413Y325173D02*
X904413Y325173D01*
X904413Y342401D01*
X909169Y342401D01*
X921641Y329929D01*
X921641Y325173D01*
X904413Y325173D01*
G37*
%LPD*%
%LPC*%
G36*
X1031413Y325173D02*
X1031413Y325173D01*
X1031413Y342401D01*
X1036169Y342401D01*
X1048641Y329929D01*
X1048641Y325173D01*
X1031413Y325173D01*
G37*
%LPD*%
%LPC*%
G36*
X1006059Y71173D02*
X1006059Y71173D01*
X1006059Y75929D01*
X1018531Y88401D01*
X1023287Y88401D01*
X1023287Y71173D01*
X1006059Y71173D01*
G37*
%LPD*%
%LPC*%
G36*
X752059Y71173D02*
X752059Y71173D01*
X752059Y75929D01*
X764531Y88401D01*
X769287Y88401D01*
X769287Y71173D01*
X752059Y71173D01*
G37*
%LPD*%
%LPC*%
G36*
X879059Y325173D02*
X879059Y325173D01*
X879059Y329929D01*
X891531Y342401D01*
X896287Y342401D01*
X896287Y325173D01*
X879059Y325173D01*
G37*
%LPD*%
%LPC*%
G36*
X752059Y325173D02*
X752059Y325173D01*
X752059Y329929D01*
X764531Y342401D01*
X769287Y342401D01*
X769287Y325173D01*
X752059Y325173D01*
G37*
%LPD*%
%LPC*%
G36*
X879059Y71173D02*
X879059Y71173D01*
X879059Y75929D01*
X891531Y88401D01*
X896287Y88401D01*
X896287Y71173D01*
X879059Y71173D01*
G37*
%LPD*%
%LPC*%
G36*
X1006059Y325173D02*
X1006059Y325173D01*
X1006059Y329929D01*
X1018531Y342401D01*
X1023287Y342401D01*
X1023287Y325173D01*
X1006059Y325173D01*
G37*
%LPD*%
%LPC*%
G36*
X777413Y299819D02*
X777413Y299819D01*
X777413Y317047D01*
X794641Y317047D01*
X794641Y312291D01*
X782169Y299819D01*
X777413Y299819D01*
G37*
%LPD*%
%LPC*%
G36*
X904413Y299819D02*
X904413Y299819D01*
X904413Y317047D01*
X921641Y317047D01*
X921641Y312291D01*
X909169Y299819D01*
X904413Y299819D01*
G37*
%LPD*%
%LPC*%
G36*
X777413Y45819D02*
X777413Y45819D01*
X777413Y63047D01*
X794641Y63047D01*
X794641Y58291D01*
X782169Y45819D01*
X777413Y45819D01*
G37*
%LPD*%
%LPC*%
G36*
X1031413Y299819D02*
X1031413Y299819D01*
X1031413Y317047D01*
X1048641Y317047D01*
X1048641Y312291D01*
X1036169Y299819D01*
X1031413Y299819D01*
G37*
%LPD*%
%LPC*%
G36*
X904413Y45819D02*
X904413Y45819D01*
X904413Y63047D01*
X921641Y63047D01*
X921641Y58291D01*
X909169Y45819D01*
X904413Y45819D01*
G37*
%LPD*%
%LPC*%
G36*
X764531Y45819D02*
X764531Y45819D01*
X752059Y58291D01*
X752059Y63047D01*
X769287Y63047D01*
X769287Y45819D01*
X764531Y45819D01*
G37*
%LPD*%
%LPC*%
G36*
X1018531Y299819D02*
X1018531Y299819D01*
X1006059Y312291D01*
X1006059Y317047D01*
X1023287Y317047D01*
X1023287Y299819D01*
X1018531Y299819D01*
G37*
%LPD*%
%LPC*%
G36*
X764531Y299819D02*
X764531Y299819D01*
X752059Y312291D01*
X752059Y317047D01*
X769287Y317047D01*
X769287Y299819D01*
X764531Y299819D01*
G37*
%LPD*%
%LPC*%
G36*
X891531Y299819D02*
X891531Y299819D01*
X879059Y312291D01*
X879059Y317047D01*
X896287Y317047D01*
X896287Y299819D01*
X891531Y299819D01*
G37*
%LPD*%
%LPC*%
G36*
X1018531Y45819D02*
X1018531Y45819D01*
X1006059Y58291D01*
X1006059Y63047D01*
X1023287Y63047D01*
X1023287Y45819D01*
X1018531Y45819D01*
G37*
%LPD*%
%LPC*%
G36*
X910589Y256539D02*
X910589Y256539D01*
X910589Y264161D01*
X916470Y264161D01*
X918049Y263911D01*
X919570Y263416D01*
X920995Y262690D01*
X922289Y261750D01*
X923420Y260619D01*
X924360Y259325D01*
X925086Y257900D01*
X925529Y256539D01*
X910589Y256539D01*
G37*
%LPD*%
%LPC*%
G36*
X890571Y256539D02*
X890571Y256539D01*
X891014Y257900D01*
X891740Y259325D01*
X892680Y260619D01*
X893811Y261750D01*
X895105Y262690D01*
X896530Y263416D01*
X898051Y263911D01*
X899630Y264161D01*
X905511Y264161D01*
X905511Y256539D01*
X890571Y256539D01*
G37*
%LPD*%
%LPC*%
G36*
X910589Y243839D02*
X910589Y243839D01*
X910589Y251461D01*
X925529Y251461D01*
X925086Y250100D01*
X924360Y248675D01*
X923420Y247381D01*
X922289Y246250D01*
X920995Y245310D01*
X919570Y244584D01*
X918049Y244089D01*
X916470Y243839D01*
X910589Y243839D01*
G37*
%LPD*%
%LPC*%
G36*
X899630Y243839D02*
X899630Y243839D01*
X898051Y244089D01*
X896530Y244584D01*
X895105Y245310D01*
X893811Y246250D01*
X892680Y247381D01*
X891740Y248675D01*
X891014Y250100D01*
X890571Y251461D01*
X905511Y251461D01*
X905511Y243839D01*
X899630Y243839D01*
G37*
%LPD*%
%LPC*%
G36*
X1027349Y67109D02*
X1027349Y67109D01*
X1027349Y67111D01*
X1027351Y67111D01*
X1027351Y67109D01*
X1027349Y67109D01*
G37*
%LPD*%
%LPC*%
G36*
X773349Y67109D02*
X773349Y67109D01*
X773349Y67111D01*
X773351Y67111D01*
X773351Y67109D01*
X773349Y67109D01*
G37*
%LPD*%
%LPC*%
G36*
X1027349Y321109D02*
X1027349Y321109D01*
X1027349Y321111D01*
X1027351Y321111D01*
X1027351Y321109D01*
X1027349Y321109D01*
G37*
%LPD*%
%LPC*%
G36*
X773349Y321109D02*
X773349Y321109D01*
X773349Y321111D01*
X773351Y321111D01*
X773351Y321109D01*
X773349Y321109D01*
G37*
%LPD*%
%LPC*%
G36*
X900349Y321109D02*
X900349Y321109D01*
X900349Y321111D01*
X900351Y321111D01*
X900351Y321109D01*
X900349Y321109D01*
G37*
%LPD*%
%LPC*%
G36*
X900349Y67109D02*
X900349Y67109D01*
X900349Y67111D01*
X900351Y67111D01*
X900351Y67109D01*
X900349Y67109D01*
G37*
%LPD*%
D10*
X133500Y89300D03*
D11*
X133500Y114300D03*
X133500Y139300D03*
D12*
X63500Y159300D03*
X63500Y69300D03*
D10*
X311300Y89300D03*
D11*
X311300Y114300D03*
X311300Y139300D03*
D12*
X241300Y159300D03*
X241300Y69300D03*
D10*
X489100Y89300D03*
D11*
X489100Y114300D03*
X489100Y139300D03*
D12*
X419100Y159300D03*
X419100Y69300D03*
D10*
X666900Y89300D03*
D11*
X666900Y114300D03*
X666900Y139300D03*
D12*
X596900Y159300D03*
X596900Y69300D03*
D10*
X133500Y343300D03*
D11*
X133500Y368300D03*
X133500Y393300D03*
D12*
X63500Y413300D03*
X63500Y323300D03*
D10*
X311300Y343300D03*
D11*
X311300Y368300D03*
X311300Y393300D03*
D12*
X241300Y413300D03*
X241300Y323300D03*
D10*
X489100Y343300D03*
D11*
X489100Y368300D03*
X489100Y393300D03*
D12*
X419100Y413300D03*
X419100Y323300D03*
D10*
X666900Y343300D03*
D11*
X666900Y368300D03*
X666900Y393300D03*
D12*
X596900Y413300D03*
X596900Y323300D03*
D13*
X773350Y67110D03*
X774350Y161760D03*
D14*
X801350Y114300D03*
X720890Y114300D03*
D13*
X900350Y67110D03*
X901350Y161760D03*
D14*
X928350Y114300D03*
X847890Y114300D03*
D13*
X1027350Y67110D03*
X1028350Y161760D03*
D14*
X1055350Y114300D03*
X974890Y114300D03*
D13*
X773350Y321110D03*
X774350Y415760D03*
D14*
X801350Y368300D03*
X720890Y368300D03*
D13*
X900350Y321110D03*
X901350Y415760D03*
D14*
X928350Y368300D03*
X847890Y368300D03*
D13*
X1027350Y321110D03*
X1028350Y415760D03*
D14*
X1055350Y368300D03*
X974890Y368300D03*
D15*
X533400Y33020D02*
X533400Y17780D01*
X508000Y17780D02*
X508000Y33020D01*
X482600Y33020D02*
X482600Y17780D01*
X457200Y17780D02*
X457200Y33020D01*
X431800Y33020D02*
X431800Y17780D01*
X406400Y17780D02*
X406400Y33020D01*
X139700Y33020D02*
X139700Y17780D01*
X114300Y17780D02*
X114300Y33020D01*
X88900Y33020D02*
X88900Y17780D01*
X889000Y17780D02*
X889000Y33020D01*
X914400Y33020D02*
X914400Y17780D01*
X406400Y449580D02*
X406400Y464820D01*
X431800Y464820D02*
X431800Y449580D01*
X457200Y449580D02*
X457200Y464820D01*
X482600Y464820D02*
X482600Y449580D01*
X508000Y449580D02*
X508000Y464820D01*
X533400Y464820D02*
X533400Y449580D01*
X914400Y449580D02*
X914400Y464820D01*
X889000Y464820D02*
X889000Y449580D01*
X88900Y449580D02*
X88900Y464820D01*
X114300Y464820D02*
X114300Y449580D01*
X139700Y449580D02*
X139700Y464820D01*
X900430Y254000D02*
X915670Y254000D01*
X915670Y228600D02*
X900430Y228600D01*
D16*
X515154Y89300D02*
X489100Y89300D01*
X515154Y89300D02*
X533400Y71054D01*
X533400Y25400D01*
X406400Y25400D02*
X400050Y25400D01*
X387350Y38100D01*
X387350Y115390D01*
X405311Y133350D01*
X457200Y133350D01*
X476250Y114300D01*
X489100Y114300D01*
X88900Y189160D02*
X88900Y25400D01*
X88900Y189160D02*
X134691Y234950D01*
X796443Y234950D01*
X847890Y183503D01*
X847890Y114300D01*
X133500Y368300D02*
X133500Y393300D01*
X133350Y393300D01*
X133350Y393700D01*
X153490Y393700D01*
X171450Y375740D01*
X171450Y311932D01*
X197632Y285750D01*
X481818Y285750D01*
X508000Y311932D01*
X508000Y457200D01*
X311300Y393300D02*
X311300Y368300D01*
X311300Y393300D02*
X311150Y393300D01*
X311150Y381000D01*
X431800Y380600D01*
X463550Y412750D01*
X482600Y431800D01*
X482600Y457200D01*
X844550Y368300D02*
X847890Y368300D01*
X844550Y368300D02*
X844550Y313211D01*
X798039Y266700D01*
X154179Y266700D01*
X107950Y312929D01*
X107950Y412750D01*
X139700Y444500D01*
X139700Y457200D01*
X114300Y457200D02*
X114300Y444500D01*
X95250Y425450D01*
X95250Y308254D01*
X149504Y254000D01*
X863600Y254000D01*
X895350Y285750D01*
X950273Y285750D01*
X974890Y310368D01*
X974890Y368300D01*
D17*
X63500Y241300D03*
X292100Y444500D03*
X304800Y31750D03*
X685800Y31750D03*
X679450Y444500D03*
X711200Y292100D03*
X1009650Y260350D03*
X393700Y222250D03*
M02*
