G04 EAGLE Gerber RS-274X export*
G75*
%MOMM*%
%FSLAX34Y34*%
%LPD*%
%INSilkscreen Top*%
%IPPOS*%
%AMOC8*
5,1,8,0,0,1.08239X$1,22.5*%
G01*
%ADD10C,0.203200*%
%ADD11C,0.076200*%
%ADD12C,0.050800*%
%ADD13C,0.127000*%
%ADD14C,0.152400*%


D10*
X143608Y255456D02*
X139710Y259354D01*
X131914Y259354D01*
X128016Y255456D01*
X128016Y251558D01*
X131914Y247660D01*
X139710Y247660D01*
X143608Y243762D01*
X143608Y239864D01*
X139710Y235966D01*
X131914Y235966D01*
X128016Y239864D01*
X163098Y259354D02*
X166996Y255456D01*
X163098Y259354D02*
X155302Y259354D01*
X151404Y255456D01*
X151404Y239864D01*
X155302Y235966D01*
X163098Y235966D01*
X166996Y239864D01*
X174792Y235966D02*
X174792Y259354D01*
X182588Y251558D01*
X190384Y259354D01*
X190384Y235966D01*
X221568Y251558D02*
X229364Y259354D01*
X229364Y235966D01*
X221568Y235966D02*
X237160Y235966D01*
X256650Y235966D02*
X256650Y259354D01*
X244956Y247660D01*
X260548Y247660D01*
X268344Y239864D02*
X268344Y255456D01*
X272242Y259354D01*
X280038Y259354D01*
X283936Y255456D01*
X283936Y239864D01*
X280038Y235966D01*
X272242Y235966D01*
X268344Y239864D01*
X283936Y255456D01*
X315120Y251558D02*
X315120Y235966D01*
X315120Y251558D02*
X322916Y259354D01*
X330712Y251558D01*
X330712Y235966D01*
X330712Y247660D02*
X315120Y247660D01*
X338508Y259354D02*
X338508Y235966D01*
X350202Y235966D01*
X354100Y239864D01*
X354100Y255456D01*
X350202Y259354D01*
X338508Y259354D01*
X373590Y259354D02*
X377488Y255456D01*
X373590Y259354D02*
X365794Y259354D01*
X361896Y255456D01*
X361896Y251558D01*
X365794Y247660D01*
X373590Y247660D01*
X377488Y243762D01*
X377488Y239864D01*
X373590Y235966D01*
X365794Y235966D01*
X361896Y239864D01*
X385284Y235966D02*
X385284Y259354D01*
X396978Y259354D01*
X400876Y255456D01*
X400876Y247660D01*
X396978Y243762D01*
X385284Y243762D01*
X393080Y243762D02*
X400876Y235966D01*
X432060Y247660D02*
X447652Y247660D01*
X478836Y235966D02*
X486632Y235966D01*
X482734Y235966D02*
X482734Y259354D01*
X478836Y259354D02*
X486632Y259354D01*
X498325Y259354D02*
X506121Y259354D01*
X498325Y259354D02*
X494428Y255456D01*
X494428Y239864D01*
X498325Y235966D01*
X506121Y235966D01*
X510019Y239864D01*
X510019Y255456D01*
X506121Y259354D01*
X541203Y259354D02*
X541203Y235966D01*
X541203Y259354D02*
X552897Y259354D01*
X556795Y255456D01*
X556795Y251558D01*
X552897Y247660D01*
X556795Y243762D01*
X556795Y239864D01*
X552897Y235966D01*
X541203Y235966D01*
X541203Y247660D02*
X552897Y247660D01*
X568489Y259354D02*
X576285Y259354D01*
X568489Y259354D02*
X564591Y255456D01*
X564591Y239864D01*
X568489Y235966D01*
X576285Y235966D01*
X580183Y239864D01*
X580183Y255456D01*
X576285Y259354D01*
X587979Y251558D02*
X587979Y235966D01*
X587979Y251558D02*
X595775Y259354D01*
X603571Y251558D01*
X603571Y235966D01*
X603571Y247660D02*
X587979Y247660D01*
X611367Y235966D02*
X611367Y259354D01*
X623061Y259354D01*
X626959Y255456D01*
X626959Y247660D01*
X623061Y243762D01*
X611367Y243762D01*
X619163Y243762D02*
X626959Y235966D01*
X634755Y235966D02*
X634755Y259354D01*
X634755Y235966D02*
X646449Y235966D01*
X650347Y239864D01*
X650347Y255456D01*
X646449Y259354D01*
X634755Y259354D01*
D11*
X127381Y225687D02*
X127381Y216281D01*
X127381Y225687D02*
X132084Y225687D01*
X133652Y224119D01*
X133652Y222552D01*
X132084Y220984D01*
X133652Y219416D01*
X133652Y217849D01*
X132084Y216281D01*
X127381Y216281D01*
X127381Y220984D02*
X132084Y220984D01*
X136736Y224119D02*
X136736Y225687D01*
X136736Y224119D02*
X139872Y220984D01*
X143007Y224119D01*
X143007Y225687D01*
X139872Y220984D02*
X139872Y216281D01*
X160150Y225687D02*
X161717Y224119D01*
X160150Y225687D02*
X157014Y225687D01*
X155447Y224119D01*
X155447Y217849D01*
X157014Y216281D01*
X160150Y216281D01*
X161717Y217849D01*
X161717Y220984D01*
X158582Y220984D01*
X164802Y225687D02*
X171072Y225687D01*
X164802Y225687D02*
X164802Y216281D01*
X171072Y216281D01*
X167937Y220984D02*
X164802Y220984D01*
X174157Y216281D02*
X174157Y225687D01*
X178860Y225687D01*
X180428Y224119D01*
X180428Y220984D01*
X178860Y219416D01*
X174157Y219416D01*
X177292Y219416D02*
X180428Y216281D01*
X183512Y216281D02*
X183512Y225687D01*
X188215Y225687D01*
X189783Y224119D01*
X189783Y222552D01*
X188215Y220984D01*
X189783Y219416D01*
X189783Y217849D01*
X188215Y216281D01*
X183512Y216281D01*
X183512Y220984D02*
X188215Y220984D01*
X197570Y225687D02*
X199138Y224119D01*
X197570Y225687D02*
X194435Y225687D01*
X192867Y224119D01*
X192867Y222552D01*
X194435Y220984D01*
X197570Y220984D01*
X199138Y219416D01*
X199138Y217849D01*
X197570Y216281D01*
X194435Y216281D01*
X192867Y217849D01*
X205358Y216281D02*
X205358Y225687D01*
X202223Y225687D02*
X208493Y225687D01*
X211578Y225687D02*
X217848Y225687D01*
X211578Y225687D02*
X211578Y216281D01*
X217848Y216281D01*
X214713Y220984D02*
X211578Y220984D01*
X220933Y216281D02*
X220933Y225687D01*
X225636Y225687D01*
X227204Y224119D01*
X227204Y220984D01*
X225636Y219416D01*
X220933Y219416D01*
X224068Y219416D02*
X227204Y216281D01*
X230288Y216281D02*
X230288Y217849D01*
X231856Y217849D01*
X231856Y216281D01*
X230288Y216281D01*
X234966Y216281D02*
X234966Y225687D01*
X241236Y216281D01*
X241236Y225687D01*
X244321Y225687D02*
X244321Y216281D01*
X250592Y216281D01*
X263031Y220984D02*
X269302Y220984D01*
X281742Y219416D02*
X281742Y225687D01*
X281742Y219416D02*
X284877Y216281D01*
X288012Y219416D01*
X288012Y225687D01*
X291097Y225687D02*
X297367Y225687D01*
X291097Y225687D02*
X291097Y216281D01*
X297367Y216281D01*
X294232Y220984D02*
X291097Y220984D01*
X300452Y216281D02*
X300452Y225687D01*
X305155Y225687D01*
X306723Y224119D01*
X306723Y220984D01*
X305155Y219416D01*
X300452Y219416D01*
X303587Y219416D02*
X306723Y216281D01*
X316078Y224119D02*
X314510Y225687D01*
X311375Y225687D01*
X309807Y224119D01*
X309807Y222552D01*
X311375Y220984D01*
X314510Y220984D01*
X316078Y219416D01*
X316078Y217849D01*
X314510Y216281D01*
X311375Y216281D01*
X309807Y217849D01*
X319162Y216281D02*
X322298Y216281D01*
X320730Y216281D02*
X320730Y225687D01*
X319162Y225687D02*
X322298Y225687D01*
X326967Y225687D02*
X330102Y225687D01*
X326967Y225687D02*
X325399Y224119D01*
X325399Y217849D01*
X326967Y216281D01*
X330102Y216281D01*
X331670Y217849D01*
X331670Y224119D01*
X330102Y225687D01*
X334754Y225687D02*
X334754Y216281D01*
X341025Y216281D02*
X334754Y225687D01*
X341025Y225687D02*
X341025Y216281D01*
X353465Y222552D02*
X356600Y225687D01*
X356600Y216281D01*
X353465Y216281D02*
X359735Y216281D01*
X362820Y216281D02*
X362820Y217849D01*
X364388Y217849D01*
X364388Y216281D01*
X362820Y216281D01*
X367497Y217849D02*
X367497Y224119D01*
X369065Y225687D01*
X372200Y225687D01*
X373768Y224119D01*
X373768Y217849D01*
X372200Y216281D01*
X369065Y216281D01*
X367497Y217849D01*
X373768Y224119D01*
D12*
X49530Y114300D02*
X49534Y114643D01*
X49547Y114985D01*
X49568Y115328D01*
X49597Y115669D01*
X49635Y116010D01*
X49681Y116350D01*
X49736Y116688D01*
X49798Y117025D01*
X49869Y117361D01*
X49949Y117694D01*
X50036Y118026D01*
X50132Y118355D01*
X50235Y118682D01*
X50347Y119006D01*
X50466Y119328D01*
X50593Y119646D01*
X50728Y119961D01*
X50871Y120273D01*
X51022Y120581D01*
X51180Y120885D01*
X51345Y121186D01*
X51518Y121482D01*
X51697Y121774D01*
X51884Y122061D01*
X52078Y122344D01*
X52279Y122622D01*
X52487Y122895D01*
X52701Y123162D01*
X52922Y123425D01*
X53149Y123682D01*
X53382Y123933D01*
X53622Y124178D01*
X53867Y124418D01*
X54118Y124651D01*
X54375Y124878D01*
X54638Y125099D01*
X54905Y125313D01*
X55178Y125521D01*
X55456Y125722D01*
X55739Y125916D01*
X56026Y126103D01*
X56318Y126282D01*
X56614Y126455D01*
X56915Y126620D01*
X57219Y126778D01*
X57527Y126929D01*
X57839Y127072D01*
X58154Y127207D01*
X58472Y127334D01*
X58794Y127453D01*
X59118Y127565D01*
X59445Y127668D01*
X59774Y127764D01*
X60106Y127851D01*
X60439Y127931D01*
X60775Y128002D01*
X61112Y128064D01*
X61450Y128119D01*
X61790Y128165D01*
X62131Y128203D01*
X62472Y128232D01*
X62815Y128253D01*
X63157Y128266D01*
X63500Y128270D01*
X63843Y128266D01*
X64185Y128253D01*
X64528Y128232D01*
X64869Y128203D01*
X65210Y128165D01*
X65550Y128119D01*
X65888Y128064D01*
X66225Y128002D01*
X66561Y127931D01*
X66894Y127851D01*
X67226Y127764D01*
X67555Y127668D01*
X67882Y127565D01*
X68206Y127453D01*
X68528Y127334D01*
X68846Y127207D01*
X69161Y127072D01*
X69473Y126929D01*
X69781Y126778D01*
X70085Y126620D01*
X70386Y126455D01*
X70682Y126282D01*
X70974Y126103D01*
X71261Y125916D01*
X71544Y125722D01*
X71822Y125521D01*
X72095Y125313D01*
X72362Y125099D01*
X72625Y124878D01*
X72882Y124651D01*
X73133Y124418D01*
X73378Y124178D01*
X73618Y123933D01*
X73851Y123682D01*
X74078Y123425D01*
X74299Y123162D01*
X74513Y122895D01*
X74721Y122622D01*
X74922Y122344D01*
X75116Y122061D01*
X75303Y121774D01*
X75482Y121482D01*
X75655Y121186D01*
X75820Y120885D01*
X75978Y120581D01*
X76129Y120273D01*
X76272Y119961D01*
X76407Y119646D01*
X76534Y119328D01*
X76653Y119006D01*
X76765Y118682D01*
X76868Y118355D01*
X76964Y118026D01*
X77051Y117694D01*
X77131Y117361D01*
X77202Y117025D01*
X77264Y116688D01*
X77319Y116350D01*
X77365Y116010D01*
X77403Y115669D01*
X77432Y115328D01*
X77453Y114985D01*
X77466Y114643D01*
X77470Y114300D01*
X77466Y113957D01*
X77453Y113615D01*
X77432Y113272D01*
X77403Y112931D01*
X77365Y112590D01*
X77319Y112250D01*
X77264Y111912D01*
X77202Y111575D01*
X77131Y111239D01*
X77051Y110906D01*
X76964Y110574D01*
X76868Y110245D01*
X76765Y109918D01*
X76653Y109594D01*
X76534Y109272D01*
X76407Y108954D01*
X76272Y108639D01*
X76129Y108327D01*
X75978Y108019D01*
X75820Y107715D01*
X75655Y107414D01*
X75482Y107118D01*
X75303Y106826D01*
X75116Y106539D01*
X74922Y106256D01*
X74721Y105978D01*
X74513Y105705D01*
X74299Y105438D01*
X74078Y105175D01*
X73851Y104918D01*
X73618Y104667D01*
X73378Y104422D01*
X73133Y104182D01*
X72882Y103949D01*
X72625Y103722D01*
X72362Y103501D01*
X72095Y103287D01*
X71822Y103079D01*
X71544Y102878D01*
X71261Y102684D01*
X70974Y102497D01*
X70682Y102318D01*
X70386Y102145D01*
X70085Y101980D01*
X69781Y101822D01*
X69473Y101671D01*
X69161Y101528D01*
X68846Y101393D01*
X68528Y101266D01*
X68206Y101147D01*
X67882Y101035D01*
X67555Y100932D01*
X67226Y100836D01*
X66894Y100749D01*
X66561Y100669D01*
X66225Y100598D01*
X65888Y100536D01*
X65550Y100481D01*
X65210Y100435D01*
X64869Y100397D01*
X64528Y100368D01*
X64185Y100347D01*
X63843Y100334D01*
X63500Y100330D01*
X63157Y100334D01*
X62815Y100347D01*
X62472Y100368D01*
X62131Y100397D01*
X61790Y100435D01*
X61450Y100481D01*
X61112Y100536D01*
X60775Y100598D01*
X60439Y100669D01*
X60106Y100749D01*
X59774Y100836D01*
X59445Y100932D01*
X59118Y101035D01*
X58794Y101147D01*
X58472Y101266D01*
X58154Y101393D01*
X57839Y101528D01*
X57527Y101671D01*
X57219Y101822D01*
X56915Y101980D01*
X56614Y102145D01*
X56318Y102318D01*
X56026Y102497D01*
X55739Y102684D01*
X55456Y102878D01*
X55178Y103079D01*
X54905Y103287D01*
X54638Y103501D01*
X54375Y103722D01*
X54118Y103949D01*
X53867Y104182D01*
X53622Y104422D01*
X53382Y104667D01*
X53149Y104918D01*
X52922Y105175D01*
X52701Y105438D01*
X52487Y105705D01*
X52279Y105978D01*
X52078Y106256D01*
X51884Y106539D01*
X51697Y106826D01*
X51518Y107118D01*
X51345Y107414D01*
X51180Y107715D01*
X51022Y108019D01*
X50871Y108327D01*
X50728Y108639D01*
X50593Y108954D01*
X50466Y109272D01*
X50347Y109594D01*
X50235Y109918D01*
X50132Y110245D01*
X50036Y110574D01*
X49949Y110906D01*
X49869Y111239D01*
X49798Y111575D01*
X49736Y111912D01*
X49681Y112250D01*
X49635Y112590D01*
X49597Y112931D01*
X49568Y113272D01*
X49547Y113615D01*
X49534Y113957D01*
X49530Y114300D01*
X53340Y114300D02*
X53343Y114549D01*
X53352Y114799D01*
X53368Y115047D01*
X53389Y115296D01*
X53416Y115544D01*
X53450Y115791D01*
X53490Y116037D01*
X53535Y116282D01*
X53587Y116526D01*
X53644Y116769D01*
X53708Y117010D01*
X53777Y117249D01*
X53853Y117487D01*
X53934Y117723D01*
X54021Y117957D01*
X54113Y118188D01*
X54212Y118417D01*
X54315Y118644D01*
X54425Y118868D01*
X54540Y119089D01*
X54660Y119308D01*
X54785Y119523D01*
X54916Y119736D01*
X55052Y119945D01*
X55193Y120150D01*
X55339Y120352D01*
X55490Y120551D01*
X55646Y120745D01*
X55807Y120936D01*
X55972Y121123D01*
X56142Y121306D01*
X56316Y121484D01*
X56494Y121658D01*
X56677Y121828D01*
X56864Y121993D01*
X57055Y122154D01*
X57249Y122310D01*
X57448Y122461D01*
X57650Y122607D01*
X57855Y122748D01*
X58064Y122884D01*
X58277Y123015D01*
X58492Y123140D01*
X58711Y123260D01*
X58932Y123375D01*
X59156Y123485D01*
X59383Y123588D01*
X59612Y123687D01*
X59843Y123779D01*
X60077Y123866D01*
X60313Y123947D01*
X60551Y124023D01*
X60790Y124092D01*
X61031Y124156D01*
X61274Y124213D01*
X61518Y124265D01*
X61763Y124310D01*
X62009Y124350D01*
X62256Y124384D01*
X62504Y124411D01*
X62753Y124432D01*
X63001Y124448D01*
X63251Y124457D01*
X63500Y124460D01*
X63749Y124457D01*
X63999Y124448D01*
X64247Y124432D01*
X64496Y124411D01*
X64744Y124384D01*
X64991Y124350D01*
X65237Y124310D01*
X65482Y124265D01*
X65726Y124213D01*
X65969Y124156D01*
X66210Y124092D01*
X66449Y124023D01*
X66687Y123947D01*
X66923Y123866D01*
X67157Y123779D01*
X67388Y123687D01*
X67617Y123588D01*
X67844Y123485D01*
X68068Y123375D01*
X68289Y123260D01*
X68508Y123140D01*
X68723Y123015D01*
X68936Y122884D01*
X69145Y122748D01*
X69350Y122607D01*
X69552Y122461D01*
X69751Y122310D01*
X69945Y122154D01*
X70136Y121993D01*
X70323Y121828D01*
X70506Y121658D01*
X70684Y121484D01*
X70858Y121306D01*
X71028Y121123D01*
X71193Y120936D01*
X71354Y120745D01*
X71510Y120551D01*
X71661Y120352D01*
X71807Y120150D01*
X71948Y119945D01*
X72084Y119736D01*
X72215Y119523D01*
X72340Y119308D01*
X72460Y119089D01*
X72575Y118868D01*
X72685Y118644D01*
X72788Y118417D01*
X72887Y118188D01*
X72979Y117957D01*
X73066Y117723D01*
X73147Y117487D01*
X73223Y117249D01*
X73292Y117010D01*
X73356Y116769D01*
X73413Y116526D01*
X73465Y116282D01*
X73510Y116037D01*
X73550Y115791D01*
X73584Y115544D01*
X73611Y115296D01*
X73632Y115047D01*
X73648Y114799D01*
X73657Y114549D01*
X73660Y114300D01*
X73657Y114051D01*
X73648Y113801D01*
X73632Y113553D01*
X73611Y113304D01*
X73584Y113056D01*
X73550Y112809D01*
X73510Y112563D01*
X73465Y112318D01*
X73413Y112074D01*
X73356Y111831D01*
X73292Y111590D01*
X73223Y111351D01*
X73147Y111113D01*
X73066Y110877D01*
X72979Y110643D01*
X72887Y110412D01*
X72788Y110183D01*
X72685Y109956D01*
X72575Y109732D01*
X72460Y109511D01*
X72340Y109292D01*
X72215Y109077D01*
X72084Y108864D01*
X71948Y108655D01*
X71807Y108450D01*
X71661Y108248D01*
X71510Y108049D01*
X71354Y107855D01*
X71193Y107664D01*
X71028Y107477D01*
X70858Y107294D01*
X70684Y107116D01*
X70506Y106942D01*
X70323Y106772D01*
X70136Y106607D01*
X69945Y106446D01*
X69751Y106290D01*
X69552Y106139D01*
X69350Y105993D01*
X69145Y105852D01*
X68936Y105716D01*
X68723Y105585D01*
X68508Y105460D01*
X68289Y105340D01*
X68068Y105225D01*
X67844Y105115D01*
X67617Y105012D01*
X67388Y104913D01*
X67157Y104821D01*
X66923Y104734D01*
X66687Y104653D01*
X66449Y104577D01*
X66210Y104508D01*
X65969Y104444D01*
X65726Y104387D01*
X65482Y104335D01*
X65237Y104290D01*
X64991Y104250D01*
X64744Y104216D01*
X64496Y104189D01*
X64247Y104168D01*
X63999Y104152D01*
X63749Y104143D01*
X63500Y104140D01*
X63251Y104143D01*
X63001Y104152D01*
X62753Y104168D01*
X62504Y104189D01*
X62256Y104216D01*
X62009Y104250D01*
X61763Y104290D01*
X61518Y104335D01*
X61274Y104387D01*
X61031Y104444D01*
X60790Y104508D01*
X60551Y104577D01*
X60313Y104653D01*
X60077Y104734D01*
X59843Y104821D01*
X59612Y104913D01*
X59383Y105012D01*
X59156Y105115D01*
X58932Y105225D01*
X58711Y105340D01*
X58492Y105460D01*
X58277Y105585D01*
X58064Y105716D01*
X57855Y105852D01*
X57650Y105993D01*
X57448Y106139D01*
X57249Y106290D01*
X57055Y106446D01*
X56864Y106607D01*
X56677Y106772D01*
X56494Y106942D01*
X56316Y107116D01*
X56142Y107294D01*
X55972Y107477D01*
X55807Y107664D01*
X55646Y107855D01*
X55490Y108049D01*
X55339Y108248D01*
X55193Y108450D01*
X55052Y108655D01*
X54916Y108864D01*
X54785Y109077D01*
X54660Y109292D01*
X54540Y109511D01*
X54425Y109732D01*
X54315Y109956D01*
X54212Y110183D01*
X54113Y110412D01*
X54021Y110643D01*
X53934Y110877D01*
X53853Y111113D01*
X53777Y111351D01*
X53708Y111590D01*
X53644Y111831D01*
X53587Y112074D01*
X53535Y112318D01*
X53490Y112563D01*
X53450Y112809D01*
X53416Y113056D01*
X53389Y113304D01*
X53368Y113553D01*
X53352Y113801D01*
X53343Y114051D01*
X53340Y114300D01*
D10*
X9500Y73300D02*
X9500Y155300D01*
X122500Y155300D02*
X122500Y73300D01*
X15000Y73300D02*
X15000Y67800D01*
X15000Y73300D02*
X9500Y73300D01*
X117000Y73300D02*
X122500Y73300D01*
X117000Y73300D02*
X117000Y67800D01*
X117000Y155300D02*
X117000Y160800D01*
X117000Y155300D02*
X122500Y155300D01*
X15000Y155300D02*
X9500Y155300D01*
X15000Y155300D02*
X15000Y160800D01*
X15000Y67800D02*
X37000Y67800D01*
X85000Y67800D02*
X117000Y67800D01*
X37000Y160800D02*
X15000Y160800D01*
X85000Y160800D02*
X117000Y160800D01*
D11*
X37719Y76581D02*
X31109Y76581D01*
X27805Y79886D01*
X31109Y83191D01*
X37719Y83191D01*
X32762Y83191D02*
X32762Y76581D01*
X37719Y89709D02*
X27805Y89709D01*
X27805Y86404D02*
X27805Y93014D01*
X27805Y99532D02*
X37719Y99532D01*
X27805Y96227D02*
X27805Y102837D01*
X31109Y106050D02*
X37719Y106050D01*
X31109Y106050D02*
X27805Y109355D01*
X31109Y112659D01*
X37719Y112659D01*
X32762Y112659D02*
X32762Y106050D01*
X27805Y120830D02*
X29457Y122482D01*
X27805Y120830D02*
X27805Y117525D01*
X29457Y115873D01*
X36067Y115873D01*
X37719Y117525D01*
X37719Y120830D01*
X36067Y122482D01*
X37719Y125696D02*
X27805Y125696D01*
X34414Y125696D02*
X27805Y132305D01*
X32762Y127348D02*
X37719Y132305D01*
X32762Y135519D02*
X32762Y142128D01*
X31109Y145342D02*
X27805Y148646D01*
X37719Y148646D01*
X37719Y145342D02*
X37719Y151951D01*
D12*
X227330Y114300D02*
X227334Y114643D01*
X227347Y114985D01*
X227368Y115328D01*
X227397Y115669D01*
X227435Y116010D01*
X227481Y116350D01*
X227536Y116688D01*
X227598Y117025D01*
X227669Y117361D01*
X227749Y117694D01*
X227836Y118026D01*
X227932Y118355D01*
X228035Y118682D01*
X228147Y119006D01*
X228266Y119328D01*
X228393Y119646D01*
X228528Y119961D01*
X228671Y120273D01*
X228822Y120581D01*
X228980Y120885D01*
X229145Y121186D01*
X229318Y121482D01*
X229497Y121774D01*
X229684Y122061D01*
X229878Y122344D01*
X230079Y122622D01*
X230287Y122895D01*
X230501Y123162D01*
X230722Y123425D01*
X230949Y123682D01*
X231182Y123933D01*
X231422Y124178D01*
X231667Y124418D01*
X231918Y124651D01*
X232175Y124878D01*
X232438Y125099D01*
X232705Y125313D01*
X232978Y125521D01*
X233256Y125722D01*
X233539Y125916D01*
X233826Y126103D01*
X234118Y126282D01*
X234414Y126455D01*
X234715Y126620D01*
X235019Y126778D01*
X235327Y126929D01*
X235639Y127072D01*
X235954Y127207D01*
X236272Y127334D01*
X236594Y127453D01*
X236918Y127565D01*
X237245Y127668D01*
X237574Y127764D01*
X237906Y127851D01*
X238239Y127931D01*
X238575Y128002D01*
X238912Y128064D01*
X239250Y128119D01*
X239590Y128165D01*
X239931Y128203D01*
X240272Y128232D01*
X240615Y128253D01*
X240957Y128266D01*
X241300Y128270D01*
X241643Y128266D01*
X241985Y128253D01*
X242328Y128232D01*
X242669Y128203D01*
X243010Y128165D01*
X243350Y128119D01*
X243688Y128064D01*
X244025Y128002D01*
X244361Y127931D01*
X244694Y127851D01*
X245026Y127764D01*
X245355Y127668D01*
X245682Y127565D01*
X246006Y127453D01*
X246328Y127334D01*
X246646Y127207D01*
X246961Y127072D01*
X247273Y126929D01*
X247581Y126778D01*
X247885Y126620D01*
X248186Y126455D01*
X248482Y126282D01*
X248774Y126103D01*
X249061Y125916D01*
X249344Y125722D01*
X249622Y125521D01*
X249895Y125313D01*
X250162Y125099D01*
X250425Y124878D01*
X250682Y124651D01*
X250933Y124418D01*
X251178Y124178D01*
X251418Y123933D01*
X251651Y123682D01*
X251878Y123425D01*
X252099Y123162D01*
X252313Y122895D01*
X252521Y122622D01*
X252722Y122344D01*
X252916Y122061D01*
X253103Y121774D01*
X253282Y121482D01*
X253455Y121186D01*
X253620Y120885D01*
X253778Y120581D01*
X253929Y120273D01*
X254072Y119961D01*
X254207Y119646D01*
X254334Y119328D01*
X254453Y119006D01*
X254565Y118682D01*
X254668Y118355D01*
X254764Y118026D01*
X254851Y117694D01*
X254931Y117361D01*
X255002Y117025D01*
X255064Y116688D01*
X255119Y116350D01*
X255165Y116010D01*
X255203Y115669D01*
X255232Y115328D01*
X255253Y114985D01*
X255266Y114643D01*
X255270Y114300D01*
X255266Y113957D01*
X255253Y113615D01*
X255232Y113272D01*
X255203Y112931D01*
X255165Y112590D01*
X255119Y112250D01*
X255064Y111912D01*
X255002Y111575D01*
X254931Y111239D01*
X254851Y110906D01*
X254764Y110574D01*
X254668Y110245D01*
X254565Y109918D01*
X254453Y109594D01*
X254334Y109272D01*
X254207Y108954D01*
X254072Y108639D01*
X253929Y108327D01*
X253778Y108019D01*
X253620Y107715D01*
X253455Y107414D01*
X253282Y107118D01*
X253103Y106826D01*
X252916Y106539D01*
X252722Y106256D01*
X252521Y105978D01*
X252313Y105705D01*
X252099Y105438D01*
X251878Y105175D01*
X251651Y104918D01*
X251418Y104667D01*
X251178Y104422D01*
X250933Y104182D01*
X250682Y103949D01*
X250425Y103722D01*
X250162Y103501D01*
X249895Y103287D01*
X249622Y103079D01*
X249344Y102878D01*
X249061Y102684D01*
X248774Y102497D01*
X248482Y102318D01*
X248186Y102145D01*
X247885Y101980D01*
X247581Y101822D01*
X247273Y101671D01*
X246961Y101528D01*
X246646Y101393D01*
X246328Y101266D01*
X246006Y101147D01*
X245682Y101035D01*
X245355Y100932D01*
X245026Y100836D01*
X244694Y100749D01*
X244361Y100669D01*
X244025Y100598D01*
X243688Y100536D01*
X243350Y100481D01*
X243010Y100435D01*
X242669Y100397D01*
X242328Y100368D01*
X241985Y100347D01*
X241643Y100334D01*
X241300Y100330D01*
X240957Y100334D01*
X240615Y100347D01*
X240272Y100368D01*
X239931Y100397D01*
X239590Y100435D01*
X239250Y100481D01*
X238912Y100536D01*
X238575Y100598D01*
X238239Y100669D01*
X237906Y100749D01*
X237574Y100836D01*
X237245Y100932D01*
X236918Y101035D01*
X236594Y101147D01*
X236272Y101266D01*
X235954Y101393D01*
X235639Y101528D01*
X235327Y101671D01*
X235019Y101822D01*
X234715Y101980D01*
X234414Y102145D01*
X234118Y102318D01*
X233826Y102497D01*
X233539Y102684D01*
X233256Y102878D01*
X232978Y103079D01*
X232705Y103287D01*
X232438Y103501D01*
X232175Y103722D01*
X231918Y103949D01*
X231667Y104182D01*
X231422Y104422D01*
X231182Y104667D01*
X230949Y104918D01*
X230722Y105175D01*
X230501Y105438D01*
X230287Y105705D01*
X230079Y105978D01*
X229878Y106256D01*
X229684Y106539D01*
X229497Y106826D01*
X229318Y107118D01*
X229145Y107414D01*
X228980Y107715D01*
X228822Y108019D01*
X228671Y108327D01*
X228528Y108639D01*
X228393Y108954D01*
X228266Y109272D01*
X228147Y109594D01*
X228035Y109918D01*
X227932Y110245D01*
X227836Y110574D01*
X227749Y110906D01*
X227669Y111239D01*
X227598Y111575D01*
X227536Y111912D01*
X227481Y112250D01*
X227435Y112590D01*
X227397Y112931D01*
X227368Y113272D01*
X227347Y113615D01*
X227334Y113957D01*
X227330Y114300D01*
X231140Y114300D02*
X231143Y114549D01*
X231152Y114799D01*
X231168Y115047D01*
X231189Y115296D01*
X231216Y115544D01*
X231250Y115791D01*
X231290Y116037D01*
X231335Y116282D01*
X231387Y116526D01*
X231444Y116769D01*
X231508Y117010D01*
X231577Y117249D01*
X231653Y117487D01*
X231734Y117723D01*
X231821Y117957D01*
X231913Y118188D01*
X232012Y118417D01*
X232115Y118644D01*
X232225Y118868D01*
X232340Y119089D01*
X232460Y119308D01*
X232585Y119523D01*
X232716Y119736D01*
X232852Y119945D01*
X232993Y120150D01*
X233139Y120352D01*
X233290Y120551D01*
X233446Y120745D01*
X233607Y120936D01*
X233772Y121123D01*
X233942Y121306D01*
X234116Y121484D01*
X234294Y121658D01*
X234477Y121828D01*
X234664Y121993D01*
X234855Y122154D01*
X235049Y122310D01*
X235248Y122461D01*
X235450Y122607D01*
X235655Y122748D01*
X235864Y122884D01*
X236077Y123015D01*
X236292Y123140D01*
X236511Y123260D01*
X236732Y123375D01*
X236956Y123485D01*
X237183Y123588D01*
X237412Y123687D01*
X237643Y123779D01*
X237877Y123866D01*
X238113Y123947D01*
X238351Y124023D01*
X238590Y124092D01*
X238831Y124156D01*
X239074Y124213D01*
X239318Y124265D01*
X239563Y124310D01*
X239809Y124350D01*
X240056Y124384D01*
X240304Y124411D01*
X240553Y124432D01*
X240801Y124448D01*
X241051Y124457D01*
X241300Y124460D01*
X241549Y124457D01*
X241799Y124448D01*
X242047Y124432D01*
X242296Y124411D01*
X242544Y124384D01*
X242791Y124350D01*
X243037Y124310D01*
X243282Y124265D01*
X243526Y124213D01*
X243769Y124156D01*
X244010Y124092D01*
X244249Y124023D01*
X244487Y123947D01*
X244723Y123866D01*
X244957Y123779D01*
X245188Y123687D01*
X245417Y123588D01*
X245644Y123485D01*
X245868Y123375D01*
X246089Y123260D01*
X246308Y123140D01*
X246523Y123015D01*
X246736Y122884D01*
X246945Y122748D01*
X247150Y122607D01*
X247352Y122461D01*
X247551Y122310D01*
X247745Y122154D01*
X247936Y121993D01*
X248123Y121828D01*
X248306Y121658D01*
X248484Y121484D01*
X248658Y121306D01*
X248828Y121123D01*
X248993Y120936D01*
X249154Y120745D01*
X249310Y120551D01*
X249461Y120352D01*
X249607Y120150D01*
X249748Y119945D01*
X249884Y119736D01*
X250015Y119523D01*
X250140Y119308D01*
X250260Y119089D01*
X250375Y118868D01*
X250485Y118644D01*
X250588Y118417D01*
X250687Y118188D01*
X250779Y117957D01*
X250866Y117723D01*
X250947Y117487D01*
X251023Y117249D01*
X251092Y117010D01*
X251156Y116769D01*
X251213Y116526D01*
X251265Y116282D01*
X251310Y116037D01*
X251350Y115791D01*
X251384Y115544D01*
X251411Y115296D01*
X251432Y115047D01*
X251448Y114799D01*
X251457Y114549D01*
X251460Y114300D01*
X251457Y114051D01*
X251448Y113801D01*
X251432Y113553D01*
X251411Y113304D01*
X251384Y113056D01*
X251350Y112809D01*
X251310Y112563D01*
X251265Y112318D01*
X251213Y112074D01*
X251156Y111831D01*
X251092Y111590D01*
X251023Y111351D01*
X250947Y111113D01*
X250866Y110877D01*
X250779Y110643D01*
X250687Y110412D01*
X250588Y110183D01*
X250485Y109956D01*
X250375Y109732D01*
X250260Y109511D01*
X250140Y109292D01*
X250015Y109077D01*
X249884Y108864D01*
X249748Y108655D01*
X249607Y108450D01*
X249461Y108248D01*
X249310Y108049D01*
X249154Y107855D01*
X248993Y107664D01*
X248828Y107477D01*
X248658Y107294D01*
X248484Y107116D01*
X248306Y106942D01*
X248123Y106772D01*
X247936Y106607D01*
X247745Y106446D01*
X247551Y106290D01*
X247352Y106139D01*
X247150Y105993D01*
X246945Y105852D01*
X246736Y105716D01*
X246523Y105585D01*
X246308Y105460D01*
X246089Y105340D01*
X245868Y105225D01*
X245644Y105115D01*
X245417Y105012D01*
X245188Y104913D01*
X244957Y104821D01*
X244723Y104734D01*
X244487Y104653D01*
X244249Y104577D01*
X244010Y104508D01*
X243769Y104444D01*
X243526Y104387D01*
X243282Y104335D01*
X243037Y104290D01*
X242791Y104250D01*
X242544Y104216D01*
X242296Y104189D01*
X242047Y104168D01*
X241799Y104152D01*
X241549Y104143D01*
X241300Y104140D01*
X241051Y104143D01*
X240801Y104152D01*
X240553Y104168D01*
X240304Y104189D01*
X240056Y104216D01*
X239809Y104250D01*
X239563Y104290D01*
X239318Y104335D01*
X239074Y104387D01*
X238831Y104444D01*
X238590Y104508D01*
X238351Y104577D01*
X238113Y104653D01*
X237877Y104734D01*
X237643Y104821D01*
X237412Y104913D01*
X237183Y105012D01*
X236956Y105115D01*
X236732Y105225D01*
X236511Y105340D01*
X236292Y105460D01*
X236077Y105585D01*
X235864Y105716D01*
X235655Y105852D01*
X235450Y105993D01*
X235248Y106139D01*
X235049Y106290D01*
X234855Y106446D01*
X234664Y106607D01*
X234477Y106772D01*
X234294Y106942D01*
X234116Y107116D01*
X233942Y107294D01*
X233772Y107477D01*
X233607Y107664D01*
X233446Y107855D01*
X233290Y108049D01*
X233139Y108248D01*
X232993Y108450D01*
X232852Y108655D01*
X232716Y108864D01*
X232585Y109077D01*
X232460Y109292D01*
X232340Y109511D01*
X232225Y109732D01*
X232115Y109956D01*
X232012Y110183D01*
X231913Y110412D01*
X231821Y110643D01*
X231734Y110877D01*
X231653Y111113D01*
X231577Y111351D01*
X231508Y111590D01*
X231444Y111831D01*
X231387Y112074D01*
X231335Y112318D01*
X231290Y112563D01*
X231250Y112809D01*
X231216Y113056D01*
X231189Y113304D01*
X231168Y113553D01*
X231152Y113801D01*
X231143Y114051D01*
X231140Y114300D01*
D10*
X187300Y73300D02*
X187300Y155300D01*
X300300Y155300D02*
X300300Y73300D01*
X192800Y73300D02*
X192800Y67800D01*
X192800Y73300D02*
X187300Y73300D01*
X294800Y73300D02*
X300300Y73300D01*
X294800Y73300D02*
X294800Y67800D01*
X294800Y155300D02*
X294800Y160800D01*
X294800Y155300D02*
X300300Y155300D01*
X192800Y155300D02*
X187300Y155300D01*
X192800Y155300D02*
X192800Y160800D01*
X192800Y67800D02*
X214800Y67800D01*
X262800Y67800D02*
X294800Y67800D01*
X214800Y160800D02*
X192800Y160800D01*
X262800Y160800D02*
X294800Y160800D01*
D11*
X215519Y76581D02*
X205605Y76581D01*
X215519Y76581D02*
X215519Y81538D01*
X213867Y83191D01*
X207257Y83191D01*
X205605Y81538D01*
X205605Y76581D01*
X205605Y86404D02*
X205605Y93014D01*
X205605Y86404D02*
X215519Y86404D01*
X215519Y93014D01*
X210562Y89709D02*
X210562Y86404D01*
X205605Y101184D02*
X207257Y102837D01*
X205605Y101184D02*
X205605Y97879D01*
X207257Y96227D01*
X213867Y96227D01*
X215519Y97879D01*
X215519Y101184D01*
X213867Y102837D01*
X215519Y106050D02*
X208909Y106050D01*
X205605Y109355D01*
X208909Y112659D01*
X215519Y112659D01*
X210562Y112659D02*
X210562Y106050D01*
X207257Y115873D02*
X205605Y115873D01*
X207257Y115873D02*
X210562Y119178D01*
X207257Y122482D01*
X205605Y122482D01*
X210562Y119178D02*
X215519Y119178D01*
X210562Y125696D02*
X210562Y132305D01*
X208909Y135519D02*
X205605Y138823D01*
X215519Y138823D01*
X215519Y135519D02*
X215519Y142128D01*
D12*
X405130Y114300D02*
X405134Y114643D01*
X405147Y114985D01*
X405168Y115328D01*
X405197Y115669D01*
X405235Y116010D01*
X405281Y116350D01*
X405336Y116688D01*
X405398Y117025D01*
X405469Y117361D01*
X405549Y117694D01*
X405636Y118026D01*
X405732Y118355D01*
X405835Y118682D01*
X405947Y119006D01*
X406066Y119328D01*
X406193Y119646D01*
X406328Y119961D01*
X406471Y120273D01*
X406622Y120581D01*
X406780Y120885D01*
X406945Y121186D01*
X407118Y121482D01*
X407297Y121774D01*
X407484Y122061D01*
X407678Y122344D01*
X407879Y122622D01*
X408087Y122895D01*
X408301Y123162D01*
X408522Y123425D01*
X408749Y123682D01*
X408982Y123933D01*
X409222Y124178D01*
X409467Y124418D01*
X409718Y124651D01*
X409975Y124878D01*
X410238Y125099D01*
X410505Y125313D01*
X410778Y125521D01*
X411056Y125722D01*
X411339Y125916D01*
X411626Y126103D01*
X411918Y126282D01*
X412214Y126455D01*
X412515Y126620D01*
X412819Y126778D01*
X413127Y126929D01*
X413439Y127072D01*
X413754Y127207D01*
X414072Y127334D01*
X414394Y127453D01*
X414718Y127565D01*
X415045Y127668D01*
X415374Y127764D01*
X415706Y127851D01*
X416039Y127931D01*
X416375Y128002D01*
X416712Y128064D01*
X417050Y128119D01*
X417390Y128165D01*
X417731Y128203D01*
X418072Y128232D01*
X418415Y128253D01*
X418757Y128266D01*
X419100Y128270D01*
X419443Y128266D01*
X419785Y128253D01*
X420128Y128232D01*
X420469Y128203D01*
X420810Y128165D01*
X421150Y128119D01*
X421488Y128064D01*
X421825Y128002D01*
X422161Y127931D01*
X422494Y127851D01*
X422826Y127764D01*
X423155Y127668D01*
X423482Y127565D01*
X423806Y127453D01*
X424128Y127334D01*
X424446Y127207D01*
X424761Y127072D01*
X425073Y126929D01*
X425381Y126778D01*
X425685Y126620D01*
X425986Y126455D01*
X426282Y126282D01*
X426574Y126103D01*
X426861Y125916D01*
X427144Y125722D01*
X427422Y125521D01*
X427695Y125313D01*
X427962Y125099D01*
X428225Y124878D01*
X428482Y124651D01*
X428733Y124418D01*
X428978Y124178D01*
X429218Y123933D01*
X429451Y123682D01*
X429678Y123425D01*
X429899Y123162D01*
X430113Y122895D01*
X430321Y122622D01*
X430522Y122344D01*
X430716Y122061D01*
X430903Y121774D01*
X431082Y121482D01*
X431255Y121186D01*
X431420Y120885D01*
X431578Y120581D01*
X431729Y120273D01*
X431872Y119961D01*
X432007Y119646D01*
X432134Y119328D01*
X432253Y119006D01*
X432365Y118682D01*
X432468Y118355D01*
X432564Y118026D01*
X432651Y117694D01*
X432731Y117361D01*
X432802Y117025D01*
X432864Y116688D01*
X432919Y116350D01*
X432965Y116010D01*
X433003Y115669D01*
X433032Y115328D01*
X433053Y114985D01*
X433066Y114643D01*
X433070Y114300D01*
X433066Y113957D01*
X433053Y113615D01*
X433032Y113272D01*
X433003Y112931D01*
X432965Y112590D01*
X432919Y112250D01*
X432864Y111912D01*
X432802Y111575D01*
X432731Y111239D01*
X432651Y110906D01*
X432564Y110574D01*
X432468Y110245D01*
X432365Y109918D01*
X432253Y109594D01*
X432134Y109272D01*
X432007Y108954D01*
X431872Y108639D01*
X431729Y108327D01*
X431578Y108019D01*
X431420Y107715D01*
X431255Y107414D01*
X431082Y107118D01*
X430903Y106826D01*
X430716Y106539D01*
X430522Y106256D01*
X430321Y105978D01*
X430113Y105705D01*
X429899Y105438D01*
X429678Y105175D01*
X429451Y104918D01*
X429218Y104667D01*
X428978Y104422D01*
X428733Y104182D01*
X428482Y103949D01*
X428225Y103722D01*
X427962Y103501D01*
X427695Y103287D01*
X427422Y103079D01*
X427144Y102878D01*
X426861Y102684D01*
X426574Y102497D01*
X426282Y102318D01*
X425986Y102145D01*
X425685Y101980D01*
X425381Y101822D01*
X425073Y101671D01*
X424761Y101528D01*
X424446Y101393D01*
X424128Y101266D01*
X423806Y101147D01*
X423482Y101035D01*
X423155Y100932D01*
X422826Y100836D01*
X422494Y100749D01*
X422161Y100669D01*
X421825Y100598D01*
X421488Y100536D01*
X421150Y100481D01*
X420810Y100435D01*
X420469Y100397D01*
X420128Y100368D01*
X419785Y100347D01*
X419443Y100334D01*
X419100Y100330D01*
X418757Y100334D01*
X418415Y100347D01*
X418072Y100368D01*
X417731Y100397D01*
X417390Y100435D01*
X417050Y100481D01*
X416712Y100536D01*
X416375Y100598D01*
X416039Y100669D01*
X415706Y100749D01*
X415374Y100836D01*
X415045Y100932D01*
X414718Y101035D01*
X414394Y101147D01*
X414072Y101266D01*
X413754Y101393D01*
X413439Y101528D01*
X413127Y101671D01*
X412819Y101822D01*
X412515Y101980D01*
X412214Y102145D01*
X411918Y102318D01*
X411626Y102497D01*
X411339Y102684D01*
X411056Y102878D01*
X410778Y103079D01*
X410505Y103287D01*
X410238Y103501D01*
X409975Y103722D01*
X409718Y103949D01*
X409467Y104182D01*
X409222Y104422D01*
X408982Y104667D01*
X408749Y104918D01*
X408522Y105175D01*
X408301Y105438D01*
X408087Y105705D01*
X407879Y105978D01*
X407678Y106256D01*
X407484Y106539D01*
X407297Y106826D01*
X407118Y107118D01*
X406945Y107414D01*
X406780Y107715D01*
X406622Y108019D01*
X406471Y108327D01*
X406328Y108639D01*
X406193Y108954D01*
X406066Y109272D01*
X405947Y109594D01*
X405835Y109918D01*
X405732Y110245D01*
X405636Y110574D01*
X405549Y110906D01*
X405469Y111239D01*
X405398Y111575D01*
X405336Y111912D01*
X405281Y112250D01*
X405235Y112590D01*
X405197Y112931D01*
X405168Y113272D01*
X405147Y113615D01*
X405134Y113957D01*
X405130Y114300D01*
X408940Y114300D02*
X408943Y114549D01*
X408952Y114799D01*
X408968Y115047D01*
X408989Y115296D01*
X409016Y115544D01*
X409050Y115791D01*
X409090Y116037D01*
X409135Y116282D01*
X409187Y116526D01*
X409244Y116769D01*
X409308Y117010D01*
X409377Y117249D01*
X409453Y117487D01*
X409534Y117723D01*
X409621Y117957D01*
X409713Y118188D01*
X409812Y118417D01*
X409915Y118644D01*
X410025Y118868D01*
X410140Y119089D01*
X410260Y119308D01*
X410385Y119523D01*
X410516Y119736D01*
X410652Y119945D01*
X410793Y120150D01*
X410939Y120352D01*
X411090Y120551D01*
X411246Y120745D01*
X411407Y120936D01*
X411572Y121123D01*
X411742Y121306D01*
X411916Y121484D01*
X412094Y121658D01*
X412277Y121828D01*
X412464Y121993D01*
X412655Y122154D01*
X412849Y122310D01*
X413048Y122461D01*
X413250Y122607D01*
X413455Y122748D01*
X413664Y122884D01*
X413877Y123015D01*
X414092Y123140D01*
X414311Y123260D01*
X414532Y123375D01*
X414756Y123485D01*
X414983Y123588D01*
X415212Y123687D01*
X415443Y123779D01*
X415677Y123866D01*
X415913Y123947D01*
X416151Y124023D01*
X416390Y124092D01*
X416631Y124156D01*
X416874Y124213D01*
X417118Y124265D01*
X417363Y124310D01*
X417609Y124350D01*
X417856Y124384D01*
X418104Y124411D01*
X418353Y124432D01*
X418601Y124448D01*
X418851Y124457D01*
X419100Y124460D01*
X419349Y124457D01*
X419599Y124448D01*
X419847Y124432D01*
X420096Y124411D01*
X420344Y124384D01*
X420591Y124350D01*
X420837Y124310D01*
X421082Y124265D01*
X421326Y124213D01*
X421569Y124156D01*
X421810Y124092D01*
X422049Y124023D01*
X422287Y123947D01*
X422523Y123866D01*
X422757Y123779D01*
X422988Y123687D01*
X423217Y123588D01*
X423444Y123485D01*
X423668Y123375D01*
X423889Y123260D01*
X424108Y123140D01*
X424323Y123015D01*
X424536Y122884D01*
X424745Y122748D01*
X424950Y122607D01*
X425152Y122461D01*
X425351Y122310D01*
X425545Y122154D01*
X425736Y121993D01*
X425923Y121828D01*
X426106Y121658D01*
X426284Y121484D01*
X426458Y121306D01*
X426628Y121123D01*
X426793Y120936D01*
X426954Y120745D01*
X427110Y120551D01*
X427261Y120352D01*
X427407Y120150D01*
X427548Y119945D01*
X427684Y119736D01*
X427815Y119523D01*
X427940Y119308D01*
X428060Y119089D01*
X428175Y118868D01*
X428285Y118644D01*
X428388Y118417D01*
X428487Y118188D01*
X428579Y117957D01*
X428666Y117723D01*
X428747Y117487D01*
X428823Y117249D01*
X428892Y117010D01*
X428956Y116769D01*
X429013Y116526D01*
X429065Y116282D01*
X429110Y116037D01*
X429150Y115791D01*
X429184Y115544D01*
X429211Y115296D01*
X429232Y115047D01*
X429248Y114799D01*
X429257Y114549D01*
X429260Y114300D01*
X429257Y114051D01*
X429248Y113801D01*
X429232Y113553D01*
X429211Y113304D01*
X429184Y113056D01*
X429150Y112809D01*
X429110Y112563D01*
X429065Y112318D01*
X429013Y112074D01*
X428956Y111831D01*
X428892Y111590D01*
X428823Y111351D01*
X428747Y111113D01*
X428666Y110877D01*
X428579Y110643D01*
X428487Y110412D01*
X428388Y110183D01*
X428285Y109956D01*
X428175Y109732D01*
X428060Y109511D01*
X427940Y109292D01*
X427815Y109077D01*
X427684Y108864D01*
X427548Y108655D01*
X427407Y108450D01*
X427261Y108248D01*
X427110Y108049D01*
X426954Y107855D01*
X426793Y107664D01*
X426628Y107477D01*
X426458Y107294D01*
X426284Y107116D01*
X426106Y106942D01*
X425923Y106772D01*
X425736Y106607D01*
X425545Y106446D01*
X425351Y106290D01*
X425152Y106139D01*
X424950Y105993D01*
X424745Y105852D01*
X424536Y105716D01*
X424323Y105585D01*
X424108Y105460D01*
X423889Y105340D01*
X423668Y105225D01*
X423444Y105115D01*
X423217Y105012D01*
X422988Y104913D01*
X422757Y104821D01*
X422523Y104734D01*
X422287Y104653D01*
X422049Y104577D01*
X421810Y104508D01*
X421569Y104444D01*
X421326Y104387D01*
X421082Y104335D01*
X420837Y104290D01*
X420591Y104250D01*
X420344Y104216D01*
X420096Y104189D01*
X419847Y104168D01*
X419599Y104152D01*
X419349Y104143D01*
X419100Y104140D01*
X418851Y104143D01*
X418601Y104152D01*
X418353Y104168D01*
X418104Y104189D01*
X417856Y104216D01*
X417609Y104250D01*
X417363Y104290D01*
X417118Y104335D01*
X416874Y104387D01*
X416631Y104444D01*
X416390Y104508D01*
X416151Y104577D01*
X415913Y104653D01*
X415677Y104734D01*
X415443Y104821D01*
X415212Y104913D01*
X414983Y105012D01*
X414756Y105115D01*
X414532Y105225D01*
X414311Y105340D01*
X414092Y105460D01*
X413877Y105585D01*
X413664Y105716D01*
X413455Y105852D01*
X413250Y105993D01*
X413048Y106139D01*
X412849Y106290D01*
X412655Y106446D01*
X412464Y106607D01*
X412277Y106772D01*
X412094Y106942D01*
X411916Y107116D01*
X411742Y107294D01*
X411572Y107477D01*
X411407Y107664D01*
X411246Y107855D01*
X411090Y108049D01*
X410939Y108248D01*
X410793Y108450D01*
X410652Y108655D01*
X410516Y108864D01*
X410385Y109077D01*
X410260Y109292D01*
X410140Y109511D01*
X410025Y109732D01*
X409915Y109956D01*
X409812Y110183D01*
X409713Y110412D01*
X409621Y110643D01*
X409534Y110877D01*
X409453Y111113D01*
X409377Y111351D01*
X409308Y111590D01*
X409244Y111831D01*
X409187Y112074D01*
X409135Y112318D01*
X409090Y112563D01*
X409050Y112809D01*
X409016Y113056D01*
X408989Y113304D01*
X408968Y113553D01*
X408952Y113801D01*
X408943Y114051D01*
X408940Y114300D01*
D10*
X365100Y73300D02*
X365100Y155300D01*
X478100Y155300D02*
X478100Y73300D01*
X370600Y73300D02*
X370600Y67800D01*
X370600Y73300D02*
X365100Y73300D01*
X472600Y73300D02*
X478100Y73300D01*
X472600Y73300D02*
X472600Y67800D01*
X472600Y155300D02*
X472600Y160800D01*
X472600Y155300D02*
X478100Y155300D01*
X370600Y155300D02*
X365100Y155300D01*
X370600Y155300D02*
X370600Y160800D01*
X370600Y67800D02*
X392600Y67800D01*
X440600Y67800D02*
X472600Y67800D01*
X392600Y160800D02*
X370600Y160800D01*
X440600Y160800D02*
X472600Y160800D01*
D11*
X385057Y83191D02*
X383405Y81538D01*
X383405Y78233D01*
X385057Y76581D01*
X386709Y76581D01*
X388362Y78233D01*
X388362Y81538D01*
X390014Y83191D01*
X391667Y83191D01*
X393319Y81538D01*
X393319Y78233D01*
X391667Y76581D01*
X391667Y86404D02*
X383405Y86404D01*
X391667Y86404D02*
X393319Y88056D01*
X393319Y91361D01*
X391667Y93014D01*
X383405Y93014D01*
X383405Y101184D02*
X385057Y102837D01*
X383405Y101184D02*
X383405Y97879D01*
X385057Y96227D01*
X386709Y96227D01*
X388362Y97879D01*
X388362Y101184D01*
X390014Y102837D01*
X391667Y102837D01*
X393319Y101184D01*
X393319Y97879D01*
X391667Y96227D01*
X393319Y109355D02*
X383405Y109355D01*
X383405Y112659D02*
X383405Y106050D01*
X386709Y115873D02*
X393319Y115873D01*
X386709Y115873D02*
X383405Y119178D01*
X386709Y122482D01*
X393319Y122482D01*
X388362Y122482D02*
X388362Y115873D01*
X393319Y125696D02*
X393319Y129001D01*
X393319Y127348D02*
X383405Y127348D01*
X383405Y125696D02*
X383405Y129001D01*
X383405Y132244D02*
X393319Y132244D01*
X393319Y138854D02*
X383405Y132244D01*
X383405Y138854D02*
X393319Y138854D01*
X388362Y142067D02*
X388362Y148677D01*
X386709Y151890D02*
X383405Y155195D01*
X393319Y155195D01*
X393319Y151890D02*
X393319Y158500D01*
D12*
X582930Y114300D02*
X582934Y114643D01*
X582947Y114985D01*
X582968Y115328D01*
X582997Y115669D01*
X583035Y116010D01*
X583081Y116350D01*
X583136Y116688D01*
X583198Y117025D01*
X583269Y117361D01*
X583349Y117694D01*
X583436Y118026D01*
X583532Y118355D01*
X583635Y118682D01*
X583747Y119006D01*
X583866Y119328D01*
X583993Y119646D01*
X584128Y119961D01*
X584271Y120273D01*
X584422Y120581D01*
X584580Y120885D01*
X584745Y121186D01*
X584918Y121482D01*
X585097Y121774D01*
X585284Y122061D01*
X585478Y122344D01*
X585679Y122622D01*
X585887Y122895D01*
X586101Y123162D01*
X586322Y123425D01*
X586549Y123682D01*
X586782Y123933D01*
X587022Y124178D01*
X587267Y124418D01*
X587518Y124651D01*
X587775Y124878D01*
X588038Y125099D01*
X588305Y125313D01*
X588578Y125521D01*
X588856Y125722D01*
X589139Y125916D01*
X589426Y126103D01*
X589718Y126282D01*
X590014Y126455D01*
X590315Y126620D01*
X590619Y126778D01*
X590927Y126929D01*
X591239Y127072D01*
X591554Y127207D01*
X591872Y127334D01*
X592194Y127453D01*
X592518Y127565D01*
X592845Y127668D01*
X593174Y127764D01*
X593506Y127851D01*
X593839Y127931D01*
X594175Y128002D01*
X594512Y128064D01*
X594850Y128119D01*
X595190Y128165D01*
X595531Y128203D01*
X595872Y128232D01*
X596215Y128253D01*
X596557Y128266D01*
X596900Y128270D01*
X597243Y128266D01*
X597585Y128253D01*
X597928Y128232D01*
X598269Y128203D01*
X598610Y128165D01*
X598950Y128119D01*
X599288Y128064D01*
X599625Y128002D01*
X599961Y127931D01*
X600294Y127851D01*
X600626Y127764D01*
X600955Y127668D01*
X601282Y127565D01*
X601606Y127453D01*
X601928Y127334D01*
X602246Y127207D01*
X602561Y127072D01*
X602873Y126929D01*
X603181Y126778D01*
X603485Y126620D01*
X603786Y126455D01*
X604082Y126282D01*
X604374Y126103D01*
X604661Y125916D01*
X604944Y125722D01*
X605222Y125521D01*
X605495Y125313D01*
X605762Y125099D01*
X606025Y124878D01*
X606282Y124651D01*
X606533Y124418D01*
X606778Y124178D01*
X607018Y123933D01*
X607251Y123682D01*
X607478Y123425D01*
X607699Y123162D01*
X607913Y122895D01*
X608121Y122622D01*
X608322Y122344D01*
X608516Y122061D01*
X608703Y121774D01*
X608882Y121482D01*
X609055Y121186D01*
X609220Y120885D01*
X609378Y120581D01*
X609529Y120273D01*
X609672Y119961D01*
X609807Y119646D01*
X609934Y119328D01*
X610053Y119006D01*
X610165Y118682D01*
X610268Y118355D01*
X610364Y118026D01*
X610451Y117694D01*
X610531Y117361D01*
X610602Y117025D01*
X610664Y116688D01*
X610719Y116350D01*
X610765Y116010D01*
X610803Y115669D01*
X610832Y115328D01*
X610853Y114985D01*
X610866Y114643D01*
X610870Y114300D01*
X610866Y113957D01*
X610853Y113615D01*
X610832Y113272D01*
X610803Y112931D01*
X610765Y112590D01*
X610719Y112250D01*
X610664Y111912D01*
X610602Y111575D01*
X610531Y111239D01*
X610451Y110906D01*
X610364Y110574D01*
X610268Y110245D01*
X610165Y109918D01*
X610053Y109594D01*
X609934Y109272D01*
X609807Y108954D01*
X609672Y108639D01*
X609529Y108327D01*
X609378Y108019D01*
X609220Y107715D01*
X609055Y107414D01*
X608882Y107118D01*
X608703Y106826D01*
X608516Y106539D01*
X608322Y106256D01*
X608121Y105978D01*
X607913Y105705D01*
X607699Y105438D01*
X607478Y105175D01*
X607251Y104918D01*
X607018Y104667D01*
X606778Y104422D01*
X606533Y104182D01*
X606282Y103949D01*
X606025Y103722D01*
X605762Y103501D01*
X605495Y103287D01*
X605222Y103079D01*
X604944Y102878D01*
X604661Y102684D01*
X604374Y102497D01*
X604082Y102318D01*
X603786Y102145D01*
X603485Y101980D01*
X603181Y101822D01*
X602873Y101671D01*
X602561Y101528D01*
X602246Y101393D01*
X601928Y101266D01*
X601606Y101147D01*
X601282Y101035D01*
X600955Y100932D01*
X600626Y100836D01*
X600294Y100749D01*
X599961Y100669D01*
X599625Y100598D01*
X599288Y100536D01*
X598950Y100481D01*
X598610Y100435D01*
X598269Y100397D01*
X597928Y100368D01*
X597585Y100347D01*
X597243Y100334D01*
X596900Y100330D01*
X596557Y100334D01*
X596215Y100347D01*
X595872Y100368D01*
X595531Y100397D01*
X595190Y100435D01*
X594850Y100481D01*
X594512Y100536D01*
X594175Y100598D01*
X593839Y100669D01*
X593506Y100749D01*
X593174Y100836D01*
X592845Y100932D01*
X592518Y101035D01*
X592194Y101147D01*
X591872Y101266D01*
X591554Y101393D01*
X591239Y101528D01*
X590927Y101671D01*
X590619Y101822D01*
X590315Y101980D01*
X590014Y102145D01*
X589718Y102318D01*
X589426Y102497D01*
X589139Y102684D01*
X588856Y102878D01*
X588578Y103079D01*
X588305Y103287D01*
X588038Y103501D01*
X587775Y103722D01*
X587518Y103949D01*
X587267Y104182D01*
X587022Y104422D01*
X586782Y104667D01*
X586549Y104918D01*
X586322Y105175D01*
X586101Y105438D01*
X585887Y105705D01*
X585679Y105978D01*
X585478Y106256D01*
X585284Y106539D01*
X585097Y106826D01*
X584918Y107118D01*
X584745Y107414D01*
X584580Y107715D01*
X584422Y108019D01*
X584271Y108327D01*
X584128Y108639D01*
X583993Y108954D01*
X583866Y109272D01*
X583747Y109594D01*
X583635Y109918D01*
X583532Y110245D01*
X583436Y110574D01*
X583349Y110906D01*
X583269Y111239D01*
X583198Y111575D01*
X583136Y111912D01*
X583081Y112250D01*
X583035Y112590D01*
X582997Y112931D01*
X582968Y113272D01*
X582947Y113615D01*
X582934Y113957D01*
X582930Y114300D01*
X586740Y114300D02*
X586743Y114549D01*
X586752Y114799D01*
X586768Y115047D01*
X586789Y115296D01*
X586816Y115544D01*
X586850Y115791D01*
X586890Y116037D01*
X586935Y116282D01*
X586987Y116526D01*
X587044Y116769D01*
X587108Y117010D01*
X587177Y117249D01*
X587253Y117487D01*
X587334Y117723D01*
X587421Y117957D01*
X587513Y118188D01*
X587612Y118417D01*
X587715Y118644D01*
X587825Y118868D01*
X587940Y119089D01*
X588060Y119308D01*
X588185Y119523D01*
X588316Y119736D01*
X588452Y119945D01*
X588593Y120150D01*
X588739Y120352D01*
X588890Y120551D01*
X589046Y120745D01*
X589207Y120936D01*
X589372Y121123D01*
X589542Y121306D01*
X589716Y121484D01*
X589894Y121658D01*
X590077Y121828D01*
X590264Y121993D01*
X590455Y122154D01*
X590649Y122310D01*
X590848Y122461D01*
X591050Y122607D01*
X591255Y122748D01*
X591464Y122884D01*
X591677Y123015D01*
X591892Y123140D01*
X592111Y123260D01*
X592332Y123375D01*
X592556Y123485D01*
X592783Y123588D01*
X593012Y123687D01*
X593243Y123779D01*
X593477Y123866D01*
X593713Y123947D01*
X593951Y124023D01*
X594190Y124092D01*
X594431Y124156D01*
X594674Y124213D01*
X594918Y124265D01*
X595163Y124310D01*
X595409Y124350D01*
X595656Y124384D01*
X595904Y124411D01*
X596153Y124432D01*
X596401Y124448D01*
X596651Y124457D01*
X596900Y124460D01*
X597149Y124457D01*
X597399Y124448D01*
X597647Y124432D01*
X597896Y124411D01*
X598144Y124384D01*
X598391Y124350D01*
X598637Y124310D01*
X598882Y124265D01*
X599126Y124213D01*
X599369Y124156D01*
X599610Y124092D01*
X599849Y124023D01*
X600087Y123947D01*
X600323Y123866D01*
X600557Y123779D01*
X600788Y123687D01*
X601017Y123588D01*
X601244Y123485D01*
X601468Y123375D01*
X601689Y123260D01*
X601908Y123140D01*
X602123Y123015D01*
X602336Y122884D01*
X602545Y122748D01*
X602750Y122607D01*
X602952Y122461D01*
X603151Y122310D01*
X603345Y122154D01*
X603536Y121993D01*
X603723Y121828D01*
X603906Y121658D01*
X604084Y121484D01*
X604258Y121306D01*
X604428Y121123D01*
X604593Y120936D01*
X604754Y120745D01*
X604910Y120551D01*
X605061Y120352D01*
X605207Y120150D01*
X605348Y119945D01*
X605484Y119736D01*
X605615Y119523D01*
X605740Y119308D01*
X605860Y119089D01*
X605975Y118868D01*
X606085Y118644D01*
X606188Y118417D01*
X606287Y118188D01*
X606379Y117957D01*
X606466Y117723D01*
X606547Y117487D01*
X606623Y117249D01*
X606692Y117010D01*
X606756Y116769D01*
X606813Y116526D01*
X606865Y116282D01*
X606910Y116037D01*
X606950Y115791D01*
X606984Y115544D01*
X607011Y115296D01*
X607032Y115047D01*
X607048Y114799D01*
X607057Y114549D01*
X607060Y114300D01*
X607057Y114051D01*
X607048Y113801D01*
X607032Y113553D01*
X607011Y113304D01*
X606984Y113056D01*
X606950Y112809D01*
X606910Y112563D01*
X606865Y112318D01*
X606813Y112074D01*
X606756Y111831D01*
X606692Y111590D01*
X606623Y111351D01*
X606547Y111113D01*
X606466Y110877D01*
X606379Y110643D01*
X606287Y110412D01*
X606188Y110183D01*
X606085Y109956D01*
X605975Y109732D01*
X605860Y109511D01*
X605740Y109292D01*
X605615Y109077D01*
X605484Y108864D01*
X605348Y108655D01*
X605207Y108450D01*
X605061Y108248D01*
X604910Y108049D01*
X604754Y107855D01*
X604593Y107664D01*
X604428Y107477D01*
X604258Y107294D01*
X604084Y107116D01*
X603906Y106942D01*
X603723Y106772D01*
X603536Y106607D01*
X603345Y106446D01*
X603151Y106290D01*
X602952Y106139D01*
X602750Y105993D01*
X602545Y105852D01*
X602336Y105716D01*
X602123Y105585D01*
X601908Y105460D01*
X601689Y105340D01*
X601468Y105225D01*
X601244Y105115D01*
X601017Y105012D01*
X600788Y104913D01*
X600557Y104821D01*
X600323Y104734D01*
X600087Y104653D01*
X599849Y104577D01*
X599610Y104508D01*
X599369Y104444D01*
X599126Y104387D01*
X598882Y104335D01*
X598637Y104290D01*
X598391Y104250D01*
X598144Y104216D01*
X597896Y104189D01*
X597647Y104168D01*
X597399Y104152D01*
X597149Y104143D01*
X596900Y104140D01*
X596651Y104143D01*
X596401Y104152D01*
X596153Y104168D01*
X595904Y104189D01*
X595656Y104216D01*
X595409Y104250D01*
X595163Y104290D01*
X594918Y104335D01*
X594674Y104387D01*
X594431Y104444D01*
X594190Y104508D01*
X593951Y104577D01*
X593713Y104653D01*
X593477Y104734D01*
X593243Y104821D01*
X593012Y104913D01*
X592783Y105012D01*
X592556Y105115D01*
X592332Y105225D01*
X592111Y105340D01*
X591892Y105460D01*
X591677Y105585D01*
X591464Y105716D01*
X591255Y105852D01*
X591050Y105993D01*
X590848Y106139D01*
X590649Y106290D01*
X590455Y106446D01*
X590264Y106607D01*
X590077Y106772D01*
X589894Y106942D01*
X589716Y107116D01*
X589542Y107294D01*
X589372Y107477D01*
X589207Y107664D01*
X589046Y107855D01*
X588890Y108049D01*
X588739Y108248D01*
X588593Y108450D01*
X588452Y108655D01*
X588316Y108864D01*
X588185Y109077D01*
X588060Y109292D01*
X587940Y109511D01*
X587825Y109732D01*
X587715Y109956D01*
X587612Y110183D01*
X587513Y110412D01*
X587421Y110643D01*
X587334Y110877D01*
X587253Y111113D01*
X587177Y111351D01*
X587108Y111590D01*
X587044Y111831D01*
X586987Y112074D01*
X586935Y112318D01*
X586890Y112563D01*
X586850Y112809D01*
X586816Y113056D01*
X586789Y113304D01*
X586768Y113553D01*
X586752Y113801D01*
X586743Y114051D01*
X586740Y114300D01*
D10*
X542900Y73300D02*
X542900Y155300D01*
X655900Y155300D02*
X655900Y73300D01*
X548400Y73300D02*
X548400Y67800D01*
X548400Y73300D02*
X542900Y73300D01*
X650400Y73300D02*
X655900Y73300D01*
X650400Y73300D02*
X650400Y67800D01*
X650400Y155300D02*
X650400Y160800D01*
X650400Y155300D02*
X655900Y155300D01*
X548400Y155300D02*
X542900Y155300D01*
X548400Y155300D02*
X548400Y160800D01*
X548400Y67800D02*
X570400Y67800D01*
X618400Y67800D02*
X650400Y67800D01*
X570400Y160800D02*
X548400Y160800D01*
X618400Y160800D02*
X650400Y160800D01*
D11*
X571119Y76581D02*
X561205Y76581D01*
X561205Y81538D01*
X562857Y83191D01*
X566162Y83191D01*
X567814Y81538D01*
X567814Y76581D01*
X567814Y79886D02*
X571119Y83191D01*
X561205Y86404D02*
X561205Y93014D01*
X561205Y86404D02*
X571119Y86404D01*
X571119Y93014D01*
X566162Y89709D02*
X566162Y86404D01*
X561205Y96227D02*
X571119Y96227D01*
X571119Y102837D01*
X561205Y106050D02*
X561205Y112659D01*
X561205Y106050D02*
X571119Y106050D01*
X571119Y112659D01*
X566162Y109355D02*
X566162Y106050D01*
X564509Y115873D02*
X571119Y115873D01*
X564509Y115873D02*
X561205Y119178D01*
X564509Y122482D01*
X571119Y122482D01*
X566162Y122482D02*
X566162Y115873D01*
X561205Y130653D02*
X562857Y132305D01*
X561205Y130653D02*
X561205Y127348D01*
X562857Y125696D01*
X564509Y125696D01*
X566162Y127348D01*
X566162Y130653D01*
X567814Y132305D01*
X569467Y132305D01*
X571119Y130653D01*
X571119Y127348D01*
X569467Y125696D01*
X561205Y135519D02*
X561205Y142128D01*
X561205Y135519D02*
X571119Y135519D01*
X571119Y142128D01*
X566162Y138823D02*
X566162Y135519D01*
X566162Y145342D02*
X566162Y151951D01*
X564509Y155165D02*
X561205Y158469D01*
X571119Y158469D01*
X571119Y155165D02*
X571119Y161774D01*
D12*
X49530Y368300D02*
X49534Y368643D01*
X49547Y368985D01*
X49568Y369328D01*
X49597Y369669D01*
X49635Y370010D01*
X49681Y370350D01*
X49736Y370688D01*
X49798Y371025D01*
X49869Y371361D01*
X49949Y371694D01*
X50036Y372026D01*
X50132Y372355D01*
X50235Y372682D01*
X50347Y373006D01*
X50466Y373328D01*
X50593Y373646D01*
X50728Y373961D01*
X50871Y374273D01*
X51022Y374581D01*
X51180Y374885D01*
X51345Y375186D01*
X51518Y375482D01*
X51697Y375774D01*
X51884Y376061D01*
X52078Y376344D01*
X52279Y376622D01*
X52487Y376895D01*
X52701Y377162D01*
X52922Y377425D01*
X53149Y377682D01*
X53382Y377933D01*
X53622Y378178D01*
X53867Y378418D01*
X54118Y378651D01*
X54375Y378878D01*
X54638Y379099D01*
X54905Y379313D01*
X55178Y379521D01*
X55456Y379722D01*
X55739Y379916D01*
X56026Y380103D01*
X56318Y380282D01*
X56614Y380455D01*
X56915Y380620D01*
X57219Y380778D01*
X57527Y380929D01*
X57839Y381072D01*
X58154Y381207D01*
X58472Y381334D01*
X58794Y381453D01*
X59118Y381565D01*
X59445Y381668D01*
X59774Y381764D01*
X60106Y381851D01*
X60439Y381931D01*
X60775Y382002D01*
X61112Y382064D01*
X61450Y382119D01*
X61790Y382165D01*
X62131Y382203D01*
X62472Y382232D01*
X62815Y382253D01*
X63157Y382266D01*
X63500Y382270D01*
X63843Y382266D01*
X64185Y382253D01*
X64528Y382232D01*
X64869Y382203D01*
X65210Y382165D01*
X65550Y382119D01*
X65888Y382064D01*
X66225Y382002D01*
X66561Y381931D01*
X66894Y381851D01*
X67226Y381764D01*
X67555Y381668D01*
X67882Y381565D01*
X68206Y381453D01*
X68528Y381334D01*
X68846Y381207D01*
X69161Y381072D01*
X69473Y380929D01*
X69781Y380778D01*
X70085Y380620D01*
X70386Y380455D01*
X70682Y380282D01*
X70974Y380103D01*
X71261Y379916D01*
X71544Y379722D01*
X71822Y379521D01*
X72095Y379313D01*
X72362Y379099D01*
X72625Y378878D01*
X72882Y378651D01*
X73133Y378418D01*
X73378Y378178D01*
X73618Y377933D01*
X73851Y377682D01*
X74078Y377425D01*
X74299Y377162D01*
X74513Y376895D01*
X74721Y376622D01*
X74922Y376344D01*
X75116Y376061D01*
X75303Y375774D01*
X75482Y375482D01*
X75655Y375186D01*
X75820Y374885D01*
X75978Y374581D01*
X76129Y374273D01*
X76272Y373961D01*
X76407Y373646D01*
X76534Y373328D01*
X76653Y373006D01*
X76765Y372682D01*
X76868Y372355D01*
X76964Y372026D01*
X77051Y371694D01*
X77131Y371361D01*
X77202Y371025D01*
X77264Y370688D01*
X77319Y370350D01*
X77365Y370010D01*
X77403Y369669D01*
X77432Y369328D01*
X77453Y368985D01*
X77466Y368643D01*
X77470Y368300D01*
X77466Y367957D01*
X77453Y367615D01*
X77432Y367272D01*
X77403Y366931D01*
X77365Y366590D01*
X77319Y366250D01*
X77264Y365912D01*
X77202Y365575D01*
X77131Y365239D01*
X77051Y364906D01*
X76964Y364574D01*
X76868Y364245D01*
X76765Y363918D01*
X76653Y363594D01*
X76534Y363272D01*
X76407Y362954D01*
X76272Y362639D01*
X76129Y362327D01*
X75978Y362019D01*
X75820Y361715D01*
X75655Y361414D01*
X75482Y361118D01*
X75303Y360826D01*
X75116Y360539D01*
X74922Y360256D01*
X74721Y359978D01*
X74513Y359705D01*
X74299Y359438D01*
X74078Y359175D01*
X73851Y358918D01*
X73618Y358667D01*
X73378Y358422D01*
X73133Y358182D01*
X72882Y357949D01*
X72625Y357722D01*
X72362Y357501D01*
X72095Y357287D01*
X71822Y357079D01*
X71544Y356878D01*
X71261Y356684D01*
X70974Y356497D01*
X70682Y356318D01*
X70386Y356145D01*
X70085Y355980D01*
X69781Y355822D01*
X69473Y355671D01*
X69161Y355528D01*
X68846Y355393D01*
X68528Y355266D01*
X68206Y355147D01*
X67882Y355035D01*
X67555Y354932D01*
X67226Y354836D01*
X66894Y354749D01*
X66561Y354669D01*
X66225Y354598D01*
X65888Y354536D01*
X65550Y354481D01*
X65210Y354435D01*
X64869Y354397D01*
X64528Y354368D01*
X64185Y354347D01*
X63843Y354334D01*
X63500Y354330D01*
X63157Y354334D01*
X62815Y354347D01*
X62472Y354368D01*
X62131Y354397D01*
X61790Y354435D01*
X61450Y354481D01*
X61112Y354536D01*
X60775Y354598D01*
X60439Y354669D01*
X60106Y354749D01*
X59774Y354836D01*
X59445Y354932D01*
X59118Y355035D01*
X58794Y355147D01*
X58472Y355266D01*
X58154Y355393D01*
X57839Y355528D01*
X57527Y355671D01*
X57219Y355822D01*
X56915Y355980D01*
X56614Y356145D01*
X56318Y356318D01*
X56026Y356497D01*
X55739Y356684D01*
X55456Y356878D01*
X55178Y357079D01*
X54905Y357287D01*
X54638Y357501D01*
X54375Y357722D01*
X54118Y357949D01*
X53867Y358182D01*
X53622Y358422D01*
X53382Y358667D01*
X53149Y358918D01*
X52922Y359175D01*
X52701Y359438D01*
X52487Y359705D01*
X52279Y359978D01*
X52078Y360256D01*
X51884Y360539D01*
X51697Y360826D01*
X51518Y361118D01*
X51345Y361414D01*
X51180Y361715D01*
X51022Y362019D01*
X50871Y362327D01*
X50728Y362639D01*
X50593Y362954D01*
X50466Y363272D01*
X50347Y363594D01*
X50235Y363918D01*
X50132Y364245D01*
X50036Y364574D01*
X49949Y364906D01*
X49869Y365239D01*
X49798Y365575D01*
X49736Y365912D01*
X49681Y366250D01*
X49635Y366590D01*
X49597Y366931D01*
X49568Y367272D01*
X49547Y367615D01*
X49534Y367957D01*
X49530Y368300D01*
X53340Y368300D02*
X53343Y368549D01*
X53352Y368799D01*
X53368Y369047D01*
X53389Y369296D01*
X53416Y369544D01*
X53450Y369791D01*
X53490Y370037D01*
X53535Y370282D01*
X53587Y370526D01*
X53644Y370769D01*
X53708Y371010D01*
X53777Y371249D01*
X53853Y371487D01*
X53934Y371723D01*
X54021Y371957D01*
X54113Y372188D01*
X54212Y372417D01*
X54315Y372644D01*
X54425Y372868D01*
X54540Y373089D01*
X54660Y373308D01*
X54785Y373523D01*
X54916Y373736D01*
X55052Y373945D01*
X55193Y374150D01*
X55339Y374352D01*
X55490Y374551D01*
X55646Y374745D01*
X55807Y374936D01*
X55972Y375123D01*
X56142Y375306D01*
X56316Y375484D01*
X56494Y375658D01*
X56677Y375828D01*
X56864Y375993D01*
X57055Y376154D01*
X57249Y376310D01*
X57448Y376461D01*
X57650Y376607D01*
X57855Y376748D01*
X58064Y376884D01*
X58277Y377015D01*
X58492Y377140D01*
X58711Y377260D01*
X58932Y377375D01*
X59156Y377485D01*
X59383Y377588D01*
X59612Y377687D01*
X59843Y377779D01*
X60077Y377866D01*
X60313Y377947D01*
X60551Y378023D01*
X60790Y378092D01*
X61031Y378156D01*
X61274Y378213D01*
X61518Y378265D01*
X61763Y378310D01*
X62009Y378350D01*
X62256Y378384D01*
X62504Y378411D01*
X62753Y378432D01*
X63001Y378448D01*
X63251Y378457D01*
X63500Y378460D01*
X63749Y378457D01*
X63999Y378448D01*
X64247Y378432D01*
X64496Y378411D01*
X64744Y378384D01*
X64991Y378350D01*
X65237Y378310D01*
X65482Y378265D01*
X65726Y378213D01*
X65969Y378156D01*
X66210Y378092D01*
X66449Y378023D01*
X66687Y377947D01*
X66923Y377866D01*
X67157Y377779D01*
X67388Y377687D01*
X67617Y377588D01*
X67844Y377485D01*
X68068Y377375D01*
X68289Y377260D01*
X68508Y377140D01*
X68723Y377015D01*
X68936Y376884D01*
X69145Y376748D01*
X69350Y376607D01*
X69552Y376461D01*
X69751Y376310D01*
X69945Y376154D01*
X70136Y375993D01*
X70323Y375828D01*
X70506Y375658D01*
X70684Y375484D01*
X70858Y375306D01*
X71028Y375123D01*
X71193Y374936D01*
X71354Y374745D01*
X71510Y374551D01*
X71661Y374352D01*
X71807Y374150D01*
X71948Y373945D01*
X72084Y373736D01*
X72215Y373523D01*
X72340Y373308D01*
X72460Y373089D01*
X72575Y372868D01*
X72685Y372644D01*
X72788Y372417D01*
X72887Y372188D01*
X72979Y371957D01*
X73066Y371723D01*
X73147Y371487D01*
X73223Y371249D01*
X73292Y371010D01*
X73356Y370769D01*
X73413Y370526D01*
X73465Y370282D01*
X73510Y370037D01*
X73550Y369791D01*
X73584Y369544D01*
X73611Y369296D01*
X73632Y369047D01*
X73648Y368799D01*
X73657Y368549D01*
X73660Y368300D01*
X73657Y368051D01*
X73648Y367801D01*
X73632Y367553D01*
X73611Y367304D01*
X73584Y367056D01*
X73550Y366809D01*
X73510Y366563D01*
X73465Y366318D01*
X73413Y366074D01*
X73356Y365831D01*
X73292Y365590D01*
X73223Y365351D01*
X73147Y365113D01*
X73066Y364877D01*
X72979Y364643D01*
X72887Y364412D01*
X72788Y364183D01*
X72685Y363956D01*
X72575Y363732D01*
X72460Y363511D01*
X72340Y363292D01*
X72215Y363077D01*
X72084Y362864D01*
X71948Y362655D01*
X71807Y362450D01*
X71661Y362248D01*
X71510Y362049D01*
X71354Y361855D01*
X71193Y361664D01*
X71028Y361477D01*
X70858Y361294D01*
X70684Y361116D01*
X70506Y360942D01*
X70323Y360772D01*
X70136Y360607D01*
X69945Y360446D01*
X69751Y360290D01*
X69552Y360139D01*
X69350Y359993D01*
X69145Y359852D01*
X68936Y359716D01*
X68723Y359585D01*
X68508Y359460D01*
X68289Y359340D01*
X68068Y359225D01*
X67844Y359115D01*
X67617Y359012D01*
X67388Y358913D01*
X67157Y358821D01*
X66923Y358734D01*
X66687Y358653D01*
X66449Y358577D01*
X66210Y358508D01*
X65969Y358444D01*
X65726Y358387D01*
X65482Y358335D01*
X65237Y358290D01*
X64991Y358250D01*
X64744Y358216D01*
X64496Y358189D01*
X64247Y358168D01*
X63999Y358152D01*
X63749Y358143D01*
X63500Y358140D01*
X63251Y358143D01*
X63001Y358152D01*
X62753Y358168D01*
X62504Y358189D01*
X62256Y358216D01*
X62009Y358250D01*
X61763Y358290D01*
X61518Y358335D01*
X61274Y358387D01*
X61031Y358444D01*
X60790Y358508D01*
X60551Y358577D01*
X60313Y358653D01*
X60077Y358734D01*
X59843Y358821D01*
X59612Y358913D01*
X59383Y359012D01*
X59156Y359115D01*
X58932Y359225D01*
X58711Y359340D01*
X58492Y359460D01*
X58277Y359585D01*
X58064Y359716D01*
X57855Y359852D01*
X57650Y359993D01*
X57448Y360139D01*
X57249Y360290D01*
X57055Y360446D01*
X56864Y360607D01*
X56677Y360772D01*
X56494Y360942D01*
X56316Y361116D01*
X56142Y361294D01*
X55972Y361477D01*
X55807Y361664D01*
X55646Y361855D01*
X55490Y362049D01*
X55339Y362248D01*
X55193Y362450D01*
X55052Y362655D01*
X54916Y362864D01*
X54785Y363077D01*
X54660Y363292D01*
X54540Y363511D01*
X54425Y363732D01*
X54315Y363956D01*
X54212Y364183D01*
X54113Y364412D01*
X54021Y364643D01*
X53934Y364877D01*
X53853Y365113D01*
X53777Y365351D01*
X53708Y365590D01*
X53644Y365831D01*
X53587Y366074D01*
X53535Y366318D01*
X53490Y366563D01*
X53450Y366809D01*
X53416Y367056D01*
X53389Y367304D01*
X53368Y367553D01*
X53352Y367801D01*
X53343Y368051D01*
X53340Y368300D01*
D10*
X9500Y327300D02*
X9500Y409300D01*
X122500Y409300D02*
X122500Y327300D01*
X15000Y327300D02*
X15000Y321800D01*
X15000Y327300D02*
X9500Y327300D01*
X117000Y327300D02*
X122500Y327300D01*
X117000Y327300D02*
X117000Y321800D01*
X117000Y409300D02*
X117000Y414800D01*
X117000Y409300D02*
X122500Y409300D01*
X15000Y409300D02*
X9500Y409300D01*
X15000Y409300D02*
X15000Y414800D01*
X15000Y321800D02*
X37000Y321800D01*
X85000Y321800D02*
X117000Y321800D01*
X37000Y414800D02*
X15000Y414800D01*
X85000Y414800D02*
X117000Y414800D01*
D11*
X37719Y330581D02*
X31109Y330581D01*
X27805Y333886D01*
X31109Y337191D01*
X37719Y337191D01*
X32762Y337191D02*
X32762Y330581D01*
X37719Y343709D02*
X27805Y343709D01*
X27805Y340404D02*
X27805Y347014D01*
X27805Y353532D02*
X37719Y353532D01*
X27805Y350227D02*
X27805Y356837D01*
X31109Y360050D02*
X37719Y360050D01*
X31109Y360050D02*
X27805Y363355D01*
X31109Y366659D01*
X37719Y366659D01*
X32762Y366659D02*
X32762Y360050D01*
X27805Y374830D02*
X29457Y376482D01*
X27805Y374830D02*
X27805Y371525D01*
X29457Y369873D01*
X36067Y369873D01*
X37719Y371525D01*
X37719Y374830D01*
X36067Y376482D01*
X37719Y379696D02*
X27805Y379696D01*
X34414Y379696D02*
X27805Y386305D01*
X32762Y381348D02*
X37719Y386305D01*
X32762Y389519D02*
X32762Y396128D01*
X37719Y399342D02*
X37719Y405951D01*
X37719Y399342D02*
X31109Y405951D01*
X29457Y405951D01*
X27805Y404299D01*
X27805Y400994D01*
X29457Y399342D01*
D12*
X227330Y368300D02*
X227334Y368643D01*
X227347Y368985D01*
X227368Y369328D01*
X227397Y369669D01*
X227435Y370010D01*
X227481Y370350D01*
X227536Y370688D01*
X227598Y371025D01*
X227669Y371361D01*
X227749Y371694D01*
X227836Y372026D01*
X227932Y372355D01*
X228035Y372682D01*
X228147Y373006D01*
X228266Y373328D01*
X228393Y373646D01*
X228528Y373961D01*
X228671Y374273D01*
X228822Y374581D01*
X228980Y374885D01*
X229145Y375186D01*
X229318Y375482D01*
X229497Y375774D01*
X229684Y376061D01*
X229878Y376344D01*
X230079Y376622D01*
X230287Y376895D01*
X230501Y377162D01*
X230722Y377425D01*
X230949Y377682D01*
X231182Y377933D01*
X231422Y378178D01*
X231667Y378418D01*
X231918Y378651D01*
X232175Y378878D01*
X232438Y379099D01*
X232705Y379313D01*
X232978Y379521D01*
X233256Y379722D01*
X233539Y379916D01*
X233826Y380103D01*
X234118Y380282D01*
X234414Y380455D01*
X234715Y380620D01*
X235019Y380778D01*
X235327Y380929D01*
X235639Y381072D01*
X235954Y381207D01*
X236272Y381334D01*
X236594Y381453D01*
X236918Y381565D01*
X237245Y381668D01*
X237574Y381764D01*
X237906Y381851D01*
X238239Y381931D01*
X238575Y382002D01*
X238912Y382064D01*
X239250Y382119D01*
X239590Y382165D01*
X239931Y382203D01*
X240272Y382232D01*
X240615Y382253D01*
X240957Y382266D01*
X241300Y382270D01*
X241643Y382266D01*
X241985Y382253D01*
X242328Y382232D01*
X242669Y382203D01*
X243010Y382165D01*
X243350Y382119D01*
X243688Y382064D01*
X244025Y382002D01*
X244361Y381931D01*
X244694Y381851D01*
X245026Y381764D01*
X245355Y381668D01*
X245682Y381565D01*
X246006Y381453D01*
X246328Y381334D01*
X246646Y381207D01*
X246961Y381072D01*
X247273Y380929D01*
X247581Y380778D01*
X247885Y380620D01*
X248186Y380455D01*
X248482Y380282D01*
X248774Y380103D01*
X249061Y379916D01*
X249344Y379722D01*
X249622Y379521D01*
X249895Y379313D01*
X250162Y379099D01*
X250425Y378878D01*
X250682Y378651D01*
X250933Y378418D01*
X251178Y378178D01*
X251418Y377933D01*
X251651Y377682D01*
X251878Y377425D01*
X252099Y377162D01*
X252313Y376895D01*
X252521Y376622D01*
X252722Y376344D01*
X252916Y376061D01*
X253103Y375774D01*
X253282Y375482D01*
X253455Y375186D01*
X253620Y374885D01*
X253778Y374581D01*
X253929Y374273D01*
X254072Y373961D01*
X254207Y373646D01*
X254334Y373328D01*
X254453Y373006D01*
X254565Y372682D01*
X254668Y372355D01*
X254764Y372026D01*
X254851Y371694D01*
X254931Y371361D01*
X255002Y371025D01*
X255064Y370688D01*
X255119Y370350D01*
X255165Y370010D01*
X255203Y369669D01*
X255232Y369328D01*
X255253Y368985D01*
X255266Y368643D01*
X255270Y368300D01*
X255266Y367957D01*
X255253Y367615D01*
X255232Y367272D01*
X255203Y366931D01*
X255165Y366590D01*
X255119Y366250D01*
X255064Y365912D01*
X255002Y365575D01*
X254931Y365239D01*
X254851Y364906D01*
X254764Y364574D01*
X254668Y364245D01*
X254565Y363918D01*
X254453Y363594D01*
X254334Y363272D01*
X254207Y362954D01*
X254072Y362639D01*
X253929Y362327D01*
X253778Y362019D01*
X253620Y361715D01*
X253455Y361414D01*
X253282Y361118D01*
X253103Y360826D01*
X252916Y360539D01*
X252722Y360256D01*
X252521Y359978D01*
X252313Y359705D01*
X252099Y359438D01*
X251878Y359175D01*
X251651Y358918D01*
X251418Y358667D01*
X251178Y358422D01*
X250933Y358182D01*
X250682Y357949D01*
X250425Y357722D01*
X250162Y357501D01*
X249895Y357287D01*
X249622Y357079D01*
X249344Y356878D01*
X249061Y356684D01*
X248774Y356497D01*
X248482Y356318D01*
X248186Y356145D01*
X247885Y355980D01*
X247581Y355822D01*
X247273Y355671D01*
X246961Y355528D01*
X246646Y355393D01*
X246328Y355266D01*
X246006Y355147D01*
X245682Y355035D01*
X245355Y354932D01*
X245026Y354836D01*
X244694Y354749D01*
X244361Y354669D01*
X244025Y354598D01*
X243688Y354536D01*
X243350Y354481D01*
X243010Y354435D01*
X242669Y354397D01*
X242328Y354368D01*
X241985Y354347D01*
X241643Y354334D01*
X241300Y354330D01*
X240957Y354334D01*
X240615Y354347D01*
X240272Y354368D01*
X239931Y354397D01*
X239590Y354435D01*
X239250Y354481D01*
X238912Y354536D01*
X238575Y354598D01*
X238239Y354669D01*
X237906Y354749D01*
X237574Y354836D01*
X237245Y354932D01*
X236918Y355035D01*
X236594Y355147D01*
X236272Y355266D01*
X235954Y355393D01*
X235639Y355528D01*
X235327Y355671D01*
X235019Y355822D01*
X234715Y355980D01*
X234414Y356145D01*
X234118Y356318D01*
X233826Y356497D01*
X233539Y356684D01*
X233256Y356878D01*
X232978Y357079D01*
X232705Y357287D01*
X232438Y357501D01*
X232175Y357722D01*
X231918Y357949D01*
X231667Y358182D01*
X231422Y358422D01*
X231182Y358667D01*
X230949Y358918D01*
X230722Y359175D01*
X230501Y359438D01*
X230287Y359705D01*
X230079Y359978D01*
X229878Y360256D01*
X229684Y360539D01*
X229497Y360826D01*
X229318Y361118D01*
X229145Y361414D01*
X228980Y361715D01*
X228822Y362019D01*
X228671Y362327D01*
X228528Y362639D01*
X228393Y362954D01*
X228266Y363272D01*
X228147Y363594D01*
X228035Y363918D01*
X227932Y364245D01*
X227836Y364574D01*
X227749Y364906D01*
X227669Y365239D01*
X227598Y365575D01*
X227536Y365912D01*
X227481Y366250D01*
X227435Y366590D01*
X227397Y366931D01*
X227368Y367272D01*
X227347Y367615D01*
X227334Y367957D01*
X227330Y368300D01*
X231140Y368300D02*
X231143Y368549D01*
X231152Y368799D01*
X231168Y369047D01*
X231189Y369296D01*
X231216Y369544D01*
X231250Y369791D01*
X231290Y370037D01*
X231335Y370282D01*
X231387Y370526D01*
X231444Y370769D01*
X231508Y371010D01*
X231577Y371249D01*
X231653Y371487D01*
X231734Y371723D01*
X231821Y371957D01*
X231913Y372188D01*
X232012Y372417D01*
X232115Y372644D01*
X232225Y372868D01*
X232340Y373089D01*
X232460Y373308D01*
X232585Y373523D01*
X232716Y373736D01*
X232852Y373945D01*
X232993Y374150D01*
X233139Y374352D01*
X233290Y374551D01*
X233446Y374745D01*
X233607Y374936D01*
X233772Y375123D01*
X233942Y375306D01*
X234116Y375484D01*
X234294Y375658D01*
X234477Y375828D01*
X234664Y375993D01*
X234855Y376154D01*
X235049Y376310D01*
X235248Y376461D01*
X235450Y376607D01*
X235655Y376748D01*
X235864Y376884D01*
X236077Y377015D01*
X236292Y377140D01*
X236511Y377260D01*
X236732Y377375D01*
X236956Y377485D01*
X237183Y377588D01*
X237412Y377687D01*
X237643Y377779D01*
X237877Y377866D01*
X238113Y377947D01*
X238351Y378023D01*
X238590Y378092D01*
X238831Y378156D01*
X239074Y378213D01*
X239318Y378265D01*
X239563Y378310D01*
X239809Y378350D01*
X240056Y378384D01*
X240304Y378411D01*
X240553Y378432D01*
X240801Y378448D01*
X241051Y378457D01*
X241300Y378460D01*
X241549Y378457D01*
X241799Y378448D01*
X242047Y378432D01*
X242296Y378411D01*
X242544Y378384D01*
X242791Y378350D01*
X243037Y378310D01*
X243282Y378265D01*
X243526Y378213D01*
X243769Y378156D01*
X244010Y378092D01*
X244249Y378023D01*
X244487Y377947D01*
X244723Y377866D01*
X244957Y377779D01*
X245188Y377687D01*
X245417Y377588D01*
X245644Y377485D01*
X245868Y377375D01*
X246089Y377260D01*
X246308Y377140D01*
X246523Y377015D01*
X246736Y376884D01*
X246945Y376748D01*
X247150Y376607D01*
X247352Y376461D01*
X247551Y376310D01*
X247745Y376154D01*
X247936Y375993D01*
X248123Y375828D01*
X248306Y375658D01*
X248484Y375484D01*
X248658Y375306D01*
X248828Y375123D01*
X248993Y374936D01*
X249154Y374745D01*
X249310Y374551D01*
X249461Y374352D01*
X249607Y374150D01*
X249748Y373945D01*
X249884Y373736D01*
X250015Y373523D01*
X250140Y373308D01*
X250260Y373089D01*
X250375Y372868D01*
X250485Y372644D01*
X250588Y372417D01*
X250687Y372188D01*
X250779Y371957D01*
X250866Y371723D01*
X250947Y371487D01*
X251023Y371249D01*
X251092Y371010D01*
X251156Y370769D01*
X251213Y370526D01*
X251265Y370282D01*
X251310Y370037D01*
X251350Y369791D01*
X251384Y369544D01*
X251411Y369296D01*
X251432Y369047D01*
X251448Y368799D01*
X251457Y368549D01*
X251460Y368300D01*
X251457Y368051D01*
X251448Y367801D01*
X251432Y367553D01*
X251411Y367304D01*
X251384Y367056D01*
X251350Y366809D01*
X251310Y366563D01*
X251265Y366318D01*
X251213Y366074D01*
X251156Y365831D01*
X251092Y365590D01*
X251023Y365351D01*
X250947Y365113D01*
X250866Y364877D01*
X250779Y364643D01*
X250687Y364412D01*
X250588Y364183D01*
X250485Y363956D01*
X250375Y363732D01*
X250260Y363511D01*
X250140Y363292D01*
X250015Y363077D01*
X249884Y362864D01*
X249748Y362655D01*
X249607Y362450D01*
X249461Y362248D01*
X249310Y362049D01*
X249154Y361855D01*
X248993Y361664D01*
X248828Y361477D01*
X248658Y361294D01*
X248484Y361116D01*
X248306Y360942D01*
X248123Y360772D01*
X247936Y360607D01*
X247745Y360446D01*
X247551Y360290D01*
X247352Y360139D01*
X247150Y359993D01*
X246945Y359852D01*
X246736Y359716D01*
X246523Y359585D01*
X246308Y359460D01*
X246089Y359340D01*
X245868Y359225D01*
X245644Y359115D01*
X245417Y359012D01*
X245188Y358913D01*
X244957Y358821D01*
X244723Y358734D01*
X244487Y358653D01*
X244249Y358577D01*
X244010Y358508D01*
X243769Y358444D01*
X243526Y358387D01*
X243282Y358335D01*
X243037Y358290D01*
X242791Y358250D01*
X242544Y358216D01*
X242296Y358189D01*
X242047Y358168D01*
X241799Y358152D01*
X241549Y358143D01*
X241300Y358140D01*
X241051Y358143D01*
X240801Y358152D01*
X240553Y358168D01*
X240304Y358189D01*
X240056Y358216D01*
X239809Y358250D01*
X239563Y358290D01*
X239318Y358335D01*
X239074Y358387D01*
X238831Y358444D01*
X238590Y358508D01*
X238351Y358577D01*
X238113Y358653D01*
X237877Y358734D01*
X237643Y358821D01*
X237412Y358913D01*
X237183Y359012D01*
X236956Y359115D01*
X236732Y359225D01*
X236511Y359340D01*
X236292Y359460D01*
X236077Y359585D01*
X235864Y359716D01*
X235655Y359852D01*
X235450Y359993D01*
X235248Y360139D01*
X235049Y360290D01*
X234855Y360446D01*
X234664Y360607D01*
X234477Y360772D01*
X234294Y360942D01*
X234116Y361116D01*
X233942Y361294D01*
X233772Y361477D01*
X233607Y361664D01*
X233446Y361855D01*
X233290Y362049D01*
X233139Y362248D01*
X232993Y362450D01*
X232852Y362655D01*
X232716Y362864D01*
X232585Y363077D01*
X232460Y363292D01*
X232340Y363511D01*
X232225Y363732D01*
X232115Y363956D01*
X232012Y364183D01*
X231913Y364412D01*
X231821Y364643D01*
X231734Y364877D01*
X231653Y365113D01*
X231577Y365351D01*
X231508Y365590D01*
X231444Y365831D01*
X231387Y366074D01*
X231335Y366318D01*
X231290Y366563D01*
X231250Y366809D01*
X231216Y367056D01*
X231189Y367304D01*
X231168Y367553D01*
X231152Y367801D01*
X231143Y368051D01*
X231140Y368300D01*
D10*
X187300Y327300D02*
X187300Y409300D01*
X300300Y409300D02*
X300300Y327300D01*
X192800Y327300D02*
X192800Y321800D01*
X192800Y327300D02*
X187300Y327300D01*
X294800Y327300D02*
X300300Y327300D01*
X294800Y327300D02*
X294800Y321800D01*
X294800Y409300D02*
X294800Y414800D01*
X294800Y409300D02*
X300300Y409300D01*
X192800Y409300D02*
X187300Y409300D01*
X192800Y409300D02*
X192800Y414800D01*
X192800Y321800D02*
X214800Y321800D01*
X262800Y321800D02*
X294800Y321800D01*
X214800Y414800D02*
X192800Y414800D01*
X262800Y414800D02*
X294800Y414800D01*
D11*
X215519Y330581D02*
X205605Y330581D01*
X215519Y330581D02*
X215519Y335538D01*
X213867Y337191D01*
X207257Y337191D01*
X205605Y335538D01*
X205605Y330581D01*
X205605Y340404D02*
X205605Y347014D01*
X205605Y340404D02*
X215519Y340404D01*
X215519Y347014D01*
X210562Y343709D02*
X210562Y340404D01*
X205605Y355184D02*
X207257Y356837D01*
X205605Y355184D02*
X205605Y351879D01*
X207257Y350227D01*
X213867Y350227D01*
X215519Y351879D01*
X215519Y355184D01*
X213867Y356837D01*
X215519Y360050D02*
X208909Y360050D01*
X205605Y363355D01*
X208909Y366659D01*
X215519Y366659D01*
X210562Y366659D02*
X210562Y360050D01*
X207257Y369873D02*
X205605Y369873D01*
X207257Y369873D02*
X210562Y373178D01*
X207257Y376482D01*
X205605Y376482D01*
X210562Y373178D02*
X215519Y373178D01*
X210562Y379696D02*
X210562Y386305D01*
X215519Y389519D02*
X215519Y396128D01*
X215519Y389519D02*
X208909Y396128D01*
X207257Y396128D01*
X205605Y394476D01*
X205605Y391171D01*
X207257Y389519D01*
D12*
X405130Y368300D02*
X405134Y368643D01*
X405147Y368985D01*
X405168Y369328D01*
X405197Y369669D01*
X405235Y370010D01*
X405281Y370350D01*
X405336Y370688D01*
X405398Y371025D01*
X405469Y371361D01*
X405549Y371694D01*
X405636Y372026D01*
X405732Y372355D01*
X405835Y372682D01*
X405947Y373006D01*
X406066Y373328D01*
X406193Y373646D01*
X406328Y373961D01*
X406471Y374273D01*
X406622Y374581D01*
X406780Y374885D01*
X406945Y375186D01*
X407118Y375482D01*
X407297Y375774D01*
X407484Y376061D01*
X407678Y376344D01*
X407879Y376622D01*
X408087Y376895D01*
X408301Y377162D01*
X408522Y377425D01*
X408749Y377682D01*
X408982Y377933D01*
X409222Y378178D01*
X409467Y378418D01*
X409718Y378651D01*
X409975Y378878D01*
X410238Y379099D01*
X410505Y379313D01*
X410778Y379521D01*
X411056Y379722D01*
X411339Y379916D01*
X411626Y380103D01*
X411918Y380282D01*
X412214Y380455D01*
X412515Y380620D01*
X412819Y380778D01*
X413127Y380929D01*
X413439Y381072D01*
X413754Y381207D01*
X414072Y381334D01*
X414394Y381453D01*
X414718Y381565D01*
X415045Y381668D01*
X415374Y381764D01*
X415706Y381851D01*
X416039Y381931D01*
X416375Y382002D01*
X416712Y382064D01*
X417050Y382119D01*
X417390Y382165D01*
X417731Y382203D01*
X418072Y382232D01*
X418415Y382253D01*
X418757Y382266D01*
X419100Y382270D01*
X419443Y382266D01*
X419785Y382253D01*
X420128Y382232D01*
X420469Y382203D01*
X420810Y382165D01*
X421150Y382119D01*
X421488Y382064D01*
X421825Y382002D01*
X422161Y381931D01*
X422494Y381851D01*
X422826Y381764D01*
X423155Y381668D01*
X423482Y381565D01*
X423806Y381453D01*
X424128Y381334D01*
X424446Y381207D01*
X424761Y381072D01*
X425073Y380929D01*
X425381Y380778D01*
X425685Y380620D01*
X425986Y380455D01*
X426282Y380282D01*
X426574Y380103D01*
X426861Y379916D01*
X427144Y379722D01*
X427422Y379521D01*
X427695Y379313D01*
X427962Y379099D01*
X428225Y378878D01*
X428482Y378651D01*
X428733Y378418D01*
X428978Y378178D01*
X429218Y377933D01*
X429451Y377682D01*
X429678Y377425D01*
X429899Y377162D01*
X430113Y376895D01*
X430321Y376622D01*
X430522Y376344D01*
X430716Y376061D01*
X430903Y375774D01*
X431082Y375482D01*
X431255Y375186D01*
X431420Y374885D01*
X431578Y374581D01*
X431729Y374273D01*
X431872Y373961D01*
X432007Y373646D01*
X432134Y373328D01*
X432253Y373006D01*
X432365Y372682D01*
X432468Y372355D01*
X432564Y372026D01*
X432651Y371694D01*
X432731Y371361D01*
X432802Y371025D01*
X432864Y370688D01*
X432919Y370350D01*
X432965Y370010D01*
X433003Y369669D01*
X433032Y369328D01*
X433053Y368985D01*
X433066Y368643D01*
X433070Y368300D01*
X433066Y367957D01*
X433053Y367615D01*
X433032Y367272D01*
X433003Y366931D01*
X432965Y366590D01*
X432919Y366250D01*
X432864Y365912D01*
X432802Y365575D01*
X432731Y365239D01*
X432651Y364906D01*
X432564Y364574D01*
X432468Y364245D01*
X432365Y363918D01*
X432253Y363594D01*
X432134Y363272D01*
X432007Y362954D01*
X431872Y362639D01*
X431729Y362327D01*
X431578Y362019D01*
X431420Y361715D01*
X431255Y361414D01*
X431082Y361118D01*
X430903Y360826D01*
X430716Y360539D01*
X430522Y360256D01*
X430321Y359978D01*
X430113Y359705D01*
X429899Y359438D01*
X429678Y359175D01*
X429451Y358918D01*
X429218Y358667D01*
X428978Y358422D01*
X428733Y358182D01*
X428482Y357949D01*
X428225Y357722D01*
X427962Y357501D01*
X427695Y357287D01*
X427422Y357079D01*
X427144Y356878D01*
X426861Y356684D01*
X426574Y356497D01*
X426282Y356318D01*
X425986Y356145D01*
X425685Y355980D01*
X425381Y355822D01*
X425073Y355671D01*
X424761Y355528D01*
X424446Y355393D01*
X424128Y355266D01*
X423806Y355147D01*
X423482Y355035D01*
X423155Y354932D01*
X422826Y354836D01*
X422494Y354749D01*
X422161Y354669D01*
X421825Y354598D01*
X421488Y354536D01*
X421150Y354481D01*
X420810Y354435D01*
X420469Y354397D01*
X420128Y354368D01*
X419785Y354347D01*
X419443Y354334D01*
X419100Y354330D01*
X418757Y354334D01*
X418415Y354347D01*
X418072Y354368D01*
X417731Y354397D01*
X417390Y354435D01*
X417050Y354481D01*
X416712Y354536D01*
X416375Y354598D01*
X416039Y354669D01*
X415706Y354749D01*
X415374Y354836D01*
X415045Y354932D01*
X414718Y355035D01*
X414394Y355147D01*
X414072Y355266D01*
X413754Y355393D01*
X413439Y355528D01*
X413127Y355671D01*
X412819Y355822D01*
X412515Y355980D01*
X412214Y356145D01*
X411918Y356318D01*
X411626Y356497D01*
X411339Y356684D01*
X411056Y356878D01*
X410778Y357079D01*
X410505Y357287D01*
X410238Y357501D01*
X409975Y357722D01*
X409718Y357949D01*
X409467Y358182D01*
X409222Y358422D01*
X408982Y358667D01*
X408749Y358918D01*
X408522Y359175D01*
X408301Y359438D01*
X408087Y359705D01*
X407879Y359978D01*
X407678Y360256D01*
X407484Y360539D01*
X407297Y360826D01*
X407118Y361118D01*
X406945Y361414D01*
X406780Y361715D01*
X406622Y362019D01*
X406471Y362327D01*
X406328Y362639D01*
X406193Y362954D01*
X406066Y363272D01*
X405947Y363594D01*
X405835Y363918D01*
X405732Y364245D01*
X405636Y364574D01*
X405549Y364906D01*
X405469Y365239D01*
X405398Y365575D01*
X405336Y365912D01*
X405281Y366250D01*
X405235Y366590D01*
X405197Y366931D01*
X405168Y367272D01*
X405147Y367615D01*
X405134Y367957D01*
X405130Y368300D01*
X408940Y368300D02*
X408943Y368549D01*
X408952Y368799D01*
X408968Y369047D01*
X408989Y369296D01*
X409016Y369544D01*
X409050Y369791D01*
X409090Y370037D01*
X409135Y370282D01*
X409187Y370526D01*
X409244Y370769D01*
X409308Y371010D01*
X409377Y371249D01*
X409453Y371487D01*
X409534Y371723D01*
X409621Y371957D01*
X409713Y372188D01*
X409812Y372417D01*
X409915Y372644D01*
X410025Y372868D01*
X410140Y373089D01*
X410260Y373308D01*
X410385Y373523D01*
X410516Y373736D01*
X410652Y373945D01*
X410793Y374150D01*
X410939Y374352D01*
X411090Y374551D01*
X411246Y374745D01*
X411407Y374936D01*
X411572Y375123D01*
X411742Y375306D01*
X411916Y375484D01*
X412094Y375658D01*
X412277Y375828D01*
X412464Y375993D01*
X412655Y376154D01*
X412849Y376310D01*
X413048Y376461D01*
X413250Y376607D01*
X413455Y376748D01*
X413664Y376884D01*
X413877Y377015D01*
X414092Y377140D01*
X414311Y377260D01*
X414532Y377375D01*
X414756Y377485D01*
X414983Y377588D01*
X415212Y377687D01*
X415443Y377779D01*
X415677Y377866D01*
X415913Y377947D01*
X416151Y378023D01*
X416390Y378092D01*
X416631Y378156D01*
X416874Y378213D01*
X417118Y378265D01*
X417363Y378310D01*
X417609Y378350D01*
X417856Y378384D01*
X418104Y378411D01*
X418353Y378432D01*
X418601Y378448D01*
X418851Y378457D01*
X419100Y378460D01*
X419349Y378457D01*
X419599Y378448D01*
X419847Y378432D01*
X420096Y378411D01*
X420344Y378384D01*
X420591Y378350D01*
X420837Y378310D01*
X421082Y378265D01*
X421326Y378213D01*
X421569Y378156D01*
X421810Y378092D01*
X422049Y378023D01*
X422287Y377947D01*
X422523Y377866D01*
X422757Y377779D01*
X422988Y377687D01*
X423217Y377588D01*
X423444Y377485D01*
X423668Y377375D01*
X423889Y377260D01*
X424108Y377140D01*
X424323Y377015D01*
X424536Y376884D01*
X424745Y376748D01*
X424950Y376607D01*
X425152Y376461D01*
X425351Y376310D01*
X425545Y376154D01*
X425736Y375993D01*
X425923Y375828D01*
X426106Y375658D01*
X426284Y375484D01*
X426458Y375306D01*
X426628Y375123D01*
X426793Y374936D01*
X426954Y374745D01*
X427110Y374551D01*
X427261Y374352D01*
X427407Y374150D01*
X427548Y373945D01*
X427684Y373736D01*
X427815Y373523D01*
X427940Y373308D01*
X428060Y373089D01*
X428175Y372868D01*
X428285Y372644D01*
X428388Y372417D01*
X428487Y372188D01*
X428579Y371957D01*
X428666Y371723D01*
X428747Y371487D01*
X428823Y371249D01*
X428892Y371010D01*
X428956Y370769D01*
X429013Y370526D01*
X429065Y370282D01*
X429110Y370037D01*
X429150Y369791D01*
X429184Y369544D01*
X429211Y369296D01*
X429232Y369047D01*
X429248Y368799D01*
X429257Y368549D01*
X429260Y368300D01*
X429257Y368051D01*
X429248Y367801D01*
X429232Y367553D01*
X429211Y367304D01*
X429184Y367056D01*
X429150Y366809D01*
X429110Y366563D01*
X429065Y366318D01*
X429013Y366074D01*
X428956Y365831D01*
X428892Y365590D01*
X428823Y365351D01*
X428747Y365113D01*
X428666Y364877D01*
X428579Y364643D01*
X428487Y364412D01*
X428388Y364183D01*
X428285Y363956D01*
X428175Y363732D01*
X428060Y363511D01*
X427940Y363292D01*
X427815Y363077D01*
X427684Y362864D01*
X427548Y362655D01*
X427407Y362450D01*
X427261Y362248D01*
X427110Y362049D01*
X426954Y361855D01*
X426793Y361664D01*
X426628Y361477D01*
X426458Y361294D01*
X426284Y361116D01*
X426106Y360942D01*
X425923Y360772D01*
X425736Y360607D01*
X425545Y360446D01*
X425351Y360290D01*
X425152Y360139D01*
X424950Y359993D01*
X424745Y359852D01*
X424536Y359716D01*
X424323Y359585D01*
X424108Y359460D01*
X423889Y359340D01*
X423668Y359225D01*
X423444Y359115D01*
X423217Y359012D01*
X422988Y358913D01*
X422757Y358821D01*
X422523Y358734D01*
X422287Y358653D01*
X422049Y358577D01*
X421810Y358508D01*
X421569Y358444D01*
X421326Y358387D01*
X421082Y358335D01*
X420837Y358290D01*
X420591Y358250D01*
X420344Y358216D01*
X420096Y358189D01*
X419847Y358168D01*
X419599Y358152D01*
X419349Y358143D01*
X419100Y358140D01*
X418851Y358143D01*
X418601Y358152D01*
X418353Y358168D01*
X418104Y358189D01*
X417856Y358216D01*
X417609Y358250D01*
X417363Y358290D01*
X417118Y358335D01*
X416874Y358387D01*
X416631Y358444D01*
X416390Y358508D01*
X416151Y358577D01*
X415913Y358653D01*
X415677Y358734D01*
X415443Y358821D01*
X415212Y358913D01*
X414983Y359012D01*
X414756Y359115D01*
X414532Y359225D01*
X414311Y359340D01*
X414092Y359460D01*
X413877Y359585D01*
X413664Y359716D01*
X413455Y359852D01*
X413250Y359993D01*
X413048Y360139D01*
X412849Y360290D01*
X412655Y360446D01*
X412464Y360607D01*
X412277Y360772D01*
X412094Y360942D01*
X411916Y361116D01*
X411742Y361294D01*
X411572Y361477D01*
X411407Y361664D01*
X411246Y361855D01*
X411090Y362049D01*
X410939Y362248D01*
X410793Y362450D01*
X410652Y362655D01*
X410516Y362864D01*
X410385Y363077D01*
X410260Y363292D01*
X410140Y363511D01*
X410025Y363732D01*
X409915Y363956D01*
X409812Y364183D01*
X409713Y364412D01*
X409621Y364643D01*
X409534Y364877D01*
X409453Y365113D01*
X409377Y365351D01*
X409308Y365590D01*
X409244Y365831D01*
X409187Y366074D01*
X409135Y366318D01*
X409090Y366563D01*
X409050Y366809D01*
X409016Y367056D01*
X408989Y367304D01*
X408968Y367553D01*
X408952Y367801D01*
X408943Y368051D01*
X408940Y368300D01*
D10*
X365100Y327300D02*
X365100Y409300D01*
X478100Y409300D02*
X478100Y327300D01*
X370600Y327300D02*
X370600Y321800D01*
X370600Y327300D02*
X365100Y327300D01*
X472600Y327300D02*
X478100Y327300D01*
X472600Y327300D02*
X472600Y321800D01*
X472600Y409300D02*
X472600Y414800D01*
X472600Y409300D02*
X478100Y409300D01*
X370600Y409300D02*
X365100Y409300D01*
X370600Y409300D02*
X370600Y414800D01*
X370600Y321800D02*
X392600Y321800D01*
X440600Y321800D02*
X472600Y321800D01*
X392600Y414800D02*
X370600Y414800D01*
X440600Y414800D02*
X472600Y414800D01*
D11*
X385057Y337191D02*
X383405Y335538D01*
X383405Y332233D01*
X385057Y330581D01*
X386709Y330581D01*
X388362Y332233D01*
X388362Y335538D01*
X390014Y337191D01*
X391667Y337191D01*
X393319Y335538D01*
X393319Y332233D01*
X391667Y330581D01*
X391667Y340404D02*
X383405Y340404D01*
X391667Y340404D02*
X393319Y342056D01*
X393319Y345361D01*
X391667Y347014D01*
X383405Y347014D01*
X383405Y355184D02*
X385057Y356837D01*
X383405Y355184D02*
X383405Y351879D01*
X385057Y350227D01*
X386709Y350227D01*
X388362Y351879D01*
X388362Y355184D01*
X390014Y356837D01*
X391667Y356837D01*
X393319Y355184D01*
X393319Y351879D01*
X391667Y350227D01*
X393319Y363355D02*
X383405Y363355D01*
X383405Y366659D02*
X383405Y360050D01*
X386709Y369873D02*
X393319Y369873D01*
X386709Y369873D02*
X383405Y373178D01*
X386709Y376482D01*
X393319Y376482D01*
X388362Y376482D02*
X388362Y369873D01*
X393319Y379696D02*
X393319Y383001D01*
X393319Y381348D02*
X383405Y381348D01*
X383405Y379696D02*
X383405Y383001D01*
X383405Y386244D02*
X393319Y386244D01*
X393319Y392854D02*
X383405Y386244D01*
X383405Y392854D02*
X393319Y392854D01*
X388362Y396067D02*
X388362Y402677D01*
X393319Y405890D02*
X393319Y412500D01*
X393319Y405890D02*
X386709Y412500D01*
X385057Y412500D01*
X383405Y410847D01*
X383405Y407543D01*
X385057Y405890D01*
D12*
X582930Y368300D02*
X582934Y368643D01*
X582947Y368985D01*
X582968Y369328D01*
X582997Y369669D01*
X583035Y370010D01*
X583081Y370350D01*
X583136Y370688D01*
X583198Y371025D01*
X583269Y371361D01*
X583349Y371694D01*
X583436Y372026D01*
X583532Y372355D01*
X583635Y372682D01*
X583747Y373006D01*
X583866Y373328D01*
X583993Y373646D01*
X584128Y373961D01*
X584271Y374273D01*
X584422Y374581D01*
X584580Y374885D01*
X584745Y375186D01*
X584918Y375482D01*
X585097Y375774D01*
X585284Y376061D01*
X585478Y376344D01*
X585679Y376622D01*
X585887Y376895D01*
X586101Y377162D01*
X586322Y377425D01*
X586549Y377682D01*
X586782Y377933D01*
X587022Y378178D01*
X587267Y378418D01*
X587518Y378651D01*
X587775Y378878D01*
X588038Y379099D01*
X588305Y379313D01*
X588578Y379521D01*
X588856Y379722D01*
X589139Y379916D01*
X589426Y380103D01*
X589718Y380282D01*
X590014Y380455D01*
X590315Y380620D01*
X590619Y380778D01*
X590927Y380929D01*
X591239Y381072D01*
X591554Y381207D01*
X591872Y381334D01*
X592194Y381453D01*
X592518Y381565D01*
X592845Y381668D01*
X593174Y381764D01*
X593506Y381851D01*
X593839Y381931D01*
X594175Y382002D01*
X594512Y382064D01*
X594850Y382119D01*
X595190Y382165D01*
X595531Y382203D01*
X595872Y382232D01*
X596215Y382253D01*
X596557Y382266D01*
X596900Y382270D01*
X597243Y382266D01*
X597585Y382253D01*
X597928Y382232D01*
X598269Y382203D01*
X598610Y382165D01*
X598950Y382119D01*
X599288Y382064D01*
X599625Y382002D01*
X599961Y381931D01*
X600294Y381851D01*
X600626Y381764D01*
X600955Y381668D01*
X601282Y381565D01*
X601606Y381453D01*
X601928Y381334D01*
X602246Y381207D01*
X602561Y381072D01*
X602873Y380929D01*
X603181Y380778D01*
X603485Y380620D01*
X603786Y380455D01*
X604082Y380282D01*
X604374Y380103D01*
X604661Y379916D01*
X604944Y379722D01*
X605222Y379521D01*
X605495Y379313D01*
X605762Y379099D01*
X606025Y378878D01*
X606282Y378651D01*
X606533Y378418D01*
X606778Y378178D01*
X607018Y377933D01*
X607251Y377682D01*
X607478Y377425D01*
X607699Y377162D01*
X607913Y376895D01*
X608121Y376622D01*
X608322Y376344D01*
X608516Y376061D01*
X608703Y375774D01*
X608882Y375482D01*
X609055Y375186D01*
X609220Y374885D01*
X609378Y374581D01*
X609529Y374273D01*
X609672Y373961D01*
X609807Y373646D01*
X609934Y373328D01*
X610053Y373006D01*
X610165Y372682D01*
X610268Y372355D01*
X610364Y372026D01*
X610451Y371694D01*
X610531Y371361D01*
X610602Y371025D01*
X610664Y370688D01*
X610719Y370350D01*
X610765Y370010D01*
X610803Y369669D01*
X610832Y369328D01*
X610853Y368985D01*
X610866Y368643D01*
X610870Y368300D01*
X610866Y367957D01*
X610853Y367615D01*
X610832Y367272D01*
X610803Y366931D01*
X610765Y366590D01*
X610719Y366250D01*
X610664Y365912D01*
X610602Y365575D01*
X610531Y365239D01*
X610451Y364906D01*
X610364Y364574D01*
X610268Y364245D01*
X610165Y363918D01*
X610053Y363594D01*
X609934Y363272D01*
X609807Y362954D01*
X609672Y362639D01*
X609529Y362327D01*
X609378Y362019D01*
X609220Y361715D01*
X609055Y361414D01*
X608882Y361118D01*
X608703Y360826D01*
X608516Y360539D01*
X608322Y360256D01*
X608121Y359978D01*
X607913Y359705D01*
X607699Y359438D01*
X607478Y359175D01*
X607251Y358918D01*
X607018Y358667D01*
X606778Y358422D01*
X606533Y358182D01*
X606282Y357949D01*
X606025Y357722D01*
X605762Y357501D01*
X605495Y357287D01*
X605222Y357079D01*
X604944Y356878D01*
X604661Y356684D01*
X604374Y356497D01*
X604082Y356318D01*
X603786Y356145D01*
X603485Y355980D01*
X603181Y355822D01*
X602873Y355671D01*
X602561Y355528D01*
X602246Y355393D01*
X601928Y355266D01*
X601606Y355147D01*
X601282Y355035D01*
X600955Y354932D01*
X600626Y354836D01*
X600294Y354749D01*
X599961Y354669D01*
X599625Y354598D01*
X599288Y354536D01*
X598950Y354481D01*
X598610Y354435D01*
X598269Y354397D01*
X597928Y354368D01*
X597585Y354347D01*
X597243Y354334D01*
X596900Y354330D01*
X596557Y354334D01*
X596215Y354347D01*
X595872Y354368D01*
X595531Y354397D01*
X595190Y354435D01*
X594850Y354481D01*
X594512Y354536D01*
X594175Y354598D01*
X593839Y354669D01*
X593506Y354749D01*
X593174Y354836D01*
X592845Y354932D01*
X592518Y355035D01*
X592194Y355147D01*
X591872Y355266D01*
X591554Y355393D01*
X591239Y355528D01*
X590927Y355671D01*
X590619Y355822D01*
X590315Y355980D01*
X590014Y356145D01*
X589718Y356318D01*
X589426Y356497D01*
X589139Y356684D01*
X588856Y356878D01*
X588578Y357079D01*
X588305Y357287D01*
X588038Y357501D01*
X587775Y357722D01*
X587518Y357949D01*
X587267Y358182D01*
X587022Y358422D01*
X586782Y358667D01*
X586549Y358918D01*
X586322Y359175D01*
X586101Y359438D01*
X585887Y359705D01*
X585679Y359978D01*
X585478Y360256D01*
X585284Y360539D01*
X585097Y360826D01*
X584918Y361118D01*
X584745Y361414D01*
X584580Y361715D01*
X584422Y362019D01*
X584271Y362327D01*
X584128Y362639D01*
X583993Y362954D01*
X583866Y363272D01*
X583747Y363594D01*
X583635Y363918D01*
X583532Y364245D01*
X583436Y364574D01*
X583349Y364906D01*
X583269Y365239D01*
X583198Y365575D01*
X583136Y365912D01*
X583081Y366250D01*
X583035Y366590D01*
X582997Y366931D01*
X582968Y367272D01*
X582947Y367615D01*
X582934Y367957D01*
X582930Y368300D01*
X586740Y368300D02*
X586743Y368549D01*
X586752Y368799D01*
X586768Y369047D01*
X586789Y369296D01*
X586816Y369544D01*
X586850Y369791D01*
X586890Y370037D01*
X586935Y370282D01*
X586987Y370526D01*
X587044Y370769D01*
X587108Y371010D01*
X587177Y371249D01*
X587253Y371487D01*
X587334Y371723D01*
X587421Y371957D01*
X587513Y372188D01*
X587612Y372417D01*
X587715Y372644D01*
X587825Y372868D01*
X587940Y373089D01*
X588060Y373308D01*
X588185Y373523D01*
X588316Y373736D01*
X588452Y373945D01*
X588593Y374150D01*
X588739Y374352D01*
X588890Y374551D01*
X589046Y374745D01*
X589207Y374936D01*
X589372Y375123D01*
X589542Y375306D01*
X589716Y375484D01*
X589894Y375658D01*
X590077Y375828D01*
X590264Y375993D01*
X590455Y376154D01*
X590649Y376310D01*
X590848Y376461D01*
X591050Y376607D01*
X591255Y376748D01*
X591464Y376884D01*
X591677Y377015D01*
X591892Y377140D01*
X592111Y377260D01*
X592332Y377375D01*
X592556Y377485D01*
X592783Y377588D01*
X593012Y377687D01*
X593243Y377779D01*
X593477Y377866D01*
X593713Y377947D01*
X593951Y378023D01*
X594190Y378092D01*
X594431Y378156D01*
X594674Y378213D01*
X594918Y378265D01*
X595163Y378310D01*
X595409Y378350D01*
X595656Y378384D01*
X595904Y378411D01*
X596153Y378432D01*
X596401Y378448D01*
X596651Y378457D01*
X596900Y378460D01*
X597149Y378457D01*
X597399Y378448D01*
X597647Y378432D01*
X597896Y378411D01*
X598144Y378384D01*
X598391Y378350D01*
X598637Y378310D01*
X598882Y378265D01*
X599126Y378213D01*
X599369Y378156D01*
X599610Y378092D01*
X599849Y378023D01*
X600087Y377947D01*
X600323Y377866D01*
X600557Y377779D01*
X600788Y377687D01*
X601017Y377588D01*
X601244Y377485D01*
X601468Y377375D01*
X601689Y377260D01*
X601908Y377140D01*
X602123Y377015D01*
X602336Y376884D01*
X602545Y376748D01*
X602750Y376607D01*
X602952Y376461D01*
X603151Y376310D01*
X603345Y376154D01*
X603536Y375993D01*
X603723Y375828D01*
X603906Y375658D01*
X604084Y375484D01*
X604258Y375306D01*
X604428Y375123D01*
X604593Y374936D01*
X604754Y374745D01*
X604910Y374551D01*
X605061Y374352D01*
X605207Y374150D01*
X605348Y373945D01*
X605484Y373736D01*
X605615Y373523D01*
X605740Y373308D01*
X605860Y373089D01*
X605975Y372868D01*
X606085Y372644D01*
X606188Y372417D01*
X606287Y372188D01*
X606379Y371957D01*
X606466Y371723D01*
X606547Y371487D01*
X606623Y371249D01*
X606692Y371010D01*
X606756Y370769D01*
X606813Y370526D01*
X606865Y370282D01*
X606910Y370037D01*
X606950Y369791D01*
X606984Y369544D01*
X607011Y369296D01*
X607032Y369047D01*
X607048Y368799D01*
X607057Y368549D01*
X607060Y368300D01*
X607057Y368051D01*
X607048Y367801D01*
X607032Y367553D01*
X607011Y367304D01*
X606984Y367056D01*
X606950Y366809D01*
X606910Y366563D01*
X606865Y366318D01*
X606813Y366074D01*
X606756Y365831D01*
X606692Y365590D01*
X606623Y365351D01*
X606547Y365113D01*
X606466Y364877D01*
X606379Y364643D01*
X606287Y364412D01*
X606188Y364183D01*
X606085Y363956D01*
X605975Y363732D01*
X605860Y363511D01*
X605740Y363292D01*
X605615Y363077D01*
X605484Y362864D01*
X605348Y362655D01*
X605207Y362450D01*
X605061Y362248D01*
X604910Y362049D01*
X604754Y361855D01*
X604593Y361664D01*
X604428Y361477D01*
X604258Y361294D01*
X604084Y361116D01*
X603906Y360942D01*
X603723Y360772D01*
X603536Y360607D01*
X603345Y360446D01*
X603151Y360290D01*
X602952Y360139D01*
X602750Y359993D01*
X602545Y359852D01*
X602336Y359716D01*
X602123Y359585D01*
X601908Y359460D01*
X601689Y359340D01*
X601468Y359225D01*
X601244Y359115D01*
X601017Y359012D01*
X600788Y358913D01*
X600557Y358821D01*
X600323Y358734D01*
X600087Y358653D01*
X599849Y358577D01*
X599610Y358508D01*
X599369Y358444D01*
X599126Y358387D01*
X598882Y358335D01*
X598637Y358290D01*
X598391Y358250D01*
X598144Y358216D01*
X597896Y358189D01*
X597647Y358168D01*
X597399Y358152D01*
X597149Y358143D01*
X596900Y358140D01*
X596651Y358143D01*
X596401Y358152D01*
X596153Y358168D01*
X595904Y358189D01*
X595656Y358216D01*
X595409Y358250D01*
X595163Y358290D01*
X594918Y358335D01*
X594674Y358387D01*
X594431Y358444D01*
X594190Y358508D01*
X593951Y358577D01*
X593713Y358653D01*
X593477Y358734D01*
X593243Y358821D01*
X593012Y358913D01*
X592783Y359012D01*
X592556Y359115D01*
X592332Y359225D01*
X592111Y359340D01*
X591892Y359460D01*
X591677Y359585D01*
X591464Y359716D01*
X591255Y359852D01*
X591050Y359993D01*
X590848Y360139D01*
X590649Y360290D01*
X590455Y360446D01*
X590264Y360607D01*
X590077Y360772D01*
X589894Y360942D01*
X589716Y361116D01*
X589542Y361294D01*
X589372Y361477D01*
X589207Y361664D01*
X589046Y361855D01*
X588890Y362049D01*
X588739Y362248D01*
X588593Y362450D01*
X588452Y362655D01*
X588316Y362864D01*
X588185Y363077D01*
X588060Y363292D01*
X587940Y363511D01*
X587825Y363732D01*
X587715Y363956D01*
X587612Y364183D01*
X587513Y364412D01*
X587421Y364643D01*
X587334Y364877D01*
X587253Y365113D01*
X587177Y365351D01*
X587108Y365590D01*
X587044Y365831D01*
X586987Y366074D01*
X586935Y366318D01*
X586890Y366563D01*
X586850Y366809D01*
X586816Y367056D01*
X586789Y367304D01*
X586768Y367553D01*
X586752Y367801D01*
X586743Y368051D01*
X586740Y368300D01*
D10*
X542900Y327300D02*
X542900Y409300D01*
X655900Y409300D02*
X655900Y327300D01*
X548400Y327300D02*
X548400Y321800D01*
X548400Y327300D02*
X542900Y327300D01*
X650400Y327300D02*
X655900Y327300D01*
X650400Y327300D02*
X650400Y321800D01*
X650400Y409300D02*
X650400Y414800D01*
X650400Y409300D02*
X655900Y409300D01*
X548400Y409300D02*
X542900Y409300D01*
X548400Y409300D02*
X548400Y414800D01*
X548400Y321800D02*
X570400Y321800D01*
X618400Y321800D02*
X650400Y321800D01*
X570400Y414800D02*
X548400Y414800D01*
X618400Y414800D02*
X650400Y414800D01*
D11*
X571119Y330581D02*
X561205Y330581D01*
X561205Y335538D01*
X562857Y337191D01*
X566162Y337191D01*
X567814Y335538D01*
X567814Y330581D01*
X567814Y333886D02*
X571119Y337191D01*
X561205Y340404D02*
X561205Y347014D01*
X561205Y340404D02*
X571119Y340404D01*
X571119Y347014D01*
X566162Y343709D02*
X566162Y340404D01*
X561205Y350227D02*
X571119Y350227D01*
X571119Y356837D01*
X561205Y360050D02*
X561205Y366659D01*
X561205Y360050D02*
X571119Y360050D01*
X571119Y366659D01*
X566162Y363355D02*
X566162Y360050D01*
X564509Y369873D02*
X571119Y369873D01*
X564509Y369873D02*
X561205Y373178D01*
X564509Y376482D01*
X571119Y376482D01*
X566162Y376482D02*
X566162Y369873D01*
X561205Y384653D02*
X562857Y386305D01*
X561205Y384653D02*
X561205Y381348D01*
X562857Y379696D01*
X564509Y379696D01*
X566162Y381348D01*
X566162Y384653D01*
X567814Y386305D01*
X569467Y386305D01*
X571119Y384653D01*
X571119Y381348D01*
X569467Y379696D01*
X561205Y389519D02*
X561205Y396128D01*
X561205Y389519D02*
X571119Y389519D01*
X571119Y396128D01*
X566162Y392823D02*
X566162Y389519D01*
X566162Y399342D02*
X566162Y405951D01*
X571119Y409165D02*
X571119Y415774D01*
X571119Y409165D02*
X564509Y415774D01*
X562857Y415774D01*
X561205Y414122D01*
X561205Y410817D01*
X562857Y409165D01*
D13*
X798200Y65300D02*
X820350Y65300D01*
X750925Y65300D02*
X711350Y65300D01*
X711350Y94345D01*
X711350Y134620D02*
X711350Y163300D01*
X820350Y163300D02*
X820350Y65300D01*
X753005Y163300D02*
X711350Y163300D01*
X796120Y163300D02*
X820350Y163300D01*
D11*
X749161Y95552D02*
X747593Y93984D01*
X747593Y90849D01*
X749161Y89281D01*
X755431Y89281D01*
X756999Y90849D01*
X756999Y93984D01*
X755431Y95552D01*
X752296Y95552D01*
X752296Y92416D01*
X750728Y98636D02*
X756999Y98636D01*
X750728Y98636D02*
X747593Y101772D01*
X750728Y104907D01*
X756999Y104907D01*
X752296Y104907D02*
X752296Y98636D01*
X756999Y111127D02*
X747593Y111127D01*
X747593Y114262D02*
X747593Y107991D01*
X747593Y117347D02*
X747593Y123617D01*
X747593Y117347D02*
X756999Y117347D01*
X756999Y123617D01*
X752296Y120482D02*
X752296Y117347D01*
X750728Y126702D02*
X747593Y129837D01*
X756999Y129837D01*
X756999Y126702D02*
X756999Y132972D01*
D13*
X925200Y65300D02*
X947350Y65300D01*
X877925Y65300D02*
X838350Y65300D01*
X838350Y94345D01*
X838350Y134620D02*
X838350Y163300D01*
X947350Y163300D02*
X947350Y65300D01*
X880005Y163300D02*
X838350Y163300D01*
X923120Y163300D02*
X947350Y163300D01*
D11*
X877649Y70231D02*
X868243Y70231D01*
X877649Y76502D01*
X868243Y76502D01*
X868243Y81154D02*
X868243Y84289D01*
X868243Y81154D02*
X869811Y79586D01*
X876081Y79586D01*
X877649Y81154D01*
X877649Y84289D01*
X876081Y85857D01*
X869811Y85857D01*
X868243Y84289D01*
X868243Y88941D02*
X877649Y88941D01*
X868243Y88941D02*
X868243Y93644D01*
X869811Y95212D01*
X872946Y95212D01*
X874514Y93644D01*
X874514Y88941D01*
X874514Y92077D02*
X877649Y95212D01*
X877649Y98297D02*
X868243Y98297D01*
X871378Y101432D01*
X868243Y104567D01*
X877649Y104567D01*
X872946Y107652D02*
X872946Y113922D01*
X868243Y118575D02*
X868243Y121710D01*
X868243Y118575D02*
X869811Y117007D01*
X876081Y117007D01*
X877649Y118575D01*
X877649Y121710D01*
X876081Y123278D01*
X869811Y123278D01*
X868243Y121710D01*
X868243Y126362D02*
X876081Y126362D01*
X877649Y127930D01*
X877649Y131065D01*
X876081Y132633D01*
X868243Y132633D01*
X868243Y138853D02*
X877649Y138853D01*
X868243Y141988D02*
X868243Y135717D01*
X871378Y145073D02*
X868243Y148208D01*
X877649Y148208D01*
X877649Y145073D02*
X877649Y151343D01*
D13*
X1052200Y65300D02*
X1074350Y65300D01*
X1004925Y65300D02*
X965350Y65300D01*
X965350Y94345D01*
X965350Y134620D02*
X965350Y163300D01*
X1074350Y163300D02*
X1074350Y65300D01*
X1007005Y163300D02*
X965350Y163300D01*
X1050120Y163300D02*
X1074350Y163300D01*
D11*
X1010999Y86066D02*
X1010999Y82931D01*
X1010999Y84499D02*
X1001593Y84499D01*
X1001593Y86066D02*
X1001593Y82931D01*
X1001593Y89168D02*
X1010999Y89168D01*
X1010999Y95438D02*
X1001593Y89168D01*
X1001593Y95438D02*
X1010999Y95438D01*
X1007864Y98523D02*
X1001593Y98523D01*
X1007864Y98523D02*
X1010999Y101658D01*
X1007864Y104794D01*
X1001593Y104794D01*
X1006296Y107878D02*
X1006296Y114149D01*
X1001593Y118801D02*
X1001593Y121936D01*
X1001593Y118801D02*
X1003161Y117233D01*
X1009431Y117233D01*
X1010999Y118801D01*
X1010999Y121936D01*
X1009431Y123504D01*
X1003161Y123504D01*
X1001593Y121936D01*
X1001593Y126589D02*
X1009431Y126589D01*
X1010999Y128156D01*
X1010999Y131292D01*
X1009431Y132859D01*
X1001593Y132859D01*
X1001593Y139079D02*
X1010999Y139079D01*
X1001593Y135944D02*
X1001593Y142214D01*
X1004728Y145299D02*
X1001593Y148434D01*
X1010999Y148434D01*
X1010999Y145299D02*
X1010999Y151570D01*
D13*
X820350Y319300D02*
X798200Y319300D01*
X750925Y319300D02*
X711350Y319300D01*
X711350Y348345D01*
X711350Y388620D02*
X711350Y417300D01*
X820350Y417300D02*
X820350Y319300D01*
X753005Y417300D02*
X711350Y417300D01*
X796120Y417300D02*
X820350Y417300D01*
D11*
X749161Y349552D02*
X747593Y347984D01*
X747593Y344849D01*
X749161Y343281D01*
X755431Y343281D01*
X756999Y344849D01*
X756999Y347984D01*
X755431Y349552D01*
X752296Y349552D01*
X752296Y346416D01*
X750728Y352636D02*
X756999Y352636D01*
X750728Y352636D02*
X747593Y355772D01*
X750728Y358907D01*
X756999Y358907D01*
X752296Y358907D02*
X752296Y352636D01*
X756999Y365127D02*
X747593Y365127D01*
X747593Y368262D02*
X747593Y361991D01*
X747593Y371347D02*
X747593Y377617D01*
X747593Y371347D02*
X756999Y371347D01*
X756999Y377617D01*
X752296Y374482D02*
X752296Y371347D01*
X756999Y380702D02*
X756999Y386972D01*
X756999Y380702D02*
X750728Y386972D01*
X749161Y386972D01*
X747593Y385405D01*
X747593Y382269D01*
X749161Y380702D01*
D13*
X925200Y319300D02*
X947350Y319300D01*
X877925Y319300D02*
X838350Y319300D01*
X838350Y348345D01*
X838350Y388620D02*
X838350Y417300D01*
X947350Y417300D02*
X947350Y319300D01*
X880005Y417300D02*
X838350Y417300D01*
X923120Y417300D02*
X947350Y417300D01*
D11*
X877649Y324231D02*
X868243Y324231D01*
X877649Y330502D01*
X868243Y330502D01*
X868243Y335154D02*
X868243Y338289D01*
X868243Y335154D02*
X869811Y333586D01*
X876081Y333586D01*
X877649Y335154D01*
X877649Y338289D01*
X876081Y339857D01*
X869811Y339857D01*
X868243Y338289D01*
X868243Y342941D02*
X877649Y342941D01*
X868243Y342941D02*
X868243Y347644D01*
X869811Y349212D01*
X872946Y349212D01*
X874514Y347644D01*
X874514Y342941D01*
X874514Y346077D02*
X877649Y349212D01*
X877649Y352297D02*
X868243Y352297D01*
X871378Y355432D01*
X868243Y358567D01*
X877649Y358567D01*
X872946Y361652D02*
X872946Y367922D01*
X868243Y372575D02*
X868243Y375710D01*
X868243Y372575D02*
X869811Y371007D01*
X876081Y371007D01*
X877649Y372575D01*
X877649Y375710D01*
X876081Y377278D01*
X869811Y377278D01*
X868243Y375710D01*
X868243Y380362D02*
X876081Y380362D01*
X877649Y381930D01*
X877649Y385065D01*
X876081Y386633D01*
X868243Y386633D01*
X868243Y392853D02*
X877649Y392853D01*
X868243Y395988D02*
X868243Y389717D01*
X877649Y399073D02*
X877649Y405343D01*
X877649Y399073D02*
X871378Y405343D01*
X869811Y405343D01*
X868243Y403776D01*
X868243Y400640D01*
X869811Y399073D01*
D13*
X1052200Y319300D02*
X1074350Y319300D01*
X1004925Y319300D02*
X965350Y319300D01*
X965350Y348345D01*
X965350Y388620D02*
X965350Y417300D01*
X1074350Y417300D02*
X1074350Y319300D01*
X1007005Y417300D02*
X965350Y417300D01*
X1050120Y417300D02*
X1074350Y417300D01*
D11*
X1010999Y340066D02*
X1010999Y336931D01*
X1010999Y338499D02*
X1001593Y338499D01*
X1001593Y340066D02*
X1001593Y336931D01*
X1001593Y343168D02*
X1010999Y343168D01*
X1010999Y349438D02*
X1001593Y343168D01*
X1001593Y349438D02*
X1010999Y349438D01*
X1007864Y352523D02*
X1001593Y352523D01*
X1007864Y352523D02*
X1010999Y355658D01*
X1007864Y358794D01*
X1001593Y358794D01*
X1006296Y361878D02*
X1006296Y368149D01*
X1001593Y372801D02*
X1001593Y375936D01*
X1001593Y372801D02*
X1003161Y371233D01*
X1009431Y371233D01*
X1010999Y372801D01*
X1010999Y375936D01*
X1009431Y377504D01*
X1003161Y377504D01*
X1001593Y375936D01*
X1001593Y380589D02*
X1009431Y380589D01*
X1010999Y382156D01*
X1010999Y385292D01*
X1009431Y386859D01*
X1001593Y386859D01*
X1001593Y393079D02*
X1010999Y393079D01*
X1001593Y389944D02*
X1001593Y396214D01*
X1010999Y399299D02*
X1010999Y405570D01*
X1010999Y399299D02*
X1004728Y405570D01*
X1003161Y405570D01*
X1001593Y404002D01*
X1001593Y400867D01*
X1003161Y399299D01*
D14*
X463550Y12700D02*
X450850Y12700D01*
X444500Y19050D01*
X444500Y31750D01*
X450850Y38100D01*
X444500Y19050D02*
X438150Y12700D01*
X425450Y12700D01*
X419100Y19050D01*
X419100Y31750D01*
X425450Y38100D01*
X438150Y38100D01*
X444500Y31750D01*
X488950Y12700D02*
X495300Y19050D01*
X488950Y12700D02*
X476250Y12700D01*
X469900Y19050D01*
X469900Y31750D01*
X476250Y38100D01*
X488950Y38100D01*
X495300Y31750D01*
X469900Y19050D02*
X463550Y12700D01*
X469900Y31750D02*
X463550Y38100D01*
X450850Y38100D01*
X527050Y12700D02*
X539750Y12700D01*
X527050Y12700D02*
X520700Y19050D01*
X520700Y31750D01*
X527050Y38100D01*
X520700Y19050D02*
X514350Y12700D01*
X501650Y12700D01*
X495300Y19050D01*
X495300Y31750D01*
X501650Y38100D01*
X514350Y38100D01*
X520700Y31750D01*
X546100Y31750D02*
X546100Y19050D01*
X539750Y12700D01*
X546100Y31750D02*
X539750Y38100D01*
X527050Y38100D01*
X412750Y12700D02*
X400050Y12700D01*
X393700Y19050D01*
X393700Y31750D01*
X400050Y38100D01*
X419100Y19050D02*
X412750Y12700D01*
X419100Y31750D02*
X412750Y38100D01*
X400050Y38100D01*
D13*
X552323Y20830D02*
X554230Y18923D01*
X556136Y18923D01*
X558043Y20830D01*
X558043Y30363D01*
X556136Y30363D02*
X559950Y30363D01*
X564017Y30363D02*
X564017Y18923D01*
X564017Y30363D02*
X569737Y30363D01*
X571643Y28456D01*
X571643Y24643D01*
X569737Y22736D01*
X564017Y22736D01*
X575711Y28456D02*
X577618Y30363D01*
X581431Y30363D01*
X583337Y28456D01*
X583337Y26550D01*
X581431Y24643D01*
X583337Y22736D01*
X583337Y20830D01*
X581431Y18923D01*
X577618Y18923D01*
X575711Y20830D01*
X575711Y22736D01*
X577618Y24643D01*
X575711Y26550D01*
X575711Y28456D01*
X577618Y24643D02*
X581431Y24643D01*
D14*
X146050Y12700D02*
X133350Y12700D01*
X127000Y19050D01*
X127000Y31750D01*
X133350Y38100D01*
X127000Y19050D02*
X120650Y12700D01*
X107950Y12700D01*
X101600Y19050D01*
X101600Y31750D01*
X107950Y38100D01*
X120650Y38100D01*
X127000Y31750D01*
X152400Y31750D02*
X152400Y19050D01*
X146050Y12700D01*
X152400Y31750D02*
X146050Y38100D01*
X133350Y38100D01*
X101600Y19050D02*
X95250Y12700D01*
X82550Y12700D01*
X76200Y19050D01*
X76200Y31750D01*
X82550Y38100D01*
X95250Y38100D01*
X101600Y31750D01*
D13*
X158623Y20830D02*
X160530Y18923D01*
X162436Y18923D01*
X164343Y20830D01*
X164343Y30363D01*
X162436Y30363D02*
X166250Y30363D01*
X170317Y30363D02*
X170317Y18923D01*
X170317Y30363D02*
X176037Y30363D01*
X177943Y28456D01*
X177943Y24643D01*
X176037Y22736D01*
X170317Y22736D01*
X182011Y20830D02*
X183918Y18923D01*
X187731Y18923D01*
X189637Y20830D01*
X189637Y28456D01*
X187731Y30363D01*
X183918Y30363D01*
X182011Y28456D01*
X182011Y26550D01*
X183918Y24643D01*
X189637Y24643D01*
D14*
X882650Y38100D02*
X895350Y38100D01*
X901700Y31750D01*
X901700Y19050D01*
X895350Y12700D01*
X876300Y19050D02*
X876300Y31750D01*
X882650Y38100D01*
X876300Y19050D02*
X882650Y12700D01*
X895350Y12700D01*
X901700Y31750D02*
X908050Y38100D01*
X920750Y38100D01*
X927100Y31750D01*
X927100Y19050D01*
X920750Y12700D01*
X908050Y12700D01*
X901700Y19050D01*
D13*
X933323Y20830D02*
X935230Y18923D01*
X937136Y18923D01*
X939043Y20830D01*
X939043Y30363D01*
X937136Y30363D02*
X940950Y30363D01*
X945017Y30363D02*
X945017Y18923D01*
X945017Y30363D02*
X950737Y30363D01*
X952643Y28456D01*
X952643Y24643D01*
X950737Y22736D01*
X945017Y22736D01*
X956711Y26550D02*
X960524Y30363D01*
X960524Y18923D01*
X956711Y18923D02*
X964337Y18923D01*
X968405Y20830D02*
X968405Y28456D01*
X970312Y30363D01*
X974125Y30363D01*
X976031Y28456D01*
X976031Y20830D01*
X974125Y18923D01*
X970312Y18923D01*
X968405Y20830D01*
X976031Y28456D01*
D14*
X488950Y469900D02*
X476250Y469900D01*
X488950Y469900D02*
X495300Y463550D01*
X495300Y450850D01*
X488950Y444500D01*
X495300Y463550D02*
X501650Y469900D01*
X514350Y469900D01*
X520700Y463550D01*
X520700Y450850D01*
X514350Y444500D01*
X501650Y444500D01*
X495300Y450850D01*
X450850Y469900D02*
X444500Y463550D01*
X450850Y469900D02*
X463550Y469900D01*
X469900Y463550D01*
X469900Y450850D01*
X463550Y444500D01*
X450850Y444500D01*
X444500Y450850D01*
X469900Y463550D02*
X476250Y469900D01*
X469900Y450850D02*
X476250Y444500D01*
X488950Y444500D01*
X412750Y469900D02*
X400050Y469900D01*
X412750Y469900D02*
X419100Y463550D01*
X419100Y450850D01*
X412750Y444500D01*
X419100Y463550D02*
X425450Y469900D01*
X438150Y469900D01*
X444500Y463550D01*
X444500Y450850D01*
X438150Y444500D01*
X425450Y444500D01*
X419100Y450850D01*
X393700Y450850D02*
X393700Y463550D01*
X400050Y469900D01*
X393700Y450850D02*
X400050Y444500D01*
X412750Y444500D01*
X527050Y469900D02*
X539750Y469900D01*
X546100Y463550D01*
X546100Y450850D01*
X539750Y444500D01*
X520700Y463550D02*
X527050Y469900D01*
X520700Y450850D02*
X527050Y444500D01*
X539750Y444500D01*
D13*
X552323Y452630D02*
X554230Y450723D01*
X556136Y450723D01*
X558043Y452630D01*
X558043Y462163D01*
X556136Y462163D02*
X559950Y462163D01*
X564017Y462163D02*
X564017Y450723D01*
X564017Y462163D02*
X569737Y462163D01*
X571643Y460256D01*
X571643Y456443D01*
X569737Y454536D01*
X564017Y454536D01*
X581431Y450723D02*
X581431Y462163D01*
X575711Y456443D01*
X583337Y456443D01*
D14*
X908050Y444500D02*
X920750Y444500D01*
X908050Y444500D02*
X901700Y450850D01*
X901700Y463550D01*
X908050Y469900D01*
X927100Y463550D02*
X927100Y450850D01*
X920750Y444500D01*
X927100Y463550D02*
X920750Y469900D01*
X908050Y469900D01*
X901700Y450850D02*
X895350Y444500D01*
X882650Y444500D01*
X876300Y450850D01*
X876300Y463550D01*
X882650Y469900D01*
X895350Y469900D01*
X901700Y463550D01*
D13*
X933323Y452630D02*
X935230Y450723D01*
X937136Y450723D01*
X939043Y452630D01*
X939043Y462163D01*
X937136Y462163D02*
X940950Y462163D01*
X945017Y462163D02*
X945017Y450723D01*
X945017Y462163D02*
X950737Y462163D01*
X952643Y460256D01*
X952643Y456443D01*
X950737Y454536D01*
X945017Y454536D01*
X956711Y458350D02*
X960524Y462163D01*
X960524Y450723D01*
X956711Y450723D02*
X964337Y450723D01*
D14*
X95250Y469900D02*
X82550Y469900D01*
X95250Y469900D02*
X101600Y463550D01*
X101600Y450850D01*
X95250Y444500D01*
X101600Y463550D02*
X107950Y469900D01*
X120650Y469900D01*
X127000Y463550D01*
X127000Y450850D01*
X120650Y444500D01*
X107950Y444500D01*
X101600Y450850D01*
X76200Y450850D02*
X76200Y463550D01*
X82550Y469900D01*
X76200Y450850D02*
X82550Y444500D01*
X95250Y444500D01*
X127000Y463550D02*
X133350Y469900D01*
X146050Y469900D01*
X152400Y463550D01*
X152400Y450850D01*
X146050Y444500D01*
X133350Y444500D01*
X127000Y450850D01*
D13*
X158623Y452630D02*
X160530Y450723D01*
X162436Y450723D01*
X164343Y452630D01*
X164343Y462163D01*
X162436Y462163D02*
X166250Y462163D01*
X170317Y462163D02*
X170317Y450723D01*
X170317Y462163D02*
X176037Y462163D01*
X177943Y460256D01*
X177943Y456443D01*
X176037Y454536D01*
X170317Y454536D01*
X182011Y450723D02*
X189637Y450723D01*
X182011Y450723D02*
X189637Y458350D01*
X189637Y460256D01*
X187731Y462163D01*
X183918Y462163D01*
X182011Y460256D01*
D14*
X920750Y260350D02*
X920750Y247650D01*
X914400Y241300D01*
X901700Y241300D01*
X895350Y247650D01*
X901700Y266700D02*
X914400Y266700D01*
X920750Y260350D01*
X901700Y266700D02*
X895350Y260350D01*
X895350Y247650D01*
X914400Y241300D02*
X920750Y234950D01*
X920750Y222250D01*
X914400Y215900D01*
X901700Y215900D01*
X895350Y222250D01*
X895350Y234950D01*
X901700Y241300D01*
D13*
X926973Y236730D02*
X928880Y234823D01*
X930786Y234823D01*
X932693Y236730D01*
X932693Y246263D01*
X930786Y246263D02*
X934600Y246263D01*
X938667Y246263D02*
X938667Y234823D01*
X938667Y246263D02*
X944387Y246263D01*
X946293Y244356D01*
X946293Y240543D01*
X944387Y238636D01*
X938667Y238636D01*
X950361Y246263D02*
X957987Y246263D01*
X950361Y246263D02*
X950361Y240543D01*
X954174Y242450D01*
X956081Y242450D01*
X957987Y240543D01*
X957987Y236730D01*
X956081Y234823D01*
X952268Y234823D01*
X950361Y236730D01*
M02*
