G04 EAGLE Gerber RS-274X export*
G75*
%MOMM*%
%FSLAX34Y34*%
%LPD*%
%INSoldermask Top*%
%IPPOS*%
%AMOC8*
5,1,8,0,0,1.08239X$1,22.5*%
G01*
%ADD10C,3.416300*%
%ADD11R,1.879600X1.879600*%
%ADD12P,2.034460X8X22.500000*%
%ADD13R,3.319200X3.319200*%
%ADD14P,4.278904X8X202.500000*%
%ADD15P,4.278904X8X112.500000*%
%ADD16C,1.727200*%
%ADD17R,1.209600X1.209600*%


D10*
X25400Y25400D03*
X25400Y457200D03*
X1054100Y457200D03*
X1054100Y25400D03*
D11*
X133500Y89300D03*
D12*
X133500Y114300D03*
X133500Y139300D03*
D13*
X63500Y159300D03*
X63500Y69300D03*
D11*
X311300Y89300D03*
D12*
X311300Y114300D03*
X311300Y139300D03*
D13*
X241300Y159300D03*
X241300Y69300D03*
D11*
X489100Y89300D03*
D12*
X489100Y114300D03*
X489100Y139300D03*
D13*
X419100Y159300D03*
X419100Y69300D03*
D11*
X666900Y89300D03*
D12*
X666900Y114300D03*
X666900Y139300D03*
D13*
X596900Y159300D03*
X596900Y69300D03*
D11*
X133500Y343300D03*
D12*
X133500Y368300D03*
X133500Y393300D03*
D13*
X63500Y413300D03*
X63500Y323300D03*
D11*
X311300Y343300D03*
D12*
X311300Y368300D03*
X311300Y393300D03*
D13*
X241300Y413300D03*
X241300Y323300D03*
D11*
X489100Y343300D03*
D12*
X489100Y368300D03*
X489100Y393300D03*
D13*
X419100Y413300D03*
X419100Y323300D03*
D11*
X666900Y343300D03*
D12*
X666900Y368300D03*
X666900Y393300D03*
D13*
X596900Y413300D03*
X596900Y323300D03*
D14*
X773350Y67110D03*
X774350Y161760D03*
D15*
X801350Y114300D03*
X720890Y114300D03*
D14*
X900350Y67110D03*
X901350Y161760D03*
D15*
X928350Y114300D03*
X847890Y114300D03*
D14*
X1027350Y67110D03*
X1028350Y161760D03*
D15*
X1055350Y114300D03*
X974890Y114300D03*
D14*
X773350Y321110D03*
X774350Y415760D03*
D15*
X801350Y368300D03*
X720890Y368300D03*
D14*
X900350Y321110D03*
X901350Y415760D03*
D15*
X928350Y368300D03*
X847890Y368300D03*
D14*
X1027350Y321110D03*
X1028350Y415760D03*
D15*
X1055350Y368300D03*
X974890Y368300D03*
D16*
X533400Y33020D02*
X533400Y17780D01*
X508000Y17780D02*
X508000Y33020D01*
X482600Y33020D02*
X482600Y17780D01*
X457200Y17780D02*
X457200Y33020D01*
X431800Y33020D02*
X431800Y17780D01*
X406400Y17780D02*
X406400Y33020D01*
X139700Y33020D02*
X139700Y17780D01*
X114300Y17780D02*
X114300Y33020D01*
X88900Y33020D02*
X88900Y17780D01*
X889000Y17780D02*
X889000Y33020D01*
X914400Y33020D02*
X914400Y17780D01*
X406400Y449580D02*
X406400Y464820D01*
X431800Y464820D02*
X431800Y449580D01*
X457200Y449580D02*
X457200Y464820D01*
X482600Y464820D02*
X482600Y449580D01*
X508000Y449580D02*
X508000Y464820D01*
X533400Y464820D02*
X533400Y449580D01*
X914400Y449580D02*
X914400Y464820D01*
X889000Y464820D02*
X889000Y449580D01*
X88900Y449580D02*
X88900Y464820D01*
X114300Y464820D02*
X114300Y449580D01*
X139700Y449580D02*
X139700Y464820D01*
X900430Y254000D02*
X915670Y254000D01*
X915670Y228600D02*
X900430Y228600D01*
D17*
X63500Y241300D03*
X292100Y444500D03*
X304800Y31750D03*
X685800Y31750D03*
X679450Y444500D03*
X711200Y292100D03*
X1009650Y260350D03*
X393700Y222250D03*
M02*
